<?xml version="1.0" encoding="utf-8"?>
<!-- Generator: Adobe Illustrator 27.0.0, SVG Export Plug-In . SVG Version: 6.00 Build 0)  -->
<svg version="1.1" id="Layer_1" xmlns="http://www.w3.org/2000/svg" xmlns:xlink="http://www.w3.org/1999/xlink" x="0px" y="0px"
	 viewBox="0 0 65 65" style="enable-background:new 0 0 65 65;" xml:space="preserve">
<style type="text/css">
	.st0{fill:none;stroke:#FFFFFF;stroke-width:1.3698;stroke-miterlimit:10;}
	.st1{fill:#FFFFFF;}
	.st2{fill:#371A45;}
	.st3{opacity:0.35;}
	.st4{opacity:0.7;}
	.st5{fill:#111A28;}
	.st6{opacity:0.43;}
	.st7{fill:#22A7F0;}
	.st8{fill:#F9195A;}
	.st9{opacity:0.5;}
	.st10{opacity:0.3;}
	.st11{fill:#102770;}
	.st12{fill:#FCE5E5;}
</style>
<circle class="st0" cx="32.5" cy="32.5" r="31.8"/>
<g>
	<g>
		<g>
			<path class="st1" d="M27.7,31v11.5c0,0.7,0.2,1.3,0.5,1.8c0.6,1.1,1.9,1.9,3.2,1.9h10.7c1.3,0,2.5-0.7,3.2-1.8
				c0.3-0.6,0.5-1.2,0.5-1.9V31c0-0.3,0-0.5-0.1-0.7c-0.1-0.7-0.4-1.3-0.9-1.7c-0.7-0.8-1.7-1.2-2.8-1.2H31.4c-1.6,0-3,1-3.5,2.4
				C27.8,30.1,27.7,30.5,27.7,31z"/>
		</g>
		<g>
			<path class="st2" d="M42.1,46.4H31.4c-2.2,0-4-1.8-4-4V31c0-2.2,1.8-4,4-4h10.7c2.2,0,4,1.8,4,4v11.5
				C46,44.6,44.3,46.4,42.1,46.4z M31.4,27.5c-1.9,0-3.4,1.5-3.4,3.4v11.5c0,1.9,1.5,3.4,3.4,3.4h10.7c1.9,0,3.4-1.5,3.4-3.4V31
				c0-1.9-1.5-3.4-3.4-3.4H31.4z"/>
		</g>
		<g>
			<path class="st1" d="M30.1,28.4c0,0-4.6,5.3-4.6,9.6c0,3.8,4.6,5,4.6,5l6.4-10.8L30.1,28.4z"/>
		</g>
		<g>
			<path class="st1" d="M25.4,38c0,3.8,4.6,5,4.6,5l0.2-0.3l6.2-10.6l-4.8-2.9l-1.6-0.9C30.1,28.4,25.4,33.6,25.4,38z"/>
		</g>
		<g class="st3">
			<path class="st2" d="M27.4,38.5c0,2.2,1.5,3.5,2.8,4.3l6.2-10.6l-4.8-2.9C30.5,30.6,27.4,34.9,27.4,38.5z"/>
		</g>
		<g>
			<path class="st2" d="M30.2,43.4L30,43.3c0,0-1.2-0.3-2.4-1.2c-1.6-1.1-2.4-2.5-2.4-4.2c0-4.4,4.5-9.6,4.7-9.8L30,28l6.8,4.1
				L30.2,43.4z M30.1,28.7c-0.8,0.9-4.4,5.5-4.4,9.3c0,3.1,3.4,4.4,4.2,4.7l6.2-10.4L30.1,28.7z"/>
		</g>
		<g>
			<path class="st1" d="M43.8,34.7c0,0,2,2.5,5.1,1.9c3.3-0.6,2.7-6,2.7-6l-4.9-1.9c0,0,0.3,1.7-0.4,1.7c-0.8,0-2.2-1.9-3.5-2.5
				L43.8,34.7z"/>
		</g>
		<g class="st3">
			<path class="st2" d="M43.1,30.1l0.7,4.6c0,0,2,2.5,5.1,1.9c3.3-0.6,2.7-6,2.7-6l-2.3,1.2c1.5,0.3,1.3,3.1-1,3.5
				c-3.1,0.5-5-4.4-5-4.4L43.1,30.1z"/>
		</g>
		<g>
			<path class="st2" d="M48,37c-2.7,0-4.3-2-4.4-2.1c-0.1-0.1-0.1-0.3,0-0.4c0.1-0.1,0.3-0.1,0.4,0l0,0c0,0,1.9,2.3,4.8,1.8
				c2.7-0.5,2.5-4.6,2.5-5.5L47,29.2c0,0.4,0,1-0.2,1.3c-0.1,0.2-0.3,0.2-0.5,0.2c0,0,0,0,0,0c-0.5,0-1.2-0.6-1.9-1.2
				c-0.6-0.5-1.2-1-1.7-1.3c-0.1-0.1-0.2-0.2-0.1-0.4c0.1-0.1,0.2-0.2,0.4-0.1c0.6,0.3,1.2,0.8,1.9,1.4c0.6,0.5,1.2,1.1,1.5,1.1
				c0,0,0,0,0,0c0,0,0.1,0,0.1,0c0.2-0.2,0.1-0.9,0.1-1.3l-0.1-0.5l5.6,2.1l0,0.2c0,0.2,0.6,5.7-2.9,6.3C48.6,37,48.3,37,48,37z"/>
		</g>
		<g class="st3">
			<path class="st2" d="M40.3,48.9C40.3,48.9,40.2,48.9,40.3,48.9L40.3,48.9C40.2,48.9,40.3,48.9,40.3,48.9z"/>
		</g>
		<g class="st3">
			<path class="st2" d="M36.5,40.4c-0.1,0.1-0.2,0.2-0.2,0.4C36.3,40.7,36.4,40.5,36.5,40.4z"/>
		</g>
		<g>
			<path class="st1" d="M26.9,55.4c0,0,0,0.1,0,0.1c0.2,1.4,1.9,1.9,4.8,1.5c1.3-0.2,3.2-0.4,3.6-1.4c1-2.1,0-6.4,0.1-9.1v0
				c0,0,0.5,0.1,1.2,0.1c0.7,0,1.2-0.1,1.2-0.1c0,0,0,0,0,0.1c0.1,2.7-0.9,7,0.1,9.1c0.5,1.1,2.3,1.3,3.6,1.4
				c2.9,0.4,4.6-0.1,4.8-1.5c0,0,0-0.1,0-0.1c0.2-1.7-2.2-2.5-2.2-2.5s0.5-3.6,0.9-6.9c0.1-1.4,0.2-2.8,0.1-4.2c0-0.4,0-0.7,0-1.1
				c0-0.5-0.1-1-0.1-1.5c0-0.4-0.1-0.9-0.1-1.3c-0.2-1.6-0.5-3.1-0.7-4.5c-0.2-1.2-0.5-2.3-0.7-3.1c0-0.2-0.1-0.4-0.1-0.5
				c-0.3-1-0.4-1.6-0.4-1.6H30.4c0,0-0.2,0.6-0.4,1.6c-0.2,0.6-0.3,1.3-0.5,2.1c-0.1,0.3-0.1,0.7-0.2,1c-0.3,1.5-0.6,3.1-0.8,4.9
				c-0.1,0.4-0.1,0.8-0.1,1.3c0,0.5-0.1,1.1-0.1,1.6c0,0.4,0,0.8-0.1,1.1c0,0.3,0,0.5,0,0.8c0,1.1,0,2.3,0.1,3.3
				c0.3,3.3,0.9,6.9,0.9,6.9S26.8,53.7,26.9,55.4z"/>
		</g>
		<g class="st3">
			<path class="st2" d="M38,55.6c0.5,1.1,2.3,1.3,3.6,1.4c2.9,0.4,4.6-0.1,4.8-1.5c-2.4,1-6.6,0.4-7.4-0.8c-0.9-1.6-1.1-3.1,0.4-5.1
				c1.5-2,1.6-4.5,1.6-4.5c-0.7,0.5-2.1,1.1-3.1,1.4C38,49.2,37,53.5,38,55.6z"/>
		</g>
		<g class="st3">
			<path class="st2" d="M26.9,55.5c0.2,1.4,1.9,1.9,4.8,1.5c1.3-0.2,3.2-0.4,3.7-1.4c1-2.1,0-6.4,0.1-9.1c-0.8-0.3-2.3-0.8-3.1-1.4
				c0,0-0.4,1.8,1.3,4.3c1.4,2,1.5,3.6,0.5,5.2C33.5,55.7,29.6,56.2,26.9,55.5z"/>
		</g>
		<g>
			<path class="st2" d="M43.6,30.2c0.3,0.9,0.6,1.8,0.8,2.8c0.1,0.5,0.2,0.9,0.3,1.4c0,0.2,0.1,0.5,0.1,0.7l0.1,0.7
				c0,0.2,0.1,0.5,0.1,0.7l0.1,0.7c0,0.2,0.1,0.5,0.1,0.7c0,0.2,0.1,0.5,0.1,0.7c0.1,1,0.2,1.9,0.2,2.9c0,1,0,1.9,0,2.9l0,0.4l0,0.2
				l0,0.2l-0.1,0.7c0,0.5-0.1,0.9-0.2,1.4c-0.2,1.9-0.5,3.8-0.7,5.7l-0.2-0.3c0.1,0,0.2,0.1,0.4,0.1c0.1,0.1,0.2,0.1,0.3,0.2
				c0.2,0.1,0.4,0.2,0.6,0.4c0.2,0.2,0.4,0.3,0.6,0.5c0.2,0.2,0.3,0.4,0.4,0.7c0.1,0.3,0.1,0.5,0.1,0.8c0,0.3-0.1,0.5-0.2,0.8
				c-0.1,0.2-0.3,0.5-0.5,0.6c-0.2,0.2-0.4,0.3-0.7,0.4c-0.5,0.2-1,0.2-1.5,0.3c-0.5,0-1,0-1.4,0c-0.2,0-0.5,0-0.7-0.1L41,57.2
				c-0.5-0.1-0.9-0.1-1.4-0.3c-0.2-0.1-0.5-0.1-0.7-0.2c-0.2-0.1-0.5-0.2-0.7-0.4c-0.1-0.1-0.2-0.2-0.3-0.3
				c-0.1-0.1-0.2-0.2-0.2-0.4c-0.1-0.2-0.2-0.5-0.2-0.7c-0.1-0.5-0.2-1-0.2-1.4c0-0.5,0-1,0-1.4c0-0.9,0.1-1.9,0.2-2.8
				c0.1-0.9,0.1-1.9,0.1-2.8l0.3,0.3c-0.2,0-0.4,0-0.6,0.1c-0.2,0-0.4,0-0.6,0c-0.2,0-0.4,0-0.6,0c-0.2,0-0.4,0-0.6-0.1l0.3-0.3
				c0,0.9,0,1.8,0.1,2.8c0.1,0.9,0.2,1.9,0.2,2.8c0,0.5,0,1,0,1.4c0,0.5-0.1,1-0.2,1.4c-0.1,0.2-0.1,0.5-0.2,0.7
				c-0.1,0.1-0.1,0.3-0.2,0.4c-0.1,0.1-0.2,0.2-0.3,0.3c-0.2,0.2-0.4,0.3-0.7,0.4c-0.2,0.1-0.5,0.2-0.7,0.2
				c-0.5,0.1-0.9,0.2-1.4,0.3l-0.7,0.1c-0.2,0-0.5,0.1-0.7,0.1c-0.5,0-1,0.1-1.4,0c-0.5,0-1-0.1-1.5-0.3c-0.2-0.1-0.5-0.2-0.7-0.4
				c-0.2-0.2-0.4-0.4-0.5-0.6c-0.1-0.2-0.2-0.5-0.2-0.8c0-0.3,0-0.6,0.1-0.8c0.1-0.3,0.2-0.5,0.4-0.7c0.2-0.2,0.4-0.4,0.6-0.5
				c0.2-0.2,0.4-0.3,0.6-0.4c0.1-0.1,0.2-0.1,0.3-0.2c0.1-0.1,0.2-0.1,0.4-0.1l-0.2,0.3c-0.3-1.9-0.5-3.8-0.7-5.7
				c-0.1-0.5-0.1-1-0.2-1.4c0-0.2,0-0.5-0.1-0.7l0-0.7c0-1,0-1.9,0-2.9c0-1,0.1-1.9,0.2-2.9c0-0.2,0.1-0.5,0.1-0.7
				c0-0.2,0.1-0.5,0.1-0.7c0.1-0.5,0.1-1,0.2-1.4c0.1-1,0.3-1.9,0.5-2.8c0.1-0.2,0.1-0.5,0.2-0.7c0.1-0.2,0.1-0.5,0.2-0.7
				c0.1-0.5,0.3-0.9,0.5-1.4c0,0,0.1-0.1,0.1,0c0,0,0.1,0.1,0.1,0.1l0,0c-0.2,0.9-0.4,1.9-0.6,2.8c-0.2,0.9-0.3,1.9-0.5,2.8
				c-0.3,1.9-0.5,3.8-0.6,5.7c0,1,0,1.9,0,2.8c0,0.9,0.1,1.9,0.2,2.8c0.2,1.9,0.5,3.8,0.7,5.7l0,0.2l-0.2,0.1
				c-0.1,0-0.2,0.1-0.3,0.1c-0.1,0-0.2,0.1-0.3,0.1c-0.2,0.1-0.4,0.2-0.6,0.4c-0.3,0.3-0.6,0.6-0.8,1c-0.1,0.2-0.1,0.4-0.1,0.6
				c0,0.2,0.1,0.4,0.1,0.6c0.2,0.3,0.5,0.6,0.9,0.7c0.4,0.1,0.8,0.2,1.3,0.2c0.5,0,0.9,0,1.4,0c0.2,0,0.5,0,0.7-0.1l0.7-0.1
				c0.5-0.1,0.9-0.1,1.3-0.3c0.4-0.1,0.9-0.3,1.2-0.5c0.1-0.1,0.1-0.1,0.2-0.2l0-0.1l0-0.1c0,0,0,0,0-0.1l0,0l0,0
				c0.1-0.2,0.1-0.4,0.2-0.6c0.1-0.4,0.2-0.9,0.2-1.3c0-0.5,0-0.9,0-1.4c0-0.9-0.1-1.9-0.2-2.8c-0.1-0.9-0.1-1.9-0.1-2.8l0-0.3
				l0.3,0c0.2,0,0.4,0,0.6,0c0.2,0,0.4,0,0.6,0c0.2,0,0.4,0,0.6,0c0.2,0,0.4,0,0.6,0l0.3,0l0,0.3c0,1,0,1.9-0.1,2.8
				c-0.1,0.9-0.2,1.9-0.2,2.8c0,0.5,0,0.9,0,1.4c0,0.5,0.1,0.9,0.2,1.3c0.1,0.2,0.1,0.4,0.2,0.6l0,0l0,0c0,0,0,0,0,0.1l0,0.1l0,0.1
				c0.1,0.1,0.1,0.1,0.2,0.2c0.3,0.3,0.7,0.4,1.2,0.5c0.4,0.1,0.9,0.2,1.3,0.3l0.7,0.1c0.2,0,0.5,0.1,0.7,0.1c0.5,0,0.9,0.1,1.4,0
				c0.4,0,0.9-0.1,1.3-0.2c0.4-0.1,0.7-0.4,0.9-0.7c0.1-0.2,0.1-0.4,0.1-0.6c0-0.2,0-0.4-0.1-0.6c-0.1-0.4-0.4-0.7-0.8-1
				c-0.2-0.1-0.4-0.2-0.6-0.4c-0.1-0.1-0.2-0.1-0.3-0.1c-0.1,0-0.2-0.1-0.3-0.1l-0.2-0.1l0-0.2c0.3-1.9,0.5-3.8,0.7-5.6
				c0.1-0.5,0.1-0.9,0.1-1.4l0.1-0.7l0-0.2l0-0.2l0-0.4c0-0.9,0-1.9,0-2.8c-0.1-1.9-0.3-3.8-0.6-5.6c-0.3-1.9-0.6-3.7-0.9-5.6
				c0-0.1,0-0.1,0.1-0.1C43.5,30.2,43.6,30.2,43.6,30.2z"/>
		</g>
		<g>
			<path class="st2" d="M31.6,50.8c-2.3,0-3.1-1-3.1-1.1c-0.1-0.1-0.1-0.3,0.1-0.4c0.1-0.1,0.3-0.1,0.4,0.1c0,0,1.5,1.8,6.6,0.1
				c0.1,0,0.3,0,0.4,0.2c0,0.1,0,0.3-0.2,0.4C33.9,50.6,32.6,50.8,31.6,50.8z"/>
		</g>
		<g>
			<path class="st2" d="M42,50.9c-2,0-4.2-0.7-4.4-0.8c-0.1,0-0.2-0.2-0.2-0.4c0-0.1,0.2-0.2,0.4-0.2c0,0,4.9,1.6,6.6,0.1
				c0.1-0.1,0.3-0.1,0.4,0c0.1,0.1,0.1,0.3,0,0.4C44.2,50.7,43.1,50.9,42,50.9z"/>
		</g>
		<g>
			<g>
				<path class="st1" d="M26.2,25L26.2,25c0.1,0,0.2-0.1,0.2-0.2l-0.8-6.1c0-0.1-0.1-0.2-0.2-0.2h0c-1.2,0.2-2.1,1.3-1.9,2.5
					l0.3,2.1C23.9,24.3,25,25.2,26.2,25z"/>
				<path class="st2" d="M25.9,25.1c-0.5,0-1-0.2-1.4-0.5c-0.5-0.4-0.8-0.9-0.9-1.5L23.4,21c-0.1-0.6,0.1-1.2,0.4-1.7
					c0.4-0.5,0.9-0.8,1.5-0.9c0.1,0,0.1,0,0.2,0.1c0.1,0,0.1,0.1,0.1,0.2l0.8,6.1c0,0.1-0.1,0.3-0.2,0.3l0,0
					C26.1,25.1,26,25.1,25.9,25.1z M25.4,18.5C25.4,18.5,25.4,18.5,25.4,18.5c-0.6,0.1-1.1,0.4-1.5,0.8c-0.4,0.5-0.5,1-0.4,1.6
					l0.3,2.1c0.1,0.6,0.4,1.1,0.8,1.5c0.5,0.4,1,0.5,1.6,0.4c0.1,0,0.2-0.1,0.1-0.2l-0.8-6.1C25.5,18.6,25.5,18.6,25.4,18.5
					C25.4,18.5,25.4,18.5,25.4,18.5z"/>
			</g>
			<g class="st3">
				<path class="st2" d="M23.6,22.1l0.1,1c0.2,1.2,1.3,2.1,2.5,1.9c0.1,0,0.2-0.1,0.2-0.2l-0.2-1.6c0,0.1-0.1,0.1-0.2,0.2l-0.1,0
					C24.9,23.4,24,22.9,23.6,22.1z"/>
			</g>
			<g>
				<path class="st2" d="M25.9,25.3c-0.5,0-1.1-0.2-1.5-0.5c-0.5-0.4-0.9-1-1-1.7L23.2,21c-0.1-0.7,0.1-1.3,0.5-1.9
					c0.4-0.5,1-0.9,1.7-1c0.1,0,0.3,0,0.4,0.1c0.1,0.1,0.2,0.2,0.2,0.3l0.8,6.1c0,0.3-0.2,0.5-0.4,0.6h0
					C26.2,25.3,26,25.3,25.9,25.3z M25.3,18.8c-0.5,0.1-0.9,0.3-1.2,0.8c-0.3,0.4-0.5,0.9-0.4,1.5L24,23c0.1,0.5,0.3,1,0.8,1.3
					c0.4,0.3,0.9,0.4,1.4,0.4L25.3,18.8z"/>
			</g>
			<g>
				<path class="st1" d="M45.5,15.7L45.5,15.7c-0.1,0-0.2,0.1-0.2,0.2l0.8,6.1c0,0.1,0.1,0.2,0.2,0.2l0,0c1.2-0.2,2.1-1.3,1.9-2.5
					L48,17.6C47.9,16.4,46.7,15.5,45.5,15.7z"/>
				<path class="st2" d="M46.4,22.3c-0.1,0-0.1,0-0.2-0.1c-0.1,0-0.1-0.1-0.1-0.2l-0.8-6.1c0-0.1,0.1-0.3,0.2-0.3l0,0
					c0.6-0.1,1.2,0.1,1.7,0.4c0.5,0.4,0.8,0.9,0.9,1.5l0.3,2.1c0.1,0.6-0.1,1.2-0.4,1.7C47.6,21.9,47,22.2,46.4,22.3
					C46.4,22.3,46.4,22.3,46.4,22.3z M45.5,15.8c-0.1,0-0.2,0.1-0.1,0.2l0.8,6.1c0,0,0,0.1,0.1,0.1c0,0,0.1,0,0.1,0
					c0.6-0.1,1.1-0.4,1.5-0.8c0.4-0.5,0.5-1,0.4-1.6L48,17.6c-0.1-0.6-0.4-1.1-0.8-1.5C46.7,15.8,46.1,15.7,45.5,15.8L45.5,15.8z"/>
			</g>
			<g class="st3">
				<path class="st2" d="M45.9,20.4l0.2,1.7c0,0.1,0.1,0.2,0.2,0.2c0.6-0.1,1.2-0.4,1.5-0.9c0.3-0.4,0.5-1,0.4-1.6l-0.1-0.9
					c-0.2,0.8-0.9,1.5-1.8,1.6l-0.2,0C46,20.5,46,20.4,45.9,20.4z"/>
			</g>
			<g>
				<path class="st2" d="M46.4,22.5c-0.2,0-0.5-0.2-0.5-0.4L45,16c0-0.3,0.2-0.5,0.4-0.6h0c0.7-0.1,1.3,0.1,1.9,0.5
					c0.5,0.4,0.9,1,1,1.7l0.3,2.1c0.1,0.7-0.1,1.3-0.5,1.9C47.7,22.1,47.1,22.4,46.4,22.5C46.4,22.5,46.4,22.5,46.4,22.5z M45.6,16
					l0.8,6c0.5-0.1,0.9-0.3,1.2-0.8c0.3-0.4,0.5-0.9,0.4-1.5l-0.3-2.1c-0.1-0.5-0.3-1-0.8-1.3C46.6,16.1,46.1,15.9,45.6,16z"/>
			</g>
			<g class="st3">
				<path class="st2" d="M27.9,29.7c0.2,0.2,0.4,0.4,0.6,0.6c0.4,0.3,0.8,0.6,1.2,0.9c1.8,1.2,3.9,1.9,6.1,1.9
					c0.8,0,1.6-0.1,2.4-0.2c1.9-0.4,3.6-1.3,5-2.5c0.1-0.1,0.2-0.2,0.3-0.3c0.3-0.3,0.6-0.6,0.9-0.9c0.2-0.2,0.3-0.4,0.5-0.6
					c-0.7-0.8-1.7-1.2-2.8-1.2H31.4C29.8,27.3,28.4,28.3,27.9,29.7z"/>
			</g>
			<g>
				<circle class="st1" cx="35.9" cy="20.4" r="10.5"/>
				<path class="st2" d="M35.8,30.9c-2,0-4-0.6-5.7-1.7c-2.4-1.5-4-3.9-4.6-6.7c-0.6-2.8-0.1-5.6,1.5-7.9c1.5-2.4,3.9-4,6.7-4.6
					c5.7-1.2,11.3,2.5,12.5,8.2c1.2,5.7-2.5,11.3-8.2,12.5C37.3,30.8,36.6,30.9,35.8,30.9z M35.9,9.9c-0.7,0-1.4,0.1-2.2,0.2
					c-2.7,0.6-5.1,2.2-6.6,4.5c-1.5,2.3-2,5.1-1.5,7.9c0.6,2.7,2.2,5.1,4.5,6.6c2.3,1.5,5.1,2,7.9,1.5c5.6-1.2,9.3-6.7,8.1-12.4
					C45.1,13.3,40.7,9.9,35.9,9.9z"/>
			</g>
			<g class="st3">
				<path class="st2" d="M25.4,21.1c0,0.5,0.1,1,0.2,1.4c1.2,5.7,6.8,9.3,12.4,8.1c5.7-1.2,9.3-6.8,8.1-12.4c0-0.2-0.1-0.3-0.1-0.5
					c0.4,5.1-3.1,9.9-8.3,11C32.2,29.9,26.8,26.5,25.4,21.1z"/>
			</g>
			<g>
				<path class="st2" d="M35.8,31.1c-2.1,0-4.1-0.6-5.9-1.8c-2.4-1.6-4.1-4-4.7-6.8l0,0c-0.6-2.8-0.1-5.7,1.5-8.1
					c1.6-2.4,4-4.1,6.8-4.7c5.8-1.2,11.5,2.5,12.8,8.3c1.2,5.8-2.5,11.5-8.3,12.8C37.3,31.1,36.6,31.1,35.8,31.1z M35.9,10.1
					c-0.7,0-1.4,0.1-2.1,0.2c-2.7,0.6-5,2.1-6.5,4.4c-1.5,2.3-2,5-1.4,7.7l0,0c0.6,2.7,2.1,5,4.4,6.5c2.3,1.5,5,2,7.7,1.4
					c5.5-1.2,9.1-6.6,7.9-12.1C44.9,13.4,40.6,10.1,35.9,10.1z"/>
			</g>
			<g>
				<path class="st2" d="M25.7,22.8c0.4,2,1.4,3.8,2.8,5.1c1.1,1,4.9,2.4,9.2,1.6c4-0.7,7.1-3.5,7.8-4.9c0.8-1.8,1.1-3.8,0.7-5.8
					c-1-5.3-6.1-6.7-11.7-5.6C28.8,14.3,24.6,17.4,25.7,22.8z"/>
			</g>
			<g>
				<path class="st2" d="M35.1,30c-3.3,0-5.9-1.1-6.7-1.9c-1.5-1.4-2.5-3.2-2.9-5.2c-0.5-2.6,0.1-4.8,2-6.6c1.6-1.5,4-2.7,7-3.3
					c3-0.6,5.7-0.5,7.7,0.4c2.3,1,3.8,2.8,4.3,5.4c0.4,2,0.1,4.1-0.7,6c-0.6,1.4-3.9,4.3-8,5C36.8,29.9,35.9,30,35.1,30z M26,22.7
					c0.4,1.9,1.3,3.6,2.8,4.9c1,0.9,4.7,2.3,8.9,1.5c3.9-0.7,7-3.4,7.6-4.7c0.8-1.8,1.1-3.7,0.7-5.6c-0.5-2.4-1.8-4.1-4-5
					c-1.9-0.8-4.5-0.9-7.4-0.3c-2.9,0.6-5.3,1.6-6.8,3.1C26.1,18.2,25.5,20.3,26,22.7z"/>
			</g>
			<g class="st4">
				
					<ellipse transform="matrix(0.9317 -0.3631 0.3631 0.9317 -5.7994 11.9429)" class="st1" cx="28.9" cy="21.4" rx="1.3" ry="1.9"/>
			</g>
			<g class="st4">
				
					<ellipse transform="matrix(0.8726 -0.4884 0.4884 0.8726 -8.0886 18.3789)" class="st1" cx="31.2" cy="24.7" rx="0.7" ry="0.9"/>
			</g>
			<g class="st3">
				<path class="st5" d="M26.7,17.4c-1,1.4-1.4,3.2-1,5.4c0.4,2,1.4,3.8,2.8,5.1c1.1,1,4.9,2.4,9.2,1.6c1.5-0.3,2.9-0.9,4.1-1.5
					c-5.3,0.9-10-0.8-11.3-2.1c-1.8-1.7-3.1-3.9-3.6-6.5C26.8,18.7,26.7,18,26.7,17.4z"/>
			</g>
			<g>
				<path class="st2" d="M25.6,18.2c-0.1,0-0.1,0-0.2-0.1c-0.1-0.1-0.1-0.2-0.1-0.3c1.3-2.9,4.6-5.1,8.8-5.9c4.3-0.8,8.1,0,10.5,2.3
					l-0.2,0.2l-0.2,0.2l0.2-0.2l-0.2,0.2l0,0c-2.2-2.2-5.8-3-10-2.2c-4.1,0.8-7.2,2.8-8.5,5.6l0,0l0,0
					C25.8,18.2,25.7,18.2,25.6,18.2z"/>
			</g>
			<g class="st4">
				<path class="st1" d="M44.5,22.4c0,0,0.6-5.6-2.6-7.1s-7.3-0.7-7.2-0.5c0,0,4.7,0.2,7.2,3.4C43.8,20.7,44.5,22.4,44.5,22.4z"/>
			</g>
		</g>
		<g>
			<path class="st2" d="M37.8,46.2l0.4-0.1c0.1,0,0.3-0.1,0.4-0.1c0.3-0.1,0.5-0.2,0.8-0.3c0.3-0.1,0.5-0.2,0.8-0.3
				c0.3-0.1,0.5-0.2,0.8-0.3c-0.2,0.2-0.4,0.4-0.6,0.6c-0.1,0.1-0.2,0.2-0.4,0.2c-0.1,0.1-0.3,0.1-0.4,0.2c-0.3,0.1-0.5,0.2-0.8,0.3
				c-0.3,0.1-0.6,0.2-0.9,0.2c-0.2,0-0.3-0.1-0.3-0.2C37.6,46.3,37.7,46.2,37.8,46.2L37.8,46.2z"/>
		</g>
		<g>
			<path class="st2" d="M35.4,46.7c-0.3,0-0.6-0.1-0.9-0.2c-0.3-0.1-0.5-0.2-0.8-0.3c-0.1-0.1-0.3-0.1-0.4-0.2
				c-0.1-0.1-0.2-0.2-0.4-0.2c-0.2-0.2-0.5-0.4-0.6-0.6c0.3,0.1,0.5,0.2,0.8,0.3c0.3,0.1,0.5,0.2,0.8,0.3c0.3,0.1,0.5,0.2,0.8,0.3
				c0.1,0,0.3,0.1,0.4,0.1l0.4,0.1l0,0c0.1,0,0.2,0.2,0.2,0.3C35.7,46.6,35.6,46.7,35.4,46.7z"/>
		</g>
		<g>
			<path class="st2" d="M44.2,53.1c-0.2,0-0.3,0-0.5-0.1c-0.2,0-0.3,0-0.5,0c-0.3,0-0.7,0-1,0c-0.3,0-0.7,0.1-1,0.1
				c-0.3,0.1-0.7,0.2-1,0.3c0.3-0.3,0.6-0.5,0.9-0.6c0.3-0.1,0.7-0.2,1.1-0.3c0.4-0.1,0.7-0.1,1.1-0.1c0.2,0,0.4,0,0.6,0
				c0.2,0,0.4,0,0.6,0.1c0.1,0,0.2,0.2,0.2,0.3C44.5,53.1,44.3,53.2,44.2,53.1L44.2,53.1z"/>
		</g>
		<g>
			<path class="st2" d="M29.1,52.6c0.2,0,0.4-0.1,0.6-0.1c0.2,0,0.4,0,0.6,0c0.4,0,0.7,0,1.1,0.1c0.4,0.1,0.7,0.1,1.1,0.3
				c0.3,0.1,0.7,0.3,0.9,0.6c-0.4-0.1-0.7-0.2-1-0.3c-0.3-0.1-0.7-0.1-1-0.1c-0.3,0-0.7,0-1,0c-0.2,0-0.3,0-0.5,0
				c-0.2,0-0.4,0-0.5,0.1l0,0c-0.2,0-0.3-0.1-0.3-0.2C28.8,52.8,28.9,52.6,29.1,52.6z"/>
		</g>
		<g class="st3">
			<path class="st2" d="M40.9,45.2c0,0-2.2,0.4-3.9,0.4s-4.4-0.4-4.4-0.4s1.6,1.3,4.3,1.3C39.4,46.4,40.9,45.2,40.9,45.2z"/>
		</g>
		<g class="st3">
			<path class="st2" d="M28.2,40.8c0.4,0,0.7,0,1.1,0c0.1,0,0.1,0,0.2,0c0.1,0,0.1,0,0.2,0c0,0,0.1,0,0.1,0c0,0,0.1,0,0.1,0
				c0.1,0,0.1,0,0.2,0h0c0.1,0,0.1,0,0.2,0c0,0,0.1,0,0.1,0c0,0,0.1,0,0.1,0c0,0,0.1,0,0.1,0c0,0,0.1,0,0.1,0c0,0,0,0,0,0
				c0,0,0.1,0,0.1,0c0,0,0.1,0,0.1,0c0,0,0,0,0,0c0,0,0.1,0,0.1,0c0,0,0.1,0,0.1,0h0c0,0,0,0,0,0v0.6c0,0.8,0.7,1.5,1.5,1.5h8.1
				c0.8,0,1.5-0.7,1.5-1.5v-0.5c0.9,0.1,2,0.1,2.9,0c0-0.5-0.1-1-0.1-1.5c0-0.4-0.1-0.9-0.1-1.3c-0.8,0-1.8,0-2.7,0v-1.1
				c0-0.8-0.7-1.5-1.5-1.5h-8.1c-0.5,0-0.9,0.2-1.2,0.6c-0.2,0.2-0.3,0.6-0.3,0.9v1c-0.2,0-0.4,0-0.5,0.1c-0.7,0.1-1.5,0.1-2.2,0.1
				c-0.1,0.4-0.1,0.8-0.1,1.3C28.3,39.7,28.2,40.2,28.2,40.8z"/>
		</g>
		<g>
			<path class="st1" d="M40.8,39.6c1.1,0.5,2.9,0.4,4.1,0.2c0.7-0.1,1.2-0.8,1.1-1.5l0,0c-0.1-0.7-0.7-1.1-1.3-1.1
				c-1.1,0.1-2.8,0.1-3.9-0.2"/>
		</g>
		<g class="st3">
			<path class="st2" d="M40.8,39.6c1.1,0.5,2.9,0.4,4.1,0.2c0.7-0.1,1.2-0.8,1.1-1.5c0-0.2-0.1-0.3-0.2-0.5c-0.2,0.3-0.5,0.6-1,0.6
				c-1.2,0.1-3,0.2-4.1-0.2L40.8,39.6z"/>
		</g>
		<g>
			<path class="st2" d="M43.1,40.2c-0.9,0-1.7-0.1-2.4-0.4l0,0c-0.8-0.3-0.8-1.6-0.6-2.4c0.2-0.7,0.6-0.7,0.8-0.7
				c1,0.2,2.7,0.2,3.8,0.2c0.8,0,1.5,0.5,1.6,1.3c0.1,0.4,0,0.8-0.3,1.2c-0.3,0.3-0.6,0.6-1.1,0.6C44.4,40.2,43.8,40.2,43.1,40.2z
				 M40.9,39.4c1.1,0.4,2.8,0.4,4,0.2c0.3,0,0.5-0.2,0.7-0.4c0.2-0.2,0.2-0.5,0.2-0.8c-0.1-0.5-0.5-0.9-1.1-0.9
				c-1.2,0.1-2.9,0.1-3.9-0.2c-0.1,0.1-0.3,0.6-0.2,1.2C40.6,38.8,40.7,39.3,40.9,39.4L40.9,39.4z"/>
		</g>
		<g>
			<path class="st1" d="M27.9,39.8c0.6,0.1,1.3,0.1,2,0.1c0,0,0.1,0,0.1,0c0.1,0,0.1,0,0.2,0c0,0,0.1,0,0.1,0c0,0,0.1,0,0.1,0
				c0.1,0,0.1,0,0.1,0h0c0,0,0.1,0,0.1,0c0,0,0.1,0,0.1,0c0,0,0.1,0,0.1,0c0,0,0.1,0,0.1,0c0,0,0.1,0,0.1,0c0,0,0,0,0,0
				c0,0,0.1,0,0.1,0c0,0,0.1,0,0.1,0c0,0,0,0,0,0c0,0,0,0,0.1,0c0,0,0.1,0,0.1,0h0c0.1,0,0.2,0,0.2-0.1c0,0,0.1,0,0.1,0
				c0,0,0.1,0,0.1,0l0-1.2l0-1.3c-0.3,0.1-0.6,0.1-0.9,0.1c-1,0.1-2.1,0.1-3,0c0,0,0,0-0.1,0c-0.6,0-1.2,0.5-1.3,1.1
				C26.7,39.1,27.2,39.8,27.9,39.8z"/>
		</g>
		<g class="st3">
			<path class="st2" d="M27.9,39.8c0.6,0.1,1.3,0.1,2,0.1c0,0,0.1,0,0.1,0c0.1,0,0.1,0,0.2,0c0,0,0.1,0,0.1,0c0,0,0.1,0,0.1,0
				c0.1,0,0.1,0,0.1,0h0c0,0,0.1,0,0.1,0c0,0,0.1,0,0.1,0c0,0,0.1,0,0.1,0c0,0,0.1,0,0.1,0c0,0,0.1,0,0.1,0c0,0,0,0,0,0
				c0,0,0.1,0,0.1,0c0,0,0.1,0,0.1,0c0,0,0,0,0,0c0,0,0,0,0.1,0c0,0,0.1,0,0.1,0h0c0.1,0,0.2,0,0.2-0.1c0,0,0.1,0,0.1,0
				c0,0,0.1,0,0.1,0l0-1.2c0,0-0.1,0-0.1,0c0,0-0.1,0-0.1,0c-0.1,0-0.2,0-0.2,0.1h0c0,0-0.1,0-0.1,0c0,0,0,0-0.1,0l0,0
				c0,0-0.1,0-0.1,0c0,0-0.1,0-0.1,0c0,0,0,0,0,0c0,0-0.1,0-0.1,0c0,0-0.1,0-0.1,0c0,0-0.1,0-0.1,0c0,0-0.1,0-0.1,0c0,0-0.1,0-0.1,0
				h0c0,0-0.1,0-0.1,0c0,0-0.1,0-0.1,0c0,0-0.1,0-0.1,0c-0.1,0-0.1,0-0.2,0c0,0-0.1,0-0.1,0c-0.7,0-1.4-0.1-2-0.1
				c-0.5-0.1-0.8-0.3-1-0.7c-0.1,0.1-0.1,0.3-0.1,0.4C26.7,39.1,27.2,39.8,27.9,39.8z"/>
		</g>
		<g>
			<path class="st2" d="M29.8,40.2c-0.7,0-1.3-0.1-1.9-0.1c-0.4-0.1-0.8-0.3-1.1-0.6c-0.3-0.3-0.4-0.8-0.3-1.2
				c0.1-0.8,0.8-1.4,1.6-1.3c1.2,0.1,2.8,0.1,3.8-0.2c0.2,0,0.5,0,0.8,0.7c0.2,0.8,0.2,2-0.6,2.4l0,0C31.5,40.2,30.6,40.2,29.8,40.2
				z M28.1,37.5c-0.5,0-0.9,0.4-1,0.9c0,0.3,0,0.6,0.2,0.8c0.2,0.2,0.4,0.4,0.7,0.4c1.2,0.1,2.9,0.2,4-0.2l0.1,0.3l-0.1-0.3
				c0.3-0.1,0.3-0.6,0.4-0.8c0.1-0.6-0.1-1.1-0.2-1.2C31,37.6,29.3,37.6,28.1,37.5C28.1,37.5,28.1,37.5,28.1,37.5z"/>
		</g>
		<g>
			<path class="st1" d="M31.6,36.3v4.1c0,0.8,0.6,1.4,1.4,1.4h7.5c0.8,0,1.4-0.6,1.4-1.4v-4.1c0-0.8-0.6-1.4-1.4-1.4H33
				c-0.4,0-0.8,0.2-1.1,0.5C31.7,35.7,31.6,35.9,31.6,36.3z"/>
		</g>
		<g class="st6">
			<path class="st1" d="M31.6,36.3v4.1c0,0.8,0.6,1.4,1.4,1.4h7.5c0.8,0,1.4-0.6,1.4-1.4v-4.1c0-0.8-0.6-1.4-1.4-1.4H33
				c-0.4,0-0.8,0.2-1.1,0.5C31.7,35.7,31.6,35.9,31.6,36.3z"/>
		</g>
		<g class="st3">
			<path class="st2" d="M31.6,38.1v2.2c0,0.8,0.6,1.4,1.4,1.4h7.5c0.8,0,1.4-0.6,1.4-1.4v-3.1c-1.5,0.6-0.8,3.2-3.7,3
				c-2.3-0.1-2.7-2-2.7-2h-2.8c0,0,0,1.2-0.4,1.2C31.9,39.4,31.7,38.8,31.6,38.1z"/>
		</g>
		<g>
			<path class="st2" d="M40.5,42H33c-0.9,0-1.6-0.7-1.6-1.6v-4.1c0-0.9,0.7-1.6,1.6-1.6h7.5c0.9,0,1.6,0.7,1.6,1.6v4.1
				C42.1,41.2,41.4,42,40.5,42z M33,35.2c-0.6,0-1.1,0.5-1.1,1.1v4.1c0,0.6,0.5,1.1,1.1,1.1h7.5c0.6,0,1.1-0.5,1.1-1.1v-4.1
				c0-0.6-0.5-1.1-1.1-1.1H33z"/>
		</g>
		<g>
			<circle class="st7" cx="34.1" cy="38.3" r="1.2"/>
		</g>
		<g>
			<path class="st1" d="M32.9,38.3c0,0.1,0,0.1,0,0.2c0.1-0.6,0.6-1,1.2-1c0.6,0,1.1,0.4,1.2,1c0-0.1,0-0.1,0-0.2
				c0-0.7-0.5-1.2-1.2-1.2C33.4,37.1,32.9,37.6,32.9,38.3z"/>
		</g>
		<g class="st3">
			<path class="st2" d="M32.9,38.3c0,0.7,0.5,1.2,1.2,1.2c0.7,0,1.2-0.5,1.2-1.2c0-0.2,0-0.3-0.1-0.4c-0.2,0.4-0.6,0.8-1.1,0.8
				c-0.5,0-0.9-0.3-1.1-0.8C32.9,38,32.9,38.1,32.9,38.3z"/>
		</g>
		<g>
			<path class="st2" d="M34.1,39.7c-0.8,0-1.4-0.6-1.4-1.4c0-0.8,0.6-1.4,1.4-1.4c0.8,0,1.4,0.6,1.4,1.4
				C35.5,39,34.8,39.7,34.1,39.7z M34.1,37.3c-0.5,0-1,0.4-1,1c0,0.5,0.4,1,1,1s1-0.4,1-1C35,37.7,34.6,37.3,34.1,37.3z"/>
		</g>
		<g>
			<path class="st2" d="M37.4,42c-0.2,0-0.3-0.1-0.3-0.3v-2.4c0-0.4,0.2-0.8,0.5-1.1l0.6-0.5c0.2-0.2,0.3-0.4,0.3-0.6v-2.2
				c0-0.2,0.1-0.3,0.3-0.3c0.2,0,0.3,0.1,0.3,0.3v2.2c0,0.4-0.2,0.8-0.5,1.1L38,38.7c-0.2,0.2-0.3,0.4-0.3,0.6v2.4
				C37.7,41.8,37.6,42,37.4,42z"/>
		</g>
		<g>
			<g>
				<path class="st1" d="M46.5,29.5c0.7,2.7,3.4,2.5,4.1,2.3c1.6-0.4,2.1-1.9,2.1-1.9l-1.3-1.7l-0.6-0.9l-0.7-0.2
					c-0.5-1-1.7-2.1-2.3-1.7C48,25.5,45.9,27.2,46.5,29.5z"/>
			</g>
			<g class="st3">
				<path class="st2" d="M53,29c0,0.8-1.1,1.6-3.5,1.3c-0.8-0.1-1.5-0.7-1.5-1.5c0-0.8,0.7-1.5,1.5-1.5S53,28.2,53,29z"/>
			</g>
			<g>
				<path class="st1" d="M52.9,26.3c-0.6,0.6-1.2,1.1-1.2,1.1L50,29.2l-1.2-2.9c0,0,0-0.6,0-1.4c0.1-1.5,0.4-3.8,1.3-3.7
					c1.7,0.1,0.6,4.6,0.6,4.6s2.7-3.6,3.8-2.6C55.2,23.8,53.9,25.3,52.9,26.3z"/>
			</g>
			<g class="st3">
				<path class="st2" d="M52.9,26.3c-0.6,0.6-1.2,1.1-1.2,1.1L50,29.2l-1.2-2.9c0,0,0-0.6,0-1.4c0.5,0.4,1.3,1,1.6,1.4
					C51,27,52.2,26.2,52.9,26.3z"/>
			</g>
			<g>
				<path class="st2" d="M50,29.5C50,29.5,49.9,29.5,50,29.5c-0.1,0-0.2-0.1-0.3-0.2l-1.2-2.9c0,0,0-0.1,0-0.1c0-0.4,0-4.2,1-5.1
					c0.2-0.2,0.4-0.3,0.7-0.3c0.3,0,0.6,0.2,0.8,0.4c0.5,0.7,0.4,2.3,0.2,3.4c0.7-0.8,1.9-1.9,2.7-2c0.3,0,0.6,0.1,0.8,0.3
					c0.2,0.2,0.3,0.4,0.3,0.7c0,1.3-2.7,3.6-3.1,4l-1.7,1.8C50.1,29.4,50.1,29.5,50,29.5z M49.1,26.2l1,2.5l1.5-1.5c0,0,0,0,0,0
					c1.1-0.9,2.9-2.7,2.9-3.6c0-0.1,0-0.2-0.1-0.2c-0.1-0.1-0.2-0.1-0.3-0.1c-0.9,0.1-2.5,2-3.1,2.7c-0.1,0.1-0.2,0.1-0.3,0.1
					c-0.1-0.1-0.2-0.2-0.1-0.3c0.2-0.9,0.6-3.2,0.1-4c-0.1-0.1-0.2-0.2-0.4-0.2c-0.1,0-0.1,0-0.2,0.1C49.2,22.2,49.1,25.1,49.1,26.2
					z"/>
			</g>
			<g>
				<path class="st1" d="M53.1,29.6c-0.4,0.7-2.2,1-2.8,0.5c-0.6-0.4,0-1,0.2-1.1c0,0,0,0,0,0s-0.7-0.2-0.8-0.8c0,0,0-0.1,0-0.1
					c0-0.7,1.7-1.2,2.5-1.1c0.6,0.1,0.8,0.3,0.9,0.6c0.1,0.3-0.1,0.6-0.2,0.7c0,0.1-0.1,0.1-0.1,0.1S53.4,29.1,53.1,29.6z"/>
			</g>
			<g class="st3">
				<path class="st2" d="M52.9,28.3c-0.5,0.2-1.4,0.7-2.5,0.7c0,0,0,0,0,0s-0.7-0.2-0.8-0.8c0.6,0.1,2.4,0.4,3.4-0.6
					C53.1,27.8,53,28.1,52.9,28.3z"/>
			</g>
			<g class="st3">
				<path class="st2" d="M53.1,29.6c-0.4,0.7-2.2,1-2.8,0.5C50,29.9,50,29.6,50,29.4c0,0,0.1,0.1,0.1,0.1c0.7,0.5,2.4,0.2,2.8-0.5
					c0-0.1,0.1-0.1,0.1-0.2C53.2,29.1,53.2,29.4,53.1,29.6z"/>
			</g>
			<g>
				<path class="st2" d="M51.2,30.6c-0.5,0-0.9-0.1-1.1-0.3c-0.3-0.2-0.4-0.5-0.4-0.7c0-0.3,0.1-0.5,0.3-0.6c-0.3-0.2-0.6-0.5-0.6-1
					c0-0.2,0-0.4,0.3-0.7c0.6-0.5,1.9-0.8,2.5-0.7l0,0c0.6,0.1,0.9,0.3,1.1,0.7c0.2,0.4,0,0.8-0.1,1c0.2,0.3,0.5,0.9,0.2,1.4
					c-0.2,0.4-0.8,0.7-1.5,0.8C51.6,30.6,51.4,30.6,51.2,30.6z M51.9,27.2c-0.6,0-1.5,0.3-1.9,0.6C50,27.9,49.9,28,49.9,28
					c0,0.5,0.6,0.6,0.6,0.7c0.1,0,0.2,0.1,0.2,0.2c0,0.1,0,0.2-0.1,0.3c-0.1,0.1-0.3,0.3-0.3,0.5c0,0,0,0.1,0.1,0.2
					c0.2,0.2,0.8,0.2,1.3,0.1c0.5-0.1,1-0.3,1.1-0.6c0.2-0.4-0.3-0.9-0.3-0.9c-0.1-0.1-0.1-0.2,0-0.4c0.1-0.1,0.3-0.5,0.2-0.7
					c-0.1-0.2-0.4-0.3-0.6-0.3C52,27.2,52,27.2,51.9,27.2z"/>
			</g>
			<g>
				<path class="st2" d="M50.7,29.2c-0.1,0-0.2,0-0.2,0c-0.2,0-0.3-0.1-0.3-0.3c0-0.2,0.1-0.3,0.3-0.3c1.2,0.1,2.2-0.5,2.2-0.5
					c0.1-0.1,0.3,0,0.4,0.1c0.1,0.1,0,0.3-0.1,0.4C52.9,28.7,51.9,29.2,50.7,29.2z"/>
			</g>
			<g>
				<path class="st1" d="M48,25.5c0.9-0.5,2.6,1.6,2.6,2.5c0,0.7-0.8,1.3-1.8,0.4C47.7,27.5,46.6,26.3,48,25.5z"/>
			</g>
			<g>
				<path class="st1" d="M52.8,29.9c0,0-0.5,1.5-2.1,1.9c-0.8,0.2-3.5,0.4-4.1-2.3c-0.6-2.3,1.4-4,1.4-4c0.9-0.5,2.6,1.6,2.6,2.5
					c0,0.7-1,1.1-1.9-0.1c0,0,0.5,1.1-0.5,1.9l2.4,1.4l1.8-0.3L52.8,29.9z"/>
			</g>
			<g>
				<path class="st1" d="M48.6,29.2L48.6,29.2c0-0.1,0-0.1,0.1-0.1C48.6,29.2,48.6,29.2,48.6,29.2z"/>
			</g>
			<g class="st3">
				<path class="st2" d="M48.7,27.6c-0.1-0.5,1.2,0.7,1.9,0.4c0,0.6-0.8,0.9-1.6,0.2C48.9,27.9,48.7,27.6,48.7,27.6z"/>
			</g>
			<g class="st3">
				<path class="st2" d="M51.9,30.9l0.3-0.1c-0.3,0.4-0.8,0.8-1.6,1c-0.8,0.2-3.5,0.4-4.1-2.3c-0.4-1.6,0.4-2.9,1-3.6
					c-0.5,0.7-0.9,1.8-0.6,3c0.7,2.7,3.4,2.5,4.1,2.3C51.4,31.1,51.7,31,51.9,30.9z"/>
			</g>
			<g>
				<path class="st1" d="M52.8,29.9c0,0,0,0.1-0.1,0.3l0,0L52.8,29.9z"/>
			</g>
			<g>
				<path class="st1" d="M52.7,30.2C52.6,30.2,52.6,30.3,52.7,30.2C52.6,30.3,52.6,30.2,52.7,30.2L52.7,30.2z"/>
			</g>
			<g>
				<path class="st2" d="M47.6,31.4c-0.2,0-0.3-0.1-0.4-0.2c-0.1-0.1-0.2-0.2-0.3-0.3c-0.2-0.2-0.4-0.5-0.5-0.8
					c-0.2-0.6-0.3-1.2-0.2-1.8c0.1-0.6,0.3-1.2,0.5-1.7c0.1-0.3,0.3-0.5,0.5-0.7c0.1-0.1,0.2-0.2,0.3-0.3c0.1-0.1,0.1-0.1,0.2-0.2
					c0.1-0.1,0.1-0.1,0.2-0.2c0,0,0,0,0,0l0,0c0.2-0.1,0.4-0.1,0.6-0.1c0.2,0,0.3,0.1,0.5,0.2c0.1,0.1,0.3,0.2,0.4,0.2
					c0.1,0.1,0.2,0.2,0.3,0.3c0.2,0.2,0.4,0.4,0.6,0.7c0.2,0.2,0.3,0.5,0.5,0.8c0.1,0.1,0.1,0.3,0.2,0.4c0,0.1,0,0.2,0,0.2l0,0.1
					c0,0,0,0,0,0.1c0,0,0,0.1,0,0.1c0,0.2-0.1,0.4-0.3,0.5c-0.1,0.1-0.3,0.2-0.5,0.2c0,0-0.1,0-0.1,0c0,0-0.1,0-0.1,0
					c-0.1,0-0.2,0-0.3-0.1c0,0-0.1,0-0.1,0l-0.1-0.1c-0.1,0-0.1-0.1-0.2-0.1c-0.3-0.2-0.5-0.4-0.6-0.7l0.5-0.3c0,0.1,0,0.1,0.1,0.2
					c0,0,0,0.1,0,0.1c0,0.1,0,0.2,0,0.3c0,0.2,0,0.4,0,0.6c0,0.1-0.1,0.2-0.1,0.3c0,0-0.1,0.1-0.1,0.1c0,0-0.1,0.1-0.1,0.1
					c-0.1,0.2-0.3,0.3-0.5,0.3c-0.1,0-0.1,0-0.1-0.1c0,0,0,0,0,0l0,0c0-0.1,0.1-0.2,0.1-0.3c0-0.1,0.1-0.1,0.1-0.2
					c0.1-0.1,0.1-0.3,0.2-0.4c0-0.1,0.1-0.3,0.1-0.4c0-0.1,0-0.2,0-0.2c0,0,0-0.1,0-0.1c0,0,0-0.1,0-0.1l0,0c-0.1-0.1,0-0.3,0.2-0.4
					c0.1,0,0.2,0,0.3,0.1c0.1,0.2,0.3,0.4,0.5,0.5c0.2,0.1,0.4,0.2,0.6,0.2c0.1,0,0.2,0,0.2-0.1c0.1-0.1,0.1-0.1,0.1-0.2
					c0,0,0,0,0-0.1l0,0l0,0c0,0,0-0.1,0-0.2c0-0.1-0.1-0.2-0.1-0.3c-0.2-0.5-0.5-0.9-0.9-1.2c-0.2-0.2-0.4-0.3-0.6-0.4
					c-0.1-0.1-0.2-0.1-0.3-0.1c-0.1,0-0.2,0-0.2,0l0,0c0,0-0.1,0.1-0.1,0.1c0,0-0.1,0.1-0.1,0.1c-0.1,0.1-0.2,0.2-0.3,0.3
					c-0.2,0.2-0.3,0.4-0.4,0.7c-0.3,0.5-0.4,1-0.5,1.5c0,0.5,0,1,0.2,1.5c0.1,0.2,0.2,0.5,0.4,0.7c0.1,0.2,0.3,0.4,0.4,0.7l0,0
					C47.7,31.3,47.7,31.4,47.6,31.4C47.7,31.4,47.6,31.4,47.6,31.4z"/>
			</g>
			<g>
				<path class="st2" d="M53,30c0,0.1-0.1,0.1-0.1,0.2c0,0.1-0.1,0.1-0.1,0.2c0,0.1-0.1,0.1-0.1,0.2c0,0.1-0.1,0.1-0.1,0.2l-0.1,0.2
					L52.4,31c-0.1,0.1-0.2,0.2-0.3,0.3c-0.1,0.1-0.2,0.2-0.3,0.2c-0.1,0.1-0.2,0.1-0.3,0.2c-0.2,0.1-0.5,0.2-0.8,0.1c0,0,0,0,0,0
					c0,0,0,0,0,0l0,0c0.2-0.2,0.4-0.3,0.6-0.4c0.1-0.1,0.2-0.1,0.3-0.2c0.1-0.1,0.2-0.1,0.2-0.2c0,0,0.1-0.1,0.1-0.1
					c0,0,0.1-0.1,0.1-0.1l0.1-0.1l0.1-0.1c0.1-0.1,0.1-0.2,0.2-0.3c0,0,0.1-0.1,0.1-0.1c0,0,0.1-0.1,0.1-0.1l0,0
					c0.1-0.1,0.2-0.2,0.4-0.1C53,29.7,53.1,29.9,53,30z"/>
			</g>
		</g>
		<g>
			<path class="st2" d="M48.5,36.9c-0.5,0-2.3-0.1-2.8-1.9c-0.8-2.6,0.4-4.5,0.4-4.6c0.1-0.1,0.2-0.1,0.3-0.1
				c0.1,0.1,0.1,0.2,0.1,0.3c0,0-1.1,1.8-0.4,4.3c0.6,1.8,2.4,1.7,2.5,1.7c0.1,0,0.2,0.1,0.2,0.2c0,0.1-0.1,0.2-0.2,0.2
				C48.6,36.9,48.5,36.9,48.5,36.9z"/>
		</g>
		<g>
			<path class="st2" d="M28.5,37.5C28.5,37.5,28.5,37.5,28.5,37.5c-2.2-0.6-2.7-2.3-2.7-2.4c0-0.1,0-0.2,0.1-0.3
				c0.1,0,0.2,0,0.3,0.1c0,0.1,0.5,1.6,2.4,2.1c0.1,0,0.2,0.1,0.1,0.3C28.7,37.4,28.6,37.5,28.5,37.5z"/>
		</g>
	</g>
	<g>
		<g>
			<g>
				<path class="st8" d="M19.3,22.6c-0.1,0-0.1,0-0.2,0l-2.1-1.2c-0.1-0.1-0.2-0.1-0.4-0.1c-0.1,0-0.1,0-0.2,0
					c-0.4,0.1-0.8,0.2-1.2,0.2l0,0c-2.7,0-4.8-2.2-4.9-4.8c0-1.3,0.5-2.6,1.4-3.5c0.9-0.9,2.2-1.5,3.5-1.5c0,0,0.1,0,0.1,0
					c2.7,0.1,4.8,2.3,4.8,4.9c0,1.2-0.5,2.3-1.3,3.2c-0.2,0.3-0.3,0.6-0.1,0.9l0.8,1.4c0.1,0.1,0.1,0.3-0.1,0.4
					C19.4,22.5,19.4,22.6,19.3,22.6z"/>
			</g>
			<g>
				<g>
					<path class="st2" d="M15.2,12C15.2,12,15.3,12,15.2,12c2.6,0,4.6,2.1,4.6,4.6c0,1.2-0.5,2.2-1.2,3c-0.3,0.4-0.4,0.9-0.1,1.3
						l0.8,1.4L17.2,21c-0.2-0.1-0.4-0.1-0.5-0.1c-0.1,0-0.2,0-0.3,0c-0.4,0.1-0.7,0.2-1.1,0.2c0,0,0,0,0,0c-2.5,0-4.5-2-4.6-4.5
						C10.6,14,12.7,12,15.2,12 M15.2,11.3C15.2,11.3,15.2,11.3,15.2,11.3c-1.4,0-2.7,0.6-3.7,1.6c-1,1-1.5,2.3-1.5,3.7
						c0,2.8,2.4,5.1,5.2,5.1l0,0c0.4,0,0.9-0.1,1.3-0.2c0,0,0.1,0,0.1,0c0.1,0,0.1,0,0.2,0.1l2.1,1.2c0.1,0.1,0.2,0.1,0.3,0.1
						c0.2,0,0.3-0.1,0.5-0.2c0.2-0.2,0.3-0.5,0.1-0.8L19,20.5c-0.1-0.2-0.1-0.4,0.1-0.5c0.9-0.9,1.3-2.2,1.3-3.5
						c0-2.8-2.3-5.2-5.1-5.3C15.3,11.3,15.3,11.3,15.2,11.3L15.2,11.3z"/>
				</g>
			</g>
		</g>
		<g class="st9">
			<g>
				<path class="st1" d="M15.5,12.3c-2.6,0-4.7,2.1-4.7,4.6c0,0.8,0.2,1.6,0.6,2.3c-0.5-0.7-0.9-1.6-0.9-2.6c0-2.6,2.1-4.7,4.7-4.6
					c1.6,0,3,0.9,3.8,2.2C18.3,13.1,17,12.3,15.5,12.3z"/>
			</g>
		</g>
		<g class="st10">
			<path class="st11" d="M14.5,20.1c0.4,0,0.8-0.1,1.1-0.2c0,0,0.1,0,0.2,0c0.7,0,1.3-0.4,1.7-1c0.1-0.1,0.2-0.3,0.3-0.4
				c0.7-0.8,1.2-1.9,1.2-3c0-0.8-0.2-1.6-0.6-2.3c0.8,0.8,1.3,2,1.3,3.2c0,1.2-0.4,2.2-1.2,3c-0.3,0.4-0.4,0.9-0.1,1.3l0.8,1.4
				L17.2,21c-0.2-0.1-0.5-0.2-0.8-0.1c-0.4,0.1-0.7,0.2-1.1,0.2c-1.7,0-3.2-0.9-4-2.3C12.1,19.6,13.3,20.1,14.5,20.1z"/>
		</g>
		<g>
			<path class="st1" d="M16.9,15L16.9,15c-0.5-0.5-1.2-0.4-1.7,0.1l-0.1,0.1L15,15.1c-0.5-0.5-1.2-0.5-1.7-0.1l0,0
				c-0.5,0.5-0.5,1.2,0,1.7l0.1,0.1l1.5,1.5c0.1,0.1,0.3,0.1,0.4,0l1.5-1.5l0.1-0.1C17.3,16.2,17.3,15.5,16.9,15z"/>
		</g>
		<g class="st9">
			<path class="st12" d="M16.7,15.6c-0.1-0.2-0.4-0.2-0.5-0.1c-0.1,0.1,0.1,0.2,0.2,0.4c0.1,0.2,0.2,0.4,0.3,0.3
				C16.8,16.1,16.9,15.8,16.7,15.6z"/>
		</g>
		<g class="st9">
			<g>
				<path class="st12" d="M15.8,15.2c0,0.1,0,0.1,0.1,0.1c0.1,0,0.1,0,0.2,0c0,0,0-0.1-0.1-0.2C15.9,15.1,15.8,15.2,15.8,15.2z"/>
			</g>
		</g>
	</g>
</g>
</svg>
