<?xml version="1.0" encoding="utf-8"?>
<!-- Generator: Adobe Illustrator 27.0.0, SVG Export Plug-In . SVG Version: 6.00 Build 0)  -->
<svg version="1.1" id="Layer_1" xmlns="http://www.w3.org/2000/svg" xmlns:xlink="http://www.w3.org/1999/xlink" x="0px" y="0px"
	 viewBox="0 0 10 12" style="enable-background:new 0 0 10 12;" xml:space="preserve">
<style type="text/css">
	.st0{fill:#8A2BE1;}
	.st1{display:none;fill:#8A2BE1;}
</style>
<g>
	<path class="st0" d="M9.1,11.7C6,11.7,5,11.4,3,10.7l0,0c-0.8,0.7-1.9,1.1-3,1.1L4.7,1.2c0,2.3,1.3,6.1,4.9,9
		c0.3,0.2,0.4,0.6,0.3,1C9.8,11.5,9.5,11.7,9.1,11.7z"/>
	<path class="st1" d="M9.5,10.9c-3.9-3.1-5.3-7-5.3-9.7c0-4.7-3.8,9.7-3.8,9.7c1.1,0,2.1-0.5,2.8-1.2C5.5,10.5,6.3,10.9,9.5,10.9z"
		/>
</g>
</svg>
