<?xml version="1.0" encoding="utf-8"?>
<!-- Generator: Adobe Illustrator 27.0.0, SVG Export Plug-In . SVG Version: 6.00 Build 0)  -->
<svg version="1.1" id="Layer_1" xmlns="http://www.w3.org/2000/svg" xmlns:xlink="http://www.w3.org/1999/xlink" x="0px" y="0px"
	 viewBox="0 0 120 32" style="enable-background:new 0 0 120 32;" xml:space="preserve">
<style type="text/css">
	.st0{fill:#FBF2FF;}
	.st1{fill:url(#SVGID_1_);}
</style>
<g>
	<path class="st0" d="M119,32c-3.3,0-4.4-0.5-6.6-1.5l0,0c-0.9,1-2,1.5-3.2,1.5H5.1C2.3,32,0,29,0,25.2V6.8C0,3,2.3,0,5.1,0h104.1
		c2.8,0,5.1,3,5.1,6.8v10.1c0,3.3,1.4,8.7,5.3,12.9c0.3,0.3,0.4,0.9,0.3,1.4C119.8,31.7,119.5,32,119,32z"/>
	<linearGradient id="SVGID_1_" gradientUnits="userSpaceOnUse" x1="40.4662" y1="51.6509" x2="79.6851" y2="-16.2784">
		<stop  offset="0" style="stop-color:#5873FA"/>
		<stop  offset="0.1959" style="stop-color:#6871F3"/>
		<stop  offset="0.5794" style="stop-color:#926BE0"/>
		<stop  offset="1" style="stop-color:#C763C9"/>
	</linearGradient>
	<path class="st1" d="M119,30.7c-4.2-4.4-5.7-10.1-5.7-13.8c0-6.7,0-10.1,0-10.1c0-3-1.9-5.5-4.1-5.5H5.1C2.8,1.3,1,3.7,1,6.8v18.4
		c0,3,1.9,5.5,4.1,5.5h104.1c1.2,0,2.2-0.7,3-1.7C114.7,30.2,115.6,30.7,119,30.7z"/>
</g>
</svg>
