<?xml version="1.0" encoding="utf-8"?>
<!-- Generator: Adobe Illustrator 27.0.0, SVG Export Plug-In . SVG Version: 6.00 Build 0)  -->
<svg version="1.1" id="Layer_1" xmlns="http://www.w3.org/2000/svg" xmlns:xlink="http://www.w3.org/1999/xlink" x="0px" y="0px"
	 viewBox="0 0 210 24" style="enable-background:new 0 0 210 24;" xml:space="preserve">
<style type="text/css">
	.st0{display:none;fill:#0676FF;}
	.st1{display:none;fill:#7FB3D5;}
	.st2{display:none;fill:#4E7CA8;}
	.st3{fill:#0676FF;}
	.st4{fill:#FFFFFF;}
	.st5{display:none;}
	.st6{display:inline;fill:#FFFFFF;}
	.st7{display:inline;fill:#FFFFFF;stroke:#FFFFFF;stroke-width:0.5;stroke-miterlimit:10;}
	.st8{fill:#FFFFFF;stroke:#FFFFFF;stroke-width:0.5;stroke-miterlimit:10;}
	.st9{display:inline;fill:none;}
	.st10{display:inline;fill:#FFFFFF;stroke:#FFFFFF;stroke-width:0.25;stroke-miterlimit:10;}
	.st11{display:inline;fill-rule:evenodd;clip-rule:evenodd;fill:none;stroke:#FFFFFF;stroke-miterlimit:10;}
	.st12{display:inline;}
	.st13{fill:#0676FF;stroke:#FFFFFF;stroke-width:0.8333;stroke-miterlimit:10;}
</style>
<path id="background_00000183240425904387852940000015172876647132645264_" class="st0" d="M205,24H5c-2.8,0-5-2.2-5-5L0,0l210,0v19
	C210,21.8,207.8,24,205,24z"/>
<path id="hover_00000079477054127689693880000011832138402554570404_" class="st1" d="M205,24H5c-2.8,0-5-2.2-5-5L0,0l210,0v19
	C210,21.8,207.8,24,205,24z"/>
<path id="pressed_00000142138853772837116930000015412807444657315207_" class="st2" d="M205,24H5c-2.8,0-5-2.2-5-5L0,0l210,0v19
	C210,21.8,207.8,24,205,24z"/>
<path id="background" class="st3" d="M210,24H0L0,5c0-2.8,2.2-5,5-5l200,0c2.8,0,5,2.2,5,5V24z"/>
<path id="hover" class="st1" d="M210,24H0L0,5c0-2.8,2.2-5,5-5l200,0c2.8,0,5,2.2,5,5V24z"/>
<path id="pressed" class="st2" d="M210,24H0L0,5c0-2.8,2.2-5,5-5l200,0c2.8,0,5,2.2,5,5V24z"/>
<g id="Group_00000039132291556072875660000000571840921572164747_">
	<g>
		<g>
			<path class="st3" d="M19.5,13.7c-0.6-0.6-1.4-1.1-2.2-1.4c0.9-0.6,1.5-1.6,1.5-2.8c0-1.9-1.5-3.4-3.4-3.4c-1.9,0-3.4,1.5-3.4,3.4
				c0,1.2,0.6,2.2,1.5,2.8c-0.8,0.3-1.6,0.8-2.2,1.4c-1.1,1.1-1.7,2.6-1.7,4.1h0.9c0-2.7,2.2-4.9,4.9-4.9c2.7,0,4.9,2.2,4.9,4.9h0.9
				C21.2,16.3,20.6,14.8,19.5,13.7z M15.4,12c-1.4,0-2.5-1.1-2.5-2.5s1.1-2.5,2.5-2.5c1.4,0,2.5,1.1,2.5,2.5S16.7,12,15.4,12z"/>
		</g>
	</g>
	<g>
		<g>
			<path class="st4" d="M19.5,13.7c-0.6-0.6-1.4-1.1-2.2-1.4c0.9-0.6,1.5-1.6,1.5-2.8c0-1.9-1.5-3.4-3.4-3.4c-1.9,0-3.4,1.5-3.4,3.4
				c0,1.2,0.6,2.2,1.5,2.8c-0.8,0.3-1.6,0.8-2.2,1.4c-1.1,1.1-1.7,2.6-1.7,4.1h0.9c0-2.7,2.2-4.9,4.9-4.9c2.7,0,4.9,2.2,4.9,4.9h0.9
				C21.2,16.3,20.6,14.8,19.5,13.7z M15.4,12c-1.4,0-2.5-1.1-2.5-2.5s1.1-2.5,2.5-2.5c1.4,0,2.5,1.1,2.5,2.5S16.7,12,15.4,12z"/>
		</g>
	</g>
</g>
<g id="Group">
	<g>
		<path class="st4" d="M28.8,14.2c-0.8-0.8-1.8-1.4-2.8-1.8c1.1-0.8,1.8-2,1.8-3.5c0-2.3-1.9-4.2-4.2-4.2c-2.3,0-4.2,1.9-4.2,4.2
			c0,1.5,0.7,2.7,1.8,3.5c-1,0.4-2,1-2.8,1.8c-1.4,1.4-2.2,3.2-2.2,5.2h1.1c0-3.4,2.8-6.2,6.2-6.2c3.4,0,6.2,2.8,6.2,6.2H31
			C31,17.4,30.2,15.5,28.8,14.2z M23.6,12c-1.7,0-3.1-1.4-3.1-3.1s1.4-3.1,3.1-3.1c1.7,0,3.1,1.4,3.1,3.1S25.3,12,23.6,12z"/>
	</g>
</g>
<path class="st3" d="M23.9,18.4l-3,0.4c-0.4,0.1-0.8-0.2-0.9-0.7l-0.4-3c-0.1-0.4,0.2-0.8,0.7-0.9l3-0.4c0.4-0.1,0.8,0.2,0.9,0.7
	l0.4,3C24.6,17.9,24.3,18.4,23.9,18.4z"/>
<path class="st3" d="M19.1,15.2c0.2-0.2,0.4-0.5,0.7-0.7c0.2-0.1,0.3-0.2,0.5-0.3"/>
<rect x="19.4" y="14.7" transform="matrix(0.7323 0.681 -0.681 0.7323 15.418 -9.3169)" class="st3" width="0.4" height="0.5"/>
<path class="st3" d="M9.9,19.3L8,18.4c-0.6-0.3-0.9-1.1-0.6-1.7l0.9-1.9c0.3-0.6,1.1-0.9,1.7-0.6l1.9,0.9c0.6,0.3,0.9,1.1,0.6,1.7
	l-0.9,1.9C11.3,19.3,10.5,19.6,9.9,19.3z"/>
<g id="plus_group">
	<path class="st4" d="M10.8,20.2L10.8,20.2c-0.2,0-0.4-0.2-0.4-0.4v-4.6c0-0.2,0.2-0.4,0.4-0.4h0c0.2,0,0.4,0.2,0.4,0.4v4.6
		C11.2,20,11,20.2,10.8,20.2z"/>
	<path class="st4" d="M13.5,17.5L13.5,17.5c0,0.2-0.2,0.4-0.4,0.4H8.5c-0.2,0-0.4-0.2-0.4-0.4l0,0c0-0.2,0.2-0.4,0.4-0.4h4.6
		C13.3,17.1,13.5,17.3,13.5,17.5z"/>
</g>
<g id="arrow" class="st5">
	<path class="st6" d="M13.4,17.5L13.4,17.5c0,0.2-0.2,0.4-0.4,0.4H8.8c-0.2,0-0.4-0.2-0.4-0.4v0c0-0.2,0.2-0.4,0.4-0.4h4.2
		C13.3,17.1,13.4,17.2,13.4,17.5z"/>
	<path class="st6" d="M12.4,19L12.4,19c0.2,0.2,0.4,0.2,0.6,0l1.2-1.2c0.2-0.2,0.2-0.4,0-0.6l0,0c-0.2-0.2-0.4-0.2-0.6,0l-1.2,1.2
		C12.3,18.6,12.3,18.8,12.4,19z"/>
	<path class="st6" d="M14.2,17.8L14.2,17.8c-0.2,0.2-0.4,0.2-0.6,0l-1.2-1.2c-0.2-0.2-0.2-0.4,0-0.6h0c0.2-0.2,0.4-0.2,0.6,0
		l1.2,1.2C14.4,17.4,14.4,17.6,14.2,17.8z"/>
</g>
<g class="st5">
	<path class="st7" d="M42,15.8c0.3,0.1,0.6,0.2,1.1,0.2c0.8,0,1.1-0.3,1.1-1.1V8.1H45v6.8c0,1-0.5,1.8-1.9,1.8
		c-0.6,0-1.1-0.1-1.3-0.2L42,15.8z"/>
	<path class="st7" d="M46.8,13.3c0-2,0.7-3.4,2.6-3.4c1.9,0,2.6,1.3,2.6,3.3c0,2-0.7,3.4-2.6,3.4C47.5,16.6,46.8,15.3,46.8,13.3z
		 M49.5,16c1.3,0,1.8-0.9,1.8-2.7c0-1.8-0.6-2.7-1.9-2.7s-1.8,0.9-1.8,2.7C47.5,15.1,48.1,16,49.5,16z"/>
	<path class="st7" d="M54.4,7.6c0.3,0,0.6,0.3,0.6,0.6c0,0.3-0.3,0.6-0.6,0.6c-0.3,0-0.6-0.3-0.6-0.6C53.9,7.8,54.1,7.6,54.4,7.6z
		 M54.2,10.1h0.7v6.5h-0.7V10.1z"/>
	<path class="st7" d="M61.9,16.6h-0.7v-4.3c0-1.1-0.5-1.7-1.5-1.7c-0.9,0-1.6,0.6-1.8,1.3v4.7h-0.7v-6.5h0.5l0.2,0.7h0
		c0.1-0.2,0.8-0.8,1.9-0.8c1.3,0,2.1,0.7,2.1,2.1V16.6z"/>
	<path class="st7" d="M72.9,8.7l-0.5,0.6c-0.4-0.3-1-0.6-1.8-0.6c-1.3,0-2.7,0.7-2.7,3.6c0,2.7,1,3.7,2.7,3.7c0.6,0,1.3-0.1,1.7-0.4
		v-3.3H73v3.6c-0.5,0.4-1.3,0.8-2.5,0.8c-2.1,0-3.3-1.4-3.3-4.3c0-3,1.6-4.3,3.5-4.3C72,8,72.6,8.4,72.9,8.7z"/>
	<path class="st7" d="M78,10.8c-0.2-0.1-0.5-0.1-0.7-0.1c-0.7,0-1.3,0.3-1.6,0.9v4.9H75v-6.5h0.5l0.2,0.7h0c0.3-0.4,0.9-0.8,1.6-0.8
		c0.3,0,0.5,0,0.7,0.1V10.8z"/>
	<path class="st7" d="M78.8,13.3c0-2,0.7-3.4,2.6-3.4c1.9,0,2.6,1.3,2.6,3.3c0,2-0.7,3.4-2.6,3.4C79.5,16.6,78.8,15.3,78.8,13.3z
		 M81.5,16c1.3,0,1.8-0.9,1.8-2.7c0-1.8-0.6-2.7-1.9-2.7c-1.3,0-1.8,0.9-1.8,2.7C79.5,15.1,80.1,16,81.5,16z"/>
	<path class="st7" d="M85.7,10.1h0.7v4.2c0,1.2,0.5,1.7,1.6,1.7c1,0,1.8-0.5,1.8-1.8v-4.2h0.7v6.5h-0.5l-0.2-0.7h0
		c-0.1,0.2-0.7,0.8-1.9,0.8c-1.3,0-2.1-0.7-2.1-2.1V10.1z"/>
	<path class="st7" d="M94.2,16.6c-0.3,0-0.7,0-1-0.1v2.4h-0.7v-8.8h0.5l0.2,0.7h0c0.3-0.4,0.9-0.8,1.7-0.8c1.5,0,2.4,1,2.4,3.1
		C97.4,15.3,96.2,16.6,94.2,16.6z M94.2,15.9c1.6,0,2.4-1,2.4-2.7c0-2-0.9-2.6-1.8-2.6c-0.9,0-1.4,0.6-1.6,1v4.1
		C93.5,15.8,94,15.9,94.2,15.9z"/>
</g>
<g id="Create_Group">
	<path class="st8" d="M45.8,8c1.2,0,1.8,0.4,2.1,0.6l-0.4,0.6c-0.4-0.3-0.9-0.5-1.8-0.5c-1.6,0-2.5,1.1-2.5,3.6
		c0,2.4,0.9,3.7,2.6,3.7c0.9,0,1.4-0.2,1.7-0.5l0.4,0.5c-0.4,0.3-1.1,0.6-2.2,0.6c-2.2,0-3.2-1.7-3.2-4.3C42.4,9.6,43.6,8,45.8,8z"
		/>
	<path class="st8" d="M52.5,10.8c-0.2-0.1-0.5-0.1-0.7-0.1c-0.7,0-1.3,0.3-1.6,0.9v4.9h-0.7v-6.5H50l0.2,0.7h0
		c0.3-0.4,0.9-0.8,1.6-0.8c0.3,0,0.5,0,0.7,0.1V10.8z"/>
	<path class="st8" d="M58,16.1c-0.4,0.3-1.1,0.5-1.9,0.5c-1.8,0-2.8-0.9-2.8-3.3c0-2.4,1.3-3.3,2.7-3.3c1.5,0,2.3,1,2.3,2.5
		c0,0.3,0,0.7-0.1,1.1H54c0.1,1.8,0.8,2.4,2.2,2.4c0.6,0,1.2-0.2,1.5-0.5L58,16.1z M54,13h3.5c0-0.2,0-0.3,0-0.4
		c0-1.2-0.5-1.9-1.7-1.9C55,10.6,54,11.2,54,13z"/>
	<path class="st8" d="M64.1,11.9v3c0,0.6,0.2,1.1,0.7,1.1h0.2v0.5c0,0-0.1,0-0.2,0c-0.6,0-1-0.4-1.2-0.8h0c-0.3,0.4-0.9,0.9-2,0.9
		c-1.2,0-1.9-0.8-1.9-1.7c0-1.4,1.4-2.1,3.8-2.1v-0.8c0-1.2-0.5-1.5-1.5-1.5c-0.9,0-1.4,0.5-1.6,0.8L59.9,11c0.2-0.3,0.8-1,2.1-1
		C63.3,10,64.1,10.6,64.1,11.9z M63.4,13.5c-1.7,0-3.1,0.4-3.1,1.4c0,0.6,0.5,1.2,1.3,1.2c0.8,0,1.5-0.5,1.8-1V13.5z"/>
	<path class="st8" d="M66.8,14.9v-4.2h-1v-0.5l1-0.1l0.2-1.7h0.5v1.7h1.8v0.6h-1.8v4.2c0,0.8,0.4,1.1,1,1.1c0.6,0,0.9-0.1,1-0.2
		l0.2,0.6c-0.3,0.1-0.7,0.3-1.3,0.3C67.3,16.6,66.8,16,66.8,14.9z"/>
	<path class="st8" d="M75.4,16.1c-0.4,0.3-1.1,0.5-1.9,0.5c-1.8,0-2.8-0.9-2.8-3.3c0-2.4,1.3-3.3,2.7-3.3c1.5,0,2.3,1,2.3,2.5
		c0,0.3,0,0.7-0.1,1.1h-4.2c0.1,1.8,0.8,2.4,2.2,2.4c0.6,0,1.2-0.2,1.5-0.5L75.4,16.1z M71.4,13h3.5c0-0.2,0-0.3,0-0.4
		c0-1.2-0.5-1.9-1.7-1.9C72.4,10.6,71.5,11.2,71.4,13z"/>
	<path class="st8" d="M86.4,8.7l-0.5,0.6c-0.4-0.3-1-0.6-1.8-0.6c-1.3,0-2.7,0.7-2.7,3.6c0,2.7,1,3.7,2.7,3.7c0.6,0,1.3-0.1,1.7-0.4
		v-3.3h0.7v3.6c-0.5,0.4-1.3,0.8-2.5,0.8c-2.1,0-3.3-1.4-3.3-4.3c0-3,1.6-4.3,3.5-4.3C85.5,8,86.1,8.4,86.4,8.7z"/>
	<path class="st8" d="M91.5,10.8c-0.2-0.1-0.5-0.1-0.7-0.1c-0.7,0-1.3,0.3-1.6,0.9v4.9h-0.7v-6.5H89l0.2,0.7h0
		c0.3-0.4,0.9-0.8,1.6-0.8c0.3,0,0.5,0,0.7,0.1V10.8z"/>
	<path class="st8" d="M92.3,13.3c0-2,0.7-3.4,2.6-3.4c1.9,0,2.6,1.3,2.6,3.3c0,2-0.7,3.4-2.6,3.4C93,16.6,92.3,15.3,92.3,13.3z
		 M94.9,16c1.3,0,1.8-0.9,1.8-2.7c0-1.8-0.6-2.7-1.9-2.7c-1.3,0-1.8,0.9-1.8,2.7C93,15.1,93.6,16,94.9,16z"/>
	<path class="st8" d="M99.2,10.1h0.7v4.2c0,1.2,0.5,1.7,1.6,1.7c1,0,1.8-0.5,1.8-1.8v-4.2h0.7v6.5h-0.5l-0.2-0.7h0
		c-0.1,0.2-0.7,0.8-1.9,0.8c-1.3,0-2.1-0.7-2.1-2.1V10.1z"/>
	<path class="st8" d="M107.7,16.6c-0.3,0-0.7,0-1-0.1v2.4H106v-8.8h0.5l0.2,0.7h0c0.3-0.4,0.9-0.8,1.7-0.8c1.5,0,2.4,1,2.4,3.1
		C110.9,15.3,109.7,16.6,107.7,16.6z M107.7,15.9c1.6,0,2.4-1,2.4-2.7c0-2-0.9-2.6-1.8-2.6c-0.9,0-1.4,0.6-1.6,1v4.1
		C107,15.8,107.4,15.9,107.7,15.9z"/>
</g>
<g id="join_channel" class="st5">
	<path class="st7" d="M42,15.8c0.3,0.1,0.6,0.2,1.1,0.2c0.8,0,1.1-0.3,1.1-1.1V8.1H45v6.8c0,1-0.5,1.8-1.9,1.8
		c-0.6,0-1.1-0.1-1.3-0.2L42,15.8z"/>
	<path class="st7" d="M46.8,13.3c0-2,0.7-3.4,2.6-3.4c1.9,0,2.6,1.3,2.6,3.3c0,2-0.7,3.4-2.6,3.4C47.5,16.6,46.8,15.3,46.8,13.3z
		 M49.5,16c1.3,0,1.8-0.9,1.8-2.7c0-1.8-0.6-2.7-1.9-2.7s-1.8,0.9-1.8,2.7C47.5,15.1,48.1,16,49.5,16z"/>
	<path class="st7" d="M54.4,7.6c0.3,0,0.6,0.3,0.6,0.6c0,0.3-0.3,0.6-0.6,0.6c-0.3,0-0.6-0.3-0.6-0.6C53.9,7.8,54.1,7.6,54.4,7.6z
		 M54.2,10.1h0.7v6.5h-0.7V10.1z"/>
	<path class="st7" d="M61.9,16.6h-0.7v-4.3c0-1.1-0.5-1.7-1.5-1.7c-0.9,0-1.6,0.6-1.8,1.3v4.7h-0.7v-6.5h0.5l0.2,0.7h0
		c0.1-0.2,0.8-0.8,1.9-0.8c1.3,0,2.1,0.7,2.1,2.1V16.6z"/>
	<path class="st7" d="M70.6,8c1.2,0,1.8,0.4,2.1,0.6l-0.4,0.6c-0.4-0.3-0.9-0.5-1.8-0.5c-1.6,0-2.5,1.1-2.5,3.6
		c0,2.4,0.9,3.7,2.6,3.7c0.9,0,1.4-0.2,1.7-0.5l0.4,0.5c-0.4,0.3-1.1,0.6-2.2,0.6c-2.2,0-3.2-1.7-3.2-4.3C67.2,9.6,68.4,8,70.6,8z"
		/>
	<path class="st7" d="M78.9,12.1v4.5h-0.7v-4.4c0-0.9-0.5-1.5-1.4-1.5c-1,0-1.7,0.6-1.9,1.3v4.7h-0.7V7.5h0.7v3.4h0
		c0.1-0.2,0.7-0.9,1.9-0.9C78.1,10,78.9,10.8,78.9,12.1z"/>
	<path class="st7" d="M85.1,11.9v3c0,0.6,0.2,1.1,0.7,1.1h0.2v0.5c0,0-0.1,0-0.2,0c-0.6,0-1-0.4-1.2-0.8h0c-0.3,0.4-0.9,0.9-2,0.9
		c-1.2,0-1.9-0.8-1.9-1.7c0-1.4,1.4-2.1,3.8-2.1v-0.8c0-1.2-0.5-1.5-1.5-1.5c-0.9,0-1.4,0.5-1.6,0.8L80.8,11c0.2-0.3,0.8-1,2.1-1
		C84.3,10,85.1,10.6,85.1,11.9z M84.4,13.5c-1.7,0-3.1,0.4-3.1,1.4c0,0.6,0.5,1.2,1.3,1.2c0.8,0,1.5-0.5,1.8-1V13.5z"/>
	<path class="st7" d="M92.2,16.6h-0.7v-4.3c0-1.1-0.5-1.7-1.5-1.7c-0.9,0-1.6,0.6-1.8,1.3v4.7h-0.7v-6.5H88l0.2,0.7h0
		c0.1-0.2,0.8-0.8,1.9-0.8c1.3,0,2.1,0.7,2.1,2.1V16.6z"/>
	<path class="st7" d="M99,16.6h-0.7v-4.3c0-1.1-0.5-1.7-1.5-1.7c-0.9,0-1.6,0.6-1.8,1.3v4.7h-0.7v-6.5h0.5l0.2,0.7h0
		c0.1-0.2,0.8-0.8,1.9-0.8c1.3,0,2.1,0.7,2.1,2.1V16.6z"/>
	<path class="st7" d="M105.4,16.1c-0.4,0.3-1.1,0.5-1.9,0.5c-1.8,0-2.8-0.9-2.8-3.3c0-2.4,1.3-3.3,2.7-3.3c1.5,0,2.3,1,2.3,2.5
		c0,0.3,0,0.7-0.1,1.1h-4.2c0.1,1.8,0.8,2.4,2.2,2.4c0.6,0,1.2-0.2,1.5-0.5L105.4,16.1z M101.4,13h3.5c0-0.2,0-0.3,0-0.4
		c0-1.2-0.5-1.9-1.7-1.9C102.4,10.6,101.5,11.2,101.4,13z"/>
	<path class="st7" d="M108.3,7.5v7.7c0,0.6,0.2,0.9,0.7,0.9c0.3,0,0.5-0.1,0.6-0.2v0.6c-0.2,0.1-0.6,0.1-0.8,0.1
		c-0.9,0-1.2-0.5-1.2-1.3V7.5H108.3z"/>
</g>
<g id="Create_Group_00000039844536943904640010000007906095186735381120_" class="st5">
	<path class="st7" d="M45.8,8c1.2,0,1.8,0.4,2.1,0.6l-0.4,0.6c-0.4-0.3-0.9-0.5-1.8-0.5c-1.6,0-2.5,1.1-2.5,3.6
		c0,2.4,0.9,3.7,2.6,3.7c0.9,0,1.4-0.2,1.7-0.5l0.4,0.5c-0.4,0.3-1.1,0.6-2.2,0.6c-2.2,0-3.2-1.7-3.2-4.3C42.4,9.6,43.6,8,45.8,8z"
		/>
	<path class="st7" d="M52.5,10.8c-0.2-0.1-0.5-0.1-0.7-0.1c-0.7,0-1.3,0.3-1.6,0.9v4.9h-0.7v-6.5H50l0.2,0.7h0
		c0.3-0.4,0.9-0.8,1.6-0.8c0.3,0,0.5,0,0.7,0.1V10.8z"/>
	<path class="st7" d="M58,16.1c-0.4,0.3-1.1,0.5-1.9,0.5c-1.8,0-2.8-0.9-2.8-3.3c0-2.4,1.3-3.3,2.7-3.3c1.5,0,2.3,1,2.3,2.5
		c0,0.3,0,0.7-0.1,1.1H54c0.1,1.8,0.8,2.4,2.2,2.4c0.6,0,1.2-0.2,1.5-0.5L58,16.1z M54,13h3.5c0-0.2,0-0.3,0-0.4
		c0-1.2-0.5-1.9-1.7-1.9C55,10.6,54,11.2,54,13z"/>
	<path class="st7" d="M64.1,11.9v3c0,0.6,0.2,1.1,0.7,1.1h0.2v0.5c0,0-0.1,0-0.2,0c-0.6,0-1-0.4-1.2-0.8h0c-0.3,0.4-0.9,0.9-2,0.9
		c-1.2,0-1.9-0.8-1.9-1.7c0-1.4,1.4-2.1,3.8-2.1v-0.8c0-1.2-0.5-1.5-1.5-1.5c-0.9,0-1.4,0.5-1.6,0.8L59.9,11c0.2-0.3,0.8-1,2.1-1
		C63.3,10,64.1,10.6,64.1,11.9z M63.4,13.5c-1.7,0-3.1,0.4-3.1,1.4c0,0.6,0.5,1.2,1.3,1.2c0.8,0,1.5-0.5,1.8-1V13.5z"/>
	<path class="st7" d="M66.8,14.9v-4.2h-1v-0.5l1-0.1l0.2-1.7h0.5v1.7h1.8v0.6h-1.8v4.2c0,0.8,0.4,1.1,1,1.1c0.6,0,0.9-0.1,1-0.2
		l0.2,0.6c-0.3,0.1-0.7,0.3-1.3,0.3C67.3,16.6,66.8,16,66.8,14.9z"/>
	<path class="st7" d="M75.4,16.1c-0.4,0.3-1.1,0.5-1.9,0.5c-1.8,0-2.8-0.9-2.8-3.3c0-2.4,1.3-3.3,2.7-3.3c1.5,0,2.3,1,2.3,2.5
		c0,0.3,0,0.7-0.1,1.1h-4.2c0.1,1.8,0.8,2.4,2.2,2.4c0.6,0,1.2-0.2,1.5-0.5L75.4,16.1z M71.4,13h3.5c0-0.2,0-0.3,0-0.4
		c0-1.2-0.5-1.9-1.7-1.9C72.4,10.6,71.5,11.2,71.4,13z"/>
	<path class="st7" d="M84,8c1.2,0,1.8,0.4,2.1,0.6l-0.4,0.6c-0.4-0.3-0.9-0.5-1.8-0.5c-1.6,0-2.5,1.1-2.5,3.6c0,2.4,0.9,3.7,2.6,3.7
		c0.9,0,1.4-0.2,1.7-0.5l0.4,0.5c-0.4,0.3-1.1,0.6-2.2,0.6c-2.2,0-3.2-1.7-3.2-4.3C80.7,9.6,81.9,8,84,8z"/>
	<path class="st7" d="M92.4,12.1v4.5h-0.7v-4.4c0-0.9-0.5-1.5-1.4-1.5c-1,0-1.7,0.6-1.9,1.3v4.7h-0.7V7.5h0.7v3.4h0
		c0.1-0.2,0.7-0.9,1.9-0.9C91.6,10,92.4,10.8,92.4,12.1z"/>
	<path class="st7" d="M98.5,11.9v3c0,0.6,0.2,1.1,0.7,1.1h0.2v0.5c0,0-0.1,0-0.2,0c-0.6,0-1-0.4-1.2-0.8h0c-0.3,0.4-0.9,0.9-2,0.9
		c-1.2,0-1.9-0.8-1.9-1.7c0-1.4,1.4-2.1,3.8-2.1v-0.8c0-1.2-0.5-1.5-1.5-1.5c-0.9,0-1.4,0.5-1.6,0.8L94.3,11c0.2-0.3,0.8-1,2.1-1
		C97.7,10,98.5,10.6,98.5,11.9z M97.9,13.5c-1.7,0-3.1,0.4-3.1,1.4c0,0.6,0.5,1.2,1.3,1.2c0.8,0,1.5-0.5,1.8-1V13.5z"/>
	<path class="st7" d="M105.7,16.6H105v-4.3c0-1.1-0.5-1.7-1.5-1.7c-0.9,0-1.6,0.6-1.8,1.3v4.7H101v-6.5h0.5l0.2,0.7h0
		c0.1-0.2,0.8-0.8,1.9-0.8c1.3,0,2.1,0.7,2.1,2.1V16.6z"/>
	<path class="st7" d="M112.5,16.6h-0.7v-4.3c0-1.1-0.5-1.7-1.5-1.7c-0.9,0-1.6,0.6-1.8,1.3v4.7h-0.7v-6.5h0.5l0.2,0.7h0
		c0.1-0.2,0.8-0.8,1.9-0.8c1.3,0,2.1,0.7,2.1,2.1V16.6z"/>
	<path class="st7" d="M118.9,16.1c-0.4,0.3-1.1,0.5-1.9,0.5c-1.8,0-2.8-0.9-2.8-3.3c0-2.4,1.3-3.3,2.7-3.3c1.5,0,2.3,1,2.3,2.5
		c0,0.3,0,0.7-0.1,1.1h-4.2c0.1,1.8,0.8,2.4,2.2,2.4c0.6,0,1.2-0.2,1.5-0.5L118.9,16.1z M114.9,13h3.5c0-0.2,0-0.3,0-0.4
		c0-1.2-0.5-1.9-1.7-1.9C115.9,10.6,115,11.2,114.9,13z"/>
	<path class="st7" d="M121.7,7.5v7.7c0,0.6,0.2,0.9,0.7,0.9c0.3,0,0.5-0.1,0.6-0.2v0.6c-0.2,0.1-0.6,0.1-0.8,0.1
		c-0.9,0-1.2-0.5-1.2-1.3V7.5H121.7z"/>
</g>
<g id="channel" class="st5">
	<path class="st9" d="M12.3,8.9c0-1.6,0-3.3,0-4.9c5.3,0,10.7,0,16,0c0,5.3,0,10.7,0,16c-5.3,0-10.7,0-16,0c0-2.9,0-5.8,0-8.7
		c0.1,0.2,0.1,0.4,0.2,0.5c0.3,0.6,0.8,0.9,1.5,1c0.4,0,0.7,0,1.1,0c0,0.1,0,0.2,0,0.2c0.2,1.7,0.4,3.4,0.6,5.1
		c0.1,0.6,0.5,0.9,1.1,0.9c0.3,0,0.6,0,0.9,0c0.6,0,1.1-0.5,1-1.1c-0.1-1.2-0.3-2.3-0.4-3.5c-0.1-0.6-0.1-1.1-0.2-1.7c0,0,0,0,0.1,0
		c1,0,2.1,0,3.1,0.2c1.5,0.3,2.9,1,4.1,2c0.3,0.2,0.5,0.3,0.9,0.3c0.6,0,0.8-0.3,0.9-0.8c0-0.8,0-1.6,0-2.4c0-0.1,0-0.2,0.1-0.2
		c0.9-0.4,1.3-1.5,1-2.4c-0.2-0.6-0.6-1-1.2-1.2c0-0.1,0-0.1,0-0.2c0-0.8,0-1.6,0-2.4c0-0.4-0.3-0.8-0.8-0.8c-0.1,0-0.2,0-0.4,0
		c-0.1,0-0.2,0-0.3,0.1c-2,1.7-4.3,2.4-6.8,2.4c-1.5,0-3.1,0-4.6,0c-0.8,0-1.4,0.5-1.7,1.2C12.3,8.7,12.3,8.8,12.3,8.9z"/>
	<path class="st10" d="M12.3,8.9c0-0.1,0.1-0.2,0.1-0.3c0.2-0.7,0.9-1.2,1.7-1.2c1.5,0,3.1,0,4.6,0c2.6,0,4.9-0.7,6.8-2.4
		c0.1-0.1,0.2-0.1,0.3-0.1c0.1,0,0.2,0,0.4,0c0.4,0,0.8,0.3,0.8,0.8c0,0.8,0,1.6,0,2.4c0,0.1,0,0.1,0,0.2c0.6,0.3,1,0.7,1.2,1.2
		c0.3,0.9-0.1,2-1,2.4C27,11.9,27,12,27,12.1c0,0.8,0,1.6,0,2.4c0,0.5-0.3,0.8-0.9,0.8c-0.3,0-0.6-0.1-0.9-0.3c-1.2-1-2.6-1.7-4.1-2
		c-1-0.2-2-0.3-3.1-0.2c0,0,0,0-0.1,0c0.1,0.6,0.1,1.1,0.2,1.7c0.1,1.2,0.3,2.3,0.4,3.5c0.1,0.6-0.4,1.1-1,1.1c-0.3,0-0.6,0-0.9,0
		c-0.6,0-1-0.4-1.1-0.9c-0.2-1.7-0.4-3.4-0.6-5.1c0-0.1,0-0.1,0-0.2c-0.4,0-0.7,0-1.1,0c-0.7,0-1.2-0.4-1.5-1
		c-0.1-0.2-0.1-0.4-0.2-0.5C12.3,10.5,12.3,9.7,12.3,8.9z M26,14.8c0.4,0,0.5,0,0.5-0.4c0-2.9,0-5.8,0-8.7c0-0.1,0-0.1,0-0.2
		c0-0.1-0.1-0.2-0.2-0.2c-0.1,0-0.2,0-0.3,0c0,0.7,0,1.3,0,1.9c0,0.2-0.1,0.3-0.3,0.3c-0.2,0-0.2-0.1-0.2-0.3c0-0.5,0-0.9,0-1.4
		c0-0.1,0-0.2,0-0.3c-1.7,1.3-3.6,2-5.7,2.2c0,0.2,0.1,0.5-0.3,0.5c-0.3,0-0.2-0.3-0.3-0.5c0,0-0.1,0-0.1,0c-1.7,0-3.4,0-5.1,0
		c-0.8,0-1.3,0.5-1.3,1.3c0,0.6,0,1.2,0,1.9c0,0.8,0.5,1.3,1.3,1.3c1.7,0,3.3,0,5,0c0,0,0.1,0,0.1,0c0-0.1,0-0.1,0-0.2
		c0-1,0-2,0-2.9c0-0.1,0-0.1,0-0.2c0-0.1,0.1-0.2,0.2-0.2c0.1,0,0.2,0.1,0.2,0.2c0,0,0,0.1,0,0.2c0,1,0,2,0,3c0,0.1,0,0.1,0,0.2
		c2.1,0.1,4,0.9,5.7,2.2c0-0.4,0-0.8,0-1.2c0-1.2,0-2.3,0-3.5c0-0.2,0.1-0.3,0.2-0.3c0.2,0,0.3,0.1,0.3,0.3c0,0,0,0.1,0,0.1
		c0,1.5,0,3.1,0,4.6C26,14.7,26,14.8,26,14.8z M16.2,18.1c0,0.3,0.2,0.5,0.5,0.5c0.3,0,0.6,0,0.9,0c0.3,0,0.5-0.2,0.5-0.6
		c0-0.3-0.1-0.6-0.1-0.8c-0.1-1.1-0.3-2.2-0.4-3.3c0-0.3-0.1-0.7-0.1-1c-0.7,0-1.3,0-2,0c0.2,1.6,0.4,3.2,0.6,4.7c0.4,0,0.7,0,1.1,0
		c0.1,0,0.2,0,0.2,0.1c0,0.1,0.1,0.2,0,0.3c0,0.1-0.2,0.1-0.2,0.1C16.9,18.1,16.5,18.1,16.2,18.1z M27,8.8c0,0.9,0,1.7,0,2.6
		c0.5-0.3,0.7-0.7,0.7-1.3C27.7,9.6,27.5,9.1,27,8.8z"/>
	<path class="st9" d="M26,14.8c0-0.1,0-0.1,0-0.2c0-1.5,0-3.1,0-4.6c0,0,0-0.1,0-0.1c0-0.2-0.1-0.3-0.3-0.3c-0.2,0-0.2,0.1-0.2,0.3
		c0,1.2,0,2.3,0,3.5c0,0.4,0,0.8,0,1.2c-1.7-1.3-3.6-2-5.7-2.2c0-0.1,0-0.1,0-0.2c0-1,0-2,0-3c0-0.1,0-0.1,0-0.2
		c0-0.1-0.1-0.2-0.2-0.2c-0.1,0-0.2,0.1-0.2,0.2c0,0,0,0.1,0,0.2c0,1,0,2,0,2.9c0,0.1,0,0.1,0,0.2c0,0-0.1,0-0.1,0c-1.7,0-3.3,0-5,0
		c-0.8,0-1.3-0.5-1.3-1.3c0-0.6,0-1.2,0-1.9c0-0.8,0.5-1.3,1.3-1.3c1.7,0,3.4,0,5.1,0c0,0,0.1,0,0.1,0c0,0.2-0.1,0.5,0.3,0.5
		c0.3,0,0.2-0.3,0.3-0.5c2.1-0.1,4-0.9,5.7-2.2c0,0.1,0,0.2,0,0.3c0,0.5,0,0.9,0,1.4c0,0.2,0.1,0.3,0.2,0.3c0.2,0,0.3-0.1,0.3-0.3
		c0-0.6,0-1.3,0-1.9c0.1,0,0.2,0,0.3,0c0.1,0,0.2,0.1,0.2,0.2c0,0.1,0,0.1,0,0.2c0,2.9,0,5.8,0,8.7C26.5,14.8,26.3,14.9,26,14.8z
		 M25.5,8.6C25.5,8.6,25.5,8.6,25.5,8.6c0,0.1,0,0.2,0,0.3c0,0.1,0.1,0.2,0.2,0.2C25.9,9.1,26,9,26,8.9c0-0.2,0-0.4,0-0.5
		c0-0.1-0.1-0.2-0.2-0.2c-0.1,0-0.2,0.1-0.3,0.2C25.5,8.4,25.5,8.5,25.5,8.6z"/>
	<path class="st9" d="M16.2,18.1c0.4,0,0.7,0,1.1,0c0.1,0,0.2-0.1,0.2-0.1c0-0.1,0-0.2,0-0.3c0-0.1-0.2-0.1-0.2-0.1
		c-0.4,0-0.7,0-1.1,0c-0.2-1.6-0.4-3.1-0.6-4.7c0.7,0,1.3,0,2,0c0,0.3,0.1,0.7,0.1,1c0.1,1.1,0.3,2.2,0.4,3.3c0,0.3,0.1,0.6,0.1,0.8
		c0,0.3-0.2,0.6-0.5,0.6c-0.3,0-0.6,0-0.9,0C16.4,18.6,16.2,18.4,16.2,18.1z"/>
	<path class="st9" d="M27,8.8c0.5,0.3,0.7,0.7,0.7,1.3c0,0.6-0.3,1-0.7,1.3C27,10.5,27,9.7,27,8.8z"/>
	<path class="st6" d="M25.5,8.6c0-0.1,0-0.2,0-0.2c0-0.1,0.1-0.2,0.3-0.2c0.1,0,0.2,0.1,0.2,0.2c0,0.2,0,0.4,0,0.5
		c0,0.1-0.1,0.2-0.2,0.2c-0.1,0-0.2-0.1-0.2-0.2C25.5,8.8,25.5,8.7,25.5,8.6C25.5,8.6,25.5,8.6,25.5,8.6z"/>
</g>
<g id="plus_channel" class="st5">
	<path class="st6" d="M22.3,20.2L22.3,20.2c-0.2,0-0.4-0.2-0.4-0.4v-4c0-0.2,0.2-0.3,0.3-0.3h0c0.2,0,0.3,0.2,0.3,0.3v4
		C22.6,20.1,22.4,20.2,22.3,20.2z"/>
	<path class="st6" d="M24.6,17.9L24.6,17.9c0,0.2-0.2,0.4-0.3,0.4h-4c-0.2,0-0.3-0.2-0.3-0.4l0,0c0-0.2,0.2-0.4,0.3-0.4h4
		C24.4,17.5,24.6,17.7,24.6,17.9z"/>
</g>
<g id="arrow_channel" class="st5">
	<path class="st6" d="M24.3,17.9L24.3,17.9c0,0.2-0.1,0.4-0.3,0.4h-3.9c-0.2,0-0.3-0.1-0.3-0.3v-0.1c0-0.2,0.1-0.3,0.3-0.3H24
		C24.1,17.5,24.3,17.7,24.3,17.9z"/>
	<path class="st6" d="M23,19.4L23,19.4c0.1,0.1,0.3,0.1,0.4,0l1.3-1.2c0.1-0.1,0.1-0.3,0-0.4v0c-0.1-0.1-0.3-0.1-0.4,0L23,18.9
		C22.9,19,22.9,19.2,23,19.4z"/>
	<path class="st6" d="M24.7,18.1L24.7,18.1c-0.1,0.1-0.3,0.1-0.4,0L23,16.9c-0.1-0.1-0.1-0.3,0-0.4l0,0c0.1-0.1,0.3-0.1,0.4,0
		l1.3,1.2C24.9,17.8,24.9,18,24.7,18.1z"/>
</g>
<g id="message" class="st5">
	<path class="st11" d="M25.1,4.4c1.8,0,3.2,1.4,3.2,3.1v5.3c0,3.8-4.7,3.1-7.3,3.1L20.9,16l-4.7,3.2L16.1,16L16,15.9h-0.6
		c-1.7,0-3.1-1.4-3.1-3.1V7.5c0-1.7,1.4-3.1,3.1-3.1H25.1z"/>
</g>
<g class="st5">
	<g class="st12">
		<circle class="st13" cx="24.2" cy="16.9" r="3"/>
		<g id="plus_message">
			<path class="st4" d="M24.2,19.4L24.2,19.4c-0.2,0-0.4-0.2-0.4-0.3v-4.3c0-0.2,0.2-0.4,0.3-0.4h0c0.2,0,0.3,0.2,0.3,0.4V19
				C24.6,19.2,24.4,19.4,24.2,19.4z"/>
			<path class="st4" d="M26.7,16.9L26.7,16.9c0,0.2-0.2,0.4-0.3,0.4h-4.3c-0.2,0-0.4-0.2-0.4-0.4l0,0c0-0.2,0.2-0.4,0.4-0.4h4.3
				C26.5,16.5,26.7,16.7,26.7,16.9z"/>
		</g>
	</g>
</g>
<g id="new_message" class="st5">
	<path class="st7" d="M43.5,9v7.6h-0.7V8.1h1.1l3.1,5.9l0.9,1.7h0.1V8.1h0.7v8.4h-1.1l-3.1-5.8L43.5,9L43.5,9z"/>
	<path class="st7" d="M55.3,16.1c-0.4,0.3-1.1,0.5-1.9,0.5c-1.8,0-2.8-0.9-2.8-3.3c0-2.4,1.3-3.3,2.7-3.3c1.5,0,2.3,1,2.3,2.5
		c0,0.3,0,0.7-0.1,1.1h-4.2c0.1,1.8,0.8,2.4,2.2,2.4c0.6,0,1.2-0.2,1.5-0.5L55.3,16.1z M51.3,13h3.5c0-0.2,0-0.3,0-0.4
		c0-1.2-0.5-1.9-1.7-1.9C52.3,10.6,51.4,11.2,51.3,13z"/>
	<path class="st7" d="M60.8,10.7l-1.5,5.8h-1l-1.7-6.5h0.7l1,3.7c0.2,0.7,0.4,1.4,0.5,2.1h0c0.1-0.6,0.3-1.2,0.4-1.8l1-4h1.1l1,4.1
		c0.1,0.6,0.3,1.1,0.4,1.8h0c0.2-0.7,0.4-1.4,0.5-2.1l1-3.7H65l-1.7,6.5h-1L60.8,10.7L60.8,10.7z"/>
	<path class="st7" d="M73.7,14.5L73.7,14.5l2.7-6.4h1.2v8.4h-0.7V9h-0.1c-0.9,2.1-1.8,4.2-2.7,6.3h-0.9L70.6,9h-0.1v7.6h-0.7V8.1
		h1.2L73.7,14.5z"/>
	<path class="st7" d="M84.2,16.1c-0.4,0.3-1.1,0.5-1.9,0.5c-1.8,0-2.8-0.9-2.8-3.3c0-2.4,1.3-3.3,2.7-3.3c1.5,0,2.3,1,2.3,2.5
		c0,0.3,0,0.7-0.1,1.1h-4.2c0.1,1.8,0.8,2.4,2.2,2.4c0.6,0,1.2-0.2,1.5-0.5L84.2,16.1z M80.2,13h3.5c0-0.2,0-0.3,0-0.4
		c0-1.2-0.5-1.9-1.7-1.9C81.2,10.6,80.3,11.2,80.2,13z"/>
	<path class="st7" d="M86,11.7c0-0.9,0.8-1.7,2.2-1.7c0.7,0,1.4,0.2,1.8,0.6l-0.5,0.5c-0.3-0.3-0.9-0.5-1.3-0.5
		c-1,0-1.4,0.5-1.4,1.1c0,1.6,3.3,0.9,3.3,3.1c0,0.9-0.8,1.8-2.2,1.8c-1,0-1.8-0.4-2.2-0.8l0.5-0.6c0.4,0.4,1,0.7,1.8,0.7
		c1,0,1.5-0.5,1.5-1.2C89.3,13.3,86,13.9,86,11.7z"/>
	<path class="st7" d="M91.6,11.7c0-0.9,0.8-1.7,2.2-1.7c0.7,0,1.4,0.2,1.8,0.6l-0.5,0.5c-0.3-0.3-0.9-0.5-1.3-0.5
		c-1,0-1.4,0.5-1.4,1.1c0,1.6,3.3,0.9,3.3,3.1c0,0.9-0.8,1.8-2.2,1.8c-1,0-1.8-0.4-2.2-0.8l0.5-0.6c0.4,0.4,1,0.7,1.8,0.7
		c1,0,1.5-0.5,1.5-1.2C95,13.3,91.6,13.9,91.6,11.7z"/>
	<path class="st7" d="M101.5,11.9v3c0,0.6,0.2,1.1,0.7,1.1h0.2v0.5c0,0-0.1,0-0.2,0c-0.6,0-1-0.4-1.2-0.8h0c-0.3,0.4-0.9,0.9-2,0.9
		c-1.2,0-1.9-0.8-1.9-1.7c0-1.4,1.4-2.1,3.8-2.1v-0.8c0-1.2-0.5-1.5-1.5-1.5c-0.9,0-1.4,0.5-1.6,0.8L97.3,11c0.2-0.3,0.8-1,2.1-1
		C100.7,10,101.5,10.6,101.5,11.9z M100.9,13.5c-1.7,0-3.1,0.4-3.1,1.4c0,0.6,0.5,1.2,1.3,1.2c0.8,0,1.5-0.5,1.8-1V13.5z"/>
	<path class="st7" d="M108.5,16.7c0,1.7-1,2.5-2.6,2.5c-1.1,0-1.8-0.4-2-0.6l0.4-0.6c0.3,0.3,0.8,0.6,1.7,0.6c1.2,0,1.8-0.6,1.8-1.9
		V16h0c-0.2,0.2-0.8,0.6-1.7,0.6c-1.3,0-2.4-0.9-2.4-3c0-2.1,1-3.5,3.1-3.5c0.7,0,1.3,0.1,1.7,0.3V16.7z M106.6,10.7
		c-1.3,0-2.3,0.9-2.3,2.7c0,2,1,2.5,1.9,2.5c0.6,0,1.2-0.3,1.5-0.7v-4.3C107.5,10.8,107.1,10.7,106.6,10.7z"/>
	<path class="st7" d="M114.9,16.1c-0.4,0.3-1.1,0.5-1.9,0.5c-1.8,0-2.8-0.9-2.8-3.3c0-2.4,1.3-3.3,2.7-3.3c1.5,0,2.3,1,2.3,2.5
		c0,0.3,0,0.7-0.1,1.1h-4.2c0.1,1.8,0.8,2.4,2.2,2.4c0.6,0,1.2-0.2,1.5-0.5L114.9,16.1z M110.9,13h3.5c0-0.2,0-0.3,0-0.4
		c0-1.2-0.5-1.9-1.7-1.9C111.9,10.6,111,11.2,110.9,13z"/>
</g>
</svg>
