<?xml version="1.0" encoding="utf-8"?>
<!-- Generator: Adobe Illustrator 27.0.0, SVG Export Plug-In . SVG Version: 6.00 Build 0)  -->
<svg version="1.1" id="Layer_1" xmlns="http://www.w3.org/2000/svg" xmlns:xlink="http://www.w3.org/1999/xlink" x="0px" y="0px"
	 viewBox="0 0 80 24" style="enable-background:new 0 0 80 24;" xml:space="preserve">
<style type="text/css">
	.st0{fill:#0676FF;}
	.st1{display:none;fill:#7FB3D5;}
	.st2{display:none;fill:#4E7CA8;}
	.st3{display:none;}
	.st4{display:inline;fill:#FFFFFF;stroke:#FFFFFF;stroke-width:0.25;stroke-miterlimit:10;}
	.st5{fill:none;}
	.st6{display:none;fill:#FFFFFF;stroke:#FFFFFF;stroke-width:0.25;stroke-miterlimit:10;}
	.st7{font-family:'KohinoorBangla-Regular';}
	.st8{font-size:15px;}
	.st9{fill:#FFFFFF;stroke:#FFFFFF;stroke-width:0.25;stroke-miterlimit:10;}
</style>
<path id="background" class="st0" d="M68,24H12C5.4,24,0,18.6,0,12v0C0,5.4,5.4,0,12,0l56,0c6.6,0,12,5.4,12,12v0
	C80,18.6,74.6,24,68,24z"/>
<path id="hover" class="st1" d="M68,24H12C5.4,24,0,18.6,0,12v0C0,5.4,5.4,0,12,0l56,0c6.6,0,12,5.4,12,12v0C80,18.6,74.6,24,68,24z
	"/>
<path id="pressed" class="st2" d="M68,24H12C5.4,24,0,18.6,0,12v0C0,5.4,5.4,0,12,0l56,0c6.6,0,12,5.4,12,12v0
	C80,18.6,74.6,24,68,24z"/>
<g class="st3">
	<path class="st4" d="M36.4,7.2L33,13.9v3.8h-1.2v-3.8l-3.5-6.7h1.4l2.7,5.5h0.1l2.7-5.5H36.4z"/>
	<path class="st4" d="M43.4,17.1c-0.5,0.4-1.4,0.7-2.6,0.7c-2.3,0-3.6-1.2-3.6-4.2c0-3,1.6-4.2,3.5-4.2c1.9,0,3,1.3,3,3.2
		c0,0.4,0,0.9-0.1,1.4h-5.2c0.1,2,0.9,2.8,2.6,2.8c0.8,0,1.5-0.3,1.9-0.6L43.4,17.1z M38.4,13h4.1c0-0.2,0-0.4,0-0.5
		c0-1.4-0.6-2.2-1.9-2.2C39.5,10.4,38.5,11.1,38.4,13z"/>
	<path class="st4" d="M45.5,11.7c0-1.2,1-2.3,2.8-2.3c1,0,1.9,0.3,2.4,0.9L50,11.1c-0.4-0.4-1-0.7-1.7-0.7c-1.1,0-1.6,0.6-1.6,1.2
		c0,1.8,4.1,1.1,4.1,3.9c0,1.1-0.9,2.3-2.9,2.3c-1.4,0-2.4-0.5-2.9-1l0.7-0.9c0.5,0.5,1.3,0.9,2.2,0.9c1.1,0,1.7-0.6,1.7-1.3
		C49.7,13.7,45.5,14.4,45.5,11.7z"/>
</g>
<rect class="st5" width="80" height="24"/>
<text id="No" transform="matrix(1 0 0 1 30.5649 17.6924)" class="st6 st7 st8">No</text>
<rect class="st5" width="80" height="24"/>
<text id="OK" transform="matrix(1 0 0 1 30.6699 17.6924)" class="st6 st7 st8">OK</text>
<g class="st3">
	<path class="st4" d="M12.6,7.8V16h3.9v0.9h-5V7.8H12.6z"/>
	<path class="st4" d="M21.2,13.4c0-2.2,0.8-3.7,3-3.7c2.2,0,2.9,1.5,2.9,3.6c0,2.2-0.8,3.7-3,3.7C21.9,17.1,21.2,15.6,21.2,13.4z
		 M24.1,16.2c1.4,0,1.9-0.9,1.9-2.7c0-1.9-0.6-2.8-1.9-2.8c-1.3,0-1.8,0.9-1.8,2.7C22.2,15.2,22.8,16.2,24.1,16.2z"/>
	<path class="st4" d="M37.6,17c0,1.9-1.1,2.8-2.9,2.8c-1.3,0-2-0.5-2.3-0.8l0.6-0.8c0.4,0.4,0.9,0.7,1.9,0.7c1.3,0,1.8-0.6,1.8-1.9
		v-0.6h-0.1c-0.2,0.2-0.8,0.6-1.7,0.6c-1.5,0-2.7-0.9-2.7-3.3c0-2.3,1.1-3.8,3.4-3.8c0.9,0,1.6,0.2,2,0.4V17z M35.5,10.7
		c-1.4,0-2.3,0.9-2.3,2.8c0,2,0.9,2.6,1.9,2.6c0.6,0,1.2-0.2,1.5-0.7v-4.4C36.3,10.8,35.9,10.7,35.5,10.7z"/>
	<path class="st4" d="M43.2,13.4c0-2.2,0.8-3.7,3-3.7c2.2,0,2.9,1.5,2.9,3.6c0,2.2-0.8,3.7-3,3.7C43.9,17.1,43.2,15.6,43.2,13.4z
		 M46.1,16.2c1.4,0,1.9-0.9,1.9-2.7c0-1.9-0.6-2.8-1.9-2.8c-1.3,0-1.8,0.9-1.8,2.7C44.2,15.2,44.8,16.2,46.1,16.2z"/>
	<path class="st4" d="M54.5,9.9h1v4.6c0,1.2,0.5,1.7,1.5,1.7c1,0,1.8-0.6,1.8-1.7V9.9h1v7.1h-0.8l-0.2-0.7h-0.1
		c-0.2,0.3-0.8,0.9-2,0.9c-1.5,0-2.3-0.8-2.3-2.4V9.9z"/>
	<path class="st4" d="M66,15v-4.4h-1.1V10L66,9.8L66.3,8H67v1.9h2v0.8h-2V15c0,0.8,0.4,1.1,1,1.1c0.6,0,0.9-0.1,1.1-0.2l0.3,0.8
		c-0.3,0.2-0.7,0.3-1.6,0.3C66.6,17,66,16.4,66,15z"/>
</g>
<g id="Create">
	<path class="st9" d="M23.2,7c1.6,0,2.4,0.6,2.8,0.9l-0.8,0.9c-0.5-0.4-1.1-0.7-2.2-0.7c-1.8,0-3,1.3-3,4.3c0,2.9,1.1,4.3,3.1,4.3
		c1.1,0,1.7-0.3,2.1-0.6l0.7,0.9c-0.5,0.5-1.4,0.9-2.9,0.9c-2.9,0-4.1-2.1-4.1-5.3C18.9,9.1,20.4,7,23.2,7z"/>
	<path class="st9" d="M31.8,10.7c-0.3-0.1-0.6-0.1-0.9-0.1c-0.8,0-1.6,0.3-2,1v6.1h-1.2V9.5h0.9l0.3,0.9h0.1c0.4-0.6,1.1-1,2.1-1
		c0.4,0,0.6,0,0.8,0.1V10.7z"/>
	<path class="st9" d="M38.8,17.1c-0.5,0.4-1.4,0.7-2.6,0.7c-2.3,0-3.6-1.2-3.6-4.2c0-3,1.6-4.2,3.5-4.2c1.9,0,3,1.3,3,3.2
		c0,0.4,0,0.9-0.1,1.4h-5.2c0.1,2,0.9,2.8,2.6,2.8c0.8,0,1.5-0.3,1.9-0.6L38.8,17.1z M33.9,13H38c0-0.2,0-0.4,0-0.5
		c0-1.4-0.6-2.2-1.9-2.2C35,10.4,34,11.1,33.9,13z"/>
	<path class="st9" d="M46.6,11.9v3.7c0,0.7,0.2,1.2,0.8,1.2h0.2v0.9c-0.1,0.1-0.3,0.1-0.4,0.1c-0.8,0-1.3-0.4-1.5-1h-0.1
		c-0.4,0.5-1,1.1-2.4,1.1c-1.5,0-2.4-1.1-2.4-2.2c0-1.8,1.8-2.7,4.7-2.6v-0.9c0-1.3-0.6-1.7-1.7-1.7c-1.1,0-1.6,0.6-1.9,1L41,10.7
		c0.3-0.4,1.1-1.3,2.7-1.3C45.5,9.4,46.6,10.2,46.6,11.9z M45.5,14c-2-0.1-3.5,0.4-3.5,1.6c0,0.7,0.5,1.3,1.5,1.3
		c0.9,0,1.7-0.6,2-1.1V14z"/>
	<path class="st9" d="M49.7,15.5v-5h-1.2V9.7l1.2-0.2l0.4-2.1h0.8v2.1h2.2v0.9h-2.2v5c0,0.9,0.5,1.3,1.2,1.3c0.7,0,1-0.1,1.2-0.3
		l0.3,0.9c-0.3,0.2-0.9,0.4-1.8,0.4C50.4,17.8,49.7,17.1,49.7,15.5z"/>
	<path class="st9" d="M60.9,17.1c-0.5,0.4-1.4,0.7-2.6,0.7c-2.3,0-3.6-1.2-3.6-4.2c0-3,1.7-4.2,3.5-4.2c1.9,0,3,1.3,3,3.2
		c0,0.4,0,0.9-0.1,1.4h-5.2c0.1,2,0.9,2.8,2.6,2.8c0.8,0,1.5-0.3,1.9-0.6L60.9,17.1z M55.9,13H60c0-0.2,0-0.4,0-0.5
		c0-1.4-0.6-2.2-1.9-2.2C57,10.4,56,11.1,55.9,13z"/>
</g>
<g id="Cancel" class="st3">
	<path class="st4" d="M22.8,7c1.6,0,2.4,0.6,2.8,0.9l-0.8,0.9c-0.5-0.4-1.1-0.7-2.2-0.7c-1.8,0-3,1.3-3,4.3c0,2.9,1.1,4.3,3.1,4.3
		c1.1,0,1.7-0.3,2.1-0.6l0.7,0.9c-0.5,0.5-1.4,0.9-2.9,0.9c-2.9,0-4.1-2.1-4.1-5.3C18.5,9.1,20,7,22.8,7z"/>
	<path class="st4" d="M32.6,11.9v3.7c0,0.7,0.2,1.2,0.8,1.2h0.2v0.9c-0.1,0.1-0.3,0.1-0.4,0.1c-0.8,0-1.3-0.4-1.5-1h-0.1
		c-0.4,0.5-1,1.1-2.4,1.1c-1.5,0-2.4-1.1-2.4-2.2c0-1.8,1.8-2.7,4.7-2.6v-0.9c0-1.3-0.6-1.7-1.7-1.7c-1.1,0-1.6,0.6-1.9,1l-0.9-0.7
		c0.3-0.4,1-1.3,2.7-1.3C31.6,9.4,32.6,10.2,32.6,11.9z M31.6,14c-2-0.1-3.5,0.4-3.5,1.6c0,0.7,0.5,1.3,1.5,1.3c0.9,0,1.7-0.6,2-1.1
		V14z"/>
	<path class="st4" d="M41.7,17.7h-1.2v-5.4c0-1.2-0.6-1.9-1.8-1.9c-1,0-1.8,0.7-2.1,1.5v5.8h-1.2V9.5h0.9l0.2,0.9h0.1
		c0.2-0.3,1.1-1,2.3-1c1.6,0,2.6,0.9,2.7,2.7V17.7z"/>
	<path class="st4" d="M47.2,9.4c1.3,0,2,0.5,2.3,0.9l-0.8,0.9c-0.3-0.3-0.8-0.7-1.6-0.7c-1.3,0-2.2,0.9-2.2,3.2
		c0,2.3,0.8,3.2,2.2,3.2c0.8,0,1.3-0.3,1.6-0.6l0.7,0.8c-0.3,0.4-1,0.9-2.4,0.9c-2,0-3.3-1.2-3.3-4.1C43.7,10.7,45.2,9.4,47.2,9.4z"
		/>
	<path class="st4" d="M56.9,17.1c-0.5,0.4-1.4,0.7-2.6,0.7c-2.3,0-3.6-1.2-3.6-4.2c0-3,1.7-4.2,3.5-4.2c1.9,0,3,1.3,3,3.2
		c0,0.4,0,0.9-0.1,1.4h-5.2c0.1,2,0.9,2.8,2.6,2.8c0.8,0,1.5-0.3,1.9-0.6L56.9,17.1z M51.9,13H56c0-0.2,0-0.4,0-0.5
		c0-1.4-0.6-2.2-1.9-2.2C53.1,10.4,52.1,11.1,51.9,13z"/>
	<path class="st4" d="M60.6,6.3v9.5c0,0.7,0.2,1,0.9,1c0.3,0,0.5-0.1,0.7-0.2v1c-0.3,0.1-0.7,0.2-1,0.2c-1.1,0-1.7-0.7-1.7-1.7V6.3
		H60.6z"/>
</g>
</svg>
