<?xml version="1.0" encoding="utf-8"?>
<!-- Generator: Adobe Illustrator 27.0.0, SVG Export Plug-In . SVG Version: 6.00 Build 0)  -->
<svg version="1.1" id="Layer_1" xmlns="http://www.w3.org/2000/svg" xmlns:xlink="http://www.w3.org/1999/xlink" x="0px" y="0px"
	 viewBox="0 0 101 16" style="enable-background:new 0 0 101 16;" xml:space="preserve">
<style type="text/css">
	.st0{fill:#1180E9;stroke:#1180E9;stroke-width:0.5;stroke-miterlimit:10;}
	.st1{fill:#1180E9;}
</style>
<g>
	<g>
		<path class="st0" d="M8.9,11.9c0,0.1-0.1,0.2-0.2,0.2c-0.5,0.2-1.1,0.4-1.6,0.4c-0.5,0-1-0.1-1.4-0.4S4.9,11.5,4.6,11
			S4.1,9.7,4.1,8.8V7.8c0-0.9,0.1-1.7,0.4-2.2s0.7-1,1.1-1.2s0.9-0.4,1.4-0.4c0.5,0,1.1,0.1,1.6,0.4c0.1,0,0.2,0.1,0.2,0.2
			c0,0,0,0.1,0,0.1L8.8,5.1c0,0.1-0.1,0.2-0.2,0.2c-0.1,0-0.1,0-0.1,0C7.9,5.1,7.5,5,7.1,5c-0.6,0-1,0.2-1.4,0.6S5.1,6.8,5.1,7.8
			v0.9c0,1,0.2,1.8,0.6,2.2s0.8,0.6,1.4,0.6c0.4,0,0.8-0.1,1.3-0.3c0,0,0.1,0,0.1,0c0.1,0,0.2,0.1,0.2,0.2l0.1,0.3
			C8.9,11.8,8.9,11.9,8.9,11.9z"/>
		<path class="st0" d="M11.1,6.6c0.6-0.1,1.3-0.1,2-0.1c0.6,0,1.1,0.1,1.5,0.2s0.6,0.3,0.8,0.6s0.2,0.6,0.2,1.1
			c0,0.2-0.1,0.3-0.3,0.3h-0.4c-0.2,0-0.3-0.1-0.3-0.3c0-0.4-0.1-0.6-0.3-0.8s-0.6-0.2-1.1-0.2c-0.4,0-0.8,0-1.3,0v4.7
			c0,0.2-0.1,0.3-0.3,0.3h-0.4c-0.2,0-0.3-0.1-0.3-0.3V6.9C10.9,6.7,11,6.6,11.1,6.6z"/>
		<path class="st0" d="M22.4,11.9c0,0.1-0.1,0.2-0.2,0.2c-0.5,0.2-1.1,0.4-1.8,0.4c-0.8,0-1.5-0.2-2-0.7s-0.8-1.3-0.8-2.3
			c0-0.6,0.1-1.2,0.3-1.6s0.5-0.8,0.9-1s0.8-0.4,1.2-0.4c0.4,0,0.8,0.1,1.1,0.3s0.6,0.5,0.9,0.9s0.3,0.9,0.3,1.4v0.3
			c0,0.2-0.1,0.3-0.3,0.3h-3.4c0,0.7,0.2,1.2,0.6,1.5s0.8,0.5,1.3,0.5c0.4,0,0.9-0.1,1.4-0.3c0,0,0.1,0,0.1,0c0.1,0,0.2,0.1,0.2,0.2
			l0.1,0.3C22.4,11.8,22.4,11.9,22.4,11.9z M21.4,8.7c0-0.3-0.1-0.6-0.2-0.8s-0.3-0.4-0.5-0.5S20.3,7.3,20,7.3
			c-0.3,0-0.6,0.1-0.9,0.4s-0.4,0.6-0.5,1H21.4z"/>
		<path class="st0" d="M28.6,12.4c-0.8,0.1-1.4,0.1-1.9,0.1c-0.5,0-0.9-0.1-1.3-0.2s-0.7-0.4-0.8-0.6s-0.3-0.5-0.3-0.8
			s0.1-0.6,0.3-0.8s0.5-0.5,0.8-0.6s0.8-0.2,1.3-0.2h1.1V8.7c0-0.5-0.1-0.8-0.4-1s-0.6-0.3-1.1-0.3c-0.3,0-0.7,0-1.1,0.1l-0.1,0
			c-0.1,0-0.2-0.1-0.3-0.2l0-0.3V6.8c0-0.1,0-0.1,0.1-0.2s0.1-0.1,0.2-0.1c0.5-0.1,1-0.2,1.5-0.2c0.8,0,1.3,0.2,1.7,0.5
			s0.6,0.9,0.6,1.7v3.4C28.9,12.2,28.8,12.3,28.6,12.4z M25.6,11.4c0.3,0.2,0.6,0.2,1.1,0.2c0.2,0,0.6,0,1.1-0.1V10h-1.1
			c-0.5,0-0.8,0.1-1.1,0.2s-0.4,0.3-0.4,0.6S25.4,11.3,25.6,11.4z"/>
		<path class="st0" d="M35.8,12c0,0.1-0.1,0.2-0.2,0.2c-0.4,0.2-0.8,0.2-1.2,0.2c-0.6,0-1.1-0.2-1.5-0.6s-0.6-1-0.6-1.9V7.4h-0.9
			c-0.2,0-0.3-0.1-0.3-0.3V6.8c0-0.2,0.1-0.3,0.3-0.3h0.9V5c0-0.2,0.1-0.3,0.3-0.3H33c0.2,0,0.3,0.1,0.3,0.3v1.6h1.9
			c0.2,0,0.3,0.1,0.3,0.3v0.3c0,0.2-0.1,0.3-0.3,0.3h-1.9V10c0,0.6,0.1,1,0.3,1.2s0.5,0.4,0.8,0.4c0.3,0,0.6-0.1,0.9-0.2
			c0,0,0.1,0,0.1,0c0.1,0,0.2,0.1,0.2,0.2l0.1,0.3C35.8,11.9,35.8,12,35.8,12z"/>
		<path class="st0" d="M42.6,11.9c0,0.1-0.1,0.2-0.2,0.2c-0.5,0.2-1.1,0.4-1.8,0.4c-0.8,0-1.5-0.2-2-0.7s-0.8-1.3-0.8-2.3
			c0-0.6,0.1-1.2,0.3-1.6s0.5-0.8,0.9-1s0.8-0.4,1.2-0.4c0.4,0,0.8,0.1,1.1,0.3s0.6,0.5,0.9,0.9s0.3,0.9,0.3,1.4v0.3
			c0,0.2-0.1,0.3-0.3,0.3h-3.4c0,0.7,0.2,1.2,0.6,1.5s0.8,0.5,1.3,0.5c0.4,0,0.9-0.1,1.4-0.3c0,0,0.1,0,0.1,0c0.1,0,0.2,0.1,0.2,0.2
			l0.1,0.3C42.6,11.8,42.6,11.9,42.6,11.9z M41.6,8.7c0-0.3-0.1-0.6-0.2-0.8s-0.3-0.4-0.5-0.5s-0.4-0.2-0.6-0.2
			c-0.3,0-0.6,0.1-0.9,0.4s-0.4,0.6-0.5,1H41.6z"/>
		<path class="st0" d="M56.9,12.2c0,0.1,0,0.1-0.1,0.2s-0.1,0.1-0.2,0.1h-0.4c-0.2,0-0.3-0.1-0.3-0.3l-0.6-2.3h-3.2l-0.6,2.3
			c0,0.2-0.2,0.3-0.3,0.3h-0.4c-0.1,0-0.2,0-0.2-0.1s-0.1-0.1-0.1-0.2c0,0,0-0.1,0-0.1l1.7-6.9c0.1-0.3,0.3-0.6,0.5-0.8
			s0.6-0.3,0.9-0.3s0.7,0.1,0.9,0.3s0.4,0.4,0.5,0.8L56.9,12.2C56.8,12.1,56.9,12.1,56.9,12.2z M55,8.9l-0.9-3.6
			c0-0.1-0.1-0.2-0.2-0.2S53.8,5,53.7,5S53.5,5,53.4,5s-0.1,0.1-0.2,0.2l-0.9,3.6H55z"/>
		<path class="st0" d="M62.4,7.6c-0.1,0-0.1,0-0.1,0c-0.5-0.2-1-0.3-1.4-0.3c-0.6,0-1,0.2-1.3,0.5S59,8.7,59,9.5s0.2,1.3,0.5,1.6
			s0.8,0.5,1.3,0.5c0.4,0,0.9-0.1,1.4-0.3c0,0,0.1,0,0.1,0c0.1,0,0.2,0.1,0.2,0.2l0.1,0.3c0,0,0,0.1,0,0.1c0,0.1-0.1,0.2-0.2,0.2
			c-0.5,0.2-1.1,0.4-1.8,0.4c-0.8,0-1.5-0.2-2-0.7S58,10.5,58,9.5s0.3-1.8,0.8-2.3s1.2-0.7,2-0.7c0.6,0,1.2,0.1,1.8,0.4
			c0.1,0,0.2,0.1,0.2,0.2c0,0,0,0.1,0,0.1l-0.1,0.3C62.6,7.6,62.5,7.6,62.4,7.6z"/>
		<path class="st0" d="M69.2,7.6c-0.1,0-0.1,0-0.1,0c-0.5-0.2-1-0.3-1.4-0.3c-0.6,0-1,0.2-1.3,0.5s-0.5,0.9-0.5,1.6s0.2,1.3,0.5,1.6
			s0.8,0.5,1.3,0.5c0.4,0,0.9-0.1,1.4-0.3c0,0,0.1,0,0.1,0c0.1,0,0.2,0.1,0.2,0.2l0.1,0.3c0,0,0,0.1,0,0.1c0,0.1-0.1,0.2-0.2,0.2
			c-0.5,0.2-1.1,0.4-1.8,0.4c-0.8,0-1.5-0.2-2-0.7s-0.8-1.3-0.8-2.3s0.3-1.8,0.8-2.3s1.2-0.7,2-0.7c0.6,0,1.2,0.1,1.8,0.4
			c0.1,0,0.2,0.1,0.2,0.2c0,0,0,0.1,0,0.1l-0.1,0.3C69.4,7.6,69.3,7.6,69.2,7.6z"/>
		<path class="st0" d="M75.1,6.7c0.4,0.2,0.6,0.6,0.8,1s0.3,1,0.3,1.7s-0.1,1.2-0.3,1.7s-0.5,0.8-0.8,1s-0.8,0.3-1.2,0.3
			s-0.8-0.1-1.2-0.3s-0.7-0.6-0.9-1s-0.3-1-0.3-1.7s0.1-1.2,0.3-1.7s0.5-0.8,0.9-1s0.8-0.3,1.2-0.3S74.8,6.5,75.1,6.7z M72.9,11.1
			c0.3,0.4,0.6,0.6,1,0.6s0.7-0.2,1-0.6s0.4-0.9,0.4-1.6s-0.1-1.2-0.4-1.6s-0.6-0.6-1-0.6s-0.7,0.2-1,0.6s-0.4,0.9-0.4,1.6
			S72.6,10.7,72.9,11.1z"/>
		<path class="st0" d="M82.7,12.4c-0.6,0.1-1.3,0.1-2,0.1c-0.9,0-1.5-0.2-1.9-0.5s-0.6-1-0.6-1.8V6.8c0-0.2,0.1-0.3,0.3-0.3H79
			c0.2,0,0.3,0.1,0.3,0.3v3.3c0,0.5,0.1,0.9,0.3,1.1s0.6,0.3,1.1,0.3c0.4,0,0.8,0,1.3,0V6.8c0-0.2,0.1-0.3,0.3-0.3h0.4
			c0.2,0,0.3,0.1,0.3,0.3v5.2C83,12.2,82.9,12.3,82.7,12.4z"/>
		<path class="st0" d="M85.3,6.6c0.6-0.1,1.3-0.1,2-0.1c0.9,0,1.5,0.2,1.9,0.5s0.6,1,0.6,1.8v3.3c0,0.2-0.1,0.3-0.3,0.3H89
			c-0.2,0-0.3-0.1-0.3-0.3V8.8c0-0.5-0.1-0.9-0.3-1.1s-0.6-0.3-1.1-0.3c-0.4,0-0.8,0-1.3,0v4.7c0,0.2-0.1,0.3-0.3,0.3h-0.4
			c-0.2,0-0.3-0.1-0.3-0.3V6.9C85,6.7,85.1,6.6,85.3,6.6z"/>
		<path class="st0" d="M96.5,12c0,0.1-0.1,0.2-0.2,0.2c-0.4,0.2-0.8,0.2-1.2,0.2c-0.6,0-1.1-0.2-1.5-0.6s-0.6-1-0.6-1.9V7.4H92
			c-0.2,0-0.3-0.1-0.3-0.3V6.8c0-0.2,0.1-0.3,0.3-0.3h0.9V5c0-0.2,0.1-0.3,0.3-0.3h0.4c0.2,0,0.3,0.1,0.3,0.3v1.6h1.9
			c0.2,0,0.3,0.1,0.3,0.3v0.3c0,0.2-0.1,0.3-0.3,0.3h-1.9V10c0,0.6,0.1,1,0.3,1.2s0.5,0.4,0.8,0.4c0.3,0,0.6-0.1,0.9-0.2
			c0,0,0.1,0,0.1,0c0.1,0,0.2,0.1,0.2,0.2l0.1,0.3C96.5,11.9,96.5,12,96.5,12z"/>
		<path class="st1" d="M3.1,13.9v-0.6h94.3v0.6H3.1z"/>
	</g>
</g>
</svg>
