<?xml version="1.0" encoding="utf-8"?>
<!-- Generator: Adobe Illustrator 27.0.0, SVG Export Plug-In . SVG Version: 6.00 Build 0)  -->
<svg version="1.1" id="Layer_1" xmlns="http://www.w3.org/2000/svg" xmlns:xlink="http://www.w3.org/1999/xlink" x="0px" y="0px"
	 viewBox="0 0 71 16" style="enable-background:new 0 0 71 16;" xml:space="preserve">
<style type="text/css">
	.st0{fill:#FFFFFF;}
</style>
<g>
	<path class="st0" d="M5.7,3.5C5.7,3.5,5.9,3.4,6,3.4h0.5c0.1,0,0.3,0,0.3,0.1C6.9,3.6,7,3.8,7,3.9v6.3c0,2.1-1,3.2-2.9,3.2
		c-1,0-1.7-0.3-2.2-0.8c-0.5-0.5-0.7-1.3-0.7-2.4V3.9c0-0.1,0-0.3,0.1-0.3c0.1-0.1,0.2-0.1,0.3-0.1h0.5c0.1,0,0.3,0,0.3,0.1
		c0.1,0.1,0.1,0.2,0.1,0.3v6.3c0,0.7,0.1,1.2,0.3,1.5s0.6,0.4,1.1,0.4c0.4,0,0.7-0.1,0.9-0.2c0.2-0.1,0.4-0.3,0.5-0.6
		c0.1-0.3,0.1-0.6,0.1-1.1V3.9C5.5,3.8,5.6,3.6,5.7,3.5z"/>
	<path class="st0" d="M13.8,7.4c-0.1,0.1-0.2,0.1-0.4,0.1c-0.5-0.1-0.9-0.1-1.3-0.1c-0.4,0-0.8,0.1-1,0.2c-0.2,0.1-0.3,0.3-0.3,0.5
		c0,0.2,0.1,0.4,0.3,0.5c0.2,0.1,0.5,0.2,0.9,0.3c0.8,0.1,1.4,0.3,1.9,0.7c0.4,0.4,0.7,0.9,0.7,1.5c0,0.7-0.3,1.3-0.8,1.7
		c-0.5,0.4-1.3,0.6-2.2,0.6c-0.6,0-1.2,0-1.9-0.2c-0.1,0-0.2-0.1-0.3-0.2c-0.1-0.1-0.1-0.2-0.1-0.3c0-0.1,0-0.1,0-0.1l0.1-0.4
		c0-0.1,0.1-0.2,0.2-0.3c0.1-0.1,0.2-0.1,0.4-0.1c0.5,0.1,1.1,0.1,1.6,0.1c0.5,0,0.9-0.1,1.2-0.2c0.3-0.2,0.4-0.4,0.4-0.7
		c0-0.3-0.1-0.5-0.3-0.6s-0.5-0.3-0.9-0.3C11,10.1,10.4,9.9,10,9.5C9.5,9.2,9.3,8.7,9.3,8.2c0-0.7,0.2-1.2,0.7-1.6
		c0.5-0.4,1.2-0.6,2-0.6c0.5,0,1.1,0.1,1.6,0.2c0.1,0,0.2,0.1,0.3,0.2c0.1,0.1,0.1,0.2,0.1,0.3c0,0.1,0,0.1,0,0.1L14,7.1
		C14,7.2,13.9,7.3,13.8,7.4z"/>
	<path class="st0" d="M22.7,12.6c0,0.2-0.1,0.3-0.3,0.4c-0.7,0.3-1.4,0.4-2.1,0.4c-1.1,0-1.9-0.3-2.5-1c-0.6-0.7-0.9-1.6-0.9-2.7
		c0-0.7,0.1-1.4,0.4-1.9c0.3-0.6,0.6-1,1.1-1.3c0.5-0.3,1-0.5,1.5-0.5c0.5,0,1,0.1,1.5,0.4c0.4,0.3,0.8,0.7,1,1.1
		c0.2,0.5,0.4,1,0.4,1.7v0.3c0,0.1,0,0.3-0.1,0.3C22.5,10,22.3,10,22.2,10h-3.9c0.1,1.4,0.8,2,2,2c0.5,0,1-0.1,1.6-0.3
		c0.1,0,0.1,0,0.2,0c0.2,0,0.3,0.1,0.4,0.3l0.1,0.3C22.7,12.4,22.7,12.5,22.7,12.6z M21.2,8.7c0-0.4-0.2-0.7-0.5-1
		c-0.3-0.3-0.6-0.4-0.9-0.4c-0.4,0-0.7,0.1-0.9,0.4c-0.3,0.3-0.4,0.6-0.5,1H21.2z"/>
	<path class="st0" d="M24.9,6.4c0.1-0.1,0.2-0.2,0.3-0.2C25.9,6.1,26.7,6,27.5,6c1.1,0,1.9,0.2,2.3,0.5c0.5,0.4,0.7,1,0.7,1.8
		c0,0.1,0,0.3-0.1,0.3c-0.1,0.1-0.2,0.1-0.3,0.1h-0.5c-0.1,0-0.3,0-0.3-0.1c-0.1-0.1-0.1-0.2-0.1-0.3c0-0.4-0.1-0.7-0.4-0.8
		c-0.2-0.2-0.7-0.2-1.2-0.2c-0.3,0-0.8,0-1.3,0v5.4c0,0.1,0,0.3-0.1,0.3c-0.1,0.1-0.2,0.1-0.3,0.1h-0.5c-0.1,0-0.3,0-0.3-0.1
		c-0.1-0.1-0.1-0.2-0.1-0.3V6.7C24.7,6.6,24.8,6.5,24.9,6.4z"/>
	<path class="st0" d="M32.7,6.4c0.1-0.1,0.2-0.2,0.3-0.2C33.8,6.1,34.5,6,35.4,6c1,0,1.8,0.2,2.3,0.7c0.5,0.5,0.7,1.2,0.7,2.2v3.9
		c0,0.1,0,0.3-0.1,0.3s-0.2,0.1-0.3,0.1h-0.5c-0.1,0-0.3,0-0.3-0.1S37,12.9,37,12.8V8.9c0-0.6-0.1-1-0.4-1.2
		c-0.2-0.2-0.7-0.3-1.2-0.3c-0.3,0-0.8,0-1.3,0v5.4c0,0.1,0,0.3-0.1,0.3c-0.1,0.1-0.2,0.1-0.3,0.1h-0.5c-0.1,0-0.3,0-0.3-0.1
		c-0.1-0.1-0.1-0.2-0.1-0.3V6.7C32.6,6.6,32.6,6.5,32.7,6.4z"/>
	<path class="st0" d="M41.1,9.7c0.5-0.4,1.3-0.5,2.2-0.5h1.2V8.8c0-0.5-0.1-0.9-0.3-1.1c-0.2-0.2-0.6-0.3-1.1-0.3
		c-0.5,0-1,0-1.5,0.1c-0.1,0-0.3,0-0.4-0.1c-0.1-0.1-0.2-0.2-0.2-0.3l0-0.4c0-0.1,0-0.3,0.1-0.4c0.1-0.1,0.2-0.2,0.3-0.2
		C42,6.1,42.6,6,43.2,6c1,0,1.7,0.2,2.1,0.7C45.8,7.1,46,7.8,46,8.8v4c0,0.1,0,0.3-0.1,0.3s-0.2,0.1-0.3,0.2
		c-0.9,0.1-1.6,0.2-2.2,0.2c-0.9,0-1.7-0.2-2.2-0.5s-0.8-0.9-0.8-1.6C40.3,10.6,40.6,10.1,41.1,9.7z M42.2,10.7
		c-0.3,0.1-0.4,0.3-0.4,0.6c0,0.5,0.5,0.8,1.6,0.8c0.3,0,0.7,0,1.1-0.1v-1.5h-1.2C42.8,10.5,42.4,10.6,42.2,10.7z"/>
	<path class="st0" d="M54.1,6.6c0.3,0.4,0.5,0.9,0.5,1.7v4.5c0,0.1,0,0.3-0.1,0.3s-0.2,0.1-0.3,0.1h-0.5c-0.1,0-0.3,0-0.3-0.1
		s-0.1-0.2-0.1-0.3V8.3c0-0.4-0.1-0.6-0.2-0.8c-0.1-0.1-0.4-0.2-0.7-0.2c-0.1,0-0.3,0-0.4,0c0.1,0.3,0.1,0.6,0.1,1v4.4
		c0,0.1,0,0.3-0.1,0.3s-0.2,0.1-0.4,0.1H51c-0.1,0-0.3,0-0.3-0.1s-0.1-0.2-0.1-0.3V8.3c0-0.4-0.1-0.6-0.2-0.8
		c-0.1-0.1-0.4-0.2-0.7-0.2l-0.3,0v5.4c0,0.1,0,0.3-0.1,0.3s-0.2,0.1-0.4,0.1h-0.5c-0.1,0-0.3,0-0.3-0.1s-0.1-0.2-0.1-0.3V6.7
		c0-0.1,0-0.2,0.1-0.3c0.1-0.1,0.2-0.2,0.3-0.2C48.9,6.1,49.5,6,49.9,6c0.6,0,1,0.1,1.3,0.3C51.7,6.1,52.1,6,52.6,6
		C53.3,6,53.8,6.2,54.1,6.6z"/>
	<path class="st0" d="M62,12.6c0,0.2-0.1,0.3-0.3,0.4c-0.7,0.3-1.4,0.4-2.1,0.4c-1.1,0-1.9-0.3-2.5-1s-0.9-1.6-0.9-2.7
		c0-0.7,0.1-1.4,0.4-1.9s0.6-1,1.1-1.3c0.5-0.3,1-0.5,1.5-0.5c0.5,0,1,0.1,1.5,0.4s0.8,0.7,1,1.1c0.2,0.5,0.4,1,0.4,1.7v0.3
		c0,0.1,0,0.3-0.1,0.3S61.7,10,61.5,10h-3.9c0.1,1.4,0.8,2,2,2c0.5,0,1-0.1,1.6-0.3c0.1,0,0.1,0,0.2,0c0.2,0,0.3,0.1,0.4,0.3
		l0.1,0.3C62,12.4,62,12.5,62,12.6z M60.6,8.7c0-0.4-0.2-0.7-0.5-1c-0.3-0.3-0.6-0.4-0.9-0.4c-0.4,0-0.7,0.1-0.9,0.4
		c-0.3,0.3-0.4,0.6-0.5,1H60.6z"/>
	<path class="st0" d="M68,6.3c0.1,0.1,0.1,0.2,0.1,0.3v1.2c0,0.1,0,0.3-0.1,0.3c-0.1,0.1-0.2,0.1-0.3,0.1h-1.4c-0.1,0-0.3,0-0.3-0.1
		c-0.1-0.1-0.1-0.2-0.1-0.3V6.6c0-0.1,0-0.3,0.1-0.3c0.1-0.1,0.2-0.1,0.3-0.1h1.4C67.8,6.2,67.9,6.2,68,6.3z M65.8,11.6
		c0-0.1,0-0.3,0.1-0.3s0.2-0.1,0.3-0.1h1.4c0.1,0,0.3,0,0.3,0.1s0.1,0.2,0.1,0.3v1.2c0,0.1,0,0.3-0.1,0.3s-0.2,0.1-0.3,0.1h-1.4
		c-0.1,0-0.3,0-0.3-0.1s-0.1-0.2-0.1-0.3V11.6z"/>
</g>
</svg>
