<?xml version="1.0" encoding="utf-8"?>
<!-- Generator: Adobe Illustrator 27.0.0, SVG Export Plug-In . SVG Version: 6.00 Build 0)  -->
<svg version="1.1" id="Layer_1" xmlns="http://www.w3.org/2000/svg" xmlns:xlink="http://www.w3.org/1999/xlink" x="0px" y="0px"
	 viewBox="0 0 203 20" style="enable-background:new 0 0 203 20;" xml:space="preserve">
<style type="text/css">
	.st0{fill:#FFFFFF;stroke:#FFFFFF;stroke-width:0.5;stroke-miterlimit:10;}
</style>
<g>
	<path class="st0" d="M8.6,15.2c0,0.1,0,0.2-0.1,0.2s-0.1,0.1-0.2,0.1H7.8c-0.2,0-0.4-0.1-0.4-0.3l-0.7-2.9h-4l-0.7,2.9
		c-0.1,0.2-0.2,0.3-0.4,0.3H1c-0.1,0-0.2,0-0.2-0.1s-0.1-0.1-0.1-0.2c0,0,0-0.1,0-0.1l2.2-8.7C3,6,3.2,5.7,3.5,5.4s0.7-0.3,1.1-0.3
		s0.8,0.1,1.1,0.3s0.5,0.5,0.6,1l2.2,8.7C8.6,15.1,8.6,15.2,8.6,15.2z M6.4,11.2L5.2,6.6c0-0.1-0.1-0.2-0.2-0.3S4.8,6.2,4.6,6.2
		s-0.3,0-0.4,0.1S4.1,6.5,4.1,6.6l-1.1,4.6H6.4z"/>
	<path class="st0" d="M16.1,15.2c0,0.2-0.1,0.3-0.3,0.3c-0.4,0.1-0.8,0.1-1.3,0.1c-0.8,0-1.4-0.2-1.8-0.6c-0.4-0.4-0.6-1-0.6-1.8
		V5.6h-1.6c-0.2,0-0.4-0.1-0.4-0.4V4.9c0-0.2,0.1-0.4,0.4-0.4H13c0.2,0,0.4,0.1,0.4,0.4v8.4c0,0.4,0.1,0.8,0.3,0.9
		c0.2,0.2,0.5,0.3,0.9,0.3c0.4,0,0.7,0,1-0.1c0,0,0.1,0,0.1,0c0.2,0,0.3,0.1,0.4,0.3l0.1,0.4C16.1,15.1,16.1,15.1,16.1,15.2z"/>
	<path class="st0" d="M18.9,8.2C19.6,8.1,20.5,8,21.3,8c0.8,0,1.4,0.1,1.8,0.2s0.8,0.4,1,0.7s0.3,0.8,0.3,1.4c0,0.2-0.1,0.4-0.4,0.4
		h-0.5c-0.2,0-0.4-0.1-0.4-0.4c0-0.5-0.1-0.8-0.4-1S22,9.1,21.3,9.1c-0.5,0-1,0-1.6,0.1v5.9c0,0.2-0.1,0.4-0.4,0.4h-0.5
		c-0.2,0-0.4-0.1-0.4-0.4V8.6C18.5,8.4,18.6,8.2,18.9,8.2z"/>
	<path class="st0" d="M32.9,14.9c0,0.1-0.1,0.2-0.2,0.3c-0.7,0.3-1.4,0.4-2.2,0.4c-1,0-1.9-0.3-2.5-0.9s-1-1.6-1-2.9
		c0-0.8,0.1-1.5,0.4-2.1s0.6-1,1.1-1.3S29.4,8,30,8c0.5,0,1,0.1,1.4,0.4s0.8,0.6,1.1,1.1s0.4,1.1,0.4,1.8v0.3c0,0.2-0.1,0.4-0.4,0.4
		h-4.3c0,0.9,0.3,1.5,0.7,1.9c0.4,0.4,1,0.6,1.6,0.6c0.5,0,1.1-0.1,1.7-0.3c0,0,0.1,0,0.2,0c0.1,0,0.2,0.1,0.3,0.2l0.1,0.4
		C32.9,14.8,32.9,14.8,32.9,14.9z M31.6,10.9c0-0.4-0.1-0.7-0.2-1S31,9.5,30.8,9.3S30.2,9.1,30,9.1c-0.4,0-0.8,0.2-1.1,0.5
		s-0.5,0.7-0.6,1.3H31.6z"/>
	<path class="st0" d="M40.7,15.5c-1,0.1-1.8,0.2-2.4,0.2c-0.6,0-1.2-0.1-1.6-0.3c-0.5-0.2-0.8-0.4-1-0.8s-0.4-0.7-0.4-1.1
		s0.1-0.7,0.4-1.1s0.6-0.6,1.1-0.8s1-0.3,1.7-0.3h1.4v-0.6c0-0.6-0.2-1.1-0.5-1.3s-0.8-0.4-1.4-0.4c-0.4,0-0.8,0-1.3,0.1l-0.1,0
		c-0.2,0-0.3-0.1-0.3-0.3l0-0.4V8.5c0-0.1,0-0.2,0.1-0.2s0.1-0.1,0.2-0.1C36.9,8.1,37.5,8,38.1,8c0.9,0,1.7,0.2,2.2,0.7
		S41,9.8,41,10.8v4.2C41,15.3,40.9,15.4,40.7,15.5z M37,14.3c0.3,0.2,0.8,0.3,1.4,0.3c0.3,0,0.7,0,1.4-0.1v-1.9h-1.4
		c-0.6,0-1,0.1-1.4,0.3s-0.5,0.4-0.5,0.7S36.7,14.1,37,14.3z"/>
	<path class="st0" d="M49.5,15.2c-0.7,0.3-1.4,0.4-2.2,0.4c-1,0-1.9-0.3-2.5-0.9s-1-1.6-1-2.9s0.3-2.3,1-2.9S46.3,8,47.3,8
		c0.4,0,0.7,0,1.1,0.1V4.9c0-0.2,0.1-0.4,0.4-0.4h0.5c0.2,0,0.4,0.1,0.4,0.4v10C49.7,15,49.7,15.1,49.5,15.2z M45.7,13.9
		c0.4,0.4,1,0.6,1.7,0.6c0.4,0,0.7,0,1.1-0.1V9.2c-0.4-0.1-0.7-0.1-1-0.1c-0.7,0-1.3,0.2-1.8,0.6S45,10.8,45,11.8
		C45,12.8,45.3,13.4,45.7,13.9z"/>
	<path class="st0" d="M58.3,8.2c0.1,0.1,0.1,0.1,0.1,0.2c0,0,0,0.1,0,0.1l-1.8,7.2c-0.3,1.2-0.7,2.1-1.2,2.6s-1.2,0.8-2,0.8
		c-0.5,0-1.1-0.1-1.8-0.4c-0.2-0.1-0.2-0.2-0.2-0.3c0,0,0-0.1,0-0.1l0.1-0.4c0.1-0.2,0.2-0.2,0.3-0.2c0.1,0,0.1,0,0.2,0
		c0.2,0.1,0.5,0.1,0.7,0.2c0.3,0,0.5,0.1,0.7,0.1c0.5,0,0.9-0.2,1.2-0.6s0.6-1,0.8-1.8h-0.2c-0.5,0-0.9-0.1-1.2-0.3s-0.5-0.6-0.6-1
		l-1.4-5.7c0,0,0-0.1,0-0.1c0-0.2,0.1-0.3,0.3-0.3h0.5c0.2,0,0.4,0.1,0.4,0.3l1.4,5.7c0,0.1,0.1,0.2,0.2,0.3s0.2,0.1,0.4,0.1h0.5
		l1.5-6.1c0.1-0.2,0.2-0.3,0.4-0.3h0.5C58.2,8.2,58.3,8.2,58.3,8.2z"/>
	<path class="st0" d="M75.2,5.6v9.5c0,0.2-0.1,0.4-0.4,0.4h-0.5c-0.2,0-0.4-0.1-0.4-0.4v-4.5H70v4.5c0,0.2-0.1,0.4-0.4,0.4h-0.5
		c-0.2,0-0.4-0.1-0.4-0.4V5.6c0-0.2,0.1-0.4,0.4-0.4h0.5c0.2,0,0.4,0.1,0.4,0.4v3.9H74V5.6c0-0.2,0.1-0.4,0.4-0.4h0.5
		C75.1,5.2,75.2,5.4,75.2,5.6z"/>
	<path class="st0" d="M82.8,15.5c-1,0.1-1.8,0.2-2.4,0.2c-0.6,0-1.2-0.1-1.6-0.3c-0.5-0.2-0.8-0.4-1-0.8s-0.4-0.7-0.4-1.1
		s0.1-0.7,0.4-1.1s0.6-0.6,1.1-0.8s1-0.3,1.7-0.3h1.4v-0.6c0-0.6-0.2-1.1-0.5-1.3S80.6,9.1,80,9.1c-0.4,0-0.8,0-1.3,0.1l-0.1,0
		c-0.2,0-0.3-0.1-0.3-0.3l0-0.4V8.5c0-0.1,0-0.2,0.1-0.2s0.1-0.1,0.2-0.1C79,8.1,79.7,8,80.2,8c0.9,0,1.7,0.2,2.2,0.7
		s0.7,1.2,0.7,2.2v4.2C83.1,15.3,83,15.4,82.8,15.5z M79.1,14.3c0.3,0.2,0.8,0.3,1.4,0.3c0.3,0,0.7,0,1.4-0.1v-1.9h-1.4
		c-0.6,0-1,0.1-1.4,0.3s-0.5,0.4-0.5,0.7S78.8,14.1,79.1,14.3z"/>
	<path class="st0" d="M91.3,8.2h0.5c0.1,0,0.2,0,0.3,0.1s0.1,0.2,0,0.3l-1.4,5.8c-0.1,0.4-0.3,0.7-0.6,1c-0.3,0.2-0.7,0.3-1.1,0.3
		c-0.4,0-0.8-0.1-1.2-0.3c-0.3-0.2-0.5-0.5-0.6-1l-1.4-5.8c0,0,0-0.1,0-0.1c0-0.1,0-0.2,0.1-0.2s0.1-0.1,0.2-0.1h0.5
		c0.2,0,0.3,0.1,0.4,0.3l1.4,5.6c0,0.1,0.1,0.2,0.2,0.3s0.2,0.1,0.4,0.1c0.1,0,0.3,0,0.4-0.1s0.2-0.2,0.2-0.3l1.4-5.6
		C90.9,8.3,91.1,8.2,91.3,8.2z"/>
	<path class="st0" d="M100.3,14.9c0,0.1-0.1,0.2-0.2,0.3c-0.7,0.3-1.4,0.4-2.2,0.4c-1,0-1.9-0.3-2.5-0.9s-1-1.6-1-2.9
		c0-0.8,0.1-1.5,0.4-2.1s0.6-1,1.1-1.3s1-0.4,1.5-0.4c0.5,0,1,0.1,1.4,0.4s0.8,0.6,1.1,1.1s0.4,1.1,0.4,1.8v0.3
		c0,0.2-0.1,0.4-0.4,0.4h-4.3c0,0.9,0.3,1.5,0.7,1.9c0.4,0.4,1,0.6,1.6,0.6c0.5,0,1.1-0.1,1.7-0.3c0,0,0.1,0,0.2,0
		c0.1,0,0.2,0.1,0.3,0.2l0.1,0.4C100.3,14.8,100.3,14.8,100.3,14.9z M99,10.9c0-0.4-0.1-0.7-0.2-1s-0.4-0.5-0.6-0.6
		s-0.5-0.2-0.8-0.2c-0.4,0-0.8,0.2-1.1,0.5s-0.5,0.7-0.6,1.3H99z"/>
	<path class="st0" d="M116.5,15.5c-1,0.1-1.8,0.2-2.4,0.2c-0.6,0-1.2-0.1-1.6-0.3c-0.5-0.2-0.8-0.4-1-0.8s-0.4-0.7-0.4-1.1
		s0.1-0.7,0.4-1.1s0.6-0.6,1.1-0.8s1-0.3,1.7-0.3h1.4v-0.6c0-0.6-0.2-1.1-0.5-1.3s-0.8-0.4-1.4-0.4c-0.4,0-0.8,0-1.3,0.1l-0.1,0
		c-0.2,0-0.3-0.1-0.3-0.3l0-0.4V8.5c0-0.1,0-0.2,0.1-0.2c0-0.1,0.1-0.1,0.2-0.1c0.6-0.1,1.2-0.2,1.8-0.2c0.9,0,1.7,0.2,2.2,0.7
		s0.7,1.2,0.7,2.2v4.2C116.8,15.3,116.7,15.4,116.5,15.5z M112.8,14.3c0.3,0.2,0.8,0.3,1.4,0.3c0.3,0,0.7,0,1.4-0.1v-1.9h-1.4
		c-0.6,0-1,0.1-1.4,0.3s-0.5,0.4-0.5,0.7S112.5,14.1,112.8,14.3z"/>
	<path class="st0" d="M119.9,8.2c0.8-0.1,1.6-0.2,2.5-0.2c1.1,0,1.9,0.2,2.4,0.7s0.7,1.2,0.7,2.3v4.1c0,0.2-0.1,0.4-0.4,0.4h-0.5
		c-0.2,0-0.4-0.1-0.4-0.4V11c0-0.7-0.1-1.2-0.4-1.4s-0.8-0.4-1.4-0.4c-0.5,0-1,0-1.6,0.1v5.9c0,0.2-0.1,0.4-0.4,0.4H120
		c-0.2,0-0.4-0.1-0.4-0.4V8.6C119.6,8.4,119.7,8.2,119.9,8.2z"/>
	<path class="st0" d="M143.4,15.2c0,0.1,0,0.2-0.1,0.2s-0.1,0.1-0.2,0.1h-0.5c-0.2,0-0.4-0.1-0.4-0.3l-0.7-2.9h-4l-0.7,2.9
		c-0.1,0.2-0.2,0.3-0.4,0.3h-0.5c-0.1,0-0.2,0-0.2-0.1s-0.1-0.1-0.1-0.2c0,0,0-0.1,0-0.1l2.2-8.7c0.1-0.4,0.3-0.7,0.7-1
		s0.7-0.3,1.2-0.3s0.8,0.1,1.2,0.3c0.3,0.2,0.5,0.5,0.6,1l2.2,8.7C143.4,15.1,143.4,15.2,143.4,15.2z M141.1,11.2L140,6.6
		c0-0.1-0.1-0.2-0.2-0.3s-0.2-0.1-0.4-0.1s-0.3,0-0.4,0.1s-0.2,0.2-0.2,0.3l-1.1,4.6H141.1z"/>
	<path class="st0" d="M150.4,9.5c-0.1,0-0.1,0-0.2,0c-0.6-0.2-1.2-0.3-1.8-0.3c-0.7,0-1.3,0.2-1.7,0.6s-0.6,1.1-0.6,2s0.2,1.6,0.6,2
		s1,0.6,1.7,0.6c0.5,0,1.1-0.1,1.8-0.3c0,0,0.1,0,0.2,0c0.1,0,0.2,0.1,0.3,0.2l0.1,0.4c0,0.1,0,0.1,0,0.2c0,0.1-0.1,0.2-0.2,0.3
		c-0.7,0.3-1.4,0.4-2.2,0.4c-1,0-1.9-0.3-2.5-0.9s-1-1.6-1-2.9s0.3-2.3,1-2.9s1.5-0.9,2.5-0.9c0.8,0,1.5,0.1,2.2,0.4
		c0.2,0.1,0.2,0.2,0.2,0.3c0,0.1,0,0.1,0,0.2l-0.1,0.4C150.6,9.5,150.5,9.5,150.4,9.5z"/>
	<path class="st0" d="M158.8,9.5c-0.1,0-0.1,0-0.2,0c-0.6-0.2-1.2-0.3-1.8-0.3c-0.7,0-1.3,0.2-1.7,0.6s-0.6,1.1-0.6,2s0.2,1.6,0.6,2
		s1,0.6,1.7,0.6c0.5,0,1.1-0.1,1.8-0.3c0,0,0.1,0,0.2,0c0.1,0,0.2,0.1,0.3,0.2l0.1,0.4c0,0.1,0,0.1,0,0.2c0,0.1-0.1,0.2-0.2,0.3
		c-0.7,0.3-1.4,0.4-2.2,0.4c-1,0-1.9-0.3-2.5-0.9s-1-1.6-1-2.9s0.3-2.3,1-2.9s1.5-0.9,2.5-0.9c0.8,0,1.5,0.1,2.2,0.4
		c0.2,0.1,0.2,0.2,0.2,0.3c0,0.1,0,0.1,0,0.2l-0.1,0.4C159,9.5,158.9,9.5,158.8,9.5z"/>
	<path class="st0" d="M166.2,8.4c0.4,0.3,0.8,0.7,1,1.3s0.4,1.3,0.4,2.1s-0.1,1.6-0.4,2.1s-0.6,1-1,1.3c-0.4,0.3-0.9,0.4-1.5,0.4
		s-1.1-0.1-1.5-0.4c-0.5-0.3-0.8-0.7-1.1-1.3s-0.4-1.3-0.4-2.1s0.1-1.5,0.4-2.1s0.6-1,1.1-1.3c0.5-0.3,1-0.4,1.5-0.4
		S165.8,8.1,166.2,8.4z M163.4,13.8c0.3,0.5,0.7,0.7,1.3,0.7s0.9-0.2,1.2-0.7s0.5-1.1,0.5-2s-0.2-1.5-0.5-2s-0.7-0.7-1.2-0.7
		s-0.9,0.2-1.3,0.7c-0.3,0.5-0.5,1.1-0.5,2S163.1,13.3,163.4,13.8z"/>
	<path class="st0" d="M175.7,15.5c-0.8,0.1-1.6,0.2-2.5,0.2c-1.1,0-1.9-0.2-2.4-0.7c-0.5-0.5-0.7-1.2-0.7-2.3V8.5
		c0-0.2,0.1-0.4,0.4-0.4h0.5c0.2,0,0.4,0.1,0.4,0.4v4.1c0,0.7,0.1,1.2,0.4,1.4s0.8,0.4,1.4,0.4c0.5,0,1,0,1.6-0.1V8.5
		c0-0.2,0.1-0.4,0.4-0.4h0.5c0.2,0,0.4,0.1,0.4,0.4v6.5C176.1,15.3,175.9,15.4,175.7,15.5z"/>
	<path class="st0" d="M178.9,8.2c0.8-0.1,1.6-0.2,2.5-0.2c1.1,0,1.9,0.2,2.4,0.7s0.7,1.2,0.7,2.3v4.1c0,0.2-0.1,0.4-0.4,0.4h-0.5
		c-0.2,0-0.4-0.1-0.4-0.4V11c0-0.7-0.1-1.2-0.4-1.4s-0.8-0.4-1.4-0.4c-0.5,0-1,0-1.6,0.1v5.9c0,0.2-0.1,0.4-0.4,0.4h-0.5
		c-0.2,0-0.4-0.1-0.4-0.4V8.6C178.6,8.4,178.7,8.2,178.9,8.2z"/>
	<path class="st0" d="M192.9,15.1c0,0.1-0.1,0.2-0.2,0.3c-0.5,0.2-1,0.3-1.5,0.3c-0.8,0-1.4-0.2-1.9-0.7s-0.7-1.3-0.7-2.4V9.3h-1.1
		c-0.2,0-0.4-0.1-0.4-0.4V8.5c0-0.2,0.1-0.4,0.4-0.4h1.1v-2c0-0.2,0.1-0.4,0.4-0.4h0.5c0.2,0,0.4,0.1,0.4,0.4v2h2.4
		c0.2,0,0.4,0.1,0.4,0.4v0.4c0,0.2-0.1,0.4-0.4,0.4h-2.4v3.2c0,0.7,0.1,1.3,0.4,1.6s0.6,0.4,1.1,0.4c0.4,0,0.7-0.1,1.1-0.2
		c0,0,0.1,0,0.2,0c0.1,0,0.2,0.1,0.3,0.2l0.2,0.4C192.9,14.9,192.9,15,192.9,15.1z"/>
	<path class="st0" d="M195.5,5.2c1.3,0,2.4,0.2,3.3,0.4c0.9,0.3,1.6,0.7,2,1.1s0.7,0.9,0.7,1.4c0,0.8-0.3,1.4-1,1.8
		s-1.6,0.7-2.8,0.7v1.4c0,0.2-0.1,0.4-0.4,0.4h-0.5c-0.2,0-0.4-0.1-0.4-0.4V10c0-0.2,0.1-0.4,0.4-0.4h0.9c0.8,0,1.4-0.1,1.8-0.4
		c0.4-0.2,0.7-0.6,0.7-1c0-0.4-0.2-0.7-0.6-1c-0.4-0.3-0.9-0.5-1.6-0.7s-1.6-0.2-2.5-0.2c-0.2,0-0.4-0.1-0.4-0.4V5.6
		C195.1,5.4,195.2,5.2,195.5,5.2z M196.5,14.4c0-0.2,0.1-0.4,0.4-0.4h0.5c0.2,0,0.4,0.1,0.4,0.4v0.7c0,0.2-0.1,0.4-0.4,0.4h-0.5
		c-0.2,0-0.4-0.1-0.4-0.4V14.4z"/>
</g>
</svg>
