<?xml version="1.0" encoding="utf-8"?>
<!-- Generator: Adobe Illustrator 27.0.0, SVG Export Plug-In . SVG Version: 6.00 Build 0)  -->
<svg version="1.1" id="Layer_1" xmlns="http://www.w3.org/2000/svg" xmlns:xlink="http://www.w3.org/1999/xlink" x="0px" y="0px"
	 viewBox="0 0 51 16" style="enable-background:new 0 0 51 16;" xml:space="preserve">
<style type="text/css">
	.st0{fill:#1180FF;stroke:#1180FF;stroke-width:0.5;stroke-miterlimit:10;}
	.st1{fill:#1180FF;}
</style>
<g>
	<path class="st0" d="M7,5.3c-0.1,0-0.1,0-0.1,0C6.4,5.1,6,5,5.6,5C5.1,5,4.7,5.1,4.4,5.3S3.9,5.9,3.9,6.3c0,0.3,0.1,0.6,0.4,0.9
		s0.6,0.4,1.1,0.5c0.9,0.2,1.5,0.5,1.9,0.9s0.7,0.9,0.7,1.5c0,0.5-0.1,0.9-0.4,1.3S6.8,12,6.4,12.2s-1,0.3-1.5,0.3
		c-0.3,0-0.6,0-0.9-0.1s-0.6-0.1-0.9-0.3c-0.1,0-0.2-0.1-0.2-0.2c0,0,0-0.1,0-0.1l0.1-0.3c0-0.1,0.1-0.2,0.2-0.2c0.1,0,0.1,0,0.1,0
		c0.2,0.1,0.5,0.2,0.7,0.2s0.5,0.1,0.7,0.1c0.6,0,1.1-0.1,1.4-0.4s0.6-0.6,0.6-1c0-0.3-0.1-0.7-0.4-0.9S5.8,8.8,5.2,8.7
		C4.4,8.5,3.8,8.2,3.5,7.8S2.9,6.8,2.9,6.3c0-0.5,0.1-0.9,0.4-1.2s0.6-0.6,1-0.8s0.9-0.3,1.4-0.3c0.3,0,0.5,0,0.8,0.1S7,4.3,7.3,4.4
		c0.1,0.1,0.2,0.1,0.2,0.2c0,0,0,0.1,0,0.2L7.3,5.1C7.2,5.2,7.2,5.3,7,5.3z"/>
	<path class="st0" d="M9.7,11.8c0-0.2,0.1-0.3,0.3-0.3h1.6V7.4h-1.2c-0.2,0-0.3-0.1-0.3-0.3V6.8c0-0.2,0.1-0.3,0.3-0.3h1.9
		c0.2,0,0.3,0.1,0.3,0.3v4.7h1.6c0.2,0,0.3,0.1,0.3,0.3v0.3c0,0.2-0.1,0.3-0.3,0.3H9.9c-0.2,0-0.3-0.1-0.3-0.3V11.8z M12.5,3.8v0.8
		c0,0.2-0.1,0.3-0.3,0.3h-0.8c-0.2,0-0.3-0.1-0.3-0.3V3.8c0-0.2,0.1-0.3,0.3-0.3h0.8C12.4,3.5,12.5,3.6,12.5,3.8z"/>
	<path class="st0" d="M21.4,12.1c0.5,0.3,0.8,0.7,0.8,1.3c0,0.6-0.3,1-0.8,1.4s-1.3,0.5-2.2,0.5c-1,0-1.8-0.1-2.3-0.4
		S16,14.2,16,13.7c0-0.3,0.1-0.6,0.3-0.8s0.4-0.5,0.7-0.6c-0.2-0.1-0.3-0.2-0.4-0.4s-0.1-0.3-0.1-0.5c0-0.2,0.1-0.5,0.2-0.7
		s0.4-0.4,0.6-0.5C17,10,16.8,9.7,16.6,9.4s-0.2-0.6-0.2-0.9c0-0.4,0.1-0.7,0.3-1.1s0.5-0.6,0.8-0.7s0.8-0.3,1.2-0.3
		c0.3,0,0.5,0,0.8,0.1h1.8c0.2,0,0.3,0.1,0.3,0.3V7c0,0.2-0.1,0.3-0.3,0.3h-0.6c0.3,0.4,0.4,0.8,0.4,1.2c0,0.4-0.1,0.8-0.3,1.1
		s-0.5,0.6-0.8,0.8s-0.8,0.3-1.2,0.3c-0.3,0-0.6,0-0.9-0.1c-0.2,0.1-0.3,0.2-0.4,0.3s-0.1,0.2-0.1,0.4c0,0.2,0.1,0.3,0.4,0.4
		s0.7,0.1,1.3,0.1C20.1,11.7,20.8,11.8,21.4,12.1z M17.5,14.1c0.4,0.2,0.9,0.3,1.6,0.3c0.7,0,1.2-0.1,1.6-0.3s0.6-0.4,0.6-0.7
		c0-0.3-0.2-0.5-0.5-0.6s-0.9-0.2-1.6-0.2c-0.6,0-1,0-1.3-0.1c-0.2,0.1-0.4,0.2-0.6,0.4s-0.2,0.3-0.2,0.5
		C16.9,13.7,17.1,14,17.5,14.1z M17.8,9.4c0.3,0.2,0.6,0.3,1,0.3s0.7-0.1,1-0.3s0.4-0.5,0.4-0.9S20,7.9,19.7,7.7s-0.6-0.3-1-0.3
		s-0.7,0.1-1,0.3s-0.4,0.5-0.4,0.9S17.5,9.1,17.8,9.4z"/>
	<path class="st0" d="M23.4,6.6c0.6-0.1,1.3-0.1,2-0.1c0.9,0,1.5,0.2,1.9,0.5s0.6,1,0.6,1.8v3.3c0,0.2-0.1,0.3-0.3,0.3h-0.4
		c-0.2,0-0.3-0.1-0.3-0.3V8.8c0-0.5-0.1-0.9-0.3-1.1s-0.6-0.3-1.1-0.3c-0.4,0-0.8,0-1.3,0v4.7c0,0.2-0.1,0.3-0.3,0.3h-0.4
		c-0.2,0-0.3-0.1-0.3-0.3V6.9C23.1,6.7,23.2,6.6,23.4,6.6z"/>
	<path class="st0" d="M41.2,4.5v0.3c0,0.2-0.1,0.3-0.3,0.3h-1.5v6.4h1.6c0.2,0,0.3,0.1,0.3,0.3v0.3c0,0.2-0.1,0.3-0.3,0.3h-4.2
		c-0.2,0-0.3-0.1-0.3-0.3v-0.3c0-0.2,0.1-0.3,0.3-0.3h1.6V5.1H37c-0.2,0-0.3-0.1-0.3-0.3V4.5c0-0.2,0.1-0.3,0.3-0.3h3.9
		C41.1,4.2,41.2,4.3,41.2,4.5z"/>
	<path class="st0" d="M43.6,6.6c0.6-0.1,1.3-0.1,2-0.1c0.9,0,1.5,0.2,1.9,0.5s0.6,1,0.6,1.8v3.3c0,0.2-0.1,0.3-0.3,0.3h-0.4
		c-0.2,0-0.3-0.1-0.3-0.3V8.8c0-0.5-0.1-0.9-0.3-1.1s-0.6-0.3-1.1-0.3c-0.4,0-0.8,0-1.3,0v4.7c0,0.2-0.1,0.3-0.3,0.3h-0.4
		c-0.2,0-0.3-0.1-0.3-0.3V6.9C43.3,6.7,43.4,6.6,43.6,6.6z"/>
	<path class="st1" d="M1.9,13.9v-0.6h47.2v0.6H1.9z"/>
</g>
</svg>
