<?xml version="1.0" encoding="utf-8"?>
<!-- Generator: Adobe Illustrator 27.0.0, SVG Export Plug-In . SVG Version: 6.00 Build 0)  -->
<svg version="1.1" id="Layer_1" xmlns="http://www.w3.org/2000/svg" xmlns:xlink="http://www.w3.org/1999/xlink" x="0px" y="0px"
	 viewBox="0 0 151 20" style="enable-background:new 0 0 151 20;" xml:space="preserve">
<style type="text/css">
	.st0{fill:#FFFFFF;stroke:#FFFFFF;stroke-width:0.5;stroke-miterlimit:10;}
</style>
<g>
	<path class="st0" d="M11.2,5.3c0.1,0.1,0.1,0.2,0.1,0.3v9.5c0,0.2-0.1,0.4-0.4,0.4h-0.2c-0.2,0-0.4,0-0.5-0.1
		C10,15.3,9.9,15.2,9.8,15L6.2,7.8v7.3c0,0.1,0,0.2-0.1,0.3c-0.1,0.1-0.2,0.1-0.3,0.1H5.3c-0.1,0-0.2,0-0.3-0.1
		c-0.1-0.1-0.1-0.2-0.1-0.3V5.6c0-0.2,0.1-0.4,0.4-0.4h0.2c0.2,0,0.4,0,0.5,0.1s0.2,0.2,0.3,0.4l3.7,7.3V5.6c0-0.1,0-0.2,0.1-0.3
		s0.2-0.1,0.3-0.1h0.5C11,5.2,11.1,5.3,11.2,5.3z"/>
	<path class="st0" d="M19.6,14.9c0,0.1-0.1,0.2-0.2,0.3c-0.7,0.3-1.4,0.4-2.2,0.4c-1,0-1.9-0.3-2.5-0.9s-1-1.6-1-2.9
		c0-0.8,0.1-1.5,0.4-2.1s0.6-1,1.1-1.3S16,8,16.6,8c0.5,0,1,0.1,1.4,0.4s0.8,0.6,1.1,1.1s0.4,1.1,0.4,1.8v0.3c0,0.2-0.1,0.4-0.4,0.4
		h-4.3c0,0.9,0.3,1.5,0.7,1.9c0.4,0.4,1,0.6,1.6,0.6c0.5,0,1.1-0.1,1.7-0.3c0,0,0.1,0,0.2,0c0.1,0,0.2,0.1,0.3,0.2l0.1,0.4
		C19.6,14.8,19.6,14.8,19.6,14.9z M18.3,10.9c0-0.4-0.1-0.7-0.2-1s-0.4-0.5-0.6-0.6s-0.5-0.2-0.8-0.2c-0.4,0-0.8,0.2-1.1,0.5
		s-0.5,0.7-0.6,1.3H18.3z"/>
	<path class="st0" d="M28,15.6h-0.2c-0.4,0-0.7-0.2-0.9-0.5l-2-4l-2,4c-0.2,0.4-0.5,0.5-0.9,0.5h-0.2c-0.2,0-0.4-0.1-0.4-0.4
		l-0.3-6.7c0-0.1,0-0.2,0.1-0.3s0.2-0.1,0.3-0.1h0.5c0.1,0,0.2,0,0.3,0.1s0.1,0.2,0.1,0.3l0.3,4.6l1.6-3.3c0.1-0.2,0.2-0.3,0.4-0.3
		h0.4c0.2,0,0.3,0.1,0.4,0.3l1.6,3.3l0.3-4.6c0-0.1,0-0.2,0.1-0.3s0.1-0.1,0.3-0.1h0.5c0.1,0,0.2,0,0.3,0.1s0.1,0.2,0.1,0.3
		l-0.3,6.7C28.4,15.4,28.3,15.6,28,15.6z"/>
	<path class="st0" d="M44.8,15.1c0,0.1-0.1,0.2-0.2,0.3c-0.5,0.2-1,0.3-1.5,0.3c-0.8,0-1.4-0.2-1.9-0.7s-0.7-1.3-0.7-2.4V9.3h-1.1
		c-0.2,0-0.4-0.1-0.4-0.4V8.5c0-0.2,0.1-0.4,0.4-0.4h1.1v-2c0-0.2,0.1-0.4,0.4-0.4h0.5c0.2,0,0.4,0.1,0.4,0.4v2H44
		c0.2,0,0.4,0.1,0.4,0.4v0.4c0,0.2-0.1,0.4-0.4,0.4h-2.4v3.2c0,0.7,0.1,1.3,0.4,1.6s0.6,0.4,1.1,0.4c0.4,0,0.7-0.1,1.1-0.2
		c0,0,0.1,0,0.2,0c0.1,0,0.2,0.1,0.3,0.2l0.2,0.4C44.8,14.9,44.8,15,44.8,15.1z"/>
	<path class="st0" d="M51.8,8.4c0.4,0.3,0.8,0.7,1,1.3s0.4,1.3,0.4,2.1s-0.1,1.6-0.4,2.1s-0.6,1-1,1.3c-0.4,0.3-0.9,0.4-1.5,0.4
		s-1.1-0.1-1.5-0.4s-0.8-0.7-1.1-1.3s-0.4-1.3-0.4-2.1s0.1-1.5,0.4-2.1s0.6-1,1.1-1.3s1-0.4,1.5-0.4S51.3,8.1,51.8,8.4z M49,13.8
		c0.3,0.5,0.7,0.7,1.3,0.7s0.9-0.2,1.2-0.7s0.5-1.1,0.5-2s-0.2-1.5-0.5-2s-0.7-0.7-1.2-0.7S49.3,9.4,49,9.8s-0.5,1.1-0.5,2
		S48.7,13.3,49,13.8z"/>
	<path class="st0" d="M70.7,15.4c-0.1,0.1-0.2,0.1-0.3,0.1H70c-0.1,0-0.2,0-0.3-0.1s-0.1-0.2-0.1-0.3l-0.3-7.5l-1.6,3.3
		c-0.1,0.2-0.2,0.3-0.4,0.3h-0.4c-0.2,0-0.3-0.1-0.4-0.3l-1.6-3.3l-0.3,7.5c0,0.1,0,0.2-0.1,0.3s-0.1,0.1-0.3,0.1h-0.5
		c-0.1,0-0.2,0-0.3-0.1c-0.1-0.1-0.1-0.2-0.1-0.3l0.3-9.6c0-0.2,0.1-0.4,0.4-0.4h0.2c0.4,0,0.7,0.2,0.9,0.5l2,4l2-4
		c0.2-0.4,0.5-0.5,0.9-0.5h0.2c0.3,0,0.4,0.1,0.4,0.4l0.3,9.6C70.8,15.2,70.8,15.3,70.7,15.4z"/>
	<path class="st0" d="M78.5,14.9c0,0.1-0.1,0.2-0.2,0.3c-0.7,0.3-1.4,0.4-2.2,0.4c-1,0-1.9-0.3-2.5-0.9s-1-1.6-1-2.9
		c0-0.8,0.1-1.5,0.4-2.1s0.6-1,1.1-1.3S75,8,75.6,8c0.5,0,1,0.1,1.4,0.4c0.4,0.3,0.8,0.6,1.1,1.1c0.3,0.5,0.4,1.1,0.4,1.8v0.3
		c0,0.2-0.1,0.4-0.4,0.4h-4.3c0,0.9,0.3,1.5,0.7,1.9c0.4,0.4,1,0.6,1.6,0.6c0.5,0,1.1-0.1,1.7-0.3c0,0,0.1,0,0.2,0
		c0.1,0,0.2,0.1,0.3,0.2l0.1,0.4C78.5,14.8,78.5,14.8,78.5,14.9z M77.2,10.9c0-0.4-0.1-0.7-0.2-1s-0.4-0.5-0.6-0.6
		c-0.2-0.1-0.5-0.2-0.8-0.2c-0.4,0-0.8,0.2-1.1,0.5s-0.5,0.7-0.6,1.3H77.2z"/>
	<path class="st0" d="M85.6,9.3c-0.6-0.1-1-0.1-1.3-0.1c-0.5,0-0.9,0.1-1.2,0.2s-0.5,0.4-0.5,0.7c0,0.3,0.1,0.5,0.4,0.7
		s0.6,0.3,1.1,0.4c0.9,0.1,1.5,0.4,1.9,0.8c0.4,0.4,0.6,0.9,0.6,1.5c0,0.7-0.3,1.2-0.8,1.7s-1.3,0.6-2.3,0.6c-0.7,0-1.3-0.1-2-0.2
		c-0.2,0-0.3-0.1-0.3-0.3c0,0,0-0.1,0-0.1l0.1-0.4c0-0.2,0.2-0.3,0.4-0.3c0.6,0.1,1.2,0.1,1.8,0.1c0.6,0,1-0.1,1.4-0.3
		s0.5-0.5,0.5-0.8c0-0.3-0.1-0.5-0.4-0.7s-0.6-0.3-1.1-0.4c-0.8-0.1-1.4-0.3-1.9-0.7s-0.7-0.9-0.7-1.5c0-0.6,0.2-1.1,0.7-1.5
		S83.2,8,84.1,8c0.6,0,1.2,0.1,1.7,0.2c0.2,0,0.3,0.1,0.3,0.3c0,0,0,0.1,0,0.1L86,9C85.9,9.2,85.8,9.3,85.6,9.3z"/>
	<path class="st0" d="M94,9.3c-0.6-0.1-1-0.1-1.3-0.1c-0.5,0-0.9,0.1-1.2,0.2s-0.5,0.4-0.5,0.7c0,0.3,0.1,0.5,0.4,0.7
		s0.6,0.3,1.1,0.4c0.9,0.1,1.5,0.4,1.9,0.8c0.4,0.4,0.6,0.9,0.6,1.5c0,0.7-0.3,1.2-0.8,1.7s-1.3,0.6-2.3,0.6c-0.7,0-1.3-0.1-2-0.2
		c-0.2,0-0.3-0.1-0.3-0.3c0,0,0-0.1,0-0.1l0.1-0.4c0-0.2,0.2-0.3,0.4-0.3c0.6,0.1,1.2,0.1,1.8,0.1c0.6,0,1-0.1,1.4-0.3
		s0.5-0.5,0.5-0.8c0-0.3-0.1-0.5-0.4-0.7s-0.6-0.3-1.1-0.4c-0.8-0.1-1.4-0.3-1.9-0.7s-0.7-0.9-0.7-1.5c0-0.6,0.2-1.1,0.7-1.5
		S91.6,8,92.5,8c0.6,0,1.2,0.1,1.7,0.2c0.2,0,0.3,0.1,0.3,0.3c0,0,0,0.1,0,0.1L94.4,9C94.4,9.2,94.2,9.3,94,9.3z"/>
	<path class="st0" d="M103.8,14.9c0,0.1-0.1,0.2-0.2,0.3c-0.7,0.3-1.4,0.4-2.2,0.4c-1,0-1.9-0.3-2.5-0.9s-1-1.6-1-2.9
		c0-0.8,0.1-1.5,0.4-2.1s0.6-1,1.1-1.3s1-0.4,1.5-0.4c0.5,0,1,0.1,1.4,0.4s0.8,0.6,1.1,1.1c0.3,0.5,0.4,1.1,0.4,1.8v0.3
		c0,0.2-0.1,0.4-0.4,0.4h-4.3c0,0.9,0.3,1.5,0.7,1.9c0.4,0.4,1,0.6,1.6,0.6c0.5,0,1.1-0.1,1.7-0.3c0,0,0.1,0,0.2,0
		c0.1,0,0.2,0.1,0.3,0.2l0.1,0.4C103.8,14.8,103.8,14.8,103.8,14.9z M102.5,10.9c0-0.4-0.1-0.7-0.2-1s-0.4-0.5-0.6-0.6
		c-0.2-0.1-0.5-0.2-0.8-0.2c-0.4,0-0.8,0.2-1.1,0.5s-0.5,0.7-0.6,1.3H102.5z"/>
	<path class="st0" d="M106.6,8.2c0.8-0.1,1.6-0.2,2.5-0.2c1.1,0,1.9,0.2,2.4,0.7s0.7,1.2,0.7,2.3v4.1c0,0.2-0.1,0.4-0.4,0.4h-0.5
		c-0.2,0-0.4-0.1-0.4-0.4V11c0-0.7-0.1-1.2-0.4-1.4s-0.8-0.4-1.4-0.4c-0.5,0-1,0-1.6,0.1v5.9c0,0.2-0.1,0.4-0.4,0.4h-0.5
		c-0.2,0-0.4-0.1-0.4-0.4V8.6C106.2,8.4,106.3,8.2,106.6,8.2z"/>
	<path class="st0" d="M120.9,15.2c0.6,0.4,1,0.9,1,1.6c0,0.7-0.3,1.3-1,1.7s-1.6,0.6-2.7,0.6c-1.3,0-2.2-0.2-2.9-0.5
		c-0.7-0.3-1-0.8-1-1.5c0-0.4,0.1-0.7,0.3-1s0.5-0.6,0.8-0.8c-0.2-0.1-0.4-0.3-0.5-0.5c-0.1-0.2-0.2-0.4-0.2-0.7
		c0-0.3,0.1-0.6,0.3-0.9c0.2-0.3,0.5-0.5,0.8-0.6c-0.3-0.2-0.6-0.5-0.8-0.9s-0.3-0.8-0.3-1.2c0-0.5,0.1-0.9,0.4-1.3
		c0.2-0.4,0.6-0.7,1-0.9s1-0.3,1.5-0.3c0.3,0,0.7,0,1,0.1h2.2c0.2,0,0.4,0.1,0.4,0.4v0.2c0,0.2-0.1,0.4-0.4,0.4h-0.8
		c0.3,0.4,0.5,1,0.5,1.5c0,0.5-0.1,0.9-0.4,1.3c-0.2,0.4-0.6,0.7-1,0.9c-0.4,0.2-1,0.3-1.5,0.3c-0.4,0-0.7-0.1-1.1-0.2
		c-0.2,0.1-0.3,0.2-0.5,0.4s-0.2,0.3-0.2,0.5c0,0.3,0.2,0.4,0.5,0.5c0.3,0.1,0.9,0.2,1.7,0.2C119.3,14.6,120.2,14.8,120.9,15.2z
		 M116,17.7c0.5,0.2,1.1,0.3,1.9,0.3c0.8,0,1.5-0.1,1.9-0.4c0.5-0.2,0.7-0.5,0.7-0.9c0-0.3-0.2-0.6-0.7-0.8s-1.1-0.3-2-0.3
		c-0.7,0-1.3,0-1.7-0.1c-0.3,0.1-0.5,0.3-0.7,0.5s-0.2,0.4-0.2,0.7C115.3,17.2,115.5,17.5,116,17.7z M116.4,11.7
		c0.3,0.3,0.7,0.4,1.2,0.4s0.9-0.1,1.2-0.4c0.3-0.3,0.5-0.6,0.5-1.1s-0.2-0.8-0.5-1.1s-0.7-0.4-1.2-0.4s-0.9,0.1-1.2,0.4
		s-0.5,0.6-0.5,1.1S116.1,11.4,116.4,11.7z"/>
	<path class="st0" d="M129.1,14.9c0,0.1-0.1,0.2-0.2,0.3c-0.7,0.3-1.4,0.4-2.2,0.4c-1,0-1.9-0.3-2.5-0.9s-1-1.6-1-2.9
		c0-0.8,0.1-1.5,0.4-2.1s0.6-1,1.1-1.3s1-0.4,1.5-0.4c0.5,0,1,0.1,1.4,0.4s0.8,0.6,1.1,1.1c0.3,0.5,0.4,1.1,0.4,1.8v0.3
		c0,0.2-0.1,0.4-0.4,0.4h-4.3c0,0.9,0.3,1.5,0.7,1.9c0.4,0.4,1,0.6,1.6,0.6c0.5,0,1.1-0.1,1.7-0.3c0,0,0.1,0,0.2,0
		c0.1,0,0.2,0.1,0.3,0.2l0.1,0.4C129,14.8,129.1,14.8,129.1,14.9z M127.8,10.9c0-0.4-0.1-0.7-0.2-1s-0.4-0.5-0.6-0.6
		c-0.2-0.1-0.5-0.2-0.8-0.2c-0.4,0-0.8,0.2-1.1,0.5s-0.5,0.7-0.6,1.3H127.8z"/>
	<path class="st0" d="M131.8,8.2c0.8-0.1,1.6-0.2,2.5-0.2c0.8,0,1.4,0.1,1.8,0.2c0.4,0.2,0.8,0.4,1,0.7s0.3,0.8,0.3,1.4
		c0,0.2-0.1,0.4-0.4,0.4h-0.5c-0.2,0-0.4-0.1-0.4-0.4c0-0.5-0.1-0.8-0.4-1s-0.8-0.3-1.4-0.3c-0.5,0-1,0-1.6,0.1v5.9
		c0,0.2-0.1,0.4-0.4,0.4h-0.5c-0.2,0-0.4-0.1-0.4-0.4V8.6C131.5,8.4,131.6,8.2,131.8,8.2z"/>
	<path class="st0" d="M140,5.2c1.3,0,2.4,0.2,3.3,0.4c0.9,0.3,1.6,0.7,2,1.1s0.7,0.9,0.7,1.4c0,0.8-0.3,1.4-1,1.8s-1.6,0.7-2.8,0.7
		v1.4c0,0.2-0.1,0.4-0.4,0.4h-0.5c-0.2,0-0.4-0.1-0.4-0.4V10c0-0.2,0.1-0.4,0.4-0.4h0.9c0.8,0,1.4-0.1,1.8-0.4
		c0.4-0.2,0.7-0.6,0.7-1c0-0.4-0.2-0.7-0.6-1c-0.4-0.3-0.9-0.5-1.6-0.7S141,6.3,140,6.3c-0.2,0-0.4-0.1-0.4-0.4V5.6
		C139.6,5.4,139.7,5.2,140,5.2z M141,14.4c0-0.2,0.1-0.4,0.4-0.4h0.5c0.2,0,0.4,0.1,0.4,0.4v0.7c0,0.2-0.1,0.4-0.4,0.4h-0.5
		c-0.2,0-0.4-0.1-0.4-0.4V14.4z"/>
</g>
</svg>
