<?xml version="1.0" encoding="utf-8"?>
<!-- Generator: Adobe Illustrator 27.0.0, SVG Export Plug-In . SVG Version: 6.00 Build 0)  -->
<svg version="1.1" id="Layer_1" xmlns="http://www.w3.org/2000/svg" xmlns:xlink="http://www.w3.org/1999/xlink" x="0px" y="0px"
	 viewBox="0 0 71 16" style="enable-background:new 0 0 71 16;" xml:space="preserve">
<style type="text/css">
	.st0{fill:#FFFFFF;}
</style>
<g>
	<path class="st0" d="M6,3.6h0.5c0.2,0,0.3,0.1,0.3,0.3v6.3c0,2-0.9,3-2.8,3c-1.9,0-2.8-1-2.8-3V3.9c0-0.2,0.1-0.3,0.3-0.3h0.5
		c0.2,0,0.3,0.1,0.3,0.3v6.3c0,0.7,0.1,1.3,0.4,1.6s0.7,0.4,1.2,0.4c0.6,0,1-0.1,1.2-0.4c0.2-0.3,0.4-0.8,0.4-1.6V3.9
		C5.7,3.7,5.8,3.6,6,3.6z"/>
	<path class="st0" d="M13.4,7.3c-0.5-0.1-0.9-0.1-1.2-0.1c-0.5,0-0.8,0.1-1.1,0.2c-0.3,0.2-0.5,0.4-0.5,0.6c0,0.2,0.1,0.4,0.4,0.6
		C11.2,8.9,11.6,9,12,9c0.8,0.1,1.4,0.3,1.8,0.7s0.6,0.8,0.6,1.4c0,0.6-0.3,1.2-0.8,1.5c-0.5,0.4-1.2,0.6-2.1,0.6
		c-0.6,0-1.2,0-1.8-0.2c-0.2,0-0.3-0.1-0.3-0.3c0,0,0-0.1,0-0.1l0.1-0.4c0-0.2,0.2-0.3,0.4-0.3c0.5,0.1,1.1,0.1,1.6,0.1
		c0.5,0,1-0.1,1.3-0.3c0.3-0.2,0.4-0.5,0.4-0.8c0-0.3-0.1-0.5-0.3-0.7c-0.2-0.2-0.6-0.3-1-0.4c-0.8-0.1-1.3-0.3-1.8-0.7
		C9.6,9,9.4,8.6,9.4,8.1c0-0.6,0.2-1,0.7-1.4s1.1-0.5,1.9-0.5c0.5,0,1.1,0.1,1.6,0.2c0.2,0,0.3,0.1,0.3,0.3c0,0,0,0.1,0,0.1
		l-0.1,0.4C13.8,7.3,13.7,7.4,13.4,7.3z"/>
	<path class="st0" d="M22.6,12.6c0,0.1-0.1,0.2-0.2,0.3c-0.6,0.3-1.3,0.4-2.1,0.4c-1,0-1.8-0.3-2.4-0.9S17,10.9,17,9.7
		c0-0.7,0.1-1.4,0.4-1.9c0.3-0.5,0.6-0.9,1-1.2c0.4-0.3,0.9-0.4,1.4-0.4c0.5,0,0.9,0.1,1.3,0.4c0.4,0.2,0.7,0.6,1,1.1
		c0.3,0.5,0.4,1,0.4,1.7v0.3c0,0.2-0.1,0.3-0.3,0.3h-4c0,0.8,0.2,1.4,0.7,1.8c0.4,0.4,0.9,0.6,1.5,0.6c0.5,0,1-0.1,1.6-0.3
		c0,0,0.1,0,0.2,0c0.1,0,0.2,0.1,0.3,0.2l0.1,0.3C22.6,12.5,22.6,12.5,22.6,12.6z M21.4,8.8c0-0.3-0.1-0.6-0.2-0.9
		c-0.2-0.2-0.3-0.4-0.6-0.6c-0.2-0.1-0.5-0.2-0.7-0.2c-0.4,0-0.7,0.1-1,0.4c-0.3,0.3-0.5,0.7-0.5,1.2H21.4z"/>
	<path class="st0" d="M25.2,6.3c0.7-0.1,1.5-0.2,2.3-0.2c0.7,0,1.3,0.1,1.7,0.2c0.4,0.1,0.7,0.4,0.9,0.7c0.2,0.3,0.3,0.8,0.3,1.3
		c0,0.2-0.1,0.3-0.3,0.3h-0.5c-0.2,0-0.3-0.1-0.3-0.3c0-0.4-0.1-0.7-0.4-0.9c-0.3-0.2-0.7-0.3-1.3-0.3c-0.4,0-0.9,0-1.5,0.1v5.5
		c0,0.2-0.1,0.3-0.3,0.3h-0.5c-0.2,0-0.3-0.1-0.3-0.3V6.7C24.9,6.5,25,6.4,25.2,6.3z"/>
	<path class="st0" d="M33,6.3c0.7-0.1,1.5-0.2,2.3-0.2c1,0,1.8,0.2,2.2,0.6s0.7,1.1,0.7,2.1v3.9c0,0.2-0.1,0.3-0.3,0.3h-0.5
		c-0.2,0-0.3-0.1-0.3-0.3V8.9c0-0.6-0.1-1.1-0.4-1.3c-0.3-0.3-0.7-0.4-1.3-0.4c-0.4,0-0.9,0-1.5,0.1v5.5c0,0.2-0.1,0.3-0.3,0.3h-0.5
		c-0.2,0-0.3-0.1-0.3-0.3V6.7C32.7,6.5,32.8,6.4,33,6.3z"/>
	<path class="st0" d="M45.5,13.1c-0.9,0.1-1.6,0.2-2.2,0.2c-0.6,0-1.1-0.1-1.5-0.3s-0.8-0.4-1-0.7s-0.3-0.6-0.3-1s0.1-0.7,0.3-1
		s0.5-0.5,1-0.7s1-0.3,1.6-0.3h1.3V8.8c0-0.6-0.2-1-0.5-1.2c-0.3-0.2-0.7-0.4-1.3-0.4c-0.4,0-0.8,0-1.2,0.1l-0.1,0
		c-0.2,0-0.3-0.1-0.3-0.3l0-0.4V6.6c0-0.1,0-0.2,0.1-0.2c0,0,0.1-0.1,0.2-0.1c0.6-0.1,1.2-0.2,1.7-0.2c0.9,0,1.6,0.2,2,0.6
		c0.5,0.4,0.7,1.1,0.7,2v4C45.9,12.9,45.7,13.1,45.5,13.1z M42.1,12c0.3,0.2,0.7,0.3,1.3,0.3c0.3,0,0.7,0,1.3-0.1v-1.8h-1.3
		c-0.5,0-1,0.1-1.3,0.3s-0.4,0.4-0.4,0.7S41.8,11.8,42.1,12z"/>
	<path class="st0" d="M54,6.7c0.3,0.3,0.5,0.9,0.5,1.6v4.5c0,0.2-0.1,0.3-0.3,0.3h-0.5c-0.2,0-0.3-0.1-0.3-0.3V8.3
		c0-0.4-0.1-0.7-0.2-0.9c-0.2-0.2-0.4-0.3-0.8-0.3c-0.2,0-0.4,0-0.6,0c0.1,0.3,0.1,0.6,0.1,1.1v4.4c0,0.2-0.1,0.3-0.3,0.3H51
		c-0.2,0-0.3-0.1-0.3-0.3V8.3c0-0.4-0.1-0.7-0.2-0.9c-0.2-0.2-0.4-0.3-0.8-0.3c-0.1,0-0.3,0-0.5,0v5.5c0,0.2-0.1,0.3-0.3,0.3h-0.5
		c-0.2,0-0.3-0.1-0.3-0.3V6.7c0-0.2,0.1-0.3,0.3-0.4c0.7-0.1,1.2-0.2,1.6-0.2c0.6,0,1,0.1,1.3,0.3c0.4-0.2,0.9-0.3,1.4-0.3
		C53.2,6.2,53.7,6.3,54,6.7z"/>
	<path class="st0" d="M61.9,12.6c0,0.1-0.1,0.2-0.2,0.3c-0.6,0.3-1.3,0.4-2.1,0.4c-1,0-1.8-0.3-2.4-0.9s-0.9-1.5-0.9-2.7
		c0-0.7,0.1-1.4,0.4-1.9c0.3-0.5,0.6-0.9,1-1.2c0.4-0.3,0.9-0.4,1.4-0.4c0.5,0,0.9,0.1,1.3,0.4c0.4,0.2,0.7,0.6,1,1.1s0.4,1,0.4,1.7
		v0.3c0,0.2-0.1,0.3-0.3,0.3h-4c0,0.8,0.2,1.4,0.7,1.8s0.9,0.6,1.5,0.6c0.5,0,1-0.1,1.6-0.3c0,0,0.1,0,0.2,0c0.1,0,0.2,0.1,0.3,0.2
		l0.1,0.3C61.9,12.5,61.9,12.5,61.9,12.6z M60.7,8.8c0-0.3-0.1-0.6-0.2-0.9s-0.3-0.4-0.6-0.6c-0.2-0.1-0.5-0.2-0.7-0.2
		c-0.4,0-0.7,0.1-1,0.4c-0.3,0.3-0.5,0.7-0.5,1.2H60.7z"/>
	<path class="st0" d="M68,6.6v1.2c0,0.2-0.1,0.3-0.3,0.3h-1.4c-0.2,0-0.3-0.1-0.3-0.3V6.6c0-0.2,0.1-0.3,0.3-0.3h1.4
		C67.9,6.3,68,6.4,68,6.6z M65.9,11.6c0-0.2,0.1-0.3,0.3-0.3h1.4c0.2,0,0.3,0.1,0.3,0.3v1.2c0,0.2-0.1,0.3-0.3,0.3h-1.4
		c-0.2,0-0.3-0.1-0.3-0.3V11.6z"/>
</g>
</svg>
