<?xml version="1.0" encoding="utf-8"?>
<!-- Generator: Adobe Illustrator 27.0.0, SVG Export Plug-In . SVG Version: 6.00 Build 0)  -->
<svg version="1.1" id="Layer_1" xmlns="http://www.w3.org/2000/svg" xmlns:xlink="http://www.w3.org/1999/xlink" x="0px" y="0px"
	 viewBox="0 0 350 48" style="enable-background:new 0 0 350 48;" xml:space="preserve">
<style type="text/css">
	.st0{fill:#0676FF;}
	.st1{display:none;fill:#03152D;}
	.st2{display:none;}
	.st3{display:inline;fill:url(#SVGID_1_);}
	.st4{display:inline;}
	.st5{fill:url(#SVGID_00000000220439304813381300000004202883170255429055_);}
	.st6{fill:url(#SVGID_00000060720351498967579870000004730222779923741602_);}
	.st7{fill:url(#SVGID_00000089546883056423521870000005028921482193355682_);}
	.st8{display:inline;fill:url(#SVGID_00000078745329070413578740000011829669209114957959_);}
</style>
<path class="st0" d="M335.1,48h-320c-8.3,0-15-6.7-15-15V0h350v33C350.1,41.3,343.4,48,335.1,48z"/>
<path class="st1" d="M286.3,43h-262c-10.4,0-19-8.5-19-19v0c0-10.4,8.5-19,19-19h262c10.4,0,19,8.5,19,19v0
	C305.3,34.5,296.7,43,286.3,43z"/>
<g class="st2">
	<linearGradient id="SVGID_1_" gradientUnits="userSpaceOnUse" x1="308.5923" y1="42.0775" x2="344.9741" y2="5.6957">
		<stop  offset="0" style="stop-color:#951B81"/>
		<stop  offset="1" style="stop-color:#29235C"/>
	</linearGradient>
	<path class="st3" d="M335.5,15.2c-0.6-0.6-1.5-1-2.3-1s-1.7,0.3-2.3,1c-0.6,0.6-1,1.5-1,2.3s0.3,1.7,1,2.3c0.6,0.6,1.5,1,2.3,1l0,0
		c0.9,0,1.7-0.3,2.3-1c0.6-0.6,1-1.5,1-2.3S336.1,15.8,335.5,15.2z M334.2,18.5c-0.3,0.3-0.6,0.4-1,0.4l0,0c-0.4,0-0.7-0.2-1-0.4
		c-0.3-0.3-0.4-0.6-0.4-1c0-0.4,0.2-0.7,0.4-1c0.3-0.3,0.6-0.4,1-0.4c0.4,0,0.7,0.2,1,0.4C334.7,17.1,334.7,18,334.2,18.5z"/>
	<g class="st4">
		
			<linearGradient id="SVGID_00000111879791882348550690000008909537597727911337_" gradientUnits="userSpaceOnUse" x1="305.4168" y1="38.902" x2="341.7984" y2="2.5204">
			<stop  offset="0" style="stop-color:#951B81"/>
			<stop  offset="1" style="stop-color:#29235C"/>
		</linearGradient>
		<path style="fill:url(#SVGID_00000111879791882348550690000008909537597727911337_);" d="M310.1,35.2c-0.2,0-0.5-0.1-0.7-0.3
			c-0.4-0.4-0.4-1,0-1.3l5.4-5.4c0.4-0.4,1-0.4,1.3,0c0.4,0.4,0.4,1,0,1.3l-5.4,5.4C310.5,35.1,310.3,35.2,310.1,35.2z"/>
	</g>
	<g class="st4">
		
			<linearGradient id="SVGID_00000065076387805994305090000007131814413610445246_" gradientUnits="userSpaceOnUse" x1="308.5925" y1="42.0777" x2="344.9742" y2="5.696">
			<stop  offset="0" style="stop-color:#951B81"/>
			<stop  offset="1" style="stop-color:#29235C"/>
		</linearGradient>
		<path style="fill:url(#SVGID_00000065076387805994305090000007131814413610445246_);" d="M311.3,40.3c-0.2,0-0.5-0.1-0.7-0.3
			c-0.4-0.4-0.4-1,0-1.3l5.6-5.6c0.4-0.4,1-0.4,1.3,0c0.4,0.4,0.4,1,0,1.3l-5.6,5.6C311.7,40.2,311.5,40.3,311.3,40.3z"/>
	</g>
	<g class="st4">
		
			<linearGradient id="SVGID_00000001664106255973588220000013031740383152276134_" gradientUnits="userSpaceOnUse" x1="311.7682" y1="45.2533" x2="348.1495" y2="8.872">
			<stop  offset="0" style="stop-color:#951B81"/>
			<stop  offset="1" style="stop-color:#29235C"/>
		</linearGradient>
		<path style="fill:url(#SVGID_00000001664106255973588220000013031740383152276134_);" d="M316.4,41.5c-0.2,0-0.5-0.1-0.7-0.3
			c-0.4-0.4-0.4-1,0-1.3l5.4-5.4c0.4-0.4,1-0.4,1.3,0c0.4,0.4,0.4,1,0,1.3l-5.4,5.4C316.9,41.4,316.6,41.5,316.4,41.5z"/>
	</g>
	
		<linearGradient id="SVGID_00000028326399406080040990000000073354626458081417_" gradientUnits="userSpaceOnUse" x1="308.5922" y1="42.0776" x2="344.9742" y2="5.6957">
		<stop  offset="0" style="stop-color:#951B81"/>
		<stop  offset="1" style="stop-color:#29235C"/>
	</linearGradient>
	<path style="display:inline;fill:url(#SVGID_00000028326399406080040990000000073354626458081417_);" d="M343.9,6.8
		c-0.2-0.2-0.5-0.3-0.8-0.3c-0.1,0-2.7,0.4-6.2,1.8c-2.1,0.8-4,1.7-5.8,2.8c-2.2,1.3-4.2,2.8-5.9,4.5l-7,1.4c-0.2,0-0.3,0.1-0.5,0.3
		l-6.4,6.3c-0.3,0.3-0.4,0.7-0.2,1.1c0.2,0.3,0.5,0.5,0.8,0.5c0.1,0,0.1,0,0.2,0l7.2-1.4c-0.5,0.9-0.9,1.9-1.3,2.9
		c-0.1,0.3-0.1,0.7,0.2,1l1.8,1.8l-1.6,1.6c-0.4,0.4-0.4,1,0,1.3c0.2,0.2,0.4,0.3,0.7,0.3c0.2,0,0.5-0.1,0.7-0.3l1.6-1.6l1.8,1.8
		c0.2,0.2,0.4,0.3,0.7,0.3c0.1,0,0.2,0,0.4-0.1c1-0.4,1.9-0.8,2.9-1.3l-1.4,7.2c-0.1,0.4,0.1,0.8,0.5,1c0.1,0.1,0.3,0.1,0.4,0.1
		c0.2,0,0.5-0.1,0.7-0.3l6.3-6.4c0.1-0.1,0.2-0.3,0.3-0.5l1.4-7c1.7-1.7,3.2-3.7,4.5-5.9c1.1-1.8,2-3.8,2.8-5.8
		c1.3-3.5,1.8-6.1,1.8-6.2C344.2,7.3,344.1,7,343.9,6.8z M314.8,22.8l4-4l4.3-0.8c-0.9,1.1-1.8,2.4-2.6,3.7L314.8,22.8z M331.9,31.9
		l-4,4l1.1-5.7c1.3-0.8,2.6-1.7,3.7-2.6L331.9,31.9z M340.6,13.2c-1.2,3.1-3.3,7.5-7,11.1c-1.7,1.7-3.6,3.2-5.8,4.5
		c0,0-0.1,0-0.1,0.1c-1.2,0.7-2.4,1.3-3.8,1.9l-1.3-1.3l2.7-2.7c0.4-0.4,0.4-1,0-1.3c-0.4-0.4-1-0.4-1.3,0l-2.7,2.7l-1.3-1.3
		c0.6-1.3,1.2-2.6,1.9-3.8c0,0,0-0.1,0.1-0.1c1.3-2.2,2.8-4.2,4.5-5.8c3.6-3.6,8.1-5.8,11.1-7c1.9-0.7,3.5-1.2,4.5-1.4
		C341.7,9.7,341.3,11.3,340.6,13.2z"/>
</g>
</svg>
