<?xml version="1.0" encoding="utf-8"?>
<!-- Generator: Adobe Illustrator 27.0.0, SVG Export Plug-In . SVG Version: 6.00 Build 0)  -->
<svg version="1.1" id="Layer_1" xmlns="http://www.w3.org/2000/svg" xmlns:xlink="http://www.w3.org/1999/xlink" x="0px" y="0px"
	 viewBox="0 0 251 28" style="enable-background:new 0 0 251 28;" xml:space="preserve">
<style type="text/css">
	.st0{fill:none;stroke:#FF0000;stroke-width:1.4;stroke-miterlimit:10;}
	.st1{fill:#FF0000;stroke:#FF0000;stroke-width:0.3682;stroke-miterlimit:10;}
	.st2{fill:#FF0000;}
</style>
<path class="st0" d="M237.2,27H13.8c-7.1,0-13-5.8-13-13v0c0-7.1,5.8-13,13-13h223.4c7.1,0,13,5.8,13,13v0
	C250.2,21.2,244.4,27,237.2,27z"/>
<g>
	<path class="st1" d="M17.3,12.4v-1.1c0-1.6-1.5-3-3.3-3s-3.3,1.3-3.3,3v1.1c-0.7,0.1-1.2,0.7-1.2,1.5v4c0,0.8,0.7,1.5,1.5,1.5h6
		c0.8,0,1.5-0.7,1.5-1.5v-4C18.5,13.1,18,12.5,17.3,12.4z M11.1,11.2c0-1.4,1.3-2.6,2.9-2.6s2.9,1.1,2.9,2.6v1.1h-5.7V11.2z
		 M18.1,17.8c0,0.6-0.5,1.1-1.1,1.1h-6c-0.6,0-1.1-0.5-1.1-1.1v-4c0-0.6,0.5-1.1,1.1-1.1h6c0.6,0,1.1,0.5,1.1,1.1V17.8z"/>
	<path class="st1" d="M14,14c-0.5,0-0.8,0.4-0.8,0.8v1.2c0,0.5,0.4,0.8,0.8,0.8s0.8-0.4,0.8-0.8v-1.2C14.8,14.4,14.5,14,14,14z
		 M14.4,16.1c0,0.2-0.2,0.4-0.4,0.4s-0.4-0.2-0.4-0.4v-1.2c0-0.2,0.2-0.4,0.4-0.4s0.4,0.2,0.4,0.4V16.1z"/>
</g>
<g>
	<g>
		<path class="st2" d="M14.1,22.6c-4.6,0-8.4-3.8-8.4-8.4c0-0.3,0.3-0.6,0.6-0.6s0.6,0.3,0.6,0.6c0,4,3.2,7.2,7.2,7.2
			s7.2-3.2,7.2-7.2s-3.2-7.2-7.2-7.2c-0.3,0-0.6-0.3-0.6-0.6c0-0.3,0.3-0.6,0.6-0.6c4.6,0,8.4,3.8,8.4,8.4S18.7,22.6,14.1,22.6z"/>
	</g>
	<path class="st2" d="M4.5,14.5l1.6-2.8c0.1-0.2,0.4-0.2,0.5,0l1.6,2.8c0.1,0.2,0,0.5-0.3,0.5H4.8C4.5,14.9,4.4,14.7,4.5,14.5z"/>
</g>
</svg>
