<?xml version="1.0" encoding="utf-8"?>
<!-- Generator: Adobe Illustrator 27.0.0, SVG Export Plug-In . SVG Version: 6.00 Build 0)  -->
<svg version="1.1" id="Layer_1" xmlns="http://www.w3.org/2000/svg" xmlns:xlink="http://www.w3.org/1999/xlink" x="0px" y="0px"
	 viewBox="0 0 350 55" style="enable-background:new 0 0 350 55;" xml:space="preserve">
<style type="text/css">
	.st0{fill:#0676FF;}
	.st1{display:none;fill:#03152D;}
	.st2{display:none;}
	.st3{display:inline;fill:url(#SVGID_1_);}
	.st4{display:inline;}
	.st5{fill:url(#SVGID_00000100350194910913751350000003759045575919150212_);}
	.st6{fill:url(#SVGID_00000181079301709416484760000011277452361726033026_);}
	.st7{fill:url(#SVGID_00000099658100885426020710000009295684779310509748_);}
	.st8{display:inline;fill:url(#SVGID_00000068653721456136931090000017539943100171407244_);}
</style>
<polygon class="st0" points="350,55 0,55 0,55 0,0 350,0 "/>
<path class="st1" d="M287.1,46.5h-262c-10.4,0-19-8.5-19-19v0c0-10.4,8.5-19,19-19h262c10.5,0,19,8.5,19,19v0
	C306.1,38,297.6,46.5,287.1,46.5z"/>
<g class="st2">
	<linearGradient id="SVGID_1_" gradientUnits="userSpaceOnUse" x1="308.4616" y1="45.5382" x2="344.8434" y2="9.1565">
		<stop  offset="0" style="stop-color:#951B81"/>
		<stop  offset="1" style="stop-color:#29235C"/>
	</linearGradient>
	<path class="st3" d="M335.4,18.6c-0.6-0.6-1.5-1-2.3-1s-1.7,0.3-2.3,1s-1,1.5-1,2.3s0.3,1.7,1,2.3c0.6,0.6,1.5,1,2.3,1l0,0
		c0.9,0,1.7-0.3,2.3-1c0.6-0.6,1-1.5,1-2.3S336,19.3,335.4,18.6z M334,22c-0.3,0.3-0.6,0.4-1,0.4l0,0c-0.4,0-0.7-0.2-1-0.4
		c-0.3-0.3-0.4-0.6-0.4-1c0-0.4,0.2-0.7,0.4-1c0.3-0.3,0.6-0.4,1-0.4c0.4,0,0.7,0.2,1,0.4C334.6,20.5,334.6,21.4,334,22z"/>
	<g class="st4">
		
			<linearGradient id="SVGID_00000134225039310413862980000015408225193280740539_" gradientUnits="userSpaceOnUse" x1="305.2861" y1="42.3628" x2="341.6677" y2="5.9812">
			<stop  offset="0" style="stop-color:#951B81"/>
			<stop  offset="1" style="stop-color:#29235C"/>
		</linearGradient>
		<path style="fill:url(#SVGID_00000134225039310413862980000015408225193280740539_);" d="M309.9,38.6c-0.2,0-0.5-0.1-0.7-0.3
			c-0.4-0.4-0.4-1,0-1.3l5.4-5.4c0.4-0.4,1-0.4,1.3,0c0.4,0.4,0.4,1,0,1.3l-5.4,5.4C310.4,38.6,310.2,38.6,309.9,38.6z"/>
	</g>
	<g class="st4">
		
			<linearGradient id="SVGID_00000123435871783295787370000003379729011178642086_" gradientUnits="userSpaceOnUse" x1="308.4618" y1="45.5384" x2="344.8434" y2="9.1568">
			<stop  offset="0" style="stop-color:#951B81"/>
			<stop  offset="1" style="stop-color:#29235C"/>
		</linearGradient>
		<path style="fill:url(#SVGID_00000123435871783295787370000003379729011178642086_);" d="M311.1,43.8c-0.2,0-0.5-0.1-0.7-0.3
			c-0.4-0.4-0.4-1,0-1.3l5.6-5.6c0.4-0.4,1-0.4,1.3,0c0.4,0.4,0.4,1,0,1.3l-5.6,5.6C311.6,43.7,311.4,43.8,311.1,43.8z"/>
	</g>
	<g class="st4">
		
			<linearGradient id="SVGID_00000111166500820960709350000011600537746618389672_" gradientUnits="userSpaceOnUse" x1="311.6375" y1="48.7141" x2="348.0188" y2="12.3328">
			<stop  offset="0" style="stop-color:#951B81"/>
			<stop  offset="1" style="stop-color:#29235C"/>
		</linearGradient>
		<path style="fill:url(#SVGID_00000111166500820960709350000011600537746618389672_);" d="M316.3,45c-0.2,0-0.5-0.1-0.7-0.3
			c-0.4-0.4-0.4-1,0-1.3L321,38c0.4-0.4,1-0.4,1.3,0c0.4,0.4,0.4,1,0,1.3l-5.4,5.4C316.8,44.9,316.5,45,316.3,45z"/>
	</g>
	
		<linearGradient id="SVGID_00000053519977836217471800000006413235181996912791_" gradientUnits="userSpaceOnUse" x1="308.4615" y1="45.5384" x2="344.8434" y2="9.1565">
		<stop  offset="0" style="stop-color:#951B81"/>
		<stop  offset="1" style="stop-color:#29235C"/>
	</linearGradient>
	<path style="display:inline;fill:url(#SVGID_00000053519977836217471800000006413235181996912791_);" d="M343.7,10.3
		c-0.2-0.2-0.5-0.3-0.8-0.3c-0.1,0-2.7,0.4-6.2,1.8c-2.1,0.8-4,1.7-5.8,2.8c-2.2,1.3-4.2,2.8-5.9,4.5l-7,1.4c-0.2,0-0.3,0.1-0.5,0.3
		l-6.4,6.3c-0.3,0.3-0.4,0.7-0.2,1.1c0.2,0.3,0.5,0.5,0.8,0.5c0.1,0,0.1,0,0.2,0l7.2-1.4c-0.5,0.9-0.9,1.9-1.3,2.9
		c-0.1,0.3-0.1,0.7,0.2,1l1.8,1.8l-1.6,1.6c-0.4,0.4-0.4,1,0,1.3c0.2,0.2,0.4,0.3,0.7,0.3c0.2,0,0.5-0.1,0.7-0.3l1.6-1.6l1.8,1.8
		c0.2,0.2,0.4,0.3,0.7,0.3c0.1,0,0.2,0,0.4-0.1c1-0.4,1.9-0.8,2.9-1.3l-1.4,7.2c-0.1,0.4,0.1,0.8,0.5,1c0.1,0.1,0.3,0.1,0.4,0.1
		c0.2,0,0.5-0.1,0.7-0.3l6.3-6.4c0.1-0.1,0.2-0.3,0.3-0.5l1.4-7c1.7-1.7,3.2-3.7,4.5-5.9c1.1-1.8,2-3.8,2.8-5.8
		c1.3-3.5,1.8-6.1,1.8-6.2C344,10.8,343.9,10.5,343.7,10.3z M314.6,26.2l4-4l4.3-0.8c-0.9,1.1-1.8,2.4-2.6,3.7L314.6,26.2z
		 M331.8,35.4l-4,4l1.1-5.7c1.3-0.8,2.6-1.7,3.7-2.6L331.8,35.4z M340.5,16.7c-1.2,3.1-3.3,7.5-7,11.1c-1.7,1.7-3.6,3.2-5.8,4.5
		c0,0-0.1,0-0.1,0.1c-1.2,0.7-2.4,1.3-3.8,1.9l-1.3-1.3l2.7-2.7c0.4-0.4,0.4-1,0-1.3c-0.4-0.4-1-0.4-1.3,0l-2.7,2.7l-1.3-1.3
		c0.6-1.3,1.2-2.6,1.9-3.8c0,0,0-0.1,0.1-0.1c1.3-2.2,2.8-4.2,4.5-5.8c3.6-3.6,8.1-5.8,11.1-7c1.9-0.7,3.5-1.2,4.5-1.4
		C341.6,13.2,341.2,14.8,340.5,16.7z"/>
</g>
</svg>
