<?xml version="1.0" encoding="utf-8"?>
<!-- Generator: Adobe Illustrator 27.0.0, SVG Export Plug-In . SVG Version: 6.00 Build 0)  -->
<svg version="1.1" id="Layer_1" xmlns="http://www.w3.org/2000/svg" xmlns:xlink="http://www.w3.org/1999/xlink" x="0px" y="0px"
	 viewBox="0 0 251 28" style="enable-background:new 0 0 251 28;" xml:space="preserve">
<style type="text/css">
	.st0{fill:none;stroke:#00FF00;stroke-width:1.4;stroke-miterlimit:10;}
	.st1{fill:#00FF00;stroke:#00FF00;stroke-width:0.4747;stroke-miterlimit:10;}
</style>
<path class="st0" d="M237.2,27H13.8c-7.1,0-13-5.8-13-13v0c0-7.1,5.8-13,13-13h223.4c7.1,0,13,5.8,13,13v0
	C250.2,21.2,244.4,27,237.2,27z"/>
<g>
	<path class="st1" d="M18.2,12.2v-1.5c0-2.1-1.9-3.8-4.2-3.8s-4.2,1.7-4.2,3.8v1.5c-0.9,0.2-1.6,0.9-1.6,1.9v5.2
		c0,1.1,0.9,1.9,1.9,1.9h7.8c1.1,0,1.9-0.9,1.9-1.9v-5.2C19.8,13.1,19.1,12.3,18.2,12.2z M10.3,10.7c0-1.8,1.7-3.3,3.7-3.3
		s3.7,1.5,3.7,3.3v1.5h-7.4V10.7z M19.3,19.2c0,0.8-0.6,1.4-1.4,1.4h-7.8c-0.8,0-1.4-0.6-1.4-1.4v-5.2c0-0.8,0.6-1.4,1.4-1.4h7.8
		c0.8,0,1.4,0.6,1.4,1.4V19.2z"/>
	<path class="st1" d="M14,14.3c-0.6,0-1.1,0.5-1.1,1.1v1.6c0,0.6,0.5,1.1,1.1,1.1s1.1-0.5,1.1-1.1v-1.6C15.1,14.7,14.6,14.3,14,14.3
		z M14.5,16.9c0,0.3-0.2,0.5-0.5,0.5s-0.5-0.2-0.5-0.5v-1.6c0-0.3,0.2-0.5,0.5-0.5s0.5,0.2,0.5,0.5V16.9z"/>
</g>
</svg>
