<?xml version="1.0" encoding="utf-8"?>
<!-- Generator: Adobe Illustrator 27.0.0, SVG Export Plug-In . SVG Version: 6.00 Build 0)  -->
<svg version="1.1" id="Layer_1" xmlns="http://www.w3.org/2000/svg" xmlns:xlink="http://www.w3.org/1999/xlink" x="0px" y="0px"
	 viewBox="0 0 251 28" style="enable-background:new 0 0 251 28;" xml:space="preserve">
<style type="text/css">
	.st0{fill:none;stroke:#FFFFFF;stroke-width:1.4;stroke-miterlimit:10;}
	.st1{fill:#FFFFFF;}
</style>
<path class="st0" d="M237.2,27H13.8c-7.1,0-13-5.8-13-13v0c0-7.1,5.8-13,13-13h223.4c7.1,0,13,5.8,13,13v0
	C250.2,21.2,244.4,27,237.2,27z"/>
<g>
	<g>
		<path class="st1" d="M19.2,15.7c-0.8-0.8-1.8-1.4-2.8-1.8c1.1-0.8,1.8-2,1.8-3.5c0-2.3-1.9-4.2-4.2-4.2c-2.3,0-4.2,1.9-4.2,4.2
			c0,1.5,0.7,2.7,1.8,3.5c-1,0.4-2,1-2.8,1.8c-1.4,1.4-2.2,3.2-2.2,5.2h1.1c0-3.4,2.8-6.2,6.2-6.2c3.4,0,6.2,2.8,6.2,6.2h1.1
			C21.3,18.9,20.6,17,19.2,15.7z M14,13.5c-1.7,0-3.1-1.4-3.1-3.1s1.4-3.1,3.1-3.1c1.7,0,3.1,1.4,3.1,3.1S15.7,13.5,14,13.5z"/>
	</g>
</g>
</svg>
