<?xml version="1.0" encoding="utf-8"?>
<!-- Generator: Adobe Illustrator 27.0.0, SVG Export Plug-In . SVG Version: 6.00 Build 0)  -->
<svg version="1.1" id="Layer_1" xmlns="http://www.w3.org/2000/svg" xmlns:xlink="http://www.w3.org/1999/xlink" x="0px" y="0px"
	 viewBox="0 0 261 32" style="enable-background:new 0 0 261 32;" xml:space="preserve">
<style type="text/css">
	.st0{fill:#7FB3D5;}
	.st1{fill:#FFFFFF;stroke:#FFFFFF;stroke-width:0.25;stroke-miterlimit:10;}
</style>
<path class="st0" d="M245,32H16C7.2,32,0,24.8,0,16v0C0,7.2,7.2,0,16,0h229c8.8,0,16,7.2,16,16v0C261,24.8,253.8,32,245,32z"/>
<g>
	<path class="st1" d="M105.9,11.2v9.4h4.5v1.1h-5.7V11.2H105.9z"/>
	<path class="st1" d="M115.8,17.6c0-2.5,0.9-4.2,3.4-4.2c2.5,0,3.3,1.7,3.3,4.2c0,2.5-1,4.3-3.4,4.3
		C116.7,21.8,115.8,20.1,115.8,17.6z M119.2,20.8c1.6,0,2.1-1,2.1-3.2c0-2.2-0.7-3.3-2.2-3.3c-1.5,0-2.1,1-2.1,3.1
		C117,19.7,117.7,20.8,119.2,20.8z"/>
	<path class="st1" d="M134.8,21.8c0,2.1-1.3,3.2-3.4,3.2c-1.5,0-2.4-0.5-2.7-0.9l0.7-0.9c0.4,0.4,1.1,0.8,2.1,0.8
		c1.5,0,2.1-0.7,2.1-2.2V21h-0.1c-0.3,0.2-0.9,0.6-2,0.6c-1.7,0-3.1-1-3.1-3.8c0-2.6,1.3-4.4,4-4.4c1,0,1.8,0.2,2.3,0.4V21.8z
		 M132.3,14.5c-1.6,0-2.6,1-2.6,3.2c0,2.3,1.1,3,2.2,3c0.6,0,1.3-0.3,1.7-0.8v-5.1C133.3,14.6,132.9,14.5,132.3,14.5z"/>
	<path class="st1" d="M142.5,10.3c0.5,0,0.9,0.4,0.9,0.9c0,0.5-0.4,0.8-0.9,0.8c-0.5,0-0.8-0.4-0.8-0.8
		C141.7,10.7,142.1,10.3,142.5,10.3z M142,13.5h1.2v8.2H142V13.5z"/>
	<path class="st1" d="M156.5,21.7h-1.2v-5.4c0-1.2-0.6-1.9-1.8-1.9c-1,0-1.8,0.7-2.1,1.5v5.8h-1.2v-8.2h0.9l0.2,0.9h0.1
		c0.2-0.3,1-1,2.3-1c1.6,0,2.6,0.9,2.7,2.7V21.7z"/>
</g>
</svg>
