<?xml version="1.0" encoding="utf-8"?>
<!-- Generator: Adobe Illustrator 27.0.0, SVG Export Plug-In . SVG Version: 6.00 Build 0)  -->
<svg version="1.1" id="Layer_1" xmlns="http://www.w3.org/2000/svg" xmlns:xlink="http://www.w3.org/1999/xlink" x="0px" y="0px"
	 viewBox="0 0 271 81" style="enable-background:new 0 0 271 81;" xml:space="preserve">
<style type="text/css">
	.st0{fill:#FFFFFF;}
	.st1{fill:none;}
	.st2{font-family:'Moon';}
	.st3{font-size:30px;}
</style>
<g>
	<path class="st0" d="M73.2,13.9l11.2,11.2l11.2-11.2v22.4h-3.7V22.9l-7.5,7.5L73.2,19.1V13.9z"/>
	<path class="st1" d="M126,17.2c2.2,2.2,3.3,4.8,3.3,7.9s-1.1,5.7-3.3,7.9s-4.8,3.3-7.9,3.3s-5.7-1.1-7.9-3.3
		c-2.2-2.2-3.3-4.8-3.3-7.9s1.1-5.7,3.3-7.9c2.2-2.2,4.8-3.3,7.9-3.3C121.2,13.9,123.8,15,126,17.2z M112.8,19.8
		c-1.5,1.5-2.2,3.2-2.2,5.3c0,2,0.7,3.8,2.2,5.3s3.2,2.2,5.3,2.2c2,0,3.8-0.7,5.3-2.2s2.2-3.2,2.2-5.3c0-2-0.7-3.8-2.2-5.3
		s-3.2-2.2-5.3-2.2C116,17.7,114.3,18.4,112.8,19.8z"/>
	<path class="st0" d="M160,17.2c2.2,2.2,3.3,4.8,3.3,7.9s-1.1,5.7-3.3,7.9s-4.8,3.3-7.9,3.3c-3.1,0-5.7-1.1-7.9-3.3
		s-3.3-4.8-3.3-7.9s1.1-5.7,3.3-7.9s4.8-3.3,7.9-3.3C155.2,13.9,157.8,15,160,17.2z M146.8,19.8c-1.5,1.5-2.2,3.2-2.2,5.3
		c0,2,0.7,3.8,2.2,5.3s3.2,2.2,5.3,2.2s3.8-0.7,5.3-2.2s2.2-3.2,2.2-5.3c0-2-0.7-3.8-2.2-5.3s-3.2-2.2-5.3-2.2
		S148.3,18.4,146.8,19.8z"/>
	<path class="st0" d="M193.5,13.9v22.3l0,0l0,0l-18.6-16.7v-5.7l14.9,13.4V13.9H193.5z"/>
	<path class="st0" d="M10.6,47.5l11.2,11.2L33,47.5v22.4h-3.7V56.5L21.8,64L10.6,52.7V47.5z"/>
	<path class="st0" d="M59.2,47.5v3.8H48l-3.7-3.8H59.2z M48,56.9h11.2v3.7H48h-3.7v-3.7H48z M48,66.1h11.2v3.8H44.3v-0.3L48,66.1z"
		/>
	<path class="st0" d="M75.6,60.6c-1.8,0-3.4-0.6-4.6-1.9c-1.3-1.3-1.9-2.8-1.9-4.6s0.6-3.3,1.9-4.6s2.8-1.9,4.6-1.9v3.8
		c-0.4,0-0.8,0.1-1.1,0.2c-0.4,0.1-0.6,0.3-0.9,0.6s-0.4,0.6-0.6,0.9c-0.1,0.3-0.2,0.7-0.2,1.1c0,0.8,0.3,1.4,0.8,2
		c0.6,0.6,1.2,0.8,2,0.8h5.6c1.8,0,3.4,0.6,4.6,1.9c1.3,1.3,1.9,2.8,1.9,4.6s-0.6,3.3-1.9,4.6S83,70,81.2,70v-3.8
		c0.4,0,0.8-0.1,1.1-0.2c0.4-0.1,0.7-0.3,0.9-0.6s0.4-0.5,0.6-0.9c0.1-0.3,0.2-0.7,0.2-1.1c0-0.8-0.3-1.4-0.8-2
		c-0.6-0.6-1.2-0.8-2-0.8C81.2,60.6,75.6,60.6,75.6,60.6z"/>
	<path class="st0" d="M105.1,60.6c-1.8,0-3.4-0.6-4.6-1.9c-1.3-1.3-1.9-2.8-1.9-4.6s0.6-3.3,1.9-4.6s2.8-1.9,4.6-1.9v3.8
		c-0.4,0-0.8,0.1-1.1,0.2c-0.4,0.1-0.6,0.3-0.9,0.6s-0.4,0.6-0.6,0.9c-0.1,0.3-0.2,0.7-0.2,1.1c0,0.8,0.3,1.4,0.8,2
		c0.6,0.6,1.2,0.8,2,0.8h5.6c1.8,0,3.4,0.6,4.6,1.9c1.3,1.3,1.9,2.8,1.9,4.6s-0.6,3.3-1.9,4.6s-2.8,1.9-4.6,1.9v-3.8
		c0.4,0,0.8-0.1,1.1-0.2c0.4-0.1,0.7-0.3,0.9-0.6s0.4-0.5,0.6-0.9c0.1-0.3,0.2-0.7,0.2-1.1c0-0.8-0.3-1.4-0.8-2
		c-0.6-0.6-1.2-0.8-2-0.8C110.7,60.6,105.1,60.6,105.1,60.6z"/>
	<path class="st0" d="M143,47.5v3.8h-11.2l-3.7-3.8H143z M131.8,56.9H143v3.7h-11.2h-3.7v-3.7H131.8z M131.8,66.1H143v3.8h-14.9
		v-0.3L131.8,66.1z"/>
	<path class="st0" d="M171.5,47.5v22.3l0,0l0,0l-18.6-16.7v-5.7l14.9,13.4V47.5H171.5z"/>
	<path class="st0" d="M199.6,63.6l3.7,1.2c-0.5,0.8-1.1,1.5-1.8,2.1s-1.4,1.1-2.2,1.6c-0.8,0.4-1.6,0.8-2.5,1
		c-0.9,0.3-1.8,0.4-2.8,0.4c-3.1,0-5.7-1.1-7.9-3.3c-2.2-2.2-3.3-4.8-3.3-7.9c0-3.1,1.1-5.7,3.3-7.9s4.8-3.3,7.9-3.3
		c1.5,0,3,0.3,4.4,0.9c1.3,0.6,2.5,1.4,3.6,2.4l-2.7,2.6c-1.5-1.5-3.2-2.2-5.3-2.2c-2,0-3.8,0.7-5.3,2.2s-2.2,3.2-2.2,5.3
		s0.7,3.8,2.2,5.3c1.5,1.5,3.2,2.2,5.3,2.2c1.1,0,2.2-0.2,3.1-0.6C198.1,65.1,198.9,64.4,199.6,63.6z M194,56.9h9.4l-3.7,3.7H194
		V56.9z"/>
	<path class="st0" d="M229.2,47.5v3.8H218l-3.7-3.8H229.2z M218,56.9h11.2v3.7H218h-3.7v-3.7H218z M218,66.1h11.2v3.8h-14.9v-0.3
		L218,66.1z"/>
	<path class="st0" d="M251.8,61.9l4.6,8h-4.3l-6.5-11.2h3.3c1,0,1.9-0.4,2.6-1.1c0.8-0.7,1.1-1.6,1.1-2.7c0-1-0.4-1.9-1.1-2.6
		c-0.7-0.7-1.6-1.1-2.6-1.1h-7.5l-0.4-0.4l-1.9-3.3h9.8c2,0,3.8,0.7,5.3,2.2s2.2,3.2,2.2,5.3c0,1.6-0.4,3-1.3,4.2
		C254.2,60.4,253.1,61.3,251.8,61.9z"/>
</g>
<rect x="105" y="15.3" class="st1" width="29.4" height="22.4"/>
<text transform="matrix(1 0 0 1 107.7119 34.2494)" class="st0 st2 st3">J</text>
<g>
	<path d="M35.6-1.4c-0.1,0.3-0.2,1.1-0.3,1.4h-4v-0.2c0.8-0.1,0.8-0.1,0.8-0.9v-3.4c0-0.7-0.1-0.8-0.8-0.8v-0.3h2.4v0.3
		c-0.7,0-0.8,0.1-0.8,0.8v3.3c0,0.5,0,0.6,0.2,0.7c0.2,0.1,0.5,0.1,0.8,0.1c0.5,0,0.8-0.1,1-0.3C35-0.7,35.2-1,35.4-1.4L35.6-1.4z"
		/>
	<path d="M38-3.8c1.1,0,1.9,0.9,1.9,1.9c0,1.4-1.1,2-1.9,2c-1.2,0-2-0.9-2-1.9C36-3.2,37.2-3.8,38-3.8L38-3.8z M37.9-3.6
		c-0.5,0-1,0.5-1,1.5c0,1.1,0.5,1.9,1.2,1.9c0.5,0,1-0.3,1-1.5C39-2.8,38.6-3.6,37.9-3.6L37.9-3.6z"/>
	<path d="M41.9-2.9c0.3-0.5,0.6-0.9,1-0.9c0.3,0,0.5,0.2,0.5,0.4c0,0.2-0.1,0.4-0.3,0.5c-0.1,0-0.2,0-0.2,0
		c-0.1-0.1-0.2-0.2-0.4-0.2c-0.2,0-0.5,0.3-0.7,0.7v1.5c0,0.6,0,0.6,0.7,0.7V0h-2.1v-0.2c0.5-0.1,0.6-0.1,0.6-0.7v-1.8
		c0-0.5,0-0.6-0.5-0.7v-0.2c0.4-0.1,0.8-0.2,1.3-0.4L41.9-2.9L41.9-2.9z"/>
	<path d="M47-0.8c-0.6,0.7-1.2,0.9-1.5,0.9c-1.1,0-1.7-0.9-1.7-1.8c0-0.6,0.2-1.1,0.6-1.5c0.4-0.4,0.8-0.7,1.3-0.7h0
		c0.7,0,1.3,0.6,1.3,1.3c0,0.2,0,0.2-0.2,0.3c-0.2,0-1.2,0.1-2.3,0.1c0,1.1,0.7,1.6,1.3,1.6c0.4,0,0.7-0.1,1-0.4L47-0.8z M45.5-3.5
		c-0.4,0-0.8,0.3-0.9,1c0.5,0,0.9,0,1.4,0c0.2,0,0.2-0.1,0.2-0.2C46.3-3.1,46-3.5,45.5-3.5L45.5-3.5z"/>
	<path d="M52.4,0v-0.2C52.9-0.3,53-0.3,53-0.9v-1.4c0-0.6-0.2-1-0.8-1c-0.3,0-0.6,0.2-0.9,0.4c0,0.1,0,0.2,0,0.4v1.6
		c0,0.5,0.1,0.6,0.6,0.6V0H50v-0.2c0.5-0.1,0.6-0.1,0.6-0.7v-1.4c0-0.6-0.2-1-0.7-1c-0.3,0-0.7,0.2-0.9,0.4v2c0,0.6,0.1,0.6,0.5,0.7
		V0h-1.9v-0.2c0.6-0.1,0.6-0.1,0.6-0.7v-1.7c0-0.5,0-0.6-0.5-0.7v-0.2c0.4-0.1,0.9-0.2,1.3-0.3v0.7c0.2-0.1,0.4-0.3,0.6-0.4
		c0.2-0.1,0.4-0.2,0.7-0.2c0.4,0,0.8,0.3,1,0.7c0.3-0.2,0.5-0.3,0.7-0.5c0.2-0.1,0.4-0.2,0.7-0.2c0.7,0,1.1,0.5,1.1,1.3v1.6
		c0,0.6,0.1,0.6,0.6,0.7V0H52.4z"/>
	<path d="M57.1,0v-0.2c0.5-0.1,0.6-0.1,0.6-0.7v-1.7c0-0.5,0-0.6-0.5-0.7v-0.2c0.5-0.1,0.9-0.2,1.3-0.3v2.9c0,0.6,0.1,0.6,0.6,0.7V0
		H57.1z M57.6-5c0-0.3,0.2-0.5,0.5-0.5s0.5,0.2,0.5,0.5c0,0.2-0.2,0.5-0.5,0.5C57.8-4.6,57.6-4.8,57.6-5z"/>
	<path d="M61.5-3.7c0.2-0.1,0.3-0.1,0.5-0.1c1,0,1.6,0.8,1.6,1.6c0,1.3-1,2.1-2.2,2.3c-0.3,0-0.5-0.1-0.6-0.1v1.1
		c0,0.6,0.1,0.7,0.7,0.7v0.2h-2.1V1.8C59.9,1.8,60,1.7,60,1.2v-3.9c0-0.5,0-0.6-0.6-0.6v-0.2c0.4-0.1,0.9-0.2,1.3-0.4v0.7L61.5-3.7z
		 M60.8-0.7c0.2,0.2,0.5,0.3,0.8,0.3c0.7,0,1.2-0.7,1.2-1.5c0-0.9-0.6-1.4-1.2-1.4c-0.3,0-0.6,0.2-0.8,0.4V-0.7z"/>
	<path d="M66.4-2.7c-0.2-0.5-0.5-0.9-0.9-0.9C65.2-3.6,65-3.3,65-3c0,0.4,0.3,0.6,0.7,0.7c0.7,0.3,1.1,0.6,1.1,1.2
		c0,0.8-0.7,1.2-1.5,1.2c-0.5,0-0.9-0.2-1-0.3c-0.1-0.1-0.1-0.7-0.2-1.1l0.2,0c0.2,0.6,0.6,1.1,1.1,1.1c0.3,0,0.6-0.2,0.6-0.6
		c0-0.4-0.2-0.5-0.7-0.7C65-1.7,64.4-2,64.4-2.7c0-0.6,0.5-1.1,1.3-1.1c0.4,0,0.6,0.1,0.8,0.2c0.1,0.2,0.2,0.7,0.2,0.9L66.4-2.7z"/>
	<path d="M71.7-0.2c-0.2,0-0.4,0.1-0.7,0.1c-0.2,0.1-0.5,0.1-0.7,0.2l-0.1,0v-0.6c-0.2,0.1-0.4,0.3-0.6,0.4C69.4,0,69.2,0.1,69,0.1
		c-0.6,0-1.1-0.4-1.1-1.3v-1.6c0-0.5-0.1-0.5-0.3-0.6l-0.2-0.1v-0.2c0.2,0,0.4,0,0.7-0.1c0.2,0,0.5-0.1,0.7-0.1c0,0.3,0,0.7,0,1.2
		v1.2c0,0.7,0.4,0.9,0.8,0.9c0.3,0,0.6-0.1,0.9-0.4v-2c0-0.5-0.1-0.5-0.4-0.6l-0.3-0.1v-0.2c0.2,0,0.6,0,0.8-0.1
		c0.3,0,0.5-0.1,0.6-0.1V-1c0,0.4,0.1,0.5,0.4,0.5l0.2,0V-0.2z"/>
	<path d="M76.9,0v-0.2c0.5-0.1,0.6-0.1,0.6-0.7v-1.4c0-0.6-0.2-1-0.8-1c-0.3,0-0.6,0.2-0.9,0.4c0,0.1,0,0.2,0,0.4v1.6
		c0,0.5,0.1,0.6,0.6,0.6V0h-1.9v-0.2c0.5-0.1,0.6-0.1,0.6-0.7v-1.4c0-0.6-0.2-1-0.7-1c-0.3,0-0.7,0.2-0.9,0.4v2
		c0,0.6,0.1,0.6,0.5,0.7V0H72v-0.2c0.6-0.1,0.6-0.1,0.6-0.7v-1.7c0-0.5,0-0.6-0.5-0.7v-0.2c0.4-0.1,0.9-0.2,1.3-0.3v0.7
		c0.2-0.1,0.4-0.3,0.6-0.4c0.2-0.1,0.4-0.2,0.7-0.2c0.4,0,0.8,0.3,1,0.7c0.3-0.2,0.5-0.3,0.7-0.5c0.2-0.1,0.4-0.2,0.7-0.2
		c0.7,0,1.1,0.5,1.1,1.3v1.6c0,0.6,0.1,0.6,0.6,0.7V0H76.9z"/>
</g>
<g>
	<path d="M380.6-94.4c-0.1,0.3-0.2,1.1-0.3,1.4h-4v-0.2c0.8-0.1,0.8-0.1,0.8-0.9v-3.4c0-0.7-0.1-0.8-0.8-0.8v-0.3h2.4v0.3
		c-0.7,0-0.8,0.1-0.8,0.8v3.3c0,0.5,0,0.6,0.2,0.7c0.2,0.1,0.5,0.1,0.8,0.1c0.5,0,0.8-0.1,1-0.3c0.2-0.2,0.3-0.4,0.5-0.9L380.6-94.4
		z"/>
	<path d="M383-96.8c1.1,0,1.9,0.9,1.9,1.9c0,1.4-1.1,2-1.9,2c-1.2,0-2-0.9-2-1.9C381-96.2,382.2-96.8,383-96.8L383-96.8z
		 M382.9-96.6c-0.5,0-1,0.5-1,1.5c0,1.1,0.5,1.9,1.2,1.9c0.5,0,1-0.3,1-1.5C384-95.8,383.6-96.6,382.9-96.6L382.9-96.6z"/>
	<path d="M386.9-95.9c0.3-0.5,0.6-0.9,1-0.9c0.3,0,0.5,0.2,0.5,0.4c0,0.2-0.1,0.4-0.3,0.5c-0.1,0-0.2,0-0.2,0
		c-0.1-0.1-0.2-0.2-0.4-0.2c-0.2,0-0.5,0.3-0.7,0.7v1.5c0,0.6,0,0.6,0.7,0.7v0.2h-2.1v-0.2c0.5-0.1,0.6-0.1,0.6-0.7v-1.8
		c0-0.5,0-0.6-0.5-0.7v-0.2c0.4-0.1,0.8-0.2,1.3-0.4L386.9-95.9L386.9-95.9z"/>
	<path d="M392-93.8c-0.6,0.7-1.2,0.9-1.5,0.9c-1.1,0-1.7-0.9-1.7-1.8c0-0.6,0.2-1.1,0.6-1.5c0.4-0.4,0.8-0.7,1.3-0.7h0
		c0.7,0,1.3,0.6,1.3,1.3c0,0.2,0,0.2-0.2,0.3c-0.2,0-1.2,0.1-2.3,0.1c0,1.1,0.7,1.6,1.3,1.6c0.4,0,0.7-0.1,1-0.4L392-93.8z
		 M390.5-96.5c-0.4,0-0.8,0.3-0.9,1c0.5,0,0.9,0,1.4,0c0.2,0,0.2-0.1,0.2-0.2C391.3-96.1,391-96.5,390.5-96.5L390.5-96.5z"/>
	<path d="M397.4-93v-0.2c0.5-0.1,0.6-0.1,0.6-0.7v-1.4c0-0.6-0.2-1-0.8-1c-0.3,0-0.6,0.2-0.9,0.4c0,0.1,0,0.2,0,0.4v1.6
		c0,0.5,0.1,0.6,0.6,0.6v0.2H395v-0.2c0.5-0.1,0.6-0.1,0.6-0.7v-1.4c0-0.6-0.2-1-0.7-1c-0.3,0-0.7,0.2-0.9,0.4v2
		c0,0.6,0.1,0.6,0.5,0.7v0.2h-1.9v-0.2c0.6-0.1,0.6-0.1,0.6-0.7v-1.7c0-0.5,0-0.6-0.5-0.7v-0.2c0.4-0.1,0.9-0.2,1.3-0.3v0.7
		c0.2-0.1,0.4-0.3,0.6-0.4c0.2-0.1,0.4-0.2,0.7-0.2c0.4,0,0.8,0.3,1,0.7c0.3-0.2,0.5-0.3,0.7-0.5c0.2-0.1,0.4-0.2,0.7-0.2
		c0.7,0,1.1,0.5,1.1,1.3v1.6c0,0.6,0.1,0.6,0.6,0.7v0.2H397.4z"/>
	<path d="M402.1-93v-0.2c0.5-0.1,0.6-0.1,0.6-0.7v-1.7c0-0.5,0-0.6-0.5-0.7v-0.2c0.5-0.1,0.9-0.2,1.3-0.3v2.9c0,0.6,0.1,0.6,0.6,0.7
		v0.2H402.1z M402.6-98c0-0.3,0.2-0.5,0.5-0.5s0.5,0.2,0.5,0.5c0,0.2-0.2,0.5-0.5,0.5C402.8-97.6,402.6-97.8,402.6-98z"/>
	<path d="M406.5-96.7c0.2-0.1,0.3-0.1,0.5-0.1c1,0,1.6,0.8,1.6,1.6c0,1.3-1,2.1-2.2,2.3c-0.3,0-0.5-0.1-0.6-0.1v1.1
		c0,0.6,0.1,0.7,0.7,0.7v0.2h-2.1v-0.2c0.6-0.1,0.6-0.1,0.6-0.7v-3.9c0-0.5,0-0.6-0.6-0.6v-0.2c0.4-0.1,0.9-0.2,1.3-0.4v0.7
		L406.5-96.7z M405.8-93.7c0.2,0.2,0.5,0.3,0.8,0.3c0.7,0,1.2-0.7,1.2-1.5c0-0.9-0.6-1.4-1.2-1.4c-0.3,0-0.6,0.2-0.8,0.4V-93.7z"/>
	<path d="M411.4-95.7c-0.2-0.5-0.5-0.9-0.9-0.9c-0.3,0-0.5,0.2-0.5,0.6c0,0.4,0.3,0.6,0.7,0.7c0.7,0.3,1.1,0.6,1.1,1.2
		c0,0.8-0.7,1.2-1.5,1.2c-0.5,0-0.9-0.2-1-0.3c-0.1-0.1-0.1-0.7-0.2-1.1l0.2,0c0.2,0.6,0.6,1.1,1.1,1.1c0.3,0,0.6-0.2,0.6-0.6
		c0-0.4-0.2-0.5-0.7-0.7c-0.5-0.2-1.1-0.5-1.1-1.2c0-0.6,0.5-1.1,1.3-1.1c0.4,0,0.6,0.1,0.8,0.2c0.1,0.2,0.2,0.7,0.2,0.9L411.4-95.7
		z"/>
	<path d="M416.7-93.2c-0.2,0-0.4,0.1-0.7,0.1c-0.2,0.1-0.5,0.1-0.7,0.2l-0.1,0v-0.6c-0.2,0.1-0.4,0.3-0.6,0.4
		c-0.3,0.1-0.4,0.2-0.7,0.2c-0.6,0-1.1-0.4-1.1-1.3v-1.6c0-0.5-0.1-0.5-0.3-0.6l-0.2-0.1v-0.2c0.2,0,0.4,0,0.7-0.1
		c0.2,0,0.5-0.1,0.7-0.1c0,0.3,0,0.7,0,1.2v1.2c0,0.7,0.4,0.9,0.8,0.9c0.3,0,0.6-0.1,0.9-0.4v-2c0-0.5-0.1-0.5-0.4-0.6l-0.3-0.1
		v-0.2c0.2,0,0.6,0,0.8-0.1c0.3,0,0.5-0.1,0.6-0.1v2.8c0,0.4,0.1,0.5,0.4,0.5l0.2,0V-93.2z"/>
	<path d="M421.9-93v-0.2c0.5-0.1,0.6-0.1,0.6-0.7v-1.4c0-0.6-0.2-1-0.8-1c-0.3,0-0.6,0.2-0.9,0.4c0,0.1,0,0.2,0,0.4v1.6
		c0,0.5,0.1,0.6,0.6,0.6v0.2h-1.9v-0.2c0.5-0.1,0.6-0.1,0.6-0.7v-1.4c0-0.6-0.2-1-0.7-1c-0.3,0-0.7,0.2-0.9,0.4v2
		c0,0.6,0.1,0.6,0.5,0.7v0.2H417v-0.2c0.6-0.1,0.6-0.1,0.6-0.7v-1.7c0-0.5,0-0.6-0.5-0.7v-0.2c0.4-0.1,0.9-0.2,1.3-0.3v0.7
		c0.2-0.1,0.4-0.3,0.6-0.4c0.2-0.1,0.4-0.2,0.7-0.2c0.4,0,0.8,0.3,1,0.7c0.3-0.2,0.5-0.3,0.7-0.5c0.2-0.1,0.4-0.2,0.7-0.2
		c0.7,0,1.1,0.5,1.1,1.3v1.6c0,0.6,0.1,0.6,0.6,0.7v0.2H421.9z"/>
</g>
</svg>
