<?xml version="1.0" encoding="utf-8"?>
<!-- Generator: Adobe Illustrator 27.0.0, SVG Export Plug-In . SVG Version: 6.00 Build 0)  -->
<svg version="1.1" id="Layer_1" xmlns="http://www.w3.org/2000/svg" xmlns:xlink="http://www.w3.org/1999/xlink" x="0px" y="0px"
	 viewBox="0 0 271 81" style="enable-background:new 0 0 271 81;" xml:space="preserve">
<style type="text/css">
	.st0{fill:#FFFFFF;}
</style>
<g>
	<path class="st0" d="M68.4,6l12,12l12-12v24h-4V15.7l-8,8l-12-12.1V6z"/>
	<path class="st0" d="M130.3,18.3c0,6.5-5.3,11.7-11.8,11.7c-4.3,0-8.1-2.3-10.1-5.8c0.3,0,0.5,0,0.9,0c5.7,0,10.3-4.6,10.3-10.4
		c0-2.7-1.1-5.1-2.8-7c0.6-0.1,1.1-0.1,1.6-0.1C125,6.7,130.3,11.9,130.3,18.3z"/>
	<path class="st0" d="M162.1,9.5c2.4,2.3,3.6,5.2,3.6,8.5c0,3.3-1.2,6.1-3.6,8.5c-2.3,2.3-5.1,3.5-8.5,3.5c-3.3,0-6.1-1.2-8.5-3.5
		s-3.5-5.1-3.5-8.5c0-3.3,1.2-6.1,3.5-8.5c2.3-2.3,5.1-3.5,8.5-3.5C156.9,6,159.7,7.2,162.1,9.5z M147.9,12.4
		c-1.6,1.6-2.3,3.4-2.3,5.6s0.8,4.1,2.3,5.7c1.6,1.6,3.5,2.3,5.7,2.3c2.2,0,4.1-0.8,5.6-2.3c1.6-1.6,2.3-3.5,2.3-5.7
		s-0.8-4.1-2.3-5.6c-1.6-1.6-3.5-2.3-5.6-2.3C151.4,10,149.5,10.8,147.9,12.4z"/>
	<path class="st0" d="M198,6v23.9v0v0l-19.9-17.9V6l16,14.4V6H198z"/>
	<path class="st0" d="M1.7,54l12,12l12-12v24h-4V63.7l-8,8l-12-12.1V54z"/>
	<path class="st0" d="M53.8,54v4h-12l-4-4H53.8z M41.8,64h12v4h-12h-4v-4H41.8z M41.8,74h12v4h-16v-0.3L41.8,74z"/>
	<path class="st0" d="M71.4,68c-1.9,0-3.6-0.7-4.9-2c-1.4-1.4-2-3-2-5c0-1.9,0.7-3.5,2-4.9c1.3-1.4,3-2.1,4.9-2.1v4
		c-0.4,0-0.8,0.1-1.2,0.2c-0.4,0.2-0.7,0.4-1,0.7c-0.3,0.3-0.5,0.6-0.6,1c-0.1,0.4-0.2,0.8-0.2,1.1c0,0.8,0.3,1.5,0.8,2.1
		c0.6,0.6,1.3,0.9,2.2,0.9h6c1.9,0,3.6,0.7,4.9,2c1.4,1.4,2.1,3,2.1,5s-0.7,3.6-2.1,4.9c-1.3,1.3-3,2-4.9,2v-4
		c0.4,0,0.8-0.1,1.2-0.2c0.4-0.2,0.7-0.4,1-0.6c0.3-0.3,0.5-0.6,0.6-1c0.1-0.4,0.2-0.8,0.2-1.2c0-0.8-0.3-1.5-0.9-2.1
		c-0.6-0.6-1.3-0.9-2.1-0.9H71.4z"/>
	<path class="st0" d="M102.9,68c-1.9,0-3.6-0.7-4.9-2c-1.4-1.4-2-3-2-5c0-1.9,0.7-3.5,2-4.9c1.3-1.4,3-2.1,4.9-2.1v4
		c-0.4,0-0.8,0.1-1.2,0.2c-0.4,0.2-0.7,0.4-1,0.7c-0.3,0.3-0.5,0.6-0.6,1c-0.1,0.4-0.2,0.8-0.2,1.1c0,0.8,0.3,1.5,0.8,2.1
		c0.6,0.6,1.3,0.9,2.2,0.9h6c1.9,0,3.6,0.7,4.9,2c1.4,1.4,2.1,3,2.1,5s-0.7,3.6-2.1,4.9c-1.3,1.3-3,2-4.9,2v-4
		c0.4,0,0.8-0.1,1.2-0.2c0.4-0.2,0.7-0.4,1-0.6c0.3-0.3,0.5-0.6,0.6-1c0.1-0.4,0.2-0.8,0.2-1.2c0-0.8-0.3-1.5-0.9-2.1
		c-0.6-0.6-1.3-0.9-2.1-0.9H102.9z"/>
	<path class="st0" d="M143.5,54v4h-12l-4-4H143.5z M131.5,64h12v4h-12h-4v-4H131.5z M131.5,74h12v4h-16v-0.3L131.5,74z"/>
	<path class="st0" d="M174.1,54v23.9v0v0l-19.9-17.9V54l16,14.4V54H174.1z"/>
	<path class="st0" d="M204.2,71.3l4,1.3c-0.5,0.8-1.2,1.6-1.9,2.2c-0.7,0.7-1.5,1.2-2.4,1.7c-0.8,0.5-1.7,0.8-2.7,1.1
		c-1,0.3-1.9,0.4-3,0.4c-3.3,0-6.1-1.2-8.5-3.5s-3.5-5.1-3.5-8.5c0-3.3,1.2-6.1,3.5-8.5c2.3-2.4,5.1-3.5,8.5-3.5
		c1.6,0,3.2,0.3,4.7,0.9c1.4,0.6,2.7,1.5,3.8,2.6l-2.9,2.8c-1.6-1.6-3.4-2.3-5.6-2.3c-2.2,0-4.1,0.8-5.7,2.3
		c-1.6,1.6-2.3,3.5-2.3,5.6c0,2.2,0.8,4.1,2.3,5.7c1.6,1.6,3.5,2.3,5.7,2.3c1.2,0,2.3-0.2,3.3-0.7C202.5,72.8,203.4,72.2,204.2,71.3
		z M198.2,64h10l-4,4h-6V64z"/>
	<path class="st0" d="M235.9,54v4h-12l-4-4H235.9z M223.9,64h12v4h-12h-4v-4H223.9z M223.9,74h12v4h-16v-0.3L223.9,74z"/>
	<path class="st0" d="M260.1,69.4L265,78h-4.6l-7-12l3.6,0c1.1,0,2-0.4,2.8-1.2c0.8-0.8,1.2-1.7,1.2-2.8c0-1.1-0.4-2-1.2-2.8
		c-0.8-0.8-1.7-1.2-2.8-1.2h-8l-0.4-0.4l-2.1-3.6H257c2.2,0,4.1,0.8,5.6,2.3c1.6,1.6,2.3,3.5,2.3,5.6c0,1.7-0.4,3.2-1.4,4.5
		C262.7,67.9,261.5,68.8,260.1,69.4z"/>
</g>
</svg>
