<?xml version="1.0" encoding="utf-8"?>
<!-- Generator: Adobe Illustrator 27.0.0, SVG Export Plug-In . SVG Version: 6.00 Build 0)  -->
<svg version="1.1" id="Layer_1" xmlns="http://www.w3.org/2000/svg" xmlns:xlink="http://www.w3.org/1999/xlink" x="0px" y="0px"
	 viewBox="0 0 230 32" style="enable-background:new 0 0 230 32;" xml:space="preserve">
<style type="text/css">
	.st0{fill:#FFFFFF;stroke:#FFFFFF;stroke-width:0.25;stroke-miterlimit:10;}
</style>
<g>
	<path class="st0" d="M6.8,10.8l6,6l6-6v12h-2v-7.2l-4,4l-6-6V10.8z"/>
	<path class="st0" d="M38.1,16.8c0,3.3-2.7,6-6.1,6c-2.2,0-4.2-1.2-5.2-3c0.2,0,0.3,0,0.5,0c2.9,0,5.3-2.4,5.3-5.3
		c0-1.4-0.6-2.6-1.4-3.6c0.3,0,0.6-0.1,0.8-0.1C35.4,10.8,38.1,13.5,38.1,16.8z"/>
	<path class="st0" d="M54.1,12.5c1.2,1.2,1.8,2.6,1.8,4.2c0,1.7-0.6,3.1-1.8,4.2c-1.2,1.2-2.6,1.8-4.2,1.8c-1.7,0-3.1-0.6-4.2-1.8
		s-1.8-2.6-1.8-4.2c0-1.6,0.6-3.1,1.8-4.2c1.2-1.2,2.6-1.8,4.2-1.8C51.5,10.8,52.9,11.4,54.1,12.5z M47,13.9
		c-0.8,0.8-1.2,1.7-1.2,2.8s0.4,2.1,1.2,2.8c0.8,0.8,1.7,1.2,2.8,1.2c1.1,0,2-0.4,2.8-1.2c0.8-0.8,1.2-1.7,1.2-2.8s-0.4-2-1.2-2.8
		c-0.8-0.8-1.7-1.2-2.8-1.2C48.7,12.8,47.8,13.1,47,13.9z"/>
	<path class="st0" d="M72,10.8v12v0v0l-10-9v-3l8,7.2v-7.2H72z"/>
	<path class="st0" d="M89.3,10.8l6,6l6-6v12h-2v-7.2l-4,4l-6-6V10.8z"/>
	<path class="st0" d="M115.4,10.8v2h-6l-2-2H115.4z M109.4,15.8h6v2h-6h-2v-2H109.4z M109.4,20.7h6v2h-8v-0.2L109.4,20.7z"/>
	<path class="st0" d="M124.2,17.8c-1,0-1.8-0.3-2.5-1c-0.7-0.7-1-1.5-1-2.5c0-1,0.3-1.8,1-2.5c0.7-0.7,1.5-1,2.5-1v2
		c-0.2,0-0.4,0-0.6,0.1c-0.2,0.1-0.3,0.2-0.5,0.3c-0.1,0.1-0.2,0.3-0.3,0.5c-0.1,0.2-0.1,0.4-0.1,0.6c0,0.4,0.1,0.8,0.4,1.1
		c0.3,0.3,0.6,0.4,1.1,0.4h3c1,0,1.8,0.3,2.5,1c0.7,0.7,1,1.5,1,2.5s-0.3,1.8-1,2.5c-0.7,0.7-1.5,1-2.5,1v-2c0.2,0,0.4,0,0.6-0.1
		c0.2-0.1,0.4-0.2,0.5-0.3s0.2-0.3,0.3-0.5c0.1-0.2,0.1-0.4,0.1-0.6c0-0.4-0.2-0.8-0.5-1c-0.3-0.3-0.6-0.5-1.1-0.5H124.2z"/>
	<path class="st0" d="M140,17.8c-1,0-1.8-0.3-2.5-1c-0.7-0.7-1-1.5-1-2.5c0-1,0.3-1.8,1-2.5c0.7-0.7,1.5-1,2.5-1v2
		c-0.2,0-0.4,0-0.6,0.1c-0.2,0.1-0.3,0.2-0.5,0.3c-0.1,0.1-0.2,0.3-0.3,0.5c-0.1,0.2-0.1,0.4-0.1,0.6c0,0.4,0.1,0.8,0.4,1.1
		c0.3,0.3,0.6,0.4,1.1,0.4h3c1,0,1.8,0.3,2.5,1c0.7,0.7,1,1.5,1,2.5s-0.3,1.8-1,2.5c-0.7,0.7-1.5,1-2.5,1v-2c0.2,0,0.4,0,0.6-0.1
		c0.2-0.1,0.4-0.2,0.5-0.3s0.2-0.3,0.3-0.5c0.1-0.2,0.1-0.4,0.1-0.6c0-0.4-0.2-0.8-0.5-1c-0.3-0.3-0.6-0.5-1.1-0.5H140z"/>
	<path class="st0" d="M160.3,10.8v2h-6l-2-2H160.3z M154.3,15.8h6v2h-6h-2v-2H154.3z M154.3,20.7h6v2h-8v-0.2L154.3,20.7z"/>
	<path class="st0" d="M175.5,10.8v12v0v0l-10-9v-3l8,7.2v-7.2H175.5z"/>
	<path class="st0" d="M190.6,19.4l2,0.7c-0.3,0.4-0.6,0.8-1,1.1c-0.4,0.3-0.8,0.6-1.2,0.9c-0.4,0.2-0.9,0.4-1.4,0.5
		c-0.5,0.1-1,0.2-1.5,0.2c-1.7,0-3.1-0.6-4.2-1.8s-1.8-2.6-1.8-4.2c0-1.6,0.6-3.1,1.8-4.2c1.2-1.2,2.6-1.8,4.2-1.8
		c0.8,0,1.6,0.1,2.3,0.5c0.7,0.3,1.4,0.8,1.9,1.3l-1.4,1.4c-0.8-0.8-1.7-1.2-2.8-1.2c-1.1,0-2,0.4-2.8,1.2c-0.8,0.8-1.2,1.7-1.2,2.8
		s0.4,2.1,1.2,2.8s1.7,1.2,2.8,1.2c0.6,0,1.2-0.1,1.7-0.3C189.8,20.2,190.2,19.8,190.6,19.4z M187.6,15.8h5l-2,2h-3V15.8z"/>
	<path class="st0" d="M206.5,10.8v2h-6l-2-2H206.5z M200.5,15.8h6v2h-6h-2v-2H200.5z M200.5,20.7h6v2h-8v-0.2L200.5,20.7z"/>
	<path class="st0" d="M218.5,18.4l2.5,4.3h-2.3l-3.5-6l1.8,0c0.5,0,1-0.2,1.4-0.6c0.4-0.4,0.6-0.9,0.6-1.4c0-0.5-0.2-1-0.6-1.4
		c-0.4-0.4-0.9-0.6-1.4-0.6h-4l-0.2-0.2l-1-1.8h5.3c1.1,0,2,0.4,2.8,1.2c0.8,0.8,1.2,1.7,1.2,2.8c0,0.8-0.2,1.6-0.7,2.3
		C219.8,17.7,219.3,18.2,218.5,18.4z"/>
</g>
</svg>
