<?xml version="1.0" encoding="utf-8"?>
<!-- Generator: Adobe Illustrator 27.0.0, SVG Export Plug-In . SVG Version: 6.00 Build 0)  -->
<svg version="1.1" id="Layer_1" xmlns="http://www.w3.org/2000/svg" xmlns:xlink="http://www.w3.org/1999/xlink" x="0px" y="0px"
	 viewBox="0 0 271 81" style="enable-background:new 0 0 271 81;" xml:space="preserve">
<style type="text/css">
	.st0{fill:#FFFFFF;}
</style>
<g>
	<path class="st0" d="M73.2,13.9l11.2,11.2l11.2-11.2v22.4h-3.7V22.9l-7.5,7.5L73.2,19.1V13.9z"/>
	<path class="st0" d="M126,17.2c2.2,2.2,3.3,4.8,3.3,7.9c0,3.1-1.1,5.7-3.3,7.9c-2.2,2.2-4.8,3.3-7.9,3.3c-3.1,0-5.7-1.1-7.9-3.3
		c-2.2-2.2-3.3-4.8-3.3-7.9c0-3.1,1.1-5.7,3.3-7.9c2.2-2.2,4.8-3.3,7.9-3.3C121.2,13.9,123.8,15,126,17.2z M112.8,19.8
		c-1.5,1.5-2.2,3.2-2.2,5.3c0,2,0.7,3.8,2.2,5.3c1.5,1.5,3.2,2.2,5.3,2.2c2,0,3.8-0.7,5.3-2.2c1.5-1.5,2.2-3.2,2.2-5.3
		c0-2-0.7-3.8-2.2-5.3s-3.2-2.2-5.3-2.2C116,17.7,114.3,18.4,112.8,19.8z"/>
	<path class="st0" d="M160,17.2c2.2,2.2,3.3,4.8,3.3,7.9c0,3.1-1.1,5.7-3.3,7.9c-2.2,2.2-4.8,3.3-7.9,3.3c-3.1,0-5.7-1.1-7.9-3.3
		c-2.2-2.2-3.3-4.8-3.3-7.9c0-3.1,1.1-5.7,3.3-7.9c2.2-2.2,4.8-3.3,7.9-3.3C155.2,13.9,157.8,15,160,17.2z M146.8,19.8
		c-1.5,1.5-2.2,3.2-2.2,5.3c0,2,0.7,3.8,2.2,5.3c1.5,1.5,3.2,2.2,5.3,2.2s3.8-0.7,5.3-2.2c1.5-1.5,2.2-3.2,2.2-5.3
		c0-2-0.7-3.8-2.2-5.3s-3.2-2.2-5.3-2.2S148.3,18.4,146.8,19.8z"/>
	<path class="st0" d="M193.5,13.9v22.3v0v0l-18.6-16.7v-5.7l14.9,13.4V13.9H193.5z"/>
	<path class="st0" d="M10.6,47.5l11.2,11.2L33,47.5v22.4h-3.7V56.5L21.8,64L10.6,52.7V47.5z"/>
	<path class="st0" d="M59.2,47.5v3.8H48l-3.7-3.8H59.2z M48,56.9h11.2v3.7H48h-3.7v-3.7H48z M48,66.1h11.2v3.8H44.3v-0.3L48,66.1z"
		/>
	<path class="st0" d="M75.6,60.6c-1.8,0-3.4-0.6-4.6-1.9c-1.3-1.3-1.9-2.8-1.9-4.6c0-1.8,0.6-3.3,1.9-4.6c1.3-1.3,2.8-1.9,4.6-1.9
		v3.8c-0.4,0-0.8,0.1-1.1,0.2c-0.4,0.1-0.6,0.3-0.9,0.6c-0.3,0.3-0.4,0.6-0.6,0.9c-0.1,0.3-0.2,0.7-0.2,1.1c0,0.8,0.3,1.4,0.8,2
		c0.6,0.6,1.2,0.8,2,0.8h5.6c1.8,0,3.4,0.6,4.6,1.9c1.3,1.3,1.9,2.8,1.9,4.6s-0.6,3.3-1.9,4.6c-1.3,1.3-2.8,1.9-4.6,1.9v-3.8
		c0.4,0,0.8-0.1,1.1-0.2c0.4-0.1,0.7-0.3,0.9-0.6s0.4-0.5,0.6-0.9c0.1-0.3,0.2-0.7,0.2-1.1c0-0.8-0.3-1.4-0.8-2
		c-0.6-0.6-1.2-0.8-2-0.8H75.6z"/>
	<path class="st0" d="M105.1,60.6c-1.8,0-3.4-0.6-4.6-1.9c-1.3-1.3-1.9-2.8-1.9-4.6c0-1.8,0.6-3.3,1.9-4.6c1.3-1.3,2.8-1.9,4.6-1.9
		v3.8c-0.4,0-0.8,0.1-1.1,0.2c-0.4,0.1-0.6,0.3-0.9,0.6c-0.3,0.3-0.4,0.6-0.6,0.9c-0.1,0.3-0.2,0.7-0.2,1.1c0,0.8,0.3,1.4,0.8,2
		c0.6,0.6,1.2,0.8,2,0.8h5.6c1.8,0,3.4,0.6,4.6,1.9c1.3,1.3,1.9,2.8,1.9,4.6s-0.6,3.3-1.9,4.6c-1.3,1.3-2.8,1.9-4.6,1.9v-3.8
		c0.4,0,0.8-0.1,1.1-0.2c0.4-0.1,0.7-0.3,0.9-0.6s0.4-0.5,0.6-0.9c0.1-0.3,0.2-0.7,0.2-1.1c0-0.8-0.3-1.4-0.8-2
		c-0.6-0.6-1.2-0.8-2-0.8H105.1z"/>
	<path class="st0" d="M143,47.5v3.8h-11.2l-3.7-3.8H143z M131.8,56.9H143v3.7h-11.2h-3.7v-3.7H131.8z M131.8,66.1H143v3.8h-14.9
		v-0.3L131.8,66.1z"/>
	<path class="st0" d="M171.5,47.5v22.3v0v0l-18.6-16.7v-5.7l14.9,13.4V47.5H171.5z"/>
	<path class="st0" d="M199.6,63.6l3.7,1.2c-0.5,0.8-1.1,1.5-1.8,2.1c-0.7,0.6-1.4,1.1-2.2,1.6c-0.8,0.4-1.6,0.8-2.5,1
		c-0.9,0.3-1.8,0.4-2.8,0.4c-3.1,0-5.7-1.1-7.9-3.3c-2.2-2.2-3.3-4.8-3.3-7.9c0-3.1,1.1-5.7,3.3-7.9c2.2-2.2,4.8-3.3,7.9-3.3
		c1.5,0,3,0.3,4.4,0.9c1.3,0.6,2.5,1.4,3.6,2.4l-2.7,2.6c-1.5-1.5-3.2-2.2-5.3-2.2c-2,0-3.8,0.7-5.3,2.2c-1.5,1.5-2.2,3.2-2.2,5.3
		s0.7,3.8,2.2,5.3s3.2,2.2,5.3,2.2c1.1,0,2.2-0.2,3.1-0.6C198.1,65.1,198.9,64.4,199.6,63.6z M194,56.9h9.4l-3.7,3.7H194V56.9z"/>
	<path class="st0" d="M229.2,47.5v3.8H218l-3.7-3.8H229.2z M218,56.9h11.2v3.7H218h-3.7v-3.7H218z M218,66.1h11.2v3.8h-14.9v-0.3
		L218,66.1z"/>
	<path class="st0" d="M251.8,61.9l4.6,8h-4.3l-6.5-11.2l3.3,0c1,0,1.9-0.4,2.6-1.1c0.8-0.7,1.1-1.6,1.1-2.7c0-1-0.4-1.9-1.1-2.6
		c-0.7-0.7-1.6-1.1-2.6-1.1h-7.5l-0.4-0.4l-1.9-3.3h9.8c2,0,3.8,0.7,5.3,2.2c1.5,1.5,2.2,3.2,2.2,5.3c0,1.6-0.4,3-1.3,4.2
		C254.2,60.4,253.1,61.3,251.8,61.9z"/>
</g>
</svg>
