<?xml version="1.0" encoding="UTF-8"?>
<svg xmlns="http://www.w3.org/2000/svg" xmlns:xlink="http://www.w3.org/1999/xlink" viewBox="0 0 20 20">
  <defs>
    <style>
      .cls-1 {
        fill: #e6e6e6;
      }

      .cls-2 {
        fill: #4f7da8;
      }

      .cls-2, .cls-3 {
        mix-blend-mode: overlay;
      }

      .cls-4 {
        fill: url(#radial-gradient-2);
      }

      .cls-5 {
        fill: url(#radial-gradient);
      }

      .cls-6 {
        isolation: isolate;
      }

      .cls-7 {
        mix-blend-mode: multiply;
        opacity: .72;
      }
    </style>
    <radialGradient id="radial-gradient" cx="721.68" cy="217.25" fx="721.68" fy="217.25" r="179.46" gradientTransform="translate(-24.49 -50.71) rotate(40.76) scale(.08)" gradientUnits="userSpaceOnUse">
      <stop offset=".07" stop-color="#fff"/>
      <stop offset=".37" stop-color="#fcfcfc"/>
      <stop offset=".53" stop-color="#f4f4f4"/>
      <stop offset=".66" stop-color="#e6e6e6"/>
      <stop offset=".77" stop-color="#d3d3d3"/>
      <stop offset=".87" stop-color="#bababa"/>
      <stop offset=".94" stop-color="#a3a3a3"/>
    </radialGradient>
    <radialGradient id="radial-gradient-2" cx="781.41" cy="278.81" fx="781.41" fy="278.81" r="118.82" gradientTransform="translate(-24.49 -50.71) rotate(40.76) scale(.08)" gradientUnits="userSpaceOnUse">
      <stop offset=".9" stop-color="gray"/>
      <stop offset="1" stop-color="#cdcdcc"/>
    </radialGradient>
  </defs>
  <g class="cls-6">
    <g id="Layer_1" data-name="Layer 1">
      <g id="on_Moon" data-name="on Moon">
        <path class="cls-5" d="M17.57,16.53c-3.61,4.18-9.92,4.65-14.1,1.04C-.71,13.97-1.18,7.65,2.43,3.47,6.03-.71,12.35-1.18,16.53,2.43c4.18,3.61,4.65,9.92,1.04,14.1Z"/>
        <g class="cls-3">
          <path class="cls-4" d="M17.57,16.53c-3.61,4.18-9.92,4.65-14.1,1.04C-.71,13.97-1.18,7.65,2.43,3.47,6.03-.71,12.35-1.18,16.53,2.43c4.18,3.61,4.65,9.92,1.04,14.1Z"/>
        </g>
        <g class="cls-7">
          <path class="cls-1" d="M18.9,6.23s-.04-.1-.04-.12c0,0,.14,0,.14,.02,0-.03-.06-.02-.07-.04-.02-.11-.02-.29-.12-.24-.01-.15-.07,.04-.24-.29-.02,.02-.1-.39-.28-.65-.07-.12-.15-.13-.24-.19-.11,.17-.01,.29,.05,.46-.17,.08-.24,.18-.13,.36,.04-.01,.07,.04,.09,.03-.04,.06-.07,.27-.09,.34,.21-.1,.16,.16,.25,.31,.05,.08,.25,.07,.3,.13,.05,.06-.01,.22,.04,.29,.13,.18,.18,.24,.28,.47,.07,.15,.15,.43,.23,.54,.14-.12,.06-.53-.02-.83,0,0,.13-.03,.13-.03,0-.01-.14,.02-.15,0,0-.03-.01-.08-.02-.11,0-.02,.19,0,.22,0-.03-.05-.19-.13-.22-.21,.01,0,.05-.01,.05-.03,.06-.1-.07-.19-.17-.26Z"/>
          <path class="cls-1" d="M17.77,4.92s-.02,.01-.01,0c0,0,0,.06,0,.07,.06,.07-.02,.24,.16,.21-.04-.19-.19-.41-.28-.57,0,0,.1-.05,.1-.05,0-.01-.06,0-.07,0-.07-.19-.21-.28-.27-.36,.03-.01,.16-.13,.2-.13,.01,.03,.03,.07,.04,.11,.02-.02,.04,.04,.04,.02,.02,0,.08-.05,.09-.07-.04-.06-.24-.04-.29-.08,.02,0,.2-.09,.21-.1-.03-.05-.23-.12-.34-.23,0-.01-.02-.02-.03-.03-.02-.02-.05-.03-.07-.04-.16-.16-.3-.19-.31-.19,0,0-.02-.1-.02-.09,0,0,0-.02-.02-.02,0,0,.05-.1,.05-.1-.03-.02-.06,.03-.1,.03,.1,.16-.05,.28-.25,.1,.03,.1,.05,.08,.08,.15,0,0,.11,.06,.11,.07,0,0-.02-.08-.03-.08-.05-.11-.1-.21-.16-.23-.04-.04-.16,.11-.19,.12-.07-.04-.1-.09-.09-.05,0,0,.07-.09,.06-.1-.06-.03-.19,.03-.24,0-.1-.06-.55-.28-.64-.24,.08,.12,.23,.24,.36,.33,.12,.09,.27,.15,.4,.21,.16,.07,.61,.17,.44,.43,.1,.09,.09,.24,.24,.12,.09,.15,.19,.42,.37,.38,.04,.18,.16,.13,.28,.21,.03,.05-.02,.17,0,.19,.03,.03,.03,.1,.07,.13,0,.01,.1-.09,.11-.08Z"/>
          <path class="cls-1" d="M14.56,5.69c-.03,.26-.1,.24,.13,.46,.2,.19,.3,.1,.53,.14,.19,.03,.32,.25,.52,.11,.2-.13,0-.25,0-.38,.02-.02,.1,.09,.12,.07,.03,.03,.17,0,.2,.02,0-.05,.01-.13,.02-.18,.05-.06-.02-.27,.02-.33,.08,.05,.11,.18,.16,.26,.15-.14,.11-.21,.05-.34,0,0,.08-.02,.09-.02-.01-.02-.05-.08-.07-.08,0-.02,.01,.04,.01,.02,0-.03-.03-.04-.03-.06,.04-.07,.11-.13,.02-.26-.04-.05-.18-.02-.25-.05-.03-.18,.28-.19,.14-.35-.3-.46-.54,.04-.58,.14-.09-.36-.21-.66-.53-.69-.09-.06-.21-.02-.35-.02-.17,0-.59-.1-.71,.01,.09,.18,.28,.07,.42,.12,0,0-.11,.15-.11,.15,0,0,.05-.04,.05-.04,.02,.01,.02,.04,.04,.05,.06,.05,.13,.04,.23,.02,.02,.01,.12,0,.14,.01,.06,.14,.08,.43,.23,.38,.08,.09,.05,.04,.07,.17-.08,.02-.28-.17-.29-.17,0,.02-.08,0-.13,.12-.03-.04,0,.03-.02,.02-.01-.03,0-.07-.01-.1,0-.08-.02-.16-.1-.24-.02-.06-.08-.17-.08-.17-.04,.04-.09,.2-.12,.16-.01,0,.04-.04,.03-.03-.1,0-.16,0-.17,.1-.01,.15,.43,.23,.39,.42-.01,.02-.11-.01-.12,0-.07,0-.14-.19-.24-.08,0,0-.21,.41-.2,.43,.04,.19,.33,.3,.49,.21Z"/>
          <path class="cls-1" d="M17.2,6.31s-.03,.02-.04,.03c.04,.1,.16,.14,.22,.22,0,0-.06,.03-.07,.03,.02,.02,.02,.15,.04,.27,0,0,.11,.02,.11,.02-.07,.27-.2,.05-.39,0-.04,.18,.14,.19,.2,.32,.04,.1,.06,.23,.1,.34-.02,.01-.15,.08-.16,.08-.2-.26-.14-.35-.22-.28-.08,.03-.19-.09-.23-.02-.11-.1-.25-.08-.34,0-.34-.02-.83,.19-.66,.33-.07,0-.16-.05-.17-.06,.02-.02,.04-.04,.04-.06,.01-.03,.12-.1,.04-.16,0,.01-.05,.18-.05,.19-.1-.03-.33-.06-.3,.12,.07,.05,.21,.19,.3,.34,.04,.1,.14,.15,.14,.24,0,.02,.05,.11,.04,.12-.03,0-.1-.05-.08-.03,0,0-.09,.01-.09,.02,0-.06,.04-.12,.02-.16-.02-.12,0-.21-.13-.04-.1,.14-.03,.4,.11,.49,0,.01-.09-.03-.08-.02-.03,.06-.03,.21,0,.27,0,0,.13-.13,.13-.12-.05-.02-.16,.1-.2,.07-.03-.02-.13-.07-.17-.1-.12-.25,.06-.77,0-.97-.14,.11-.15,.15-.14,.05-.01,0-.42,.43-.46,.49,.02-.03,.11-.09,.1-.16,0-.02,.03-.08,.02-.14,0,0-.2,.04-.21,.04-.01-.09-.04-.21-.06-.28,.03,.02,.16-.01,.17-.01,.1,0,.08-.1,.19-.12-.02-.06-.02-.1-.05-.13-.01-.02-.07-.03-.16-.06,.15-.1,.13,.24,.18-.16,0-.02,.06-.04,.06-.06,0,0,.05-.03,.05-.04,0,0-.12,.02-.12,.02-.02-.09-.11-.1-.2-.2-.07,.05-.07,.17-.1,.25-.08-.03-.19-.14-.24-.18-.07-.05-.12-.1-.16-.17-.13,.04-.25,.18-.2,.3,0,0,.06-.11,.05-.11-.08-.03-.09-.03-.16-.12-.04-.08-.13-.16-.17-.19,0,0,.08-.01,.08,0-.04-.08-.18-.11-.22-.23-.18,.08-.06,.24-.08,.24-.19-.12-.4,.11-.42,.09,.01,0,.1,.22,.15,.27-.3-.21-.23,.28-.19,.36-.1-.02-.2-.13-.14,.04-.28-.09-.36,.02-.52,.03,.02-.01-.02-.02,0-.02-.01-.17-.06-.38-.21-.13-.05-.02,0-.03-.02-.06,.03,0-.04-.08-.05-.13,.19-.11-.09-.3-.18-.42-.03,.05-.11,.12-.13,.19-.04-.1,0-.26-.04-.35-.16,.03-.06-.25-.12-.35-.1-.15-.25-.09-.43-.15,.05-.08,.11-.15,.19-.2-.06-.2-.13-.07-.26-.08-.11-.01-.24-.18-.37-.14,.01,.04,.11,.2,.13,.24-.02,0-.03,0-.04-.01-.02,.05-.11,.07-.15,.11-.07-.08,.03-.26,.1-.34-.09-.02-.18,.08-.2,.16-.1-.11-.17-.25-.18-.32-.11,.04,.07,.36-.19,.17,.2-.72-.11-.11-.25,.3-.06-.07-.12-.18-.18-.26-.05,.05-.14,.09-.17,.16-.02-.04-.16-.13-.17-.17-.03,.11,.06,.53-.13,.48-.2-.06-.03-.32-.04-.46-.13,.09-.31,.05-.42,.08-.02-.13,.02-.34-.11-.31,.09,.21-.07,.35-.12,.56,0,0,.04-.05,.04-.04-.07,.02-.11,.11-.22,.06,0,.06-.14,.12-.15,.28-.09,.05-.04,.18-.07,.21-.09,.1,.04,.23-.18,.22-.11,0-.13-.19-.27-.11-.24,.13,.48,.39,.52,.52-.08,.07-.23,.3-.14,.42,0,0,.04-.05,.03-.04,.01,.02,.02-.03,.02-.04,0,0,0,.1,0,.1,.01,.01,.11-.04,.12-.03,0,.07-.15,.19-.15,.21-.08-.15,.03,.07,.03,.07,0-.08,.07,0,.18,.03-.09,.07-.23,.22-.13,.11,.14,.02,.33,.11,.4,.22,0,0-.2,.07-.21,.07,.05,.16-.14,.17-.09,.33,.05,.15,.31,.07,.41,.04,.08,.27,.13,.52,.43,.49-.19,.04-.25,.31-.47,.43,.06,.18,.05,.19,.3,.26,.09-.35,.18-.38,.37-.39,0,.01,.03,0,.02,0,.06,.08,.04,.01,.12-.03,0,0,.12,.17,.12,.17-.02,.08-.11,.12-.18,.17,.06,.16,.23,.26,.36,.34-.05-.12-.04-.27,.09-.28-.09-.1-.08-.21-.04-.28,.15-.03,.31,.07,.47,0,.09,.15-.68,.12,.07,.38-.08,.07-.04,.11-.07,.18-.03,0-.07-.06-.11-.06-.06-.12-.13-.14-.22-.03,.06,.08,.02,.13,0,.21-.04-.02-.04-.11-.09-.12-.07-.04-.15-.05-.23-.08-.01-.02-.06,.02-.07,0,0,0-.04,.11-.05,.11-.02-.01,0-.12-.03-.13-.02-.09-.11-.1-.19-.08,.04-.05-.07-.07-.09-.03-.01,0,0,.03,0,.02-.02-.08,.04-.12,.02-.2-.03,.05-.2-.01-.21,.05-.02,.03,.08,.11,.06,.13-.19-.05-.34-.12-.42-.07-.02-.03,0,.08-.01,.05-.16,.08-.29-.1-.43,0,.1,0,.12,0,.16,.12-.02,.01,0-.04-.03-.03,.09,.02,.05,.14,.11,.18,0,.04-.02,.13-.03,.18-.09-.03-.22-.04-.28,.03,.05,.06,.09,.15,.13,.17,0,.01,0-.06,0-.06-.02,.04,.03,.12,.03,.18-.03,0,.16-.03,.18,.04-.05,.03-.06,.18,0,.21-.03,0-.04-.1-.09-.12,0,0,.06,.01,.06,.01,.02-.02-.03-.08-.05-.06,0,0-.01,.05,0,.06-.02,0-.04-.05-.05-.05-.06,.06-.03,.2,.06,.25-.02,.04,.01-.07-.01-.06-.02,0,.02,.02,0,.02-.01,0-.05,.11-.06,.1,0,.01,.01,.05,0,.06-.06,0-.18,.02-.25,.03,0-.04-.02-.16,.02-.08-.02,0-.06-.03-.08-.02-.04-.03-.1,.09-.13,.04-.07,.04-.11,.06-.18,.1-.02-.01-.14-.07-.17-.08-.03-.17,.17-.4,.12-.57-.11,.09-.31,.29-.41,.42,0,0-.09-.04-.09-.04,.02-.06,.19-.11,.21-.21,.02-.02-.02-.04-.01-.06,.06-.05,.09-.08,.07-.21,.22,.15,.19-.11,.24-.24,.05-.12,.23-.17,.04-.32-.03,.05-.09,.08-.11,.15-.06-.07-.04-.09-.1-.16,.13-.13-.13-.27-.26-.16-.19,.16,0,.16-.32,.2-.17,.02-.34,.1-.46-.05-.15-.2,.09-.22,.18-.39-.26-.21-.08-.24,.01-.48,.02-.04,0-.13,0-.18,.01-.06,.03-.12,.03-.19,0-.14-.07-.1-.19-.06,0,0-.08-.15-.08-.15,.1-.1,.04-.21-.1-.2-.05-.06-.06-.25-.06-.32,0-.11,.04-.09-.04-.2-.14,.15-.14,.29-.09,.5,0,.11,0,.32,0,.33-.06-.05-.06-.14-.12-.1,.04-.1-.05-.16-.11-.23,0-.02,.14-.24,.12-.23,.01,0-.22-.09-.22-.08-.13-.15-.12,.03-.14,0,.03-.02-.13-.23-.09-.38,.04-.05,.08-.12,.11-.18,.01,0,.09,.02,.11,.02,0,0,0,0-.01,0,.02-.04-.05,.03-.05,.02,.02,.03,.06-.06,.08-.02-.02-.13-.06-.12-.15-.07,0,0-.09,.02-.09,.01,0,0,.08-.02,.07,0-.02,0,0,.06,0,.07,.05-.05-.01-.19-.05-.27-.06-.13-.06-.04-.15,.03,0-.03-.03-.11-.03-.14-.38,.07-.35-.39-.59-.54-.01,.09,.12,.46-.02,.46,.01-.01,.01-.06,.03-.07-.02-.02-.08-.02-.13-.02-.06-.14-.13-.52-.32-.33,0,.02,.13,.04,.14,.06,.04,0,0,.18,.04,.17-.02,.05,.14,.05,.15,.1,0,0-.19,.08-.19,.09,0,0,.13-.05,.14-.05,.02,.06-.04,.14-.02,.21,0,.09,.11,.27-.11,.22,0,.02-.15-.44-.15-.49-.05,.05-.1,.04-.15,.09,0-.07-.06-.32-.08-.38-.04,.07-.06,.09-.1-.03-.15,.04-.44,.54-.42,.39-.24,.2,.4,.09,.44,.05,.13,.2-.47,.28-.5,.26-.02,.02,.03,.05,.02,.07-.07,.05-.02-.03-.01,.05,0,0-.06,.01-.05,0-.02,.08-.05,.22-.07,.3-.07-.09-.1-.17-.16-.26-.01,.12-.03,.1-.14,.15-.1-.12-.09-.31-.26-.25-.18,.07,.02,.26,.05,.37,0,.02,0-.03,.01,0-.05-.05-.15,.06-.26,.16-.03-.03-.08-.1-.1-.15,.02-.02-.09,.01-.07,0-.05-.09-.13-.23-.21-.09-.05,.08,.05,.24,.09,.25-.03,.05,0,.12-.02,.2-.09,.12-.02,.33,.11,.51,.08,.22,.23,.41,.27,.5,0,.01-.03,.08-.04,.09-.18-.13-.21-.65-.44-.64,.06,.1,.17,.32,.15,.44-.03,.18-.07,.09-.14-.06-.34,.18,.08,.27,.11,.37,0,.02,.08-.04,.07,0-.12-.04-.31-.04-.42,.07,.06,.1,.16,.21,.25,.25,0,.09,.21,.18,.19,.27-.05-.03-.1-.13-.14-.18-.02,0-.03-.04-.04-.05-.02-.01-.08,.12-.1,.11,0,0,0-.02-.01-.02-.08-.03-.15-.08-.22-.02-.12,.11,.08,.31,.21,.22,.01,0,0-.05,0-.06,.01,.04-.08,.11-.09,.18,.03-.01,.2-.14,.23-.16,.05,.05,.12,.21,.12,.28,0,0-.04,0-.04,0-.02-.05-.09-.01-.16-.03-.02,.02-.04-.13-.06-.11-.03-.02-.1-.04-.13-.07-.04,.06-.09,.11-.17,.13-.02-.01,.03-.01,.01-.02,0-.01-.01,.07-.02,.06,.05-.24-.08-.5-.17-.74,.02-.12-.07-.17-.21-.36,.1-.06,.3-.17,.28-.29-.21,0-.27-.24-.26-.43,0,0-.05,.01-.05,.01,.13,0,.08-.22,.16-.29,.02-.01,.08-.06,.1-.07,.13-.02,.18,.31,.29,.11,.02,.03,.15,.13,.17,.17,.17-.28-.22-.41-.31-.61-.1-.19-.24-.19-.12-.32,.07-.08,.37-.13,.24-.29-.14,.02-.26,.18-.36,.26-.02-.01,.05-.04,.04-.04,0,0-.05,.12-.05,.11,.41-.18-.1-.68-.36-.26-.05,.08-.08,.43-.21,.41-.18-.03,.06-.41,.1-.5-.04,.04-.15,.06-.2,.09,0-.02,.05-.11,.07-.16-.03,.02-.06,0-.1,.02-.09-.15,.08-.19,.11-.34,.03-.13-.18-.38-.16-.51-.06,.17-.11,.33-.14,.52-.02,.14,.12,.25,.06,.39-.11,.27-.31,.48-.27,.77-.02-.02,.01-.02,0-.04-.08,.06-.04,.14-.05,.22-.1,.26-.11,.63-.14,.97-.02,.07-.1,.13-.11,.2-.05,.17,.08,.24,.09,.37,0,.06-.14,.11-.15,.15,0,.04,.09,.1,.08,.14,0,0-.17-.05-.17-.05,0,0,.04,.03,.04,.04,0,.02-.04,.02-.05,.04-.04,.14-.02,.71,.19,.65,0,.11,.16,.19,.11,.31-.01,0-.2,0-.22-.02,0,0-.04-.05-.05-.05,0-.02,.15-.16,.14-.19,.05,.04,.06,.16-.06,.03-.02,.01-.1-.07-.1-.06,0,0,.16,.1,.16,.09-.01,.05-.06,.08-.05,.14-.02,.01-.14,.02-.15,.03,.03,.08,.13,.16,.17,.25,.05,.15,.11,.26,.17,.28,0,0,.05,.09,.08,.06,0,0-.12-.15-.12-.15,0,0,.14,.1,.15,.09,.11-.35,.21-.58,.32-.3,.03,.01-.03,.13-.03,.26,0,.09,.02,.19,.05,.24,0,.02,.04,.01,.05,.03,0-.01,.06,.05,.07,.04,0,0-.16-.05-.15-.05,0,.1,.13,.1,.17,.01,.04,.04,.24,.33,.22,.48-.03,.02-.17-.07-.24-.1-.11-.05-.25-.18-.36-.26,.02,.06,.07,.05,.08,.11-.13-.27-.36-.17-.48-.48,0,.06,.09,.13,.09,.22,0,0-.17,0-.18,0,.01,.02,.19,.01,.2,.03,.02,.29-.04,.69,.04,.85,0,0,.06-.08,.08-.09,.01,0,.19,.32,.11,.36-.09-.12,.02-.13-.04-.19-.03,.02-.08,.09-.09,.15,0,0,.14,.02,.14,.02-.05,.29,.15,.74,.26,1.02,.02,.05-.1,.35-.07,.38,0,0,.08-.08,.08-.08,.05,.11,.09,.17,.09,.2,.05-.05,.05,.05,.06,.2-.02-.01,.06,0,.03-.02,0-.02,.03-.08,0-.12,.01,.03-.1,.11-.09,.13,0,0-.01-.08-.02-.08-.07,.12,.06,.33,.17,.38,.02,.04,.01,.02,.03,.05,.04,.12,.2,.19,.25,.31,.05,.1,.15,.41,.15,.11,.01,0,.1,0,.12,.01,.01,.03,0,.06,0,.09,0-.01-.03,.03-.02,.01,.03,.03,.06,.04,.09,.07,.07,.16,.12,.32,.11,.2,0,.02,.04,.07,.03,.08,.03,.07,.26,.1,.41,.2,.02,.02-.03,.11-.01,.13,.02,.01,.07,0,.09,.01,.09,.06,.09,.16,.14,.24,0,.04,.03,.05-.01,.09,.06,.09,.24,.05,.3,.13,0,.02-.03,.09,0,.11,.02,.05-.06,.13-.03,.18,.09,.16,.29,.22,.45,.34-.01-.03-.09-.04-.09-.07,.06-.03,.11,.07,.07-.08,0-.02,.03-.13,.03-.15,.14,.1,.24,.3,.29,.45,0,0-.08-.03-.09-.02,0,0-.08,.05-.09,.05,0,0,.2-.01,.2-.01,0,.01-.08,.02-.05,.04,0,.02-.05,.11-.04,.14,.01,0,.03-.03,.02-.05,.18,.11,.66,.31,1.03,.49,0,0-.06,0-.06,0,.07,.1,.14,.3,.32,.09-.02-.03,0,.1,0,.07,.07,.04,.27-.07,.31-.03-.06-.1-.39-.16-.43-.29,.02-.02,.12-.02,.14-.02,.02,0,0,.03,.02,.03,.1,.05,.13,.17,.26,.17,0-.01,.05,0,.05-.02,.02,.02,.1,.07,.1,.07,0,0-.08,.03-.1,.02,0-.03,.02-.15,.03-.18,.06,.05,.16,.17,.22,.22,0,.01-.08,.1-.09,.11-.05,0-.04-.04-.1-.03,.11,.13,.11,.23,.14,.26,.01,0,.08,.1,.09,.1,0,0-.03-.15-.02-.16,.06,.03,.13,.05,.2,.08,.06,.03,.32,.11,.42,.14-.09-.15-.36-.19-.45-.36,0-.02,0-.03,0-.06,.07,.01,0-.08,.05-.09-.05-.07,0-.11-.06-.17,.1,0,.19,.1,.29,.11,.04-.1,0-.23,.05-.28-.03,.32,.79-.12,.39,.32,.1,0,.86-.09,.57,.21-.12,.12-.4-.01-.3,.27,.03,.09,.17,.15,.25,.21,.08,.1,.29,.1,.4,.19,.17,.18,.29,.31,.57,.4,.15,.05,.31,.25,.43,.28,.13,.03,.24-.09,.38-.07-.05-.03-.12-.07-.16-.11,.03-.03,.1,.05,.14,.05,.02,0,.04,0,.05-.01,.13,0,.32,0,.44-.04-.04-.09-.25-.19-.34-.22,.1-.09,.07-.22-.06-.25,.07-.17,.22-.07,.33-.13,.07-.04,.07-.17,.13-.22-.07,0-.03-.03-.11-.06-.01,0,0-.17-.05-.18-.07-.02-.19,.22-.24,.2-.36-.08-.17-.28,.02-.41-.09-.17-.52,.33-.77,.21-.43-.21,.02-.39,.13-.56,.06-.04,.13-.04,.16-.07,.03,0,.07-.05,.1-.04-.02-.07-.11-.02-.18-.05,0,0-.02-.08-.02-.08,.02-.01,.15-.03,.16-.04-.02-.03-.16-.01-.21-.03,0,0,0-.04,0-.04-.02,0-.03-.1-.05-.1-.02,0,0,0-.02,0-.01-.02-.01,0-.03-.01-.01-.03-.08-.11-.07-.14,.09,.06,.12,.17,.23,.17,.02-.11-.01-.17-.1-.22,0-.02-.03-.11-.02-.13,.19-.03,.3,.03,.5,.19,.15,.12,.34,.35,.11,.44,.02,.23,.07-.04,.18-.08,.18-.07,.29-.04,.48,.03,.1,.03,.26,.02,.14,.19-.02,.04-.06,.2-.12,.19-.11-.05-.14-.15-.18-.12,0,0-.06-.16-.05-.16-.01,0,.04,.09,.03,.09,.06,.17,.16,.17,.31,.18,.03,0,.05,.1,.09,.1,.03,0,.11-.09,.14-.08,.03,.04,.01,.14,.06,.16-.01,0-.02-.03-.04-.02,0,.03,.04,.09,.08,.08,.07,.06,.13,.03,.22-.01,.05,0,0-.03,0-.07,0,0,0,.06,0,.06,.03,.05,.15-.04,.17,.01,.08-.12,.21-.13,.31-.2,.1-.05,.17-.18,.27-.24,.03,0,.1,.07,.14,.06,.25-.06,.65-.16,.75-.44-.08,.08-.02,.05-.08-.03,.04-.03-.02-.03,0-.04-.09-.11-.03-.11-.05-.16,.01-.1,.03-.27,.05-.33-.08,0-.21,.21-.25,.3-.21-.11,.04-.49,.02-.68-.02-.21-.2-.35-.35-.51-.23,.13-.23,.38-.52,.14-.02,.09-.08,.03-.18,.04-.07,0-.2,.04-.25,.03,.05-.03,.41-.31,.41-.34-.01-.14-.19-.11-.26-.04,0,0-.01-.01-.02-.02-.03,.03-.12,0-.11,0-.01,.02,.07,0,.06,.03-.07-.08-.09-.19-.16-.24-.03-.02-.12,.04-.14,.04-.15-.19-.24-.41-.42-.44,0,0-.1,.11-.09,.1-.06-.12-.07-.14-.15-.05,0,0-.06,.08-.06,.08-.12-.1-.15-.25-.28-.13,.07,.15,.07,.14,.09,.25,0,.02,.15,.02,.16,.04,0,0-.05,.03-.05,.04-.01,.17-.18,.09-.04,.23,.07,.07,.02,.19,.08,.2,.04,.05,.06,.09,.1,.15,0,.04,.03,.08,.06,.12,.02,.02,.13-.05,.16-.04,.19,.28,.38,.54,.12,.32,.01-.09-.17-.06-.28-.11,0-.03,.01-.07-.07-.04,0,0-.03,.01-.02,.01-.08-.02-.19,.02-.27,0,0-.01,.01-.02,0-.01-.14-.02-.37-.13-.38-.13,0-.4-.9,.1-1.03-.42,.14-.08,.45-.01,.32-.21-.02,0-.04-.1-.05-.1,.14-.19-.19-.31-.4-.4,.04-.29-.16-.16-.34-.2,.08,.08,.14,.13,.25,.17,.01,.01,.05,0,.07,.02-.04,.04-.08,.08-.11,.12-.07-.1-.25-.14-.34-.08,.04,.08,.21,.16,.27,.22,0,0-.02,.06-.02,.06-.07,0-.23-.11-.27-.09-.12,.06,.08,.21,.18,.21-.14,.19-.33-.09-.49-.11-.09-.01-.19,.22-.3,.21-.08,0-.19-.15-.27-.17-.1-.02-.27-.06-.38-.09-.03-.01-.03-.04-.05-.06-.06-.06-.08-.03-.06-.07,.03,.01,.03-.03,.05-.04-.02-.02-.03-.02-.04-.03,.04-.04,.13,.01,.2,.02-.02-.04-.1-.05-.13-.08-.04,.02-.16,0-.19,.02-.05-.13,.12-.27,.21-.34-.1-.19-.25-.07-.36,.01,0,0,.05,.13,.05,.13-.01,0-.06-.1-.08-.08-.05,.02,.02,.07-.03,.16-.02,.04-.06,.06-.06,.1-.03,.02,.07,0,.08,.07,0,0-.17,0-.17,0-.04,.07-.21,.3-.29,.28-.25-.06,.04-.23,.05-.33-.26,0-.23,.13-.39,.12-.07-.04-.19,.07-.25,.03-.02-.08,.24-.28,.19-.39-.11,0-.24,.13-.32,.19-.06-.04-.17-.08-.19-.11,.24-.23,.18-.05,.06-.05,0-.03,0-.02,0-.05-.03,0-.04,0-.08,.01,0-.01-.04-.01-.04-.03,.18,.09,.19-.09,.34-.13-.05-.03-.38-.39-.4-.49,.18,.05,.4,.09,.42,.08,.02,.02,0-.43-.04-.51,.35,.28,.29,.32,.61,.72-.03,.43,1.28-.08,1.16-.29-.14-.13-.36,.18-.4,.26,0-.02-.2-.11-.23-.1,.05-.05,.18-.12,.06-.09-.05-.13,.36-.09-.04-.21-.21,.12-.04,.11-.27,.16-.03-.08,.19-.39,.19-.38-.02-.02-.69-.33-.28-.33-.02-.08-.55-.24-.58-.27,.48,.25,.15-.43,.05-.51,.03,0,.02,.09,.04,.09,0,0,.03-.02,.03-.02,0,0,.05-.13,.05-.13,.27,.09,.26,.12,.4,.22,.18-.19,.06-.43,.15-.53,.07,.07,.08,.09,.04,.11,0,0-.09-.12-.09-.12,.03-.03,.21,.04,.29,.03-.06-.09-.07-.13,.01-.08-.14-.39-.26,.46-.33-.29,.07,.25,0,.04-.03-.04,.13,.16,.37,.36,.37,.13,.05-.01,.25,.03,.3,.11,.59-.02,.12-.06-.08-.4,.06-.05,.09-.06-.02-.04-.02,.04-.17,.05-.18,.08-.06-.13,.03-.39,.14-.59,.1,.2,.55,.94,.69,.95,.07,.22,.04,.26,.07,.35,.21,.08,.09-.66-.12-.63-.02,.04,.13,.21,.13,.23-.02,.01-.23,.08-.26,.11-.1-.14-.07-.49-.04-.65,.23,.09-.02,.32,.24,.28,.04,.09-.18-.48-.29-.68,.17,.14,.32,.41,.29,.49,.03-.03,.05-.14,.08-.19,.08-.01,.13,.67,.26,.52,.02,.04,.08-.34,.13-.57,0,0-.16-.06-.16-.06,0-.02,.12,.01,.11,0,.02-.08-.03-.14,0-.16,.29,.49-.03,.04,.09,.36,.13-.11,.09,.05,.15,.1,.09-.29,.3,.04,.35-.07-.05-.15-.3-.42-.11-.62,.02,0-.02-.08-.02-.09,.02-.02-.02,.02,.01,0,0,.08,.07,.66,.27,.63-.07,.08-.08,.14-.13,.14,.05,.01,0-.1,.05-.13,0,0,.1,.14,.1,.16-.02,.01-.13-.02-.15-.01,.02,.02,.1,.02,.11,.03,0,.02,.04,.11,.04,.13-.05,.04-.35,0-.41,.02,.07,.06,.25,.21,.37,.17,.1-.03,.12-.19,.22-.26,.02,0-.02-.12,0-.11,.03-.02,.09,.13,.12,.12,.01,.01-.02,0-.01,0,0,.01,.12-.02,.12,0,.03,.09-.1,.18-.17,.25,.04,0,.17-.04,.21-.04,0,.01-.13,.09-.13,.11-.02,.04,.09,.19,.09,.23-.27,.04-.04,.23,.2,.37,0,.01-.05-.06-.05-.05-.38,.29,.33,.69,.27,.76-.09-.03-.17,.03-.24,.1-.05-.02,.17,.04,.27,.11-.06,.03-.25,.21-.3,.24-.06-.07-.07-.17-.08-.16-.19,.05-.15-.03,.03,.08-.04-.03-.1,.03-.14,.02-.04-.04-.14,0-.15-.05,.01-.03,.07-.05,.04-.04,0,0-.08-.11-.08-.12,.16-.12,.43-.42,.32-.33-.03-.03-.15,0-.21,0-.16-.14-.28-.35-.52-.28,.06,.06,.1,.11,.13,.2-.17,.02-.23,.11-.41,.06-.09,.15,0,.38,.14,.41,.09,.06,.25-.19,.26,0-.02,.01,.04,.13,.02,.15-.02,0-.04-.12-.02-.11,0,0-.04,.02-.11,.05,.04,.05,0,.17,.05,.24-.02,0,.06-.1,.04-.09-.12,.03-.19,0-.28,.08,.12,.21,.35,.04,.48,.26,.07-.08,.1,0,.18,.04,.02,.02,.08-.12,.1-.12,.02,.01-.05,.19-.03,.2,.03,.03,.1,.04,.14,.04,0,0,.09-.11,.1-.11,.08,.1,.13,.25,.24,.27-.02-.06-.1-.11-.13-.17,0,0,.12-.09,.13-.09,.09,.04,.13,.06,.22,.02,0-.02,.04-.05,.03-.06,.03,.01,.05,.07,.09,.08,0-.1-.13-.2-.2-.27,.12-.12,.35-.08,.45,.06,.04-.04,.02-.1,.02-.16-.05-.02,.01-.05-.02-.07,.25-.11,.27-.29,.21-.51,.04,.04,.69,.28,.37-.03-.03,.02,.05,.08,.03,.1-.01-.01,0-.12,0-.14,0-.01,0-.03,0-.05,.05-.19,.21-.53-.12-.39-.04,.02-.04,.12-.06,.15-.09,0-.25,.06-.37,.05,.05-.01,.09-.11-.04-.05-.02,0-.03,0-.04-.01-.06-.13,.06-.17,.12-.17-.04-.05-.14-.13-.2-.19,0-.04-.04-.11-.05-.14,.07-.01,.12-.04,.21-.01,0-.08-.09-.06-.07-.13-.08-.13-.25,.05-.39,.13,0,0,.05-.14,.05-.15,0-.01-.03-.08-.03-.09,0,0-.08,.06-.06,.06,.03,.01,.08-.11,.11-.08,0-.02-.01,.07-.02,.05,.09,0,.11-.05,.17-.17-.01-.03,.08,0,.06-.05,.05,0,.01-.11,.08-.11,.28-.04,.15-.04,.09-.3,.12-.04,.3,.18,.41,.25,.02-.11-.18-.37-.25-.5,.02,0,.03,0,.05,0,.07,.02,.16-.04,.22-.06,.25,.03,.62,.24,.65,.25-.01-.04,.28-.3,.29-.28-.21,.14,.45-.05,.36-.15-.05-.01-.14-.02-.12,.04-.02,0,.05-.31,.11-.34,0,.03,.04,.08,.05,.12,.17-.04,.15-.15,.11-.22,.04,.06,.06,.09,.21,0-.17-.31,.07-.63-.1-.95-.06,.04-.18-.03-.2-.1,.28-.05,.15-.2-.07-.29,0,0-.03,.02-.04,.02-.11-.03-.27-.13-.35-.04,0,0,0-.04-.01-.03-.03,.01-.09,.08-.14,.13,0,0,.19,.13,.19,.13,.03-.06-.07-.14-.08-.15,0,0-.06-.17-.12-.2,.17,0,.59,.05,.92-.09,.02,0,0-.07,.01-.07,.03,.06,.06,.21,.12,.24,.18,.12,.16-.1,.18-.13,.04-.06-.03-.21,.02-.26,.01,0,.03,.01,.06-.03,0,0,0-.02,0-.02,.06-.05,.18-.02,.25-.07,.05-.02,.09-.04,.1-.03-.07,.07,.03,.06,.15,.06-.12,.05,.01,.24-.01,.39-.01-.02-.13-.05-.14-.06-.02-.12-.19-.14-.31,.01,.06,.06,.13,.24,.26,.32-.02,.2-.22,.04-.22,.05,.06,.06-.14,.36-.13,.37,.07-.02,.46,.1,.5,.15-.11,.15,.47,.59,.5,.54-.1,.1-.02,.06-.19,.14,.09,.18,.13,0,.11,.18-.03,.01,.12,.06,.12,.1,0,.08,.06,.27,.1,.35,.05-.09,.06-.3,.12-.39,.13,.14,.14,.21,.3,.22,.09,.09,.19,.17,.18,.15,.06-.01,.11-.12,.16-.14,.05,.08,.02,.15,.18,.12,.11-.02,.21-.15,.36-.03,.02,0,0,.02,.02,.02,.15,.22,.33,.16,.23-.08-.02-.04,.08-.2,0-.26,.04,.01,.13,.1,.17,.14-.04-.11-.21-.28-.19-.39,.05,.08,.21,.5,.34,.59,.12,.12,.45,.06,.41-.19-.01-.08-.14-.14-.21-.21,0-.01,.03-.08,.02-.09,0,0-.01,.03-.02,.03-.01-.02,.02-.01,.02-.03,0-.01,.05,0,.05-.01,0-.03-.11-.21-.05-.25,.03,.02,.11,.18,.14,.19,.09-.13,0-.31-.08-.4-.02-.02-.08,0-.11-.02,0-.28,.04-.53,0-.64,.1-.38,.81,.25,.74-.38,.12,.04,.4,.04,.51,.11-.07-.25-.39-.08-.31-.35,.04,.07,.12,.09,.2,.09,0-.01-.02-.09-.05-.19,.01-.02,.02,.02,.03,0,.02,.02-.06,.03-.04,.08,.02,.07,.11,.07,.14,.06,.05,.13,.11,.2,.19,.19,.04,0,.11,.02,.14-.01,.18,.24,.32,.46,.45,.67,0,.03-.04,.08-.04,.12,.01,.13-.02,.48,.16,.33,.03-.03,.08,0,.08-.06,.16-.09,.29-.22,.41-.15,.08,.14-.05,.44,.07,.58,.09-.04,.02-.21,0-.29,0,0,.12-.05,.12-.06,.1,.08,.26,.13,.38,.2,.06-.13,.02-.35-.08-.39-.06-.1-.13-.24-.13-.28,.08,.09,.18,.41,.35,.27-.03-.15-.05-.48-.03-.78,.03,0,0,.07,.02,.08,.04,.01,.15-.01,.15-.01,.13,0,.19-.09,.15-.23-.03-.1-.29-.14-.39-.24,.01-.12,.08-.2,.1-.26,.08,.06,.12,.15,.21,.17,0-.05,0-.14,.01-.19,.04-.08,.18-.17,.18-.3,.02-.02-.05-.03-.05-.02,.01-.13-.05-.23-.17-.28-.03-.11,.02-.29-.03-.41,0-.03-.05-.03-.05-.06,0,0,.05-.08,.05-.07,0-.02,.04,.05,.04,.03,0-.03-.04-.1-.06-.1-.02-.04-.09-.02-.1-.06,0-.04,.01-.05,.04-.09,.15,.02,.21-.18,.14-.25,.02,0-.01,.06,0,.07,0-.07-.11-.19-.17-.31,0-.19-.29-.43-.37-.54Zm-8.99,1.36s0-.02,0-.03c0,0,.07,.02,.07,.03,0,0-.07,0-.08,0Zm1.99,2.9s-.01-.01-.01-.01c0,0,.03-.06,.03-.06,0,0-.02,.07-.02,.07Zm-.42-1.26s-.01-.02-.02-.03c.02,0,.09,.04,.1,.05-.01,0-.08-.02-.08-.02Zm2.29,1.53s.03-.03,.04-.04c0,.01-.03,.03-.04,.04Z"/>
        </g>
        <g class="cls-7">
          <path class="cls-1" d="M19.62,10.45c.08-.14,.05-1.26-.25-1.7-.66,.46-.34,2.3-.11,3.12,.16-.06,.27-.92,.41-.75-.13,0-.17-.05-.12-.15,.07,.01,.14,.04,.21,.08-.02-.14-.05-.46-.14-.58,.01-.02,.07,.1,0,0Z"/>
          <path class="cls-1" d="M19.07,8.82c-.08,.04-.09,.3,.03,.32,.11-.65,.02-.56-.11-1.11,.17,0,.26,.13,.36,.06-.07-.07-.15-.13-.23-.18,.08,0,.15,0,.23,0-.09-.45-.53-.5-.42-.93-.19-.27-.34,.33-.27,.26-.24-.14-.4-.99-.97-1.02,.2,.86,1.17,2.01,1.38,2.61,0,0,0-.01,0,0Z"/>
          <path class="cls-1" d="M15.85,8.35c-.29,.53,.73,1.46,.97,.75,.06,.1,.14,.17,.25,.2,.02-.05,.18-.43,.22-.46,.52,.69,.42-1.54-.15-.86,.06-.44-.59-1.49-1.2-1.23,.07,.14,.19,.23,.34,.27-.05,.03-.1,.07-.15,.1,.35,0,.55,.51,.48,.83,.15,.01-.55-.38-.39-.19,0-.18,.02-.36,0-.55,0,0-.36,.19-.32,.12,.09,.17,.16,.35,.21,.53-.07,.04-.35-.39-.39-.13-.01,.08-.56,.73,.12,.62-.12,.23-.18,.03,0,0Z"/>
          <path class="cls-1" d="M18.05,9.9s.04,.63,.04,.62c-.16,.11-.28,.06-.36-.15-.14,.2,.38,.79-.14,.74-.23-.82-1.14-.28-1.47-.63,.04-.03,.2-.1,.15-.18-.13,.31-.38-.1-.44,.16-.03-.04,.32,.74,.2,.83-.04-.05-.09-.07-.15-.07,.06-.08,.09-.18,.1-.28,0,0-.39,.66-.37,.75,.05-.02,.11-.04,.16-.06-.4-.45-.06-.32,.03-1.06-.12,.1-.17,.09-.15-.01-.2,.09-.4,.18-.6,.29,.11-.05,.18-.12,.21-.23-.26,0-.18-.05-.16-.32,.12,.07,.25,.07,.38,0,.03-.12,0-.2-.13-.25,.08-.02,.27,.04,.36-.13-.2-.07-.62-.15-.65-.56-.15,0-.25,.06-.29,.21,.12-.02-.15-.68-.15-.75-.18,0-.7,.09-.54,.44-.18-.27-.31,.14-.3,.26-.18-.13-.49-.35-.59-.43-.09-.08-.21-.73-.38-.51-.02-.57,.22-.6-.24-1.01,.22-.15,.16-.52-.25-.56-.04,.42,.15,.18-.17,.3,.02-.13,.09-.22,.21-.28-.26,.16-.36,.07-.29-.29-.73-.02,.58,.1-.06-.2-.2,.13-.36,.29-.5,.48-.12-.41-.38-.11-.38-.45-.02,.2-.12,.33-.29,.39-.05-.17,0-.32,.13-.44-1.14,.29,.01-.34-.4-.41,0,.1-.3,.52-.26,.46-.32-.03-.83,.26-1.05,.29,.42-.06,.02,1.02,.01,1.01,.03-.01,.06-.03,.08-.05-.06,.1-.03,.14,.1,.12,0-.01-.21,.19-.21,.11,.01,.18,.31,.13,0,.26,.09-.13,.18-.02,.29,.34-.16,0-.4,.03-.42,.26,0-.06,.57,.8,.58,.8-.34-.06-.83,.26-.41,.58,.21-.3,.39-.17,.61-.2,.02,.45-.44,.09,.03,.74,0-.53,.4-.32,.67-.32-.1,.06-.2,.09-.31,.09,.28,.15,.31,.29,.11,.43-.26-.11-.12-.34-.34-.02-.22-.22-.13-.25-.37-.25-.18-.19-.14-.34-.12-.49-.07,.05-.15,.08-.2,.11-.08-.06-.63-.37-.78-.34,.48,.22-.19,.4-.23,.42,.08,.18,.23,.59,.09,.49,.11-.01,0,.03-.02-.05-.04,.28-.05,.35-.02,.21-.09-.03-.29,.32-.31,0-.2-.03-.36-.05-.52-.17,.11-.16,.22-.32,.32-.49-.24,.31-.44,.36-.59,.17,.14-.17,1.04-.45,.87-.77,.08-.07-.63-.24-.63-.25-.49-.66-.21,.03-.24-.79-.02-.54,.48-.83,.29-1.55-.39,.2-.13,.55-.38,.73-.15-.28-.22-1.22,.1-1.23-.11-.05,.02,.02,.02,0-.04-.09-.11-.14-.2-.14,.08,0,.09,.03,.04,.08,.17-.07-.36-1.08-.42-1.16,0,.17-.06,.31-.18,.42-.02,.01-.02-.65-.24-.55-.01,.05,.19,.35,.18,.43-.07,0-.14,0-.21,.01,.08,.07,.07,.49-.13,.35,.77-.87-.82-.69-.71-.62,.14,.07,.28,.1,.43,.11-.04-.18-.71,.26-.8,.41,0-.03-.26-.54-.39-.54-.19,0-.08,.3-.08,.36,.07,.16-.61-.27-.56-.31-.27,.22-.06,1.56-.18,1.6,0-.27-.06-.52-.17-.76,.1,.25,.07,.42-.1,.53,.03-.21-.04-.23-.2-.07,0,0,.13,.36,.2,.31-.79-.68-.11,.42-.19,.55-.07-.1-.18-.42-.42-.33,0,0,.03,.27-.01,.36,.2,0,.4-.24,.28,.24-.23-.03-.2-.24-.48-.29,.03-.02,.03-.01-.02,.04,.39-.61,.02-1.46,.27-1.83,.14,.07,.63-.51,.69,.19,.24-.19-.1-.75-.1-.96,0-.07,1.01-.46-.07-.14,.09-.05,.08-.03-.03,.06,1.11-.04-1.01-.35-.58-.07,0-.2,.09-.34,.27-.43-.28,.11-.1-.63,.06-.93-.8,.95-1.25,2.32-1.9,3.2-.05-.04-.09-.07-.14-.11-.13,.19,.03,.95-.1,1.08-.12-.01-.19-.07-.21-.17,0-.04,.31-.17,.2-.04-.05-.06-.09-.11-.14-.17,0-.04-.12,.98,.04,.92-.02-.06-.04-.12-.05-.18,.11,.25,.23,.19,.38-.16,.1-.06,0,.76,.04,.72-.19-.26,.21,.23,.06,.5-.29,.09-.29-.83-.39-.43-.11-.2-.2-.41-.27-.63,.08,.25,.02,.31-.16,.18,0,.03-.04,1.23-.03,1.23,0-.07,.01-.13,.03-.2,.04-.01-.39,1.45-.34,1.55-.06-.12,.18,.43,.14,.38-.02-.23,.03,.04-.08-.11-.31,.25,1.07,3.14,1.03,3.28,.12,0,.06-.02,.17-.18,.4,.65,.16,.5-.07,.49,.06,.02,.13,.04,.19,.07-.08,0-.12,.05-.15,.14-.06,.01,1.25,1.09,1.26,1.12-.11-.13-.21-.27-.29-.43,.17-.08,.32,.36,.44,.42-.13,0-.14-.06,0-.17,.09,.18-.24,.61,0,.72,.11-.25,.31,.11,.52,.27-.02-.13-.13-.7-.17-.8,.5,.18,.64,.15,1.12,.64-.47-.47,0,.9,0,.93,.27,.59,.56,.8,1.05,1.08-.22-.29,.23,.06,.47,.07,0-.42,.02-.39,.07-.6,0,.05,.45-.24,.23-.42-.1,.03-.2,.06-.29,.1-.2-.22-.15-.35,.17-.37-.01-.13-1.12,.14-.87-.34,.07-.13,.56-.33,.7-.23,.01-.34-.37,0,.03-.17-.07-.26-.51-.38-.08-.19-.02-.13-.02-.25,.02-.37,.34,.09,.63,.7,.36,.89,.19-.14,.57,.02,.71,.21-.04,.13-.12,.21-.25,.26-.26-.29-.02-.13-.12-.35,.36,.21,.27,.63,.63,.8,.07,.03,1.6,.07,1.8-.16-.24,.11,.16-.61,.12-.56-.13,.02-.25,.08-.33,.19,.17,.2-.09-1.45-.02-1.17,0,0-.7-.15-.8-.2,.17-.04,.34-.09,.5-.17,.05-.19-.25-.1-.33-.19,.11-.07-.61-1.16-.92-1.03-.08,.18-.04,.3,.12,.36-.24,.6,.05,.56,.12,1.17-.06-.56-1.81-.82-1.73-1.47,.64-.11,.34-.73-.11-1.02,.05,.12,.13,.22,.23,.3-.32,.16-.12-.2-.43-.12,.04,.75,.31,.12-.09,.17-.07,.11-.05,.2,.09,.26-.36,.23-1.63-1.09-1.11-.8-.05-.12-.14-.18-.27-.18,.06-.14,.16-.22,.31-.23-.04-.43-.47,.12-.49,.22,.07-.07-.56,.06-.52,.09-.06-.15,0-.25,.16-.29-.11-.05-.56,.01-.64-.1,.12-.08,.23-.18,.32-.3-.24,.15-.4,.11-.49-.11,.42-.16-.06,.04-.01-.13,.12,.07,.24,.07,.35,0-.09-.19-.16-.39-.19-.61,.11,.09,.23,.17,.36,.23,.08-.15,.12-.31,.15-.48,.22,.39,.18,.88,.49,1.14,.1,.09,1,.16,.96-.08,.02,.04-.62-.08-.64-.08,.02,0,.25-.12,.26-.13,.08-.2-.41-.08-.44-.09-.01-.41,.28-.06,.11-.55-.07-.21-.19-.26-.38-.61,.41,.47,.09-.48,.24-.35-.09-.21,.35,.14,.41,.24,.13-.13,.24-.27,.33-.43,0,.17,0,.16-.04-.03-.02,0,.36,.2,.29,.07,.01-.49-.43,.46-.2-.39-.02,.15-.03,.14-.01-.05,.02,.06,.66,.67,.8,.54,0,0-.17-.74-.41-.51,.05-.21,.16-.37,.34-.49,.05,.54,.25,.97,.23,1.48,.09,.08,.39-.56,.11-.63,0,.09,.01,.18,.04,.26-.09,0-.19,0-.28,0,0-.22,.07-.43,.19-.62-.01,.14,.03,.25,.12,.35-.02-.25,0-.49-.02-.74,.1,.18,.13,.36,.09,.56,.45-.25,.05,.5,.19,.43-.02-.24,.45-.31,.2-.6,.11,.08,.16,.04,.16-.11,0,.02,.03,.94,.4,.58,.02-.32,.06-.41,.14-.71-.12,.04-.08,.69-.05,.69-.15,.29,.08,0-.01,.33-.13-.03-.26-.07-.38-.13,.13,.26,.74,.35,.6,.04-.02,0,.33,.18-.07,.35,.09,.04,.07,.59,.08,.7-.53,.15,.22,.62-.28,.81,.08,.05,.15,.12,.21,.2-.12,.03-.24,.07-.36,.11-.06-.14-.18-.33-.01-.1-.11,0-.19-.04-.26-.13,.11-.11,.15-.26,.43-.35-.01-.03-.51-.53-.56-.53,.14,.33-.16,.29-.34,.13-.35,.29,.38,.58,.19,.68,.1,.08-.36-.5-.14,.13,.14-.11,.07-.15-.22-.1,.06,.39,.47,.4,.63,.45,.09,.12-.04,.36,.27,.53,.04-.31,.2-.24,.39-.08-.03,.11,.14-.86,.3-.1,.13-.07,.43-.45,.46-.61,.1,.11,.21,.2,.35,.27-.1-.02,.16-.28,.25-.5-.31,.72-1.01-1.1-.42-.66,.15-.29-.42-.17-.42-.17-.09-.16,.29-.15,.03-.19,.15,.14,.66-.31,.68-.44,.13,.1,.23,.23,.29,.39,.02-.19,0-.37-.05-.56,.02,0,1.62,.61,1.53,.35,.62,.44,.58-2.53,.2-1.54,.02-.02-.03-.37-.06-.4,.31,.13,.66,.14,.9,.19-.07,.2-.01,.3,.16,.31,.37-.37,.25-.4,.72-.22-.09,.1-.14,.22-.15,.36-.04-.16-.25-.29-.39-.21,.32,.72-.26,.13-.35,.65,.19,.03,.69,.98,.67,1-.25,.11-.2,.41-.14,.77,.59-.52,.67,.61,1.37,.65,.28,.01,0-.76,.3-.23-.04-.14-.05-.29-.03-.43,.04,.22-.03,.79,.33,.82,.45,.03-.12-1,.31-.51,.35-.24-.26-.71,.35-1.07,.18-.11,.93,0,1.1,.23-.11-.13-.16-.27-.16-.44,.06,.49,.21-.04,.21-.03,.03,.14,.37,1.21,.41,1.29,.25,.58,.15-.08,.52,.4-.07,.18-.11,.37-.14,.56,.37-.01-.13-.79,.51,.05,.22-.22-.03-.44,.05-.7-.03,.19,.05,.32,.22,.38,.06-.25,.14-.5,.25-.74-.03,0,.32,.45,.36-.03-.07-.14-.17-.26-.27-.37,0,0,1.08-1.27,.95-1.64-.01,0-.17-.71-.22-.92-.01,0,.03,.14,0,0Zm-8.7-2.05s.15,.05,0,0c0,0,0,0,0,0Zm.78,3.42c-.08-.03,.19-.09,0,0,0,0,0,0,0,0Zm.06-1.33s.13-.02,0,0c0,0,0,0,0,0Zm1.55,2.27s.04-.02,.05-.02c0,0-.04,.02-.05,.02Z"/>
        </g>
        <path class="cls-2" d="M20,10c0,5.52-4.48,10-10,10S0,15.52,0,10,4.48,0,10,0s10,4.48,10,10Z"/>
      </g>
    </g>
  </g>
</svg>