<?xml version="1.0" encoding="utf-8"?>
<!-- Generator: Adobe Illustrator 27.0.0, SVG Export Plug-In . SVG Version: 6.00 Build 0)  -->
<svg version="1.1" id="Layer_1" xmlns="http://www.w3.org/2000/svg" xmlns:xlink="http://www.w3.org/1999/xlink" x="0px" y="0px"
	 viewBox="0 0 20 20" style="enable-background:new 0 0 20 20;" xml:space="preserve">
<style type="text/css">
	.st0{fill:url(#SVGID_1_);}
	.st1{fill:url(#SVGID_00000039093984161799040260000007338344069548327810_);}
	.st2{opacity:0.72;}
	.st3{fill:#E6E6E6;}
	.st4{fill:#4F7DA8;}
</style>
<g id="on_Moon">
	<g>
		
			<radialGradient id="SVGID_1_" cx="721.6772" cy="217.2512" r="179.4646" gradientTransform="matrix(6.374399e-02 5.494889e-02 -5.494910e-02 6.374375e-02 -24.4898 -50.7095)" gradientUnits="userSpaceOnUse">
			<stop  offset="7.272730e-02" style="stop-color:#FFFFFF"/>
			<stop  offset="0.3686" style="stop-color:#FDFDFD"/>
			<stop  offset="0.5302" style="stop-color:#F5F5F5"/>
			<stop  offset="0.6594" style="stop-color:#E7E7E7"/>
			<stop  offset="0.7714" style="stop-color:#D4D4D4"/>
			<stop  offset="0.8713" style="stop-color:#BBBBBB"/>
			<stop  offset="0.9439" style="stop-color:#A3A3A3"/>
		</radialGradient>
		<path class="st0" d="M17.6,16.5c-3.6,4.2-9.9,4.7-14.1,1c-4.2-3.6-4.7-9.9-1-14.1c3.6-4.2,9.9-4.7,14.1-1
			C20.7,6,21.2,12.3,17.6,16.5z"/>
	</g>
	<g>
		
			<radialGradient id="SVGID_00000078759710754203530170000004816368466500512948_" cx="781.4059" cy="278.8055" r="118.8208" gradientTransform="matrix(6.374399e-02 5.494889e-02 -5.494910e-02 6.374375e-02 -24.4898 -50.7095)" gradientUnits="userSpaceOnUse">
			<stop  offset="0.898" style="stop-color:#808080"/>
			<stop  offset="1" style="stop-color:#CDCDCC"/>
		</radialGradient>
		<path style="fill:url(#SVGID_00000078759710754203530170000004816368466500512948_);" d="M17.6,16.5c-3.6,4.2-9.9,4.7-14.1,1
			c-4.2-3.6-4.7-9.9-1-14.1c3.6-4.2,9.9-4.7,14.1-1C20.7,6,21.2,12.3,17.6,16.5z"/>
	</g>
	<g class="st2">
		<g>
			<path class="st3" d="M18.9,6.2c0,0,0-0.1,0-0.1c0,0,0.1,0,0.1,0c0,0-0.1,0-0.1,0c0-0.1,0-0.3-0.1-0.2c0-0.2-0.1,0-0.2-0.3
				c0,0-0.1-0.4-0.3-0.6c-0.1-0.1-0.2-0.1-0.2-0.2c-0.1,0.2,0,0.3,0,0.5c-0.2,0.1-0.2,0.2-0.1,0.4c0,0,0.1,0,0.1,0
				C18,5.7,18,5.9,18,5.9c0.2-0.1,0.2,0.2,0.3,0.3c0.1,0.1,0.3,0.1,0.3,0.1c0,0.1,0,0.2,0,0.3c0.1,0.2,0.2,0.2,0.3,0.5
				c0.1,0.2,0.1,0.4,0.2,0.5c0.1-0.1,0.1-0.5,0-0.8c0,0,0.1,0,0.1,0c0,0-0.1,0-0.1,0c0,0,0-0.1,0-0.1c0,0,0.2,0,0.2,0
				c0,0-0.2-0.1-0.2-0.2c0,0,0,0,0.1,0C19.1,6.4,19,6.3,18.9,6.2z"/>
		</g>
		<g>
			<path class="st3" d="M17.8,4.9C17.8,4.9,17.8,4.9,17.8,4.9C17.8,4.9,17.8,5,17.8,4.9c0.1,0.1,0,0.3,0.1,0.3
				c0-0.2-0.2-0.4-0.3-0.6c0,0,0.1-0.1,0.1-0.1c0,0-0.1,0-0.1,0c-0.1-0.2-0.2-0.3-0.3-0.4c0,0,0.2-0.1,0.2-0.1c0,0,0,0.1,0,0.1
				c0,0,0,0,0,0c0,0,0.1-0.1,0.1-0.1c0-0.1-0.2,0-0.3-0.1c0,0,0.2-0.1,0.2-0.1c0,0-0.2-0.1-0.3-0.2c0,0,0,0,0,0c0,0,0,0-0.1,0
				C17.1,3.5,17,3.5,17,3.5c0,0,0-0.1,0-0.1c0,0,0,0,0,0c0,0,0.1-0.1,0.1-0.1c0,0-0.1,0-0.1,0c0.1,0.2,0,0.3-0.2,0.1
				c0,0.1,0.1,0.1,0.1,0.1c0,0,0.1,0.1,0.1,0.1c0,0,0-0.1,0-0.1c0-0.1-0.1-0.2-0.2-0.2c0,0-0.2,0.1-0.2,0.1c-0.1,0-0.1-0.1-0.1,0
				c0,0,0.1-0.1,0.1-0.1c-0.1,0-0.2,0-0.2,0C16.1,3.2,15.6,3,15.5,3c0.1,0.1,0.2,0.2,0.4,0.3c0.1,0.1,0.3,0.1,0.4,0.2
				c0.2,0.1,0.6,0.2,0.4,0.4c0.1,0.1,0.1,0.2,0.2,0.1c0.1,0.1,0.2,0.4,0.4,0.4c0,0.2,0.2,0.1,0.3,0.2c0,0,0,0.2,0,0.2
				c0,0,0,0.1,0.1,0.1C17.7,5,17.8,4.9,17.8,4.9z"/>
		</g>
		<g>
			<path class="st3" d="M14.6,5.7c0,0.3-0.1,0.2,0.1,0.5c0.2,0.2,0.3,0.1,0.5,0.1c0.2,0,0.3,0.2,0.5,0.1c0.2-0.1,0-0.2,0-0.4
				c0,0,0.1,0.1,0.1,0.1c0,0,0.2,0,0.2,0c0,0,0-0.1,0-0.2c0-0.1,0-0.3,0-0.3c0.1,0,0.1,0.2,0.2,0.3c0.2-0.1,0.1-0.2,0.1-0.3
				c0,0,0.1,0,0.1,0c0,0-0.1-0.1-0.1-0.1c0,0,0,0,0,0c0,0,0,0,0-0.1c0-0.1,0.1-0.1,0-0.3c0-0.1-0.2,0-0.2-0.1c0-0.2,0.3-0.2,0.1-0.4
				c-0.3-0.5-0.5,0-0.6,0.1c-0.1-0.4-0.2-0.7-0.5-0.7c-0.1-0.1-0.2,0-0.4,0c-0.2,0-0.6-0.1-0.7,0c0.1,0.2,0.3,0.1,0.4,0.1
				c0,0-0.1,0.2-0.1,0.2c0,0,0.1,0,0.1,0c0,0,0,0,0,0c0.1,0,0.1,0,0.2,0c0,0,0.1,0,0.1,0c0.1,0.1,0.1,0.4,0.2,0.4
				c0.1,0.1,0,0,0.1,0.2c-0.1,0-0.3-0.2-0.3-0.2c0,0-0.1,0-0.1,0.1c0,0,0,0,0,0c0,0,0-0.1,0-0.1c0-0.1,0-0.2-0.1-0.2
				c0-0.1-0.1-0.2-0.1-0.2c0,0-0.1,0.2-0.1,0.2c0,0,0,0,0,0c-0.1,0-0.2,0-0.2,0.1c0,0.2,0.4,0.2,0.4,0.4c0,0-0.1,0-0.1,0
				c-0.1,0-0.1-0.2-0.2-0.1c0,0-0.2,0.4-0.2,0.4C14.1,5.7,14.4,5.8,14.6,5.7z"/>
		</g>
		<g>
			<path class="st3" d="M17.2,6.3C17.2,6.3,17.2,6.3,17.2,6.3c0,0.1,0.1,0.2,0.2,0.2c0,0-0.1,0-0.1,0c0,0,0,0.1,0,0.3
				c0,0,0.1,0,0.1,0c-0.1,0.3-0.2,0-0.4,0c0,0.2,0.1,0.2,0.2,0.3c0,0.1,0.1,0.2,0.1,0.3c0,0-0.1,0.1-0.2,0.1C17,7.4,17.1,7.3,17,7.3
				c-0.1,0-0.2-0.1-0.2,0c-0.1-0.1-0.2-0.1-0.3,0c-0.3,0-0.8,0.2-0.7,0.3c-0.1,0-0.2-0.1-0.2-0.1c0,0,0,0,0-0.1c0,0,0.1-0.1,0-0.2
				c0,0-0.1,0.2-0.1,0.2c-0.1,0-0.3-0.1-0.3,0.1c0.1,0,0.2,0.2,0.3,0.3c0,0.1,0.1,0.2,0.1,0.2c0,0,0.1,0.1,0,0.1c0,0-0.1-0.1-0.1,0
				c0,0-0.1,0-0.1,0c0-0.1,0-0.1,0-0.2c0-0.1,0-0.2-0.1,0c-0.1,0.1,0,0.4,0.1,0.5c0,0-0.1,0-0.1,0c0,0.1,0,0.2,0,0.3
				c0,0,0.1-0.1,0.1-0.1c0,0-0.2,0.1-0.2,0.1c0,0-0.1-0.1-0.2-0.1c-0.1-0.3,0.1-0.8,0-1c-0.1,0.1-0.1,0.2-0.1,0c0,0-0.4,0.4-0.5,0.5
				c0,0,0.1-0.1,0.1-0.2c0,0,0-0.1,0-0.1c0,0-0.2,0-0.2,0c0-0.1,0-0.2-0.1-0.3c0,0,0.2,0,0.2,0c0.1,0,0.1-0.1,0.2-0.1
				c0-0.1,0-0.1-0.1-0.1c0,0-0.1,0-0.2-0.1c0.2-0.1,0.1,0.2,0.2-0.2c0,0,0.1,0,0.1-0.1c0,0,0,0,0,0c0,0-0.1,0-0.1,0
				c0-0.1-0.1-0.1-0.2-0.2c-0.1,0-0.1,0.2-0.1,0.3c-0.1,0-0.2-0.1-0.2-0.2c-0.1,0-0.1-0.1-0.2-0.2C14,7,13.9,7.1,14,7.2
				c0,0,0.1-0.1,0.1-0.1c-0.1,0-0.1,0-0.2-0.1c0-0.1-0.1-0.2-0.2-0.2c0,0,0.1,0,0.1,0c0-0.1-0.2-0.1-0.2-0.2
				c-0.2,0.1-0.1,0.2-0.1,0.2c-0.2-0.1-0.4,0.1-0.4,0.1c0,0,0.1,0.2,0.1,0.3C12.9,7,13,7.5,13,7.5c-0.1,0-0.2-0.1-0.1,0
				c-0.3-0.1-0.4,0-0.5,0c0,0,0,0,0,0c0-0.2-0.1-0.4-0.2-0.1c-0.1,0,0,0,0-0.1c0,0,0-0.1,0-0.1C12.2,7.2,12,7,11.9,6.8
				c0,0-0.1,0.1-0.1,0.2c0-0.1,0-0.3,0-0.3c-0.2,0-0.1-0.3-0.1-0.4c-0.1-0.1-0.3-0.1-0.4-0.1C11.2,6.1,11.3,6,11.3,6
				c-0.1-0.2-0.1-0.1-0.3-0.1c-0.1,0-0.2-0.2-0.4-0.1c0,0,0.1,0.2,0.1,0.2c0,0,0,0,0,0c0,0.1-0.1,0.1-0.2,0.1
				c-0.1-0.1,0-0.3,0.1-0.3c-0.1,0-0.2,0.1-0.2,0.2c-0.1-0.1-0.2-0.3-0.2-0.3c-0.1,0,0.1,0.4-0.2,0.2c0.2-0.7-0.1-0.1-0.2,0.3
				C9.9,6,9.8,5.9,9.8,5.8C9.7,5.9,9.6,5.9,9.6,6c0,0-0.2-0.1-0.2-0.2c0,0.1,0.1,0.5-0.1,0.5c-0.2-0.1,0-0.3,0-0.5
				c-0.1,0.1-0.3,0-0.4,0.1c0-0.1,0-0.3-0.1-0.3c0.1,0.2-0.1,0.4-0.1,0.6c0,0,0,0,0,0c-0.1,0-0.1,0.1-0.2,0.1c0,0.1-0.1,0.1-0.2,0.3
				c-0.1,0,0,0.2-0.1,0.2C8.1,6.8,8.2,6.9,8,6.9c-0.1,0-0.1-0.2-0.3-0.1C7.5,6.9,8.2,7.2,8.3,7.3C8.2,7.4,8,7.6,8.1,7.7
				c0,0,0-0.1,0,0c0,0,0,0,0,0c0,0,0,0.1,0,0.1c0,0,0.1,0,0.1,0c0,0.1-0.1,0.2-0.1,0.2C8.1,7.8,8.2,8,8.2,8c0-0.1,0.1,0,0.2,0
				C8.3,8.1,8.1,8.2,8.2,8.1c0.1,0,0.3,0.1,0.4,0.2c0,0-0.2,0.1-0.2,0.1c0.1,0.2-0.1,0.2-0.1,0.3c0,0.1,0.3,0.1,0.4,0
				c0.1,0.3,0.1,0.5,0.4,0.5C9,9.3,8.9,9.6,8.7,9.7C8.8,9.9,8.7,9.9,9,10c0.1-0.4,0.2-0.4,0.4-0.4c0,0,0,0,0,0c0.1,0.1,0,0,0.1,0
				c0,0,0.1,0.2,0.1,0.2c0,0.1-0.1,0.1-0.2,0.2c0.1,0.2,0.2,0.3,0.4,0.3c0-0.1,0-0.3,0.1-0.3c-0.1-0.1-0.1-0.2,0-0.3
				c0.1,0,0.3,0.1,0.5,0c0.1,0.2-0.7,0.1,0.1,0.4c-0.1,0.1,0,0.1-0.1,0.2c0,0-0.1-0.1-0.1-0.1c-0.1-0.1-0.1-0.1-0.2,0
				c0.1,0.1,0,0.1,0,0.2c0,0,0-0.1-0.1-0.1c-0.1,0-0.2,0-0.2-0.1c0,0-0.1,0-0.1,0c0,0,0,0.1-0.1,0.1c0,0,0-0.1,0-0.1
				c0-0.1-0.1-0.1-0.2-0.1c0,0-0.1-0.1-0.1,0c0,0,0,0,0,0c0-0.1,0-0.1,0-0.2c0,0.1-0.2,0-0.2,0c0,0,0.1,0.1,0.1,0.1
				C8.9,10,8.8,9.9,8.7,10c0,0,0,0.1,0,0c-0.2,0.1-0.3-0.1-0.4,0c0.1,0,0.1,0,0.2,0.1c0,0,0,0,0,0c0.1,0,0.1,0.1,0.1,0.2
				c0,0,0,0.1,0,0.2c-0.1,0-0.2,0-0.3,0c0.1,0.1,0.1,0.2,0.1,0.2c0,0,0-0.1,0-0.1c0,0,0,0.1,0,0.2c0,0,0.2,0,0.2,0
				c0,0-0.1,0.2,0,0.2c0,0,0-0.1-0.1-0.1c0,0,0.1,0,0.1,0c0,0,0-0.1,0-0.1c0,0,0,0.1,0,0.1c0,0,0,0,0-0.1c-0.1,0.1,0,0.2,0.1,0.3
				c0,0,0-0.1,0-0.1c0,0,0,0,0,0c0,0,0,0.1-0.1,0.1c0,0,0,0,0,0.1c-0.1,0-0.2,0-0.3,0c0,0,0-0.2,0-0.1c0,0-0.1,0-0.1,0
				c0,0-0.1,0.1-0.1,0c-0.1,0-0.1,0.1-0.2,0.1c0,0-0.1-0.1-0.2-0.1c0-0.2,0.2-0.4,0.1-0.6c-0.1,0.1-0.3,0.3-0.4,0.4c0,0-0.1,0-0.1,0
				c0-0.1,0.2-0.1,0.2-0.2c0,0,0,0,0-0.1c0.1,0,0.1-0.1,0.1-0.2c0.2,0.2,0.2-0.1,0.2-0.2c0.1-0.1,0.2-0.2,0-0.3c0,0-0.1,0.1-0.1,0.1
				c-0.1-0.1,0-0.1-0.1-0.2c0.1-0.1-0.1-0.3-0.3-0.2C7.1,10,7.3,10,7,10c-0.2,0-0.3,0.1-0.5-0.1C6.4,9.8,6.6,9.7,6.7,9.6
				c-0.3-0.2-0.1-0.2,0-0.5c0,0,0-0.1,0-0.2c0-0.1,0-0.1,0-0.2c0-0.1-0.1-0.1-0.2-0.1c0,0-0.1-0.1-0.1-0.1c0.1-0.1,0-0.2-0.1-0.2
				C6.3,8.3,6.3,8.1,6.3,8c0-0.1,0-0.1,0-0.2C6.1,7.9,6.1,8.1,6.2,8.3c0,0.1,0,0.3,0,0.3c-0.1,0-0.1-0.1-0.1-0.1
				C6.1,8.4,6,8.3,6,8.3C6,8.3,6.1,8,6.1,8c0,0-0.2-0.1-0.2-0.1C5.7,7.8,5.7,8,5.7,8c0,0-0.1-0.2-0.1-0.4c0-0.1,0.1-0.1,0.1-0.2
				c0,0,0.1,0,0.1,0c0,0,0,0,0,0c0,0-0.1,0-0.1,0c0,0,0.1-0.1,0.1,0c0-0.1-0.1-0.1-0.1-0.1c0,0-0.1,0-0.1,0c0,0,0.1,0,0.1,0
				c0,0,0,0.1,0,0.1c0.1,0,0-0.2,0-0.3c-0.1-0.1-0.1,0-0.2,0c0,0,0-0.1,0-0.1C5.1,7.1,5.1,6.6,4.9,6.5C4.8,6.6,5,7,4.8,7
				c0,0,0-0.1,0-0.1c0,0-0.1,0-0.1,0C4.7,6.7,4.6,6.3,4.4,6.5c0,0,0.1,0,0.1,0.1c0,0,0,0.2,0,0.2c0,0,0.1,0,0.1,0.1
				c0,0-0.2,0.1-0.2,0.1c0,0,0.1-0.1,0.1,0c0,0.1,0,0.1,0,0.2c0,0.1,0.1,0.3-0.1,0.2c0,0-0.2-0.4-0.1-0.5c-0.1,0.1-0.1,0-0.2,0.1
				c0-0.1-0.1-0.3-0.1-0.4c0,0.1-0.1,0.1-0.1,0c-0.2,0-0.4,0.5-0.4,0.4C3.4,7.1,4,7,4.1,7c0.1,0.2-0.5,0.3-0.5,0.3c0,0,0,0,0,0.1
				c-0.1,0.1,0,0,0,0.1c0,0-0.1,0,0,0c0,0.1-0.1,0.2-0.1,0.3C3.4,7.6,3.4,7.5,3.3,7.4c0,0.1,0,0.1-0.1,0.1C3.1,7.4,3.1,7.2,2.9,7.3
				c-0.2,0.1,0,0.3,0,0.4c0,0,0,0,0,0c0,0-0.2,0.1-0.3,0.2c0,0-0.1-0.1-0.1-0.1c0,0-0.1,0-0.1,0C2.5,7.6,2.4,7.4,2.3,7.6
				c0,0.1,0,0.2,0.1,0.3c0,0.1,0,0.1,0,0.2c-0.1,0.1,0,0.3,0.1,0.5C2.6,8.7,2.7,8.9,2.8,9c0,0,0,0.1,0,0.1C2.6,9,2.5,8.5,2.3,8.5
				c0.1,0.1,0.2,0.3,0.1,0.4c0,0.2-0.1,0.1-0.1-0.1C2,9,2.4,9.1,2.4,9.2c0,0,0.1,0,0.1,0c-0.1,0-0.3,0-0.4,0.1
				c0.1,0.1,0.2,0.2,0.3,0.2c0,0.1,0.2,0.2,0.2,0.3c0,0-0.1-0.1-0.1-0.2c0,0,0,0,0,0c0,0-0.1,0.1-0.1,0.1c0,0,0,0,0,0
				c-0.1,0-0.2-0.1-0.2,0C1.9,9.8,2.1,10,2.2,9.9c0,0,0-0.1,0-0.1c0,0-0.1,0.1-0.1,0.2c0,0,0.2-0.1,0.2-0.2c0.1,0,0.1,0.2,0.1,0.3
				c0,0,0,0,0,0c0-0.1-0.1,0-0.2,0c0,0,0-0.1-0.1-0.1c0,0-0.1,0-0.1-0.1C2,10,2,10,1.9,10c0,0,0,0,0,0c0,0,0,0.1,0,0.1
				c0-0.2-0.1-0.5-0.2-0.7c0-0.1-0.1-0.2-0.2-0.4c0.1-0.1,0.3-0.2,0.3-0.3c-0.2,0-0.3-0.2-0.3-0.4c0,0,0,0,0,0C1.6,8.3,1.6,8,1.6,8
				c0,0,0.1-0.1,0.1-0.1C1.9,7.9,1.9,8.2,2,8c0,0,0.2,0.1,0.2,0.2C2.4,7.9,2,7.8,1.9,7.6C1.8,7.4,1.7,7.4,1.8,7.3
				C1.8,7.2,2.1,7.1,2,7C1.9,7,1.8,7.1,1.7,7.2c0,0,0.1,0,0,0c0,0,0,0.1,0,0.1C2.1,7.1,1.6,6.6,1.3,7c0,0.1-0.1,0.4-0.2,0.4
				C0.9,7.4,1.1,7,1.2,6.9C1.1,7,1,7,1,7C1,7,1,6.9,1,6.9c0,0-0.1,0-0.1,0C0.9,6.7,1,6.7,1.1,6.6c0-0.1-0.2-0.4-0.2-0.5
				C0.8,6.2,0.8,6.4,0.8,6.6c0,0.1,0.1,0.2,0.1,0.4C0.7,7.2,0.5,7.4,0.6,7.7c0,0,0,0,0,0c-0.1,0.1,0,0.1-0.1,0.2
				c-0.1,0.3-0.1,0.6-0.1,1c0,0.1-0.1,0.1-0.1,0.2c0,0.2,0.1,0.2,0.1,0.4c0,0.1-0.1,0.1-0.1,0.2c0,0,0.1,0.1,0.1,0.1
				c0,0-0.2-0.1-0.2-0.1c0,0,0,0,0,0c0,0,0,0,0,0c0,0.1,0,0.7,0.2,0.7c0,0.1,0.2,0.2,0.1,0.3c0,0-0.2,0-0.2,0c0,0,0-0.1,0-0.1
				c0,0,0.1-0.2,0.1-0.2c0,0,0.1,0.2-0.1,0c0,0-0.1-0.1-0.1-0.1c0,0,0.2,0.1,0.2,0.1c0,0-0.1,0.1-0.1,0.1c0,0-0.1,0-0.1,0
				c0,0.1,0.1,0.2,0.2,0.2c0,0.2,0.1,0.3,0.2,0.3c0,0,0,0.1,0.1,0.1c0,0-0.1-0.1-0.1-0.1c0,0,0.1,0.1,0.1,0.1
				c0.1-0.3,0.2-0.6,0.3-0.3c0,0,0,0.1,0,0.3c0,0.1,0,0.2,0.1,0.2c0,0,0,0,0,0c0,0,0.1,0,0.1,0c0,0-0.2,0-0.2,0c0,0.1,0.1,0.1,0.2,0
				c0,0,0.2,0.3,0.2,0.5c0,0-0.2-0.1-0.2-0.1c-0.1-0.1-0.3-0.2-0.4-0.3c0,0.1,0.1,0,0.1,0.1c-0.1-0.3-0.4-0.2-0.5-0.5
				c0,0.1,0.1,0.1,0.1,0.2c0,0-0.2,0-0.2,0c0,0,0.2,0,0.2,0c0,0.3,0,0.7,0,0.9c0,0,0.1-0.1,0.1-0.1c0,0,0.2,0.3,0.1,0.4
				c-0.1-0.1,0-0.1,0-0.2c0,0-0.1,0.1-0.1,0.1c0,0,0.1,0,0.1,0c0,0.3,0.1,0.7,0.3,1c0,0.1-0.1,0.3-0.1,0.4c0,0,0.1-0.1,0.1-0.1
				c0,0.1,0.1,0.2,0.1,0.2c0.1,0,0,0.1,0.1,0.2c0,0,0.1,0,0,0c0,0,0-0.1,0-0.1c0,0-0.1,0.1-0.1,0.1c0,0,0-0.1,0-0.1
				c-0.1,0.1,0.1,0.3,0.2,0.4c0,0,0,0,0,0c0,0.1,0.2,0.2,0.3,0.3c0,0.1,0.1,0.4,0.2,0.1c0,0,0.1,0,0.1,0c0,0,0,0.1,0,0.1
				c0,0,0,0,0,0c0,0,0.1,0,0.1,0.1c0.1,0.2,0.1,0.3,0.1,0.2c0,0,0,0.1,0,0.1c0,0.1,0.3,0.1,0.4,0.2c0,0,0,0.1,0,0.1c0,0,0.1,0,0.1,0
				c0.1,0.1,0.1,0.2,0.1,0.2c0,0,0,0.1,0,0.1c0.1,0.1,0.2,0.1,0.3,0.1c0,0,0,0.1,0,0.1c0,0-0.1,0.1,0,0.2c0.1,0.2,0.3,0.2,0.5,0.3
				c0,0-0.1,0-0.1-0.1c0.1,0,0.1,0.1,0.1-0.1c0,0,0-0.1,0-0.2c0.1,0.1,0.2,0.3,0.3,0.5c0,0-0.1,0-0.1,0c0,0-0.1,0.1-0.1,0.1
				c0,0,0.2,0,0.2,0c0,0-0.1,0-0.1,0c0,0-0.1,0.1,0,0.1c0,0,0,0,0-0.1c0.2,0.1,0.7,0.3,1,0.5c0,0-0.1,0-0.1,0
				c0.1,0.1,0.1,0.3,0.3,0.1c0,0,0,0.1,0,0.1c0.1,0,0.3-0.1,0.3,0c-0.1-0.1-0.4-0.2-0.4-0.3c0,0,0.1,0,0.1,0c0,0,0,0,0,0
				c0.1,0,0.1,0.2,0.3,0.2c0,0,0,0,0.1,0c0,0,0.1,0.1,0.1,0.1c0,0-0.1,0-0.1,0c0,0,0-0.1,0-0.2c0.1,0.1,0.2,0.2,0.2,0.2
				c0,0-0.1,0.1-0.1,0.1c0,0,0,0-0.1,0c0.1,0.1,0.1,0.2,0.1,0.3c0,0,0.1,0.1,0.1,0.1c0,0,0-0.2,0-0.2c0.1,0,0.1,0,0.2,0.1
				c0.1,0,0.3,0.1,0.4,0.1c-0.1-0.1-0.4-0.2-0.4-0.4c0,0,0,0,0-0.1c0.1,0,0-0.1,0.1-0.1c-0.1-0.1,0-0.1-0.1-0.2
				c0.1,0,0.2,0.1,0.3,0.1c0-0.1,0-0.2,0.1-0.3c0,0.3,0.8-0.1,0.4,0.3c0.1,0,0.9-0.1,0.6,0.2c-0.1,0.1-0.4,0-0.3,0.3
				c0,0.1,0.2,0.2,0.2,0.2c0.1,0.1,0.3,0.1,0.4,0.2c0.2,0.2,0.3,0.3,0.6,0.4c0.1,0,0.3,0.3,0.4,0.3c0.1,0,0.2-0.1,0.4-0.1
				c0,0-0.1-0.1-0.2-0.1c0,0,0.1,0.1,0.1,0c0,0,0,0,0.1,0c0.1,0,0.3,0,0.4,0c0-0.1-0.2-0.2-0.3-0.2c0.1-0.1,0.1-0.2-0.1-0.3
				c0.1-0.2,0.2-0.1,0.3-0.1C9,18.6,9,18.5,9,18.4c-0.1,0,0,0-0.1-0.1c0,0,0-0.2-0.1-0.2c-0.1,0-0.2,0.2-0.2,0.2
				c-0.4-0.1-0.2-0.3,0-0.4c-0.1-0.2-0.5,0.3-0.8,0.2c-0.4-0.2,0-0.4,0.1-0.6c0.1,0,0.1,0,0.2-0.1c0,0,0.1,0,0.1,0
				c0-0.1-0.1,0-0.2,0c0,0,0-0.1,0-0.1c0,0,0.1,0,0.2,0c0,0-0.2,0-0.2,0c0,0,0,0,0,0c0,0,0-0.1,0-0.1c0,0,0,0,0,0c0,0,0,0,0,0
				c0,0-0.1-0.1-0.1-0.1C8,17.1,8,17.2,8.1,17.2c0-0.1,0-0.2-0.1-0.2c0,0,0-0.1,0-0.1c0.2,0,0.3,0,0.5,0.2c0.2,0.1,0.3,0.4,0.1,0.4
				c0,0.2,0.1,0,0.2-0.1c0.2-0.1,0.3,0,0.5,0c0.1,0,0.3,0,0.1,0.2c0,0-0.1,0.2-0.1,0.2c-0.1-0.1-0.1-0.2-0.2-0.1
				c0,0-0.1-0.2-0.1-0.2c0,0,0,0.1,0,0.1c0.1,0.2,0.2,0.2,0.3,0.2c0,0,0.1,0.1,0.1,0.1c0,0,0.1-0.1,0.1-0.1c0,0,0,0.1,0.1,0.2
				c0,0,0,0,0,0c0,0,0,0.1,0.1,0.1c0.1,0.1,0.1,0,0.2,0c0,0,0,0,0-0.1c0,0,0,0.1,0,0.1c0,0.1,0.2,0,0.2,0c0.1-0.1,0.2-0.1,0.3-0.2
				c0.1,0,0.2-0.2,0.3-0.2c0,0,0.1,0.1,0.1,0.1c0.3-0.1,0.6-0.2,0.7-0.4c-0.1,0.1,0,0-0.1,0c0,0,0,0,0,0c-0.1-0.1,0-0.1-0.1-0.2
				c0-0.1,0-0.3,0.1-0.3c-0.1,0-0.2,0.2-0.2,0.3c-0.2-0.1,0-0.5,0-0.7c0-0.2-0.2-0.4-0.4-0.5c-0.2,0.1-0.2,0.4-0.5,0.1
				c0,0.1-0.1,0-0.2,0c-0.1,0-0.2,0-0.3,0c0.1,0,0.4-0.3,0.4-0.3c0-0.1-0.2-0.1-0.3,0c0,0,0,0,0,0c0,0-0.1,0-0.1,0c0,0,0.1,0,0.1,0
				c-0.1-0.1-0.1-0.2-0.2-0.2c0,0-0.1,0-0.1,0C9.6,15.2,9.5,15,9.3,15c0,0-0.1,0.1-0.1,0.1C9.1,14.9,9.1,14.9,9,15
				C9,15,9,15.1,9,15.1C8.9,15,8.8,14.8,8.7,15c0.1,0.1,0.1,0.1,0.1,0.3c0,0,0.2,0,0.2,0c0,0,0,0,0,0c0,0.2-0.2,0.1,0,0.2
				c0.1,0.1,0,0.2,0.1,0.2c0,0,0.1,0.1,0.1,0.2c0,0,0,0.1,0.1,0.1c0,0,0.1,0,0.2,0c0.2,0.3,0.4,0.5,0.1,0.3c0-0.1-0.2-0.1-0.3-0.1
				c0,0,0-0.1-0.1,0c0,0,0,0,0,0c-0.1,0-0.2,0-0.3,0c0,0,0,0,0,0c-0.1,0-0.4-0.1-0.4-0.1c0-0.4-0.9,0.1-1-0.4c0.1-0.1,0.4,0,0.3-0.2
				c0,0,0-0.1-0.1-0.1c0.1-0.2-0.2-0.3-0.4-0.4c0-0.3-0.2-0.2-0.3-0.2c0.1,0.1,0.1,0.1,0.3,0.2c0,0,0.1,0,0.1,0c0,0-0.1,0.1-0.1,0.1
				c-0.1-0.1-0.3-0.1-0.3-0.1c0,0.1,0.2,0.2,0.3,0.2c0,0,0,0.1,0,0.1c-0.1,0-0.2-0.1-0.3-0.1c-0.1,0.1,0.1,0.2,0.2,0.2
				c-0.1,0.2-0.3-0.1-0.5-0.1c-0.1,0-0.2,0.2-0.3,0.2c-0.1,0-0.2-0.2-0.3-0.2c-0.1,0-0.3-0.1-0.4-0.1c0,0,0,0-0.1-0.1
				c-0.1-0.1-0.1,0-0.1-0.1c0,0,0,0,0,0c0,0,0,0,0,0c0,0,0.1,0,0.2,0c0,0-0.1-0.1-0.1-0.1c0,0-0.2,0-0.2,0c-0.1-0.1,0.1-0.3,0.2-0.3
				c-0.1-0.2-0.2-0.1-0.4,0c0,0,0.1,0.1,0.1,0.1c0,0-0.1-0.1-0.1-0.1c-0.1,0,0,0.1,0,0.2c0,0-0.1,0.1-0.1,0.1c0,0,0.1,0,0.1,0.1
				c0,0-0.2,0-0.2,0c0,0.1-0.2,0.3-0.3,0.3c-0.3-0.1,0-0.2,0-0.3c-0.3,0-0.2,0.1-0.4,0.1c-0.1,0-0.2,0.1-0.3,0
				c0-0.1,0.2-0.3,0.2-0.4c-0.1,0-0.2,0.1-0.3,0.2c-0.1,0-0.2-0.1-0.2-0.1c0.2-0.2,0.2,0,0.1-0.1c0,0,0,0,0,0c0,0,0,0-0.1,0
				c0,0,0,0,0,0c0.2,0.1,0.2-0.1,0.3-0.1c0,0-0.4-0.4-0.4-0.5C3.7,14,3.9,14.1,4,14.1c0,0,0-0.4,0-0.5c0.4,0.3,0.3,0.3,0.6,0.7
				c0,0.4,1.3-0.1,1.2-0.3c-0.1-0.1-0.4,0.2-0.4,0.3c0,0-0.2-0.1-0.2-0.1c0-0.1,0.2-0.1,0.1-0.1c-0.1-0.1,0.4-0.1,0-0.2
				C4.9,14,5,14,4.8,14C4.8,14,5,13.6,5,13.7c0,0-0.7-0.3-0.3-0.3c0-0.1-0.5-0.2-0.6-0.3c0.5,0.2,0.2-0.4,0.1-0.5c0,0,0,0.1,0,0.1
				c0,0,0,0,0,0c0,0,0-0.1,0-0.1c0.3,0.1,0.3,0.1,0.4,0.2c0.2-0.2,0.1-0.4,0.2-0.5c0.1,0.1,0.1,0.1,0,0.1c0,0-0.1-0.1-0.1-0.1
				c0,0,0.2,0,0.3,0c-0.1-0.1-0.1-0.1,0-0.1c-0.1-0.4-0.3,0.5-0.3-0.3c0.1,0.3,0,0,0,0c0.1,0.2,0.4,0.4,0.4,0.1c0,0,0.2,0,0.3,0.1
				C6,12,5.5,12,5.3,11.6c0.1-0.1,0.1-0.1,0,0c0,0-0.2,0.1-0.2,0.1c-0.1-0.1,0-0.4,0.1-0.6C5.4,11.3,5.8,12,5.9,12
				C6,12.3,6,12.3,6,12.4c0.2,0.1,0.1-0.7-0.1-0.6C5.9,11.8,6,12,6,12c0,0-0.2,0.1-0.3,0.1c-0.1-0.1-0.1-0.5,0-0.6
				c0.2,0.1,0,0.3,0.2,0.3c0,0.1-0.2-0.5-0.3-0.7C5.8,11.2,6,11.5,6,11.5c0,0,0.1-0.1,0.1-0.2c0.1,0,0.1,0.7,0.3,0.5
				c0,0,0.1-0.3,0.1-0.6c0,0-0.2-0.1-0.2-0.1c0,0,0.1,0,0.1,0c0-0.1,0-0.1,0-0.2c0.3,0.5,0,0,0.1,0.4c0.1-0.1,0.1,0,0.1,0.1
				c0.1-0.3,0.3,0,0.3-0.1c0-0.1-0.3-0.4-0.1-0.6c0,0,0-0.1,0-0.1c0,0,0,0,0,0c0,0.1,0.1,0.7,0.3,0.6c-0.1,0.1-0.1,0.1-0.1,0.1
				c0,0,0-0.1,0.1-0.1c0,0,0.1,0.1,0.1,0.2c0,0-0.1,0-0.1,0c0,0,0.1,0,0.1,0c0,0,0,0.1,0,0.1c0,0-0.3,0-0.4,0
				C6.8,11.8,7,12,7.1,11.9c0.1,0,0.1-0.2,0.2-0.3c0,0,0-0.1,0-0.1c0,0,0.1,0.1,0.1,0.1c0,0,0,0,0,0c0,0,0.1,0,0.1,0
				c0,0.1-0.1,0.2-0.2,0.2c0,0,0.2,0,0.2,0c0,0-0.1,0.1-0.1,0.1c0,0,0.1,0.2,0.1,0.2c-0.3,0,0,0.2,0.2,0.4c0,0-0.1-0.1-0.1-0.1
				c-0.4,0.3,0.3,0.7,0.3,0.8c-0.1,0-0.2,0-0.2,0.1c-0.1,0,0.2,0,0.3,0.1c-0.1,0-0.3,0.2-0.3,0.2c-0.1-0.1-0.1-0.2-0.1-0.2
				c-0.2,0-0.1,0,0,0.1c0,0-0.1,0-0.1,0c0,0-0.1,0-0.2,0c0,0,0.1,0,0,0c0,0-0.1-0.1-0.1-0.1c0.2-0.1,0.4-0.4,0.3-0.3
				c0,0-0.2,0-0.2,0c-0.2-0.1-0.3-0.3-0.5-0.3C7,12.9,7,13,7.1,13c-0.2,0-0.2,0.1-0.4,0.1c-0.1,0.2,0,0.4,0.1,0.4
				c0.1,0.1,0.3-0.2,0.3,0c0,0,0,0.1,0,0.1c0,0,0-0.1,0-0.1c0,0,0,0-0.1,0c0,0.1,0,0.2,0,0.2c0,0,0.1-0.1,0-0.1
				c-0.1,0-0.2,0-0.3,0.1c0.1,0.2,0.3,0,0.5,0.3c0.1-0.1,0.1,0,0.2,0c0,0,0.1-0.1,0.1-0.1c0,0,0,0.2,0,0.2c0,0,0.1,0,0.1,0
				c0,0,0.1-0.1,0.1-0.1c0.1,0.1,0.1,0.3,0.2,0.3c0-0.1-0.1-0.1-0.1-0.2c0,0,0.1-0.1,0.1-0.1c0.1,0,0.1,0.1,0.2,0c0,0,0,0,0-0.1
				c0,0,0.1,0.1,0.1,0.1c0-0.1-0.1-0.2-0.2-0.3c0.1-0.1,0.4-0.1,0.5,0.1c0,0,0-0.1,0-0.2c0,0,0-0.1,0-0.1c0.3-0.1,0.3-0.3,0.2-0.5
				c0,0,0.7,0.3,0.4,0c0,0,0.1,0.1,0,0.1c0,0,0-0.1,0-0.1c0,0,0,0,0-0.1c0.1-0.2,0.2-0.5-0.1-0.4c0,0,0,0.1-0.1,0.1
				c-0.1,0-0.3,0.1-0.4,0c0.1,0,0.1-0.1,0-0.1c0,0,0,0,0,0c-0.1-0.1,0.1-0.2,0.1-0.2c0-0.1-0.1-0.1-0.2-0.2c0,0,0-0.1,0-0.1
				c0.1,0,0.1,0,0.2,0c0-0.1-0.1-0.1-0.1-0.1c-0.1-0.1-0.2,0.1-0.4,0.1c0,0,0.1-0.1,0-0.1c0,0,0-0.1,0-0.1c0,0-0.1,0.1-0.1,0.1
				c0,0,0.1-0.1,0.1-0.1c0,0,0,0.1,0,0c0.1,0,0.1-0.1,0.2-0.2c0,0,0.1,0,0.1,0c0,0,0-0.1,0.1-0.1c0.3,0,0.2,0,0.1-0.3
				c0.1,0,0.3,0.2,0.4,0.3c0-0.1-0.2-0.4-0.3-0.5c0,0,0,0,0.1,0c0.1,0,0.2,0,0.2-0.1c0.3,0,0.6,0.2,0.7,0.2c0,0,0.3-0.3,0.3-0.3
				c-0.2,0.1,0.4-0.1,0.4-0.2c0,0-0.1,0-0.1,0c0,0,0-0.3,0.1-0.3c0,0,0,0.1,0.1,0.1c0.2,0,0.1-0.1,0.1-0.2c0,0.1,0.1,0.1,0.2,0
				c-0.2-0.3,0.1-0.6-0.1-0.9c-0.1,0-0.2,0-0.2-0.1c0.3,0,0.1-0.2-0.1-0.3c0,0,0,0,0,0c-0.1,0-0.3-0.1-0.3,0c0,0,0,0,0,0
				c0,0-0.1,0.1-0.1,0.1c0,0,0.2,0.1,0.2,0.1c0-0.1-0.1-0.1-0.1-0.1c0,0-0.1-0.2-0.1-0.2c0.2,0,0.6,0.1,0.9-0.1c0,0,0-0.1,0-0.1
				c0,0.1,0.1,0.2,0.1,0.2C11,9.3,11,9.1,11,9.1c0-0.1,0-0.2,0-0.3c0,0,0,0,0.1,0c0,0,0,0,0,0c0.1,0,0.2,0,0.2-0.1c0,0,0.1,0,0.1,0
				c-0.1,0.1,0,0.1,0.1,0.1c-0.1,0,0,0.2,0,0.4c0,0-0.1-0.1-0.1-0.1c0-0.1-0.2-0.1-0.3,0c0.1,0.1,0.1,0.2,0.3,0.3
				c0,0.2-0.2,0-0.2,0.1C11.2,9.5,11,9.8,11,9.8c0.1,0,0.5,0.1,0.5,0.1c-0.1,0.1,0.5,0.6,0.5,0.5c-0.1,0.1,0,0.1-0.2,0.1
				c0.1,0.2,0.1,0,0.1,0.2c0,0,0.1,0.1,0.1,0.1c0,0.1,0.1,0.3,0.1,0.3c0-0.1,0.1-0.3,0.1-0.4c0.1,0.1,0.1,0.2,0.3,0.2
				c0.1,0.1,0.2,0.2,0.2,0.1c0.1,0,0.1-0.1,0.2-0.1c0.1,0.1,0,0.1,0.2,0.1c0.1,0,0.2-0.2,0.4,0c0,0,0,0,0,0c0.1,0.2,0.3,0.2,0.2-0.1
				c0,0,0.1-0.2,0-0.3c0,0,0.1,0.1,0.2,0.1c0-0.1-0.2-0.3-0.2-0.4c0,0.1,0.2,0.5,0.3,0.6c0.1,0.1,0.4,0.1,0.4-0.2
				c0-0.1-0.1-0.1-0.2-0.2c0,0,0-0.1,0-0.1c0,0,0,0,0,0c0,0,0,0,0,0c0,0,0.1,0,0.1,0c0,0-0.1-0.2,0-0.2c0,0,0.1,0.2,0.1,0.2
				c0.1-0.1,0-0.3-0.1-0.4c0,0-0.1,0-0.1,0c0-0.3,0-0.5,0-0.6C14.3,9.2,15,9.9,15,9.2c0.1,0,0.4,0,0.5,0.1c-0.1-0.3-0.4-0.1-0.3-0.3
				c0,0.1,0.1,0.1,0.2,0.1c0,0,0-0.1,0-0.2c0,0,0,0,0,0c0,0-0.1,0,0,0.1C15.3,9,15.4,9,15.4,9c0.1,0.1,0.1,0.2,0.2,0.2
				c0,0,0.1,0,0.1,0c0.2,0.2,0.3,0.5,0.4,0.7c0,0,0,0.1,0,0.1c0,0.1,0,0.5,0.2,0.3c0,0,0.1,0,0.1-0.1c0.2-0.1,0.3-0.2,0.4-0.1
				c0.1,0.1,0,0.4,0.1,0.6c0.1,0,0-0.2,0-0.3c0,0,0.1-0.1,0.1-0.1c0.1,0.1,0.3,0.1,0.4,0.2c0.1-0.1,0-0.3-0.1-0.4
				c-0.1-0.1-0.1-0.2-0.1-0.3c0.1,0.1,0.2,0.4,0.3,0.3c0-0.1,0-0.5,0-0.8c0,0,0,0.1,0,0.1c0,0,0.1,0,0.2,0c0.1,0,0.2-0.1,0.2-0.2
				c0-0.1-0.3-0.1-0.4-0.2c0-0.1,0.1-0.2,0.1-0.3c0.1,0.1,0.1,0.1,0.2,0.2c0,0,0-0.1,0-0.2c0-0.1,0.2-0.2,0.2-0.3c0,0,0,0-0.1,0
				c0-0.1-0.1-0.2-0.2-0.3c0-0.1,0-0.3,0-0.4c0,0,0,0,0-0.1c0,0,0.1-0.1,0-0.1c0,0,0,0.1,0,0c0,0,0-0.1-0.1-0.1c0,0-0.1,0-0.1-0.1
				c0,0,0-0.1,0-0.1c0.2,0,0.2-0.2,0.1-0.3c0,0,0,0.1,0,0.1c0-0.1-0.1-0.2-0.2-0.3C17.6,6.7,17.3,6.4,17.2,6.3z M8.2,7.7
				C8.2,7.7,8.2,7.6,8.2,7.7C8.2,7.6,8.3,7.7,8.2,7.7C8.3,7.7,8.2,7.7,8.2,7.7z M10.2,10.6C10.2,10.6,10.2,10.6,10.2,10.6
				C10.2,10.6,10.2,10.5,10.2,10.6C10.2,10.5,10.2,10.6,10.2,10.6z M9.8,9.3C9.8,9.3,9.8,9.3,9.8,9.3C9.8,9.3,9.8,9.3,9.8,9.3
				C9.8,9.3,9.8,9.3,9.8,9.3z M12.1,10.8C12.1,10.8,12.1,10.8,12.1,10.8C12.1,10.8,12.1,10.8,12.1,10.8z"/>
		</g>
	</g>
	<g class="st2">
		<g>
			<path class="st3" d="M19.6,10.4c0.1-0.1,0.1-1.3-0.2-1.7c-0.7,0.5-0.3,2.3-0.1,3.1c0.2-0.1,0.3-0.9,0.4-0.8c-0.1,0-0.2,0-0.1-0.2
				c0.1,0,0.1,0,0.2,0.1C19.7,10.9,19.7,10.6,19.6,10.4C19.6,10.4,19.7,10.5,19.6,10.4z"/>
		</g>
		<g>
			<path class="st3" d="M19.1,8.8c-0.1,0-0.1,0.3,0,0.3c0.1-0.7,0-0.6-0.1-1.1c0.2,0,0.3,0.1,0.4,0.1C19.3,8,19.2,8,19.1,7.9
				c0.1,0,0.2,0,0.2,0c-0.1-0.4-0.5-0.5-0.4-0.9c-0.2-0.3-0.3,0.3-0.3,0.3c-0.2-0.1-0.4-1-1-1C17.9,7.1,18.9,8.2,19.1,8.8
				C19.1,8.8,19.1,8.8,19.1,8.8z"/>
		</g>
		<g>
			<path class="st3" d="M15.8,8.3c-0.3,0.5,0.7,1.5,1,0.7c0.1,0.1,0.1,0.2,0.3,0.2c0,0,0.2-0.4,0.2-0.5c0.5,0.7,0.4-1.5-0.1-0.9
				c0.1-0.4-0.6-1.5-1.2-1.2C16,6.9,16.1,7,16.3,7c-0.1,0-0.1,0.1-0.2,0.1c0.3,0,0.6,0.5,0.5,0.8c0.1,0-0.6-0.4-0.4-0.2
				c0-0.2,0-0.4,0-0.6c0,0-0.4,0.2-0.3,0.1c0.1,0.2,0.2,0.3,0.2,0.5c-0.1,0-0.4-0.4-0.4-0.1C15.7,7.8,15.2,8.5,15.8,8.3
				C15.7,8.6,15.7,8.4,15.8,8.3z"/>
		</g>
		<g>
			<path class="st3" d="M18,9.9c0,0,0,0.6,0,0.6c-0.2,0.1-0.3,0.1-0.4-0.1c-0.1,0.2,0.4,0.8-0.1,0.7c-0.2-0.8-1.1-0.3-1.5-0.6
				c0,0,0.2-0.1,0.2-0.2c-0.1,0.3-0.4-0.1-0.4,0.2c0,0,0.3,0.7,0.2,0.8c0,0-0.1-0.1-0.2-0.1c0.1-0.1,0.1-0.2,0.1-0.3
				c0,0-0.4,0.7-0.4,0.7c0.1,0,0.1,0,0.2-0.1c-0.4-0.5-0.1-0.3,0-1.1c-0.1,0.1-0.2,0.1-0.1,0c-0.2,0.1-0.4,0.2-0.6,0.3
				c0.1,0,0.2-0.1,0.2-0.2c-0.3,0-0.2,0-0.2-0.3c0.1,0.1,0.2,0.1,0.4,0c0-0.1,0-0.2-0.1-0.3c0.1,0,0.3,0,0.4-0.1
				c-0.2-0.1-0.6-0.2-0.6-0.6c-0.2,0-0.2,0.1-0.3,0.2c0.1,0-0.2-0.7-0.1-0.8c-0.2,0-0.7,0.1-0.5,0.4c-0.2-0.3-0.3,0.1-0.3,0.3
				c-0.2-0.1-0.5-0.3-0.6-0.4C13.1,9,13,8.3,12.8,8.6c0-0.6,0.2-0.6-0.2-1C12.8,7.4,12.7,7,12.3,7c0,0.4,0.2,0.2-0.2,0.3
				c0-0.1,0.1-0.2,0.2-0.3c-0.3,0.2-0.4,0.1-0.3-0.3c-0.7,0,0.6,0.1-0.1-0.2c-0.2,0.1-0.4,0.3-0.5,0.5c-0.1-0.4-0.4-0.1-0.4-0.4
				c0,0.2-0.1,0.3-0.3,0.4c-0.1-0.2,0-0.3,0.1-0.4c-1.1,0.3,0-0.3-0.4-0.4c0,0.1-0.3,0.5-0.3,0.5c-0.3,0-0.8,0.3-1,0.3
				c0.4-0.1,0,1,0,1c0,0,0.1,0,0.1-0.1c-0.1,0.1,0,0.1,0.1,0.1c0,0-0.2,0.2-0.2,0.1c0,0.2,0.3,0.1,0,0.3c0.1-0.1,0.2,0,0.3,0.3
				c-0.2,0-0.4,0-0.4,0.3c0-0.1,0.6,0.8,0.6,0.8C9.3,9.6,8.8,10,9.2,10.3c0.2-0.3,0.4-0.2,0.6-0.2c0,0.4-0.4,0.1,0,0.7
				c0-0.5,0.4-0.3,0.7-0.3c-0.1,0.1-0.2,0.1-0.3,0.1c0.3,0.1,0.3,0.3,0.1,0.4c-0.3-0.1-0.1-0.3-0.3,0c-0.2-0.2-0.1-0.2-0.4-0.2
				c-0.2-0.2-0.1-0.3-0.1-0.5c-0.1,0.1-0.2,0.1-0.2,0.1C9.2,10.3,8.7,10,8.5,10c0.5,0.2-0.2,0.4-0.2,0.4c0.1,0.2,0.2,0.6,0.1,0.5
				c0.1,0,0,0,0,0c0,0.3,0,0.3,0,0.2c-0.1,0-0.3,0.3-0.3,0c-0.2,0-0.4-0.1-0.5-0.2c0.1-0.2,0.2-0.3,0.3-0.5
				c-0.2,0.3-0.4,0.4-0.6,0.2c0.1-0.2,1-0.5,0.9-0.8c0.1-0.1-0.6-0.2-0.6-0.2C7,8.9,7.3,9.6,7.3,8.8c0-0.5,0.5-0.8,0.3-1.6
				C7.2,7.4,7.4,7.8,7.2,8C7,7.7,6.9,6.8,7.3,6.7c-0.1-0.1,0,0,0,0c0-0.1-0.1-0.1-0.2-0.1c0.1,0,0.1,0,0,0.1
				c0.2-0.1-0.4-1.1-0.4-1.2c0,0.2-0.1,0.3-0.2,0.4c0,0,0-0.6-0.2-0.6c0,0.1,0.2,0.4,0.2,0.4c-0.1,0-0.1,0-0.2,0
				c0.1,0.1,0.1,0.5-0.1,0.4c0.8-0.9-0.8-0.7-0.7-0.6c0.1,0.1,0.3,0.1,0.4,0.1c0-0.2-0.7,0.3-0.8,0.4c0,0-0.3-0.5-0.4-0.5
				c-0.2,0-0.1,0.3-0.1,0.4C4.6,6.1,4,5.6,4,5.6C3.7,5.8,4,7.1,3.8,7.2c0-0.3-0.1-0.5-0.2-0.8C3.8,6.7,3.7,6.8,3.6,7
				c0-0.2,0-0.2-0.2-0.1c0,0,0.1,0.4,0.2,0.3C2.8,6.5,3.4,7.6,3.4,7.7C3.3,7.6,3.2,7.3,3,7.4c0,0,0,0.3,0,0.4c0.2,0,0.4-0.2,0.3,0.2
				C3,8,3,7.8,2.7,7.7c0,0,0,0,0,0c0.4-0.6,0-1.5,0.3-1.8C3.1,6,3.6,5.4,3.7,6.1c0.2-0.2-0.1-0.7-0.1-1c0-0.1,1-0.5-0.1-0.1
				c0.1,0,0.1,0,0,0.1c1.1,0-1-0.4-0.6-0.1c0-0.2,0.1-0.3,0.3-0.4C2.9,4.7,3.1,3.9,3.2,3.6C2.5,4.6,2,6,1.4,6.8c0,0-0.1-0.1-0.1-0.1
				c-0.1,0.2,0,0.9-0.1,1.1C1,7.8,0.9,7.8,0.9,7.7c0,0,0.3-0.2,0.2,0C1,7.6,1,7.5,1,7.4c0,0-0.1,1,0,0.9c0-0.1,0-0.1-0.1-0.2
				C1.1,8.4,1.2,8.4,1.3,8c0.1-0.1,0,0.8,0,0.7C1.2,8.5,1.6,9,1.4,9.2C1.1,9.3,1.1,8.4,1,8.8C0.9,8.6,0.8,8.4,0.8,8.2
				c0.1,0.2,0,0.3-0.2,0.2c0,0,0,1.2,0,1.2c0-0.1,0-0.1,0-0.2c0,0-0.4,1.5-0.3,1.6c-0.1-0.1,0.2,0.4,0.1,0.4c0-0.2,0,0-0.1-0.1
				c-0.3,0.2,1.1,3.1,1,3.3c0.1,0,0.1,0,0.2-0.2c0.4,0.6,0.2,0.5-0.1,0.5c0.1,0,0.1,0,0.2,0.1c-0.1,0-0.1,0.1-0.1,0.1
				c-0.1,0,1.2,1.1,1.3,1.1c-0.1-0.1-0.2-0.3-0.3-0.4c0.2-0.1,0.3,0.4,0.4,0.4c-0.1,0-0.1-0.1,0-0.2c0.1,0.2-0.2,0.6,0,0.7
				C3,16.4,3.2,16.8,3.4,17c0-0.1-0.1-0.7-0.2-0.8c0.5,0.2,0.6,0.2,1.1,0.6c-0.5-0.5,0,0.9,0,0.9c0.3,0.6,0.6,0.8,1,1.1
				c-0.2-0.3,0.2,0.1,0.5,0.1c0-0.4,0-0.4,0.1-0.6c0,0,0.4-0.2,0.2-0.4c-0.1,0-0.2,0.1-0.3,0.1c-0.2-0.2-0.1-0.3,0.2-0.4
				c0-0.1-1.1,0.1-0.9-0.3c0.1-0.1,0.6-0.3,0.7-0.2c0-0.3-0.4,0,0-0.2c-0.1-0.3-0.5-0.4-0.1-0.2c0-0.1,0-0.2,0-0.4
				c0.3,0.1,0.6,0.7,0.4,0.9c0.2-0.1,0.6,0,0.7,0.2c0,0.1-0.1,0.2-0.2,0.3c-0.3-0.3,0-0.1-0.1-0.3c0.4,0.2,0.3,0.6,0.6,0.8
				c0.1,0,1.6,0.1,1.8-0.2c-0.2,0.1,0.2-0.6,0.1-0.6c-0.1,0-0.2,0.1-0.3,0.2c0.2,0.2-0.1-1.4,0-1.2c0,0-0.7-0.1-0.8-0.2
				c0.2,0,0.3-0.1,0.5-0.2c0.1-0.2-0.3-0.1-0.3-0.2c0.1-0.1-0.6-1.2-0.9-1c-0.1,0.2,0,0.3,0.1,0.4c-0.2,0.6,0.1,0.6,0.1,1.2
				c-0.1-0.6-1.8-0.8-1.7-1.5c0.6-0.1,0.3-0.7-0.1-1c0.1,0.1,0.1,0.2,0.2,0.3c-0.3,0.2-0.1-0.2-0.4-0.1c0,0.7,0.3,0.1-0.1,0.2
				c-0.1,0.1,0,0.2,0.1,0.3c-0.4,0.2-1.6-1.1-1.1-0.8c0-0.1-0.1-0.2-0.3-0.2c0.1-0.1,0.2-0.2,0.3-0.2c0-0.4-0.5,0.1-0.5,0.2
				c0.1-0.1-0.6,0.1-0.5,0.1c-0.1-0.2,0-0.3,0.2-0.3c-0.1,0-0.6,0-0.6-0.1C3,13.1,3.1,13,3.2,12.9C2.9,13,2.8,13,2.7,12.7
				c0.4-0.2-0.1,0,0-0.1c0.1,0.1,0.2,0.1,0.4,0c-0.1-0.2-0.2-0.4-0.2-0.6c0.1,0.1,0.2,0.2,0.4,0.2c0.1-0.2,0.1-0.3,0.1-0.5
				c0.2,0.4,0.2,0.9,0.5,1.1c0.1,0.1,1,0.2,1-0.1c0,0-0.6-0.1-0.6-0.1c0,0,0.3-0.1,0.3-0.1C4.5,12.4,4,12.5,4,12.5
				c0-0.4,0.3-0.1,0.1-0.6c-0.1-0.2-0.2-0.3-0.4-0.6c0.4,0.5,0.1-0.5,0.2-0.3c-0.1-0.2,0.3,0.1,0.4,0.2c0.1-0.1,0.2-0.3,0.3-0.4
				c0,0.2,0,0.2,0,0c0,0,0.4,0.2,0.3,0.1c0-0.5-0.4,0.5-0.2-0.4c0,0.2,0,0.1,0,0c0,0.1,0.7,0.7,0.8,0.5c0,0-0.2-0.7-0.4-0.5
				c0.1-0.2,0.2-0.4,0.3-0.5c0,0.5,0.3,1,0.2,1.5c0.1,0.1,0.4-0.6,0.1-0.6c0,0.1,0,0.2,0,0.3c-0.1,0-0.2,0-0.3,0
				c0-0.2,0.1-0.4,0.2-0.6c0,0.1,0,0.3,0.1,0.3c0-0.2,0-0.5,0-0.7c0.1,0.2,0.1,0.4,0.1,0.6C6.4,10.4,6,11.1,6.1,11
				c0-0.2,0.5-0.3,0.2-0.6c0.1,0.1,0.2,0,0.2-0.1c0,0,0,0.9,0.4,0.6c0-0.3,0.1-0.4,0.1-0.7c-0.1,0-0.1,0.7,0,0.7
				c-0.2,0.3,0.1,0,0,0.3c-0.1,0-0.3-0.1-0.4-0.1c0.1,0.3,0.7,0.4,0.6,0c0,0,0.3,0.2-0.1,0.4c0.1,0,0.1,0.6,0.1,0.7
				c-0.5,0.2,0.2,0.6-0.3,0.8C7,13,7,13.1,7.1,13.2c-0.1,0-0.2,0.1-0.4,0.1c-0.1-0.1-0.2-0.3,0-0.1c-0.1,0-0.2,0-0.3-0.1
				c0.1-0.1,0.2-0.3,0.4-0.3c0,0-0.5-0.5-0.6-0.5c0.1,0.3-0.2,0.3-0.3,0.1c-0.3,0.3,0.4,0.6,0.2,0.7c0.1,0.1-0.4-0.5-0.1,0.1
				C6.2,13,6.1,13,5.8,13c0.1,0.4,0.5,0.4,0.6,0.4c0.1,0.1,0,0.4,0.3,0.5c0-0.3,0.2-0.2,0.4-0.1c0,0.1,0.1-0.9,0.3-0.1
				c0.1-0.1,0.4-0.4,0.5-0.6c0.1,0.1,0.2,0.2,0.3,0.3c-0.1,0,0.2-0.3,0.3-0.5c-0.3,0.7-1-1.1-0.4-0.7c0.1-0.3-0.4-0.2-0.4-0.2
				C7.5,12,7.9,12,7.6,12c0.1,0.1,0.7-0.3,0.7-0.4c0.1,0.1,0.2,0.2,0.3,0.4c0-0.2,0-0.4-0.1-0.6c0,0,1.6,0.6,1.5,0.3
				c0.6,0.4,0.6-2.5,0.2-1.5c0,0,0-0.4-0.1-0.4c0.3,0.1,0.7,0.1,0.9,0.2c-0.1,0.2,0,0.3,0.2,0.3c0.4-0.4,0.2-0.4,0.7-0.2
				c-0.1,0.1-0.1,0.2-0.1,0.4c0-0.2-0.2-0.3-0.4-0.2c0.3,0.7-0.3,0.1-0.4,0.6c0.2,0,0.7,1,0.7,1c-0.3,0.1-0.2,0.4-0.1,0.8
				c0.6-0.5,0.7,0.6,1.4,0.6c0.3,0,0-0.8,0.3-0.2c0-0.1-0.1-0.3,0-0.4c0,0.2,0,0.8,0.3,0.8c0.5,0-0.1-1,0.3-0.5
				c0.4-0.2-0.3-0.7,0.4-1.1c0.2-0.1,0.9,0,1.1,0.2c-0.1-0.1-0.2-0.3-0.2-0.4c0.1,0.5,0.2,0,0.2,0c0,0.1,0.4,1.2,0.4,1.3
				c0.3,0.6,0.2-0.1,0.5,0.4c-0.1,0.2-0.1,0.4-0.1,0.6c0.4,0-0.1-0.8,0.5,0.1c0.2-0.2,0-0.4,0-0.7c0,0.2,0,0.3,0.2,0.4
				c0.1-0.3,0.1-0.5,0.3-0.7c0,0,0.3,0.5,0.4,0c-0.1-0.1-0.2-0.3-0.3-0.4c0,0,1.1-1.3,0.9-1.6C18.3,10.8,18.1,10.1,18,9.9
				C18,9.9,18.1,10,18,9.9z M9.3,7.8C9.4,7.8,9.5,7.9,9.3,7.8C9.4,7.8,9.4,7.8,9.3,7.8z M10.1,11.3C10,11.2,10.3,11.2,10.1,11.3
				C10.1,11.3,10.1,11.3,10.1,11.3z M10.2,9.9C10.2,10,10.3,9.9,10.2,9.9C10.2,9.9,10.2,9.9,10.2,9.9z M11.7,12.2
				C11.7,12.2,11.8,12.2,11.7,12.2C11.8,12.2,11.8,12.2,11.7,12.2z"/>
		</g>
	</g>
	<path class="st4" d="M20,10c0,5.5-4.5,10-10,10C4.5,20,0,15.5,0,10C0,4.5,4.5,0,10,0C15.5,0,20,4.5,20,10z"/>
</g>
</svg>
