<?xml version="1.0" encoding="utf-8"?>
<!-- Generator: Adobe Illustrator 27.0.0, SVG Export Plug-In . SVG Version: 6.00 Build 0)  -->
<svg version="1.1" id="Layer_1" xmlns="http://www.w3.org/2000/svg" xmlns:xlink="http://www.w3.org/1999/xlink" x="0px" y="0px"
	 viewBox="0 0 120 24" style="enable-background:new 0 0 120 24;" xml:space="preserve">
<style type="text/css">
	.st0{fill:#0676FF;}
	.st1{display:none;fill:#7FB3D5;}
	.st2{display:none;fill:#4E7CA8;}
	.st3{display:none;}
	.st4{display:inline;}
	.st5{fill:#FFFFFF;}
	.st6{display:none;fill:#0676FF;}
	.st7{display:inline;fill:#FFFFFF;}
	.st8{display:inline;fill:#FFFFFF;stroke:#FFFFFF;stroke-width:0.5;stroke-miterlimit:10;}
	.st9{display:inline;fill:none;}
	.st10{display:inline;fill:#FFFFFF;stroke:#FFFFFF;stroke-width:0.25;stroke-miterlimit:10;}
	.st11{fill-rule:evenodd;clip-rule:evenodd;fill:none;stroke:#FFFFFF;stroke-miterlimit:10;}
	.st12{fill:#0676FF;stroke:#FFFFFF;stroke-width:0.8333;stroke-miterlimit:10;}
	.st13{fill:#FFFFFF;stroke:#FFFFFF;stroke-width:0.5;stroke-miterlimit:10;}
</style>
<path id="background" class="st0" d="M108,24H12C5.4,24,0,18.6,0,12v0C0,5.4,5.4,0,12,0h96c6.6,0,12,5.4,12,12v0
	C120,18.6,114.6,24,108,24z"/>
<path id="hover" class="st1" d="M108,24H12C5.4,24,0,18.6,0,12v0C0,5.4,5.4,0,12,0h96c6.6,0,12,5.4,12,12v0
	C120,18.6,114.6,24,108,24z"/>
<path id="pressed" class="st2" d="M108,24H12C5.4,24,0,18.6,0,12v0C0,5.4,5.4,0,12,0h96c6.6,0,12,5.4,12,12v0
	C120,18.6,114.6,24,108,24z"/>
<g id="Group_00000039132291556072875660000000571840921572164747_" class="st3">
	<g class="st4">
		<g>
			<path class="st0" d="M13.6,13.7c-0.6-0.6-1.4-1.1-2.2-1.4c0.9-0.6,1.5-1.6,1.5-2.8c0-1.9-1.5-3.4-3.4-3.4c-1.9,0-3.4,1.5-3.4,3.4
				c0,1.2,0.6,2.2,1.5,2.8c-0.8,0.3-1.6,0.8-2.2,1.4c-1.1,1.1-1.7,2.6-1.7,4.1h0.9c0-2.7,2.2-4.9,4.9-4.9c2.7,0,4.9,2.2,4.9,4.9h0.9
				C15.4,16.3,14.7,14.8,13.6,13.7z M9.5,12C8.1,12,7,10.9,7,9.5s1.1-2.5,2.5-2.5c1.4,0,2.5,1.1,2.5,2.5S10.9,12,9.5,12z"/>
		</g>
	</g>
	<g class="st4">
		<g>
			<path class="st5" d="M13.6,13.7c-0.6-0.6-1.4-1.1-2.2-1.4c0.9-0.6,1.5-1.6,1.5-2.8c0-1.9-1.5-3.4-3.4-3.4c-1.9,0-3.4,1.5-3.4,3.4
				c0,1.2,0.6,2.2,1.5,2.8c-0.8,0.3-1.6,0.8-2.2,1.4c-1.1,1.1-1.7,2.6-1.7,4.1h0.9c0-2.7,2.2-4.9,4.9-4.9c2.7,0,4.9,2.2,4.9,4.9h0.9
				C15.4,16.3,14.7,14.8,13.6,13.7z M9.5,12C8.1,12,7,10.9,7,9.5s1.1-2.5,2.5-2.5c1.4,0,2.5,1.1,2.5,2.5S10.9,12,9.5,12z"/>
		</g>
	</g>
</g>
<g id="Group" class="st3">
	<g class="st4">
		<path class="st5" d="M23,14.2c-0.8-0.8-1.8-1.4-2.8-1.8c1.1-0.8,1.8-2,1.8-3.5c0-2.3-1.9-4.2-4.2-4.2c-2.3,0-4.2,1.9-4.2,4.2
			c0,1.5,0.7,2.7,1.8,3.5c-1,0.4-2,1-2.8,1.8c-1.4,1.4-2.2,3.2-2.2,5.2h1.1c0-3.4,2.8-6.2,6.2-6.2c3.4,0,6.2,2.8,6.2,6.2h1.1
			C25.1,17.4,24.3,15.5,23,14.2z M17.8,12c-1.7,0-3.1-1.4-3.1-3.1s1.4-3.1,3.1-3.1c1.7,0,3.1,1.4,3.1,3.1S19.5,12,17.8,12z"/>
	</g>
</g>
<path class="st6" d="M18,18.4l-3,0.4c-0.4,0.1-0.8-0.2-0.9-0.7l-0.4-3c-0.1-0.4,0.2-0.8,0.7-0.9l3-0.4c0.4-0.1,0.8,0.2,0.9,0.7
	l0.4,3C18.7,17.9,18.4,18.4,18,18.4z"/>
<path class="st6" d="M13.2,15.2c0.2-0.2,0.4-0.5,0.7-0.7c0.2-0.1,0.3-0.2,0.5-0.3"/>
<rect x="13.5" y="14.7" transform="matrix(0.7323 0.681 -0.681 0.7323 13.8491 -5.3257)" class="st6" width="0.4" height="0.5"/>
<path class="st6" d="M4,19.3l-1.9-0.9c-0.6-0.3-0.9-1.1-0.6-1.7l0.9-1.9c0.3-0.6,1.1-0.9,1.7-0.6L6,15.1c0.6,0.3,0.9,1.1,0.6,1.7
	l-0.9,1.9C5.4,19.3,4.7,19.6,4,19.3z"/>
<g id="plus_group" class="st3">
	<path class="st7" d="M4.9,20.2L4.9,20.2c-0.2,0-0.4-0.2-0.4-0.4v-4.6c0-0.2,0.2-0.4,0.4-0.4h0c0.2,0,0.4,0.2,0.4,0.4v4.6
		C5.3,20,5.2,20.2,4.9,20.2z"/>
	<path class="st7" d="M7.6,17.5L7.6,17.5c0,0.2-0.2,0.4-0.4,0.4H2.6c-0.2,0-0.4-0.2-0.4-0.4l0,0c0-0.2,0.2-0.4,0.4-0.4h4.6
		C7.5,17.1,7.6,17.3,7.6,17.5z"/>
</g>
<g id="arrow" class="st3">
	<path class="st7" d="M7.6,17.5L7.6,17.5c0,0.2-0.2,0.4-0.4,0.4H3c-0.2,0-0.4-0.2-0.4-0.4v0c0-0.2,0.2-0.4,0.4-0.4h4.2
		C7.4,17.1,7.6,17.2,7.6,17.5z"/>
	<path class="st7" d="M6.6,19L6.6,19c0.2,0.2,0.4,0.2,0.6,0l1.2-1.2c0.2-0.2,0.2-0.4,0-0.6h0c-0.2-0.2-0.4-0.2-0.6,0l-1.2,1.2
		C6.4,18.6,6.4,18.8,6.6,19z"/>
	<path class="st7" d="M8.3,17.8L8.3,17.8c-0.2,0.2-0.4,0.2-0.6,0l-1.2-1.2c-0.2-0.2-0.2-0.4,0-0.6h0c0.2-0.2,0.4-0.2,0.6,0l1.2,1.2
		C8.5,17.4,8.5,17.6,8.3,17.8z"/>
</g>
<g class="st3">
	<path class="st8" d="M30.2,15.6c0.3,0.1,0.6,0.2,1.1,0.2c0.8,0,1.1-0.3,1.1-1.1V7.9h0.7v6.8c0,1-0.5,1.8-1.9,1.8
		c-0.6,0-1.1-0.1-1.3-0.2L30.2,15.6z"/>
	<path class="st8" d="M35,13.1c0-2,0.7-3.4,2.6-3.4c1.9,0,2.6,1.3,2.6,3.3c0,2-0.7,3.4-2.6,3.4C35.6,16.5,35,15.1,35,13.1z
		 M37.6,15.8c1.3,0,1.8-0.9,1.8-2.7c0-1.8-0.6-2.7-1.9-2.7s-1.8,0.9-1.8,2.7C35.7,14.9,36.3,15.8,37.6,15.8z"/>
	<path class="st8" d="M42.6,7.4c0.3,0,0.6,0.3,0.6,0.6c0,0.3-0.3,0.6-0.6,0.6C42.3,8.5,42,8.3,42,8C42,7.6,42.3,7.4,42.6,7.4z
		 M42.3,9.9H43v6.5h-0.7V9.9z"/>
	<path class="st8" d="M50.1,16.4h-0.7v-4.3c0-1.1-0.5-1.7-1.5-1.7c-0.9,0-1.6,0.6-1.8,1.3v4.7h-0.7V9.9h0.5l0.2,0.7h0
		c0.1-0.2,0.8-0.8,1.9-0.8c1.3,0,2.1,0.7,2.1,2.1V16.4z"/>
	<path class="st8" d="M61.1,8.5l-0.5,0.6c-0.4-0.3-1-0.6-1.8-0.6c-1.3,0-2.7,0.7-2.7,3.6c0,2.7,1,3.7,2.7,3.7c0.6,0,1.3-0.1,1.7-0.4
		v-3.3h0.7v3.6c-0.5,0.4-1.3,0.8-2.5,0.8c-2.1,0-3.3-1.4-3.3-4.3c0-3,1.6-4.3,3.5-4.3C60.2,7.8,60.8,8.2,61.1,8.5z"/>
	<path class="st8" d="M66.2,10.6c-0.2-0.1-0.5-0.1-0.7-0.1c-0.7,0-1.3,0.3-1.6,0.9v4.9h-0.7V9.9h0.5l0.2,0.7h0
		c0.3-0.4,0.9-0.8,1.6-0.8c0.3,0,0.5,0,0.7,0.1V10.6z"/>
	<path class="st8" d="M67,13.1c0-2,0.7-3.4,2.6-3.4c1.9,0,2.6,1.3,2.6,3.3c0,2-0.7,3.4-2.6,3.4C67.6,16.5,67,15.1,67,13.1z
		 M69.6,15.8c1.3,0,1.8-0.9,1.8-2.7c0-1.8-0.6-2.7-1.9-2.7c-1.3,0-1.8,0.9-1.8,2.7C67.7,14.9,68.3,15.8,69.6,15.8z"/>
	<path class="st8" d="M73.9,9.9h0.7v4.2c0,1.2,0.5,1.7,1.6,1.7c1,0,1.8-0.5,1.8-1.8V9.9h0.7v6.5h-0.5l-0.2-0.7h0
		c-0.1,0.2-0.7,0.8-1.9,0.8c-1.3,0-2.1-0.7-2.1-2.1V9.9z"/>
	<path class="st8" d="M82.4,16.4c-0.3,0-0.7,0-1-0.1v2.4h-0.7V9.9h0.5l0.2,0.7h0c0.3-0.4,0.9-0.8,1.7-0.8c1.5,0,2.4,1,2.4,3.1
		C85.5,15.1,84.3,16.4,82.4,16.4z M82.4,15.7c1.6,0,2.4-1,2.4-2.7c0-2-0.9-2.6-1.8-2.6c-0.9,0-1.4,0.6-1.6,1v4.1
		C81.6,15.6,82.1,15.7,82.4,15.7z"/>
</g>
<g id="Create_Group" class="st3">
	<path class="st8" d="M33.9,7.8c1.2,0,1.8,0.4,2.1,0.6L35.6,9c-0.4-0.3-0.9-0.5-1.8-0.5c-1.6,0-2.5,1.1-2.5,3.6
		c0,2.4,0.9,3.7,2.6,3.7c0.9,0,1.4-0.2,1.7-0.5l0.4,0.5c-0.4,0.3-1.1,0.6-2.2,0.6c-2.2,0-3.2-1.7-3.2-4.3
		C30.6,9.4,31.8,7.8,33.9,7.8z"/>
	<path class="st8" d="M40.6,10.6c-0.2-0.1-0.5-0.1-0.7-0.1c-0.7,0-1.3,0.3-1.6,0.9v4.9h-0.7V9.9h0.5l0.2,0.7h0
		c0.3-0.4,0.9-0.8,1.6-0.8c0.3,0,0.5,0,0.7,0.1V10.6z"/>
	<path class="st8" d="M46.1,15.9c-0.4,0.3-1.1,0.5-1.9,0.5c-1.8,0-2.8-0.9-2.8-3.3c0-2.4,1.3-3.3,2.7-3.3c1.5,0,2.3,1,2.3,2.5
		c0,0.3,0,0.7-0.1,1.1h-4.2c0.1,1.8,0.8,2.4,2.2,2.4c0.6,0,1.2-0.2,1.5-0.5L46.1,15.9z M42.1,12.8h3.5c0-0.2,0-0.3,0-0.4
		c0-1.2-0.5-1.9-1.7-1.9C43.1,10.4,42.2,11,42.1,12.8z"/>
	<path class="st8" d="M52.2,11.7v3c0,0.6,0.2,1.1,0.7,1.1h0.2v0.5c0,0-0.1,0-0.2,0c-0.6,0-1-0.4-1.2-0.8h0c-0.3,0.4-0.9,0.9-2,0.9
		c-1.2,0-1.9-0.8-1.9-1.7c0-1.4,1.4-2.1,3.8-2.1v-0.8c0-1.2-0.5-1.5-1.5-1.5c-0.9,0-1.4,0.5-1.6,0.8L48,10.8c0.2-0.3,0.8-1,2.1-1
		C51.4,9.8,52.2,10.4,52.2,11.7z M51.6,13.3c-1.7,0-3.1,0.4-3.1,1.4c0,0.6,0.5,1.2,1.3,1.2c0.8,0,1.5-0.5,1.8-1V13.3z"/>
	<path class="st8" d="M54.9,14.7v-4.2h-1V10l1-0.1l0.2-1.7h0.5v1.7h1.8v0.6h-1.8v4.2c0,0.8,0.4,1.1,1,1.1c0.6,0,0.9-0.1,1-0.2
		l0.2,0.6c-0.3,0.1-0.7,0.3-1.3,0.3C55.4,16.4,54.9,15.9,54.9,14.7z"/>
	<path class="st8" d="M63.5,15.9c-0.4,0.3-1.1,0.5-1.9,0.5c-1.8,0-2.8-0.9-2.8-3.3c0-2.4,1.3-3.3,2.7-3.3c1.5,0,2.3,1,2.3,2.5
		c0,0.3,0,0.7-0.1,1.1h-4.2c0.1,1.8,0.8,2.4,2.2,2.4c0.6,0,1.2-0.2,1.5-0.5L63.5,15.9z M59.5,12.8h3.5c0-0.2,0-0.3,0-0.4
		c0-1.2-0.5-1.9-1.7-1.9C60.5,10.4,59.6,11,59.5,12.8z"/>
	<path class="st8" d="M74.5,8.5l-0.5,0.6c-0.4-0.3-1-0.6-1.8-0.6c-1.3,0-2.7,0.7-2.7,3.6c0,2.7,1,3.7,2.7,3.7c0.6,0,1.3-0.1,1.7-0.4
		v-3.3h0.7v3.6c-0.5,0.4-1.3,0.8-2.5,0.8c-2.1,0-3.3-1.4-3.3-4.3c0-3,1.6-4.3,3.5-4.3C73.6,7.8,74.3,8.2,74.5,8.5z"/>
	<path class="st8" d="M79.7,10.6c-0.2-0.1-0.5-0.1-0.7-0.1c-0.7,0-1.3,0.3-1.6,0.9v4.9h-0.7V9.9h0.5l0.2,0.7h0
		c0.3-0.4,0.9-0.8,1.6-0.8c0.3,0,0.5,0,0.7,0.1V10.6z"/>
	<path class="st8" d="M80.4,13.1c0-2,0.7-3.4,2.6-3.4c1.9,0,2.6,1.3,2.6,3.3c0,2-0.7,3.4-2.6,3.4C81.1,16.5,80.4,15.1,80.4,13.1z
		 M83.1,15.8c1.3,0,1.8-0.9,1.8-2.7c0-1.8-0.6-2.7-1.9-2.7c-1.3,0-1.8,0.9-1.8,2.7C81.2,14.9,81.7,15.8,83.1,15.8z"/>
	<path class="st8" d="M87.3,9.9H88v4.2c0,1.2,0.5,1.7,1.6,1.7c1,0,1.8-0.5,1.8-1.8V9.9h0.7v6.5h-0.5l-0.2-0.7h0
		c-0.1,0.2-0.7,0.8-1.9,0.8c-1.3,0-2.1-0.7-2.1-2.1V9.9z"/>
	<path class="st8" d="M95.9,16.4c-0.3,0-0.7,0-1-0.1v2.4h-0.7V9.9h0.5l0.2,0.7h0c0.3-0.4,0.9-0.8,1.7-0.8c1.5,0,2.4,1,2.4,3.1
		C99,15.1,97.8,16.4,95.9,16.4z M95.9,15.7c1.6,0,2.4-1,2.4-2.7c0-2-0.9-2.6-1.8-2.6c-0.9,0-1.4,0.6-1.6,1v4.1
		C95.1,15.6,95.6,15.7,95.9,15.7z"/>
</g>
<g id="join_channel" class="st3">
	<path class="st8" d="M30.2,15.6c0.3,0.1,0.6,0.2,1.1,0.2c0.8,0,1.1-0.3,1.1-1.1V7.9h0.7v6.8c0,1-0.5,1.8-1.9,1.8
		c-0.6,0-1.1-0.1-1.3-0.2L30.2,15.6z"/>
	<path class="st8" d="M35,13.1c0-2,0.7-3.4,2.6-3.4c1.9,0,2.6,1.3,2.6,3.3c0,2-0.7,3.4-2.6,3.4C35.6,16.5,35,15.1,35,13.1z
		 M37.6,15.8c1.3,0,1.8-0.9,1.8-2.7c0-1.8-0.6-2.7-1.9-2.7s-1.8,0.9-1.8,2.7C35.7,14.9,36.3,15.8,37.6,15.8z"/>
	<path class="st8" d="M42.6,7.4c0.3,0,0.6,0.3,0.6,0.6c0,0.3-0.3,0.6-0.6,0.6C42.3,8.5,42,8.3,42,8C42,7.6,42.3,7.4,42.6,7.4z
		 M42.3,9.9H43v6.5h-0.7V9.9z"/>
	<path class="st8" d="M50.1,16.4h-0.7v-4.3c0-1.1-0.5-1.7-1.5-1.7c-0.9,0-1.6,0.6-1.8,1.3v4.7h-0.7V9.9h0.5l0.2,0.7h0
		c0.1-0.2,0.8-0.8,1.9-0.8c1.3,0,2.1,0.7,2.1,2.1V16.4z"/>
	<path class="st8" d="M58.7,7.8c1.2,0,1.8,0.4,2.1,0.6L60.4,9c-0.4-0.3-0.9-0.5-1.8-0.5c-1.6,0-2.5,1.1-2.5,3.6
		c0,2.4,0.9,3.7,2.6,3.7c0.9,0,1.4-0.2,1.7-0.5l0.4,0.5c-0.4,0.3-1.1,0.6-2.2,0.6c-2.2,0-3.2-1.7-3.2-4.3
		C55.3,9.4,56.5,7.8,58.7,7.8z"/>
	<path class="st8" d="M67.1,11.9v4.5h-0.7V12c0-0.9-0.5-1.5-1.4-1.5c-1,0-1.7,0.6-1.9,1.3v4.7h-0.7V7.3h0.7v3.4h0
		c0.1-0.2,0.7-0.9,1.9-0.9C66.3,9.8,67.1,10.6,67.1,11.9z"/>
	<path class="st8" d="M73.2,11.7v3c0,0.6,0.2,1.1,0.7,1.1H74v0.5c0,0-0.1,0-0.2,0c-0.6,0-1-0.4-1.2-0.8h0c-0.3,0.4-0.9,0.9-2,0.9
		c-1.2,0-1.9-0.8-1.9-1.7c0-1.4,1.4-2.1,3.8-2.1v-0.8c0-1.2-0.5-1.5-1.5-1.5c-0.9,0-1.4,0.5-1.6,0.8L69,10.8c0.2-0.3,0.8-1,2.1-1
		C72.4,9.8,73.2,10.4,73.2,11.7z M72.5,13.3c-1.7,0-3.1,0.4-3.1,1.4c0,0.6,0.5,1.2,1.3,1.2c0.8,0,1.5-0.5,1.8-1V13.3z"/>
	<path class="st8" d="M80.4,16.4h-0.7v-4.3c0-1.1-0.5-1.7-1.5-1.7c-0.9,0-1.6,0.6-1.8,1.3v4.7h-0.7V9.9h0.5l0.2,0.7h0
		c0.1-0.2,0.8-0.8,1.9-0.8c1.3,0,2.1,0.7,2.1,2.1V16.4z"/>
	<path class="st8" d="M87.1,16.4h-0.7v-4.3c0-1.1-0.5-1.7-1.5-1.7c-0.9,0-1.6,0.6-1.8,1.3v4.7h-0.7V9.9h0.5l0.2,0.7h0
		c0.1-0.2,0.8-0.8,1.9-0.8c1.3,0,2.1,0.7,2.1,2.1V16.4z"/>
	<path class="st8" d="M93.6,15.9c-0.4,0.3-1.1,0.5-1.9,0.5c-1.8,0-2.8-0.9-2.8-3.3c0-2.4,1.3-3.3,2.7-3.3c1.5,0,2.3,1,2.3,2.5
		c0,0.3,0,0.7-0.1,1.1h-4.2c0.1,1.8,0.8,2.4,2.2,2.4c0.6,0,1.2-0.2,1.5-0.5L93.6,15.9z M89.6,12.8h3.5c0-0.2,0-0.3,0-0.4
		c0-1.2-0.5-1.9-1.7-1.9C90.6,10.4,89.6,11,89.6,12.8z"/>
	<path class="st8" d="M96.4,7.3V15c0,0.6,0.2,0.9,0.7,0.9c0.3,0,0.5-0.1,0.6-0.2v0.6c-0.2,0.1-0.6,0.1-0.8,0.1
		c-0.9,0-1.2-0.5-1.2-1.3V7.3H96.4z"/>
</g>
<g id="Create_Group_00000039844536943904640010000007906095186735381120_" class="st3">
	<path class="st8" d="M33.9,7.8c1.2,0,1.8,0.4,2.1,0.6L35.6,9c-0.4-0.3-0.9-0.5-1.8-0.5c-1.6,0-2.5,1.1-2.5,3.6
		c0,2.4,0.9,3.7,2.6,3.7c0.9,0,1.4-0.2,1.7-0.5l0.4,0.5c-0.4,0.3-1.1,0.6-2.2,0.6c-2.2,0-3.2-1.7-3.2-4.3
		C30.6,9.4,31.8,7.8,33.9,7.8z"/>
	<path class="st8" d="M40.6,10.6c-0.2-0.1-0.5-0.1-0.7-0.1c-0.7,0-1.3,0.3-1.6,0.9v4.9h-0.7V9.9h0.5l0.2,0.7h0
		c0.3-0.4,0.9-0.8,1.6-0.8c0.3,0,0.5,0,0.7,0.1V10.6z"/>
	<path class="st8" d="M46.1,15.9c-0.4,0.3-1.1,0.5-1.9,0.5c-1.8,0-2.8-0.9-2.8-3.3c0-2.4,1.3-3.3,2.7-3.3c1.5,0,2.3,1,2.3,2.5
		c0,0.3,0,0.7-0.1,1.1h-4.2c0.1,1.8,0.8,2.4,2.2,2.4c0.6,0,1.2-0.2,1.5-0.5L46.1,15.9z M42.1,12.8h3.5c0-0.2,0-0.3,0-0.4
		c0-1.2-0.5-1.9-1.7-1.9C43.1,10.4,42.2,11,42.1,12.8z"/>
	<path class="st8" d="M52.2,11.7v3c0,0.6,0.2,1.1,0.7,1.1h0.2v0.5c0,0-0.1,0-0.2,0c-0.6,0-1-0.4-1.2-0.8h0c-0.3,0.4-0.9,0.9-2,0.9
		c-1.2,0-1.9-0.8-1.9-1.7c0-1.4,1.4-2.1,3.8-2.1v-0.8c0-1.2-0.5-1.5-1.5-1.5c-0.9,0-1.4,0.5-1.6,0.8L48,10.8c0.2-0.3,0.8-1,2.1-1
		C51.4,9.8,52.2,10.4,52.2,11.7z M51.6,13.3c-1.7,0-3.1,0.4-3.1,1.4c0,0.6,0.5,1.2,1.3,1.2c0.8,0,1.5-0.5,1.8-1V13.3z"/>
	<path class="st8" d="M54.9,14.7v-4.2h-1V10l1-0.1l0.2-1.7h0.5v1.7h1.8v0.6h-1.8v4.2c0,0.8,0.4,1.1,1,1.1c0.6,0,0.9-0.1,1-0.2
		l0.2,0.6c-0.3,0.1-0.7,0.3-1.3,0.3C55.4,16.4,54.9,15.9,54.9,14.7z"/>
	<path class="st8" d="M63.5,15.9c-0.4,0.3-1.1,0.5-1.9,0.5c-1.8,0-2.8-0.9-2.8-3.3c0-2.4,1.3-3.3,2.7-3.3c1.5,0,2.3,1,2.3,2.5
		c0,0.3,0,0.7-0.1,1.1h-4.2c0.1,1.8,0.8,2.4,2.2,2.4c0.6,0,1.2-0.2,1.5-0.5L63.5,15.9z M59.5,12.8h3.5c0-0.2,0-0.3,0-0.4
		c0-1.2-0.5-1.9-1.7-1.9C60.5,10.4,59.6,11,59.5,12.8z"/>
	<path class="st8" d="M72.2,7.8c1.2,0,1.8,0.4,2.1,0.6L73.9,9c-0.4-0.3-0.9-0.5-1.8-0.5c-1.6,0-2.5,1.1-2.5,3.6
		c0,2.4,0.9,3.7,2.6,3.7c0.9,0,1.4-0.2,1.7-0.5l0.4,0.5c-0.4,0.3-1.1,0.6-2.2,0.6c-2.2,0-3.2-1.7-3.2-4.3C68.8,9.4,70,7.8,72.2,7.8z
		"/>
	<path class="st8" d="M80.5,11.9v4.5h-0.7V12c0-0.9-0.5-1.5-1.4-1.5c-1,0-1.7,0.6-1.9,1.3v4.7h-0.7V7.3h0.7v3.4h0
		c0.1-0.2,0.7-0.9,1.9-0.9C79.7,9.8,80.5,10.6,80.5,11.9z"/>
	<path class="st8" d="M86.7,11.7v3c0,0.6,0.2,1.1,0.7,1.1h0.2v0.5c0,0-0.1,0-0.2,0c-0.6,0-1-0.4-1.2-0.8h0c-0.3,0.4-0.9,0.9-2,0.9
		c-1.2,0-1.9-0.8-1.9-1.7c0-1.4,1.4-2.1,3.8-2.1v-0.8c0-1.2-0.5-1.5-1.5-1.5c-0.9,0-1.4,0.5-1.6,0.8l-0.5-0.4c0.2-0.3,0.8-1,2.1-1
		C85.9,9.8,86.7,10.4,86.7,11.7z M86,13.3c-1.7,0-3.1,0.4-3.1,1.4c0,0.6,0.5,1.2,1.3,1.2c0.8,0,1.5-0.5,1.8-1V13.3z"/>
	<path class="st8" d="M93.8,16.4h-0.7v-4.3c0-1.1-0.5-1.7-1.5-1.7c-0.9,0-1.6,0.6-1.8,1.3v4.7h-0.7V9.9h0.5l0.2,0.7h0
		c0.1-0.2,0.8-0.8,1.9-0.8c1.3,0,2.1,0.7,2.1,2.1V16.4z"/>
	<path class="st8" d="M100.6,16.4h-0.7v-4.3c0-1.1-0.5-1.7-1.5-1.7c-0.9,0-1.6,0.6-1.8,1.3v4.7h-0.7V9.9h0.5l0.2,0.7h0
		c0.1-0.2,0.8-0.8,1.9-0.8c1.3,0,2.1,0.7,2.1,2.1V16.4z"/>
	<path class="st8" d="M107,15.9c-0.4,0.3-1.1,0.5-1.9,0.5c-1.8,0-2.8-0.9-2.8-3.3c0-2.4,1.3-3.3,2.7-3.3c1.5,0,2.3,1,2.3,2.5
		c0,0.3,0,0.7-0.1,1.1H103c0.1,1.8,0.8,2.4,2.2,2.4c0.6,0,1.2-0.2,1.5-0.5L107,15.9z M103,12.8h3.5c0-0.2,0-0.3,0-0.4
		c0-1.2-0.5-1.9-1.7-1.9C104,10.4,103.1,11,103,12.8z"/>
	<path class="st8" d="M109.9,7.3V15c0,0.6,0.2,0.9,0.7,0.9c0.3,0,0.5-0.1,0.6-0.2v0.6c-0.2,0.1-0.6,0.1-0.8,0.1
		c-0.9,0-1.2-0.5-1.2-1.3V7.3H109.9z"/>
</g>
<g id="channel" class="st3">
	<path class="st9" d="M6.4,8.9c0-1.6,0-3.3,0-4.9c5.3,0,10.7,0,16,0c0,5.3,0,10.7,0,16c-5.3,0-10.7,0-16,0c0-2.9,0-5.8,0-8.7
		c0.1,0.2,0.1,0.4,0.2,0.5c0.3,0.6,0.8,0.9,1.5,1c0.4,0,0.7,0,1.1,0c0,0.1,0,0.2,0,0.2c0.2,1.7,0.4,3.4,0.6,5.1
		c0.1,0.6,0.5,0.9,1.1,0.9c0.3,0,0.6,0,0.9,0c0.6,0,1.1-0.5,1-1.1c-0.1-1.2-0.3-2.3-0.4-3.5c-0.1-0.6-0.1-1.1-0.2-1.7c0,0,0,0,0.1,0
		c1,0,2.1,0,3.1,0.2c1.5,0.3,2.9,1,4.1,2c0.3,0.2,0.5,0.3,0.9,0.3c0.6,0,0.8-0.3,0.9-0.8c0-0.8,0-1.6,0-2.4c0-0.1,0-0.2,0.1-0.2
		c0.9-0.4,1.3-1.5,1-2.4c-0.2-0.6-0.6-1-1.2-1.2c0-0.1,0-0.1,0-0.2c0-0.8,0-1.6,0-2.4c0-0.4-0.3-0.8-0.8-0.8c-0.1,0-0.2,0-0.4,0
		c-0.1,0-0.2,0-0.3,0.1c-2,1.7-4.3,2.4-6.8,2.4c-1.5,0-3.1,0-4.6,0c-0.8,0-1.4,0.5-1.7,1.2C6.5,8.7,6.4,8.8,6.4,8.9z"/>
	<path class="st10" d="M6.4,8.9c0-0.1,0.1-0.2,0.1-0.3c0.2-0.7,0.9-1.2,1.7-1.2c1.5,0,3.1,0,4.6,0c2.6,0,4.9-0.7,6.8-2.4
		c0.1-0.1,0.2-0.1,0.3-0.1c0.1,0,0.2,0,0.4,0c0.4,0,0.8,0.3,0.8,0.8c0,0.8,0,1.6,0,2.4c0,0.1,0,0.1,0,0.2c0.6,0.3,1,0.7,1.2,1.2
		c0.3,0.9-0.1,2-1,2.4c-0.1,0-0.1,0.1-0.1,0.2c0,0.8,0,1.6,0,2.4c0,0.5-0.3,0.8-0.9,0.8c-0.3,0-0.6-0.1-0.9-0.3
		c-1.2-1-2.6-1.7-4.1-2c-1-0.2-2-0.3-3.1-0.2c0,0,0,0-0.1,0c0.1,0.6,0.1,1.1,0.2,1.7c0.1,1.2,0.3,2.3,0.4,3.5c0.1,0.6-0.4,1.1-1,1.1
		c-0.3,0-0.6,0-0.9,0c-0.6,0-1-0.4-1.1-0.9c-0.2-1.7-0.4-3.4-0.6-5.1c0-0.1,0-0.1,0-0.2c-0.4,0-0.7,0-1.1,0c-0.7,0-1.2-0.4-1.5-1
		c-0.1-0.2-0.1-0.4-0.2-0.5C6.4,10.5,6.4,9.7,6.4,8.9z M20.1,14.8c0.4,0,0.5,0,0.5-0.4c0-2.9,0-5.8,0-8.7c0-0.1,0-0.1,0-0.2
		c0-0.1-0.1-0.2-0.2-0.2c-0.1,0-0.2,0-0.3,0c0,0.7,0,1.3,0,1.9c0,0.2-0.1,0.3-0.3,0.3c-0.2,0-0.2-0.1-0.2-0.3c0-0.5,0-0.9,0-1.4
		c0-0.1,0-0.2,0-0.3c-1.7,1.3-3.6,2-5.7,2.2c0,0.2,0.1,0.5-0.3,0.5c-0.3,0-0.2-0.3-0.3-0.5c0,0-0.1,0-0.1,0c-1.7,0-3.4,0-5.1,0
		c-0.8,0-1.3,0.5-1.3,1.3c0,0.6,0,1.2,0,1.9c0,0.8,0.5,1.3,1.3,1.3c1.7,0,3.3,0,5,0c0,0,0.1,0,0.1,0c0-0.1,0-0.1,0-0.2
		c0-1,0-2,0-2.9c0-0.1,0-0.1,0-0.2c0-0.1,0.1-0.2,0.2-0.2c0.1,0,0.2,0.1,0.2,0.2c0,0,0,0.1,0,0.2c0,1,0,2,0,3c0,0.1,0,0.1,0,0.2
		c2.1,0.1,4,0.9,5.7,2.2c0-0.4,0-0.8,0-1.2c0-1.2,0-2.3,0-3.5c0-0.2,0.1-0.3,0.2-0.3c0.2,0,0.3,0.1,0.3,0.3c0,0,0,0.1,0,0.1
		c0,1.5,0,3.1,0,4.6C20.1,14.7,20.1,14.8,20.1,14.8z M10.3,18.1c0,0.3,0.2,0.5,0.5,0.5c0.3,0,0.6,0,0.9,0c0.3,0,0.5-0.2,0.5-0.6
		c0-0.3-0.1-0.6-0.1-0.8c-0.1-1.1-0.3-2.2-0.4-3.3c0-0.3-0.1-0.7-0.1-1c-0.7,0-1.3,0-2,0c0.2,1.6,0.4,3.2,0.6,4.7c0.4,0,0.7,0,1.1,0
		c0.1,0,0.2,0,0.2,0.1c0,0.1,0.1,0.2,0,0.3c0,0.1-0.2,0.1-0.2,0.1C11,18.1,10.7,18.1,10.3,18.1z M21.1,8.8c0,0.9,0,1.7,0,2.6
		c0.5-0.3,0.7-0.7,0.7-1.3C21.9,9.6,21.6,9.1,21.1,8.8z"/>
	<path class="st9" d="M20.1,14.8c0-0.1,0-0.1,0-0.2c0-1.5,0-3.1,0-4.6c0,0,0-0.1,0-0.1c0-0.2-0.1-0.3-0.3-0.3
		c-0.2,0-0.2,0.1-0.2,0.3c0,1.2,0,2.3,0,3.5c0,0.4,0,0.8,0,1.2c-1.7-1.3-3.6-2-5.7-2.2c0-0.1,0-0.1,0-0.2c0-1,0-2,0-3
		c0-0.1,0-0.1,0-0.2c0-0.1-0.1-0.2-0.2-0.2c-0.1,0-0.2,0.1-0.2,0.2c0,0,0,0.1,0,0.2c0,1,0,2,0,2.9c0,0.1,0,0.1,0,0.2
		c0,0-0.1,0-0.1,0c-1.7,0-3.3,0-5,0c-0.8,0-1.3-0.5-1.3-1.3c0-0.6,0-1.2,0-1.9c0-0.8,0.5-1.3,1.3-1.3c1.7,0,3.4,0,5.1,0
		c0,0,0.1,0,0.1,0c0,0.2-0.1,0.5,0.3,0.5c0.3,0,0.2-0.3,0.3-0.5c2.1-0.1,4-0.9,5.7-2.2c0,0.1,0,0.2,0,0.3c0,0.5,0,0.9,0,1.4
		c0,0.2,0.1,0.3,0.2,0.3c0.2,0,0.3-0.1,0.3-0.3c0-0.6,0-1.3,0-1.9c0.1,0,0.2,0,0.3,0c0.1,0,0.2,0.1,0.2,0.2c0,0.1,0,0.1,0,0.2
		c0,2.9,0,5.8,0,8.7C20.6,14.8,20.5,14.9,20.1,14.8z M19.6,8.6C19.6,8.6,19.6,8.6,19.6,8.6c0,0.1,0,0.2,0,0.3c0,0.1,0.1,0.2,0.2,0.2
		c0.1,0,0.2-0.1,0.2-0.2c0-0.2,0-0.4,0-0.5c0-0.1-0.1-0.2-0.2-0.2c-0.1,0-0.2,0.1-0.3,0.2C19.6,8.4,19.6,8.5,19.6,8.6z"/>
	<path class="st9" d="M10.3,18.1c0.4,0,0.7,0,1.1,0c0.1,0,0.2-0.1,0.2-0.1c0-0.1,0-0.2,0-0.3c0-0.1-0.2-0.1-0.2-0.1
		c-0.4,0-0.7,0-1.1,0c-0.2-1.6-0.4-3.1-0.6-4.7c0.7,0,1.3,0,2,0c0,0.3,0.1,0.7,0.1,1c0.1,1.1,0.3,2.2,0.4,3.3c0,0.3,0.1,0.6,0.1,0.8
		c0,0.3-0.2,0.6-0.5,0.6c-0.3,0-0.6,0-0.9,0C10.5,18.6,10.4,18.4,10.3,18.1z"/>
	<path class="st9" d="M21.1,8.8c0.5,0.3,0.7,0.7,0.7,1.3c0,0.6-0.3,1-0.7,1.3C21.1,10.5,21.1,9.7,21.1,8.8z"/>
	<path class="st7" d="M19.6,8.6c0-0.1,0-0.2,0-0.2c0-0.1,0.1-0.2,0.3-0.2c0.1,0,0.2,0.1,0.2,0.2c0,0.2,0,0.4,0,0.5
		c0,0.1-0.1,0.2-0.2,0.2c-0.1,0-0.2-0.1-0.2-0.2C19.6,8.8,19.6,8.7,19.6,8.6C19.6,8.6,19.6,8.6,19.6,8.6z"/>
</g>
<g id="plus_channel" class="st3">
	<path class="st7" d="M16.4,20.2L16.4,20.2c-0.2,0-0.4-0.2-0.4-0.4v-4c0-0.2,0.2-0.3,0.4-0.3l0,0c0.2,0,0.4,0.2,0.4,0.3v4
		C16.7,20.1,16.6,20.2,16.4,20.2z"/>
	<path class="st7" d="M18.7,17.9L18.7,17.9c0,0.2-0.2,0.4-0.4,0.4h-4c-0.2,0-0.3-0.2-0.3-0.4l0,0c0-0.2,0.2-0.4,0.3-0.4h4
		C18.6,17.5,18.7,17.7,18.7,17.9z"/>
</g>
<g id="arrow_channel" class="st3">
	<path class="st7" d="M18.4,17.9L18.4,17.9c0,0.2-0.1,0.4-0.3,0.4h-3.9c-0.2,0-0.3-0.1-0.3-0.3v-0.1c0-0.2,0.1-0.3,0.3-0.3h3.9
		C18.3,17.5,18.4,17.7,18.4,17.9z"/>
	<path class="st7" d="M17.2,19.4L17.2,19.4c0.1,0.1,0.3,0.1,0.4,0l1.3-1.2c0.1-0.1,0.1-0.3,0-0.4v0c-0.1-0.1-0.3-0.1-0.4,0l-1.3,1.2
		C17,19,17,19.2,17.2,19.4z"/>
	<path class="st7" d="M18.9,18.1L18.9,18.1c-0.1,0.1-0.3,0.1-0.4,0l-1.3-1.2c-0.1-0.1-0.1-0.3,0-0.4h0c0.1-0.1,0.3-0.1,0.4,0
		l1.3,1.2C19,17.8,19,18,18.9,18.1z"/>
</g>
<g id="message">
	<path class="st11" d="M19.3,4.4c1.8,0,3.2,1.4,3.2,3.1v5.3c0,3.8-4.7,3.1-7.3,3.1L15,16l-4.7,3.2L10.2,16l-0.1-0.1H9.5
		c-1.7,0-3.1-1.4-3.1-3.1V7.5c0-1.7,1.4-3.1,3.1-3.1H19.3z"/>
</g>
<g>
	<g>
		<circle class="st12" cx="18.3" cy="16.9" r="3"/>
		<g id="plus_message">
			<path class="st5" d="M18.3,19.4L18.3,19.4c-0.2,0-0.4-0.2-0.4-0.3v-4.3c0-0.2,0.2-0.4,0.3-0.4h0c0.2,0,0.3,0.2,0.3,0.4V19
				C18.7,19.2,18.5,19.4,18.3,19.4z"/>
			<path class="st5" d="M20.8,16.9L20.8,16.9c0,0.2-0.2,0.4-0.4,0.4h-4.3c-0.2,0-0.3-0.2-0.3-0.4l0,0c0-0.2,0.2-0.4,0.3-0.4h4.3
				C20.7,16.5,20.8,16.7,20.8,16.9z"/>
		</g>
	</g>
</g>
<g id="new_message">
	<path class="st13" d="M31.7,8.8v7.6H31V7.9h1.1l3.1,5.9l0.9,1.7h0.1V7.9h0.7v8.4h-1.1l-3.1-5.8L31.7,8.8L31.7,8.8z"/>
	<path class="st13" d="M43.5,15.9c-0.4,0.3-1.1,0.5-1.9,0.5c-1.8,0-2.8-0.9-2.8-3.3c0-2.4,1.3-3.3,2.7-3.3c1.5,0,2.3,1,2.3,2.5
		c0,0.3,0,0.7-0.1,1.1h-4.2c0.1,1.8,0.8,2.4,2.2,2.4c0.6,0,1.2-0.2,1.5-0.5L43.5,15.9z M39.5,12.8H43c0-0.2,0-0.3,0-0.4
		c0-1.2-0.5-1.9-1.7-1.9C40.5,10.4,39.6,11,39.5,12.8z"/>
	<path class="st13" d="M48.9,10.5l-1.5,5.8h-1l-1.7-6.5h0.7l1,3.7c0.2,0.7,0.4,1.4,0.5,2.1h0c0.1-0.6,0.3-1.2,0.4-1.8l1-4h1.1l1,4.1
		c0.1,0.6,0.3,1.1,0.4,1.8h0c0.2-0.7,0.4-1.4,0.5-2.1l1-3.7h0.7l-1.7,6.5h-1L48.9,10.5L48.9,10.5z"/>
	<path class="st13" d="M61.8,14.3L61.8,14.3l2.7-6.4h1.2v8.4H65V8.8h-0.1c-0.9,2.1-1.8,4.2-2.7,6.3h-0.9l-2.6-6.3h-0.1v7.6H58V7.9
		h1.2L61.8,14.3z"/>
	<path class="st13" d="M72.3,15.9c-0.4,0.3-1.1,0.5-1.9,0.5c-1.8,0-2.8-0.9-2.8-3.3c0-2.4,1.3-3.3,2.7-3.3c1.5,0,2.3,1,2.3,2.5
		c0,0.3,0,0.7-0.1,1.1h-4.2c0.1,1.8,0.8,2.4,2.2,2.4c0.6,0,1.2-0.2,1.5-0.5L72.3,15.9z M68.3,12.8h3.5c0-0.2,0-0.3,0-0.4
		c0-1.2-0.5-1.9-1.7-1.9C69.3,10.4,68.4,11,68.3,12.8z"/>
	<path class="st13" d="M74.2,11.5c0-0.9,0.8-1.7,2.2-1.7c0.7,0,1.4,0.2,1.8,0.6l-0.5,0.5c-0.3-0.3-0.9-0.5-1.3-0.5
		c-1,0-1.4,0.5-1.4,1.1c0,1.6,3.3,0.9,3.3,3.1c0,0.9-0.8,1.8-2.2,1.8c-1,0-1.8-0.4-2.2-0.8l0.5-0.6c0.4,0.4,1,0.7,1.8,0.7
		c1,0,1.5-0.5,1.5-1.2C77.5,13.1,74.2,13.7,74.2,11.5z"/>
	<path class="st13" d="M79.8,11.5c0-0.9,0.8-1.7,2.2-1.7c0.7,0,1.4,0.2,1.8,0.6l-0.5,0.5c-0.3-0.3-0.9-0.5-1.3-0.5
		c-1,0-1.4,0.5-1.4,1.1c0,1.6,3.3,0.9,3.3,3.1c0,0.9-0.8,1.8-2.2,1.8c-1,0-1.8-0.4-2.2-0.8l0.5-0.6c0.4,0.4,1,0.7,1.8,0.7
		c1,0,1.5-0.5,1.5-1.2C83.1,13.1,79.8,13.7,79.8,11.5z"/>
	<path class="st13" d="M89.7,11.7v3c0,0.6,0.2,1.1,0.7,1.1h0.2v0.5c0,0-0.1,0-0.2,0c-0.6,0-1-0.4-1.2-0.8h0c-0.3,0.4-0.9,0.9-2,0.9
		c-1.2,0-1.9-0.8-1.9-1.7c0-1.4,1.4-2.1,3.8-2.1v-0.8c0-1.2-0.5-1.5-1.5-1.5c-0.9,0-1.4,0.5-1.6,0.8l-0.5-0.4c0.2-0.3,0.8-1,2.1-1
		C88.9,9.8,89.7,10.4,89.7,11.7z M89,13.3c-1.7,0-3.1,0.4-3.1,1.4c0,0.6,0.5,1.2,1.3,1.2c0.8,0,1.5-0.5,1.8-1V13.3z"/>
	<path class="st13" d="M96.6,16.5c0,1.7-1,2.5-2.6,2.5c-1.1,0-1.8-0.4-2-0.6l0.4-0.6c0.3,0.3,0.8,0.6,1.7,0.6c1.2,0,1.8-0.6,1.8-1.9
		v-0.7h0c-0.2,0.2-0.8,0.6-1.7,0.6c-1.3,0-2.4-0.9-2.4-3c0-2.1,1-3.5,3.1-3.5c0.7,0,1.3,0.1,1.7,0.3V16.5z M94.8,10.5
		c-1.3,0-2.3,0.9-2.3,2.7c0,2,1,2.5,1.9,2.5c0.6,0,1.2-0.3,1.5-0.7v-4.3C95.6,10.6,95.2,10.5,94.8,10.5z"/>
	<path class="st13" d="M103.1,15.9c-0.4,0.3-1.1,0.5-1.9,0.5c-1.8,0-2.8-0.9-2.8-3.3c0-2.4,1.3-3.3,2.7-3.3c1.5,0,2.3,1,2.3,2.5
		c0,0.3,0,0.7-0.1,1.1h-4.2c0.1,1.8,0.8,2.4,2.2,2.4c0.6,0,1.2-0.2,1.5-0.5L103.1,15.9z M99.1,12.8h3.5c0-0.2,0-0.3,0-0.4
		c0-1.2-0.5-1.9-1.7-1.9C100.1,10.4,99.2,11,99.1,12.8z"/>
</g>
</svg>
