<?xml version="1.0" encoding="utf-8"?>
<!-- Generator: Adobe Illustrator 27.0.0, SVG Export Plug-In . SVG Version: 6.00 Build 0)  -->
<svg version="1.1" id="Layer_1" xmlns="http://www.w3.org/2000/svg" xmlns:xlink="http://www.w3.org/1999/xlink" x="0px" y="0px"
	 viewBox="0 0 250 12" style="enable-background:new 0 0 250 12;" xml:space="preserve">
<style type="text/css">
	.st0{stroke:#000000;stroke-width:0.6526;stroke-miterlimit:10;}
	.st1{fill:#FFFFFF;stroke:#000000;stroke-width:0.6526;stroke-miterlimit:10;}
</style>
<rect x="1.1" y="2.8" class="st0" width="22.5" height="3"/>
<rect x="51.2" y="2.8" class="st1" width="22.5" height="3"/>
<rect x="76.2" y="2.8" class="st1" width="22.5" height="3"/>
<rect x="101.2" y="2.8" class="st1" width="22.5" height="3"/>
<rect x="126.3" y="2.8" class="st1" width="22.5" height="3"/>
<rect x="151.3" y="2.8" class="st1" width="22.5" height="3"/>
<rect x="176.3" y="2.8" class="st1" width="22.5" height="3"/>
<rect x="201.3" y="2.8" class="st1" width="22.5" height="3"/>
<rect x="226.4" y="2.8" class="st1" width="22.5" height="3"/>
<rect x="26.2" y="2.8" class="st1" width="22.5" height="3"/>
<g>
	<path d="M4.9,8.1c0,0.1,0,0.1-0.1,0.1c0,0,0,0,0,0c0,0-0.1,0.1-0.1,0.1c0,0.1,0,0.1,0,0.2l0,0.1c0,0.2-0.1,0.4-0.1,0.5
		C4.3,9.4,4.3,9.6,4.2,9.7C4.1,9.8,3.9,9.9,3.7,9.9c-0.2,0-0.3,0-0.3-0.1c-0.1,0-0.1-0.1-0.2-0.2c0-0.1-0.1-0.2-0.1-0.3
		C3,9.6,2.9,9.7,2.8,9.8C2.7,9.9,2.6,9.9,2.4,9.9c-0.3,0-0.5-0.1-0.6-0.4C1.7,9.4,1.6,9.1,1.5,8.7C1.5,8.4,1.4,8.2,1.3,8.2L1.2,8.1
		c0-0.1,0.1-0.2,0.2-0.2h1c0,0,0.1,0,0.1,0c0,0,0,0.1,0,0.1c0,0.1,0,0.1-0.1,0.1c0,0,0,0,0,0c-0.1,0-0.1,0.1-0.1,0.2
		c0,0.2,0,0.3,0.1,0.5c0.1,0.2,0.1,0.3,0.2,0.4C2.8,9.2,2.9,9,2.9,8.9c0-0.4-0.1-0.6-0.2-0.6L2.6,8.1c0-0.1,0.1-0.2,0.2-0.2h0.9
		c0.1,0,0.2,0.1,0.2,0.2c0,0,0,0.1-0.1,0.1S3.7,8.3,3.7,8.4c0,0.1,0,0.3,0.1,0.5C3.8,9,3.9,9.2,3.9,9.3c0.2-0.4,0.3-0.8,0.3-1
		c0-0.1,0-0.1-0.1-0.1L4.1,8.1c0-0.1,0.1-0.2,0.2-0.2h0.5c0,0,0.1,0,0.1,0C4.9,8,4.9,8,4.9,8.1z"/>
	<path d="M7.3,9.3c0,0.2-0.1,0.3-0.4,0.4C6.7,9.9,6.5,9.9,6.3,9.9c-0.3,0-0.6-0.1-0.8-0.2C5.2,9.5,5.1,9.2,5.1,8.9s0.1-0.6,0.4-0.8
		C5.7,8,6,7.9,6.3,7.9C6.5,7.9,6.7,7.9,7,8c0.3,0.1,0.4,0.3,0.4,0.5c0,0.2-0.1,0.3-0.3,0.4C6.9,9,6.7,9.1,6.3,9.1
		c-0.2,0-0.2,0-0.2,0c0,0.1,0,0.2,0.1,0.3c0.1,0.1,0.2,0.1,0.3,0.1c0.1,0,0.3,0,0.4-0.1C7,9.2,7.1,9.2,7.2,9.2
		C7.2,9.2,7.3,9.2,7.3,9.3C7.3,9.3,7.3,9.3,7.3,9.3z M6.5,8.4c0-0.1-0.1-0.1-0.2-0.1C6.1,8.2,6,8.4,6,8.7c0,0,0,0.1,0,0.1
		c0.1,0,0.2,0,0.3-0.1C6.4,8.6,6.5,8.5,6.5,8.4z"/>
	<path d="M9.9,9.7c0,0,0,0.1,0,0.1c0,0-0.1,0-0.1,0H9c-0.1,0-0.2,0-0.2-0.1C8.7,9.8,8.7,9.8,8.5,9.9c-0.1,0-0.2,0.1-0.3,0.1
		C8,9.9,7.9,9.9,7.7,9.7C7.6,9.6,7.5,9.5,7.5,9.3c0-0.3,0.2-0.5,0.5-0.6c0.1-0.1,0.4-0.1,0.8-0.1l0,0c0-0.2-0.1-0.3-0.2-0.3
		c-0.1,0-0.2,0.1-0.3,0.2C8.2,8.5,8.1,8.6,8,8.6c-0.1,0-0.2,0-0.2-0.1c-0.1,0-0.1-0.1-0.1-0.2C7.6,8,8,7.9,8.7,7.9
		c0.3,0,0.5,0,0.7,0.1s0.2,0.2,0.3,0.4c0,0.1,0.1,0.4,0.1,0.7c0,0.2,0,0.3,0,0.3c0,0.1,0,0.2,0.1,0.2C9.9,9.6,9.9,9.6,9.9,9.7z
		 M8.8,9c0-0.1,0-0.1,0-0.1c0,0-0.1,0-0.1,0S8.5,8.9,8.5,9C8.4,9.1,8.3,9.2,8.3,9.3c0,0.1,0.1,0.2,0.2,0.2c0,0,0.1,0,0.1-0.1
		c0,0,0.1-0.1,0.1-0.1c0,0,0-0.1,0-0.1C8.8,9,8.8,9,8.8,9z"/>
	<path d="M12.9,9.7c0,0.1-0.1,0.2-0.2,0.2h-1c0,0-0.1,0-0.1,0s0-0.1,0-0.1c0,0,0-0.1,0-0.1s0-0.1,0.1-0.1l0,0c0-0.1-0.1-0.3-0.3-0.5
		c0,0,0,0,0,0l0,0c0,0,0,0.2,0,0.4c0,0.1,0,0.1,0,0.2c0.1,0,0.1,0.1,0.1,0.2c0,0,0,0.1,0,0.1c0,0-0.1,0-0.1,0h-1
		c-0.1,0-0.2-0.1-0.2-0.2c0,0,0-0.1,0.1-0.1c0.1,0,0.1-0.1,0.1-0.3V7.6c0-0.1,0-0.1-0.1-0.2c-0.1,0-0.1-0.1-0.1-0.2l0-0.1
		c0,0,0.2-0.1,0.4-0.2c0.2,0,0.3-0.1,0.5-0.1c0,0,0,0,0,0c0.1,0,0.2,0.1,0.2,0.3v1.5c0.1,0,0.2-0.1,0.3-0.1c0.1-0.1,0.2-0.1,0.2-0.2
		c0,0-0.1-0.1-0.1-0.1l-0.1-0.1c0-0.1,0.1-0.2,0.2-0.2h0.7c0.1,0,0.2,0.1,0.2,0.2c0,0.1-0.2,0.2-0.6,0.5c0.1,0.1,0.2,0.2,0.4,0.5
		c0.1,0.2,0.3,0.4,0.4,0.4C12.8,9.5,12.8,9.6,12.9,9.7z"/>
</g>
</svg>
