<?xml version="1.0" encoding="utf-8"?>
<!-- Generator: Adobe Illustrator 27.0.0, SVG Export Plug-In . SVG Version: 6.00 Build 0)  -->
<svg version="1.1" id="Layer_1" xmlns="http://www.w3.org/2000/svg" xmlns:xlink="http://www.w3.org/1999/xlink" x="0px" y="0px"
	 viewBox="0 0 35 35" style="enable-background:new 0 0 35 35;" xml:space="preserve">
<style type="text/css">
	.st0{fill:url(#SVGID_1_);}
	.st1{fill:url(#SVGID_00000167357262812588763120000015752338782206263990_);}
	.st2{fill:url(#SVGID_00000158010203708452618990000017986399007357999016_);}
	.st3{fill:url(#SVGID_00000019650635226881547160000011658604106404488613_);}
	.st4{fill:url(#SVGID_00000023960798180612930740000001575517816445297297_);}
</style>
<g>
	<linearGradient id="SVGID_1_" gradientUnits="userSpaceOnUse" x1="-0.5384" y1="35.5382" x2="35.8434" y2="-0.8435">
		<stop  offset="0" style="stop-color:#951B81"/>
		<stop  offset="1" style="stop-color:#29235C"/>
	</linearGradient>
	<path class="st0" d="M26.4,8.6c-0.6-0.6-1.5-1-2.3-1s-1.7,0.3-2.3,1c-0.6,0.6-1,1.5-1,2.3c0,0.9,0.3,1.7,1,2.3c0.6,0.6,1.5,1,2.3,1
		l0,0c0.9,0,1.7-0.3,2.3-1c0.6-0.6,1-1.5,1-2.3C27.3,10.1,27,9.3,26.4,8.6z M25,12c-0.3,0.3-0.6,0.4-1,0.4l0,0c-0.4,0-0.7-0.2-1-0.4
		c-0.3-0.3-0.4-0.6-0.4-1c0-0.4,0.2-0.7,0.4-1c0.3-0.3,0.6-0.4,1-0.4c0.4,0,0.7,0.2,1,0.4C25.6,10.5,25.6,11.4,25,12z"/>
	<g>
		
			<linearGradient id="SVGID_00000103946770079929804730000002306805038384699304_" gradientUnits="userSpaceOnUse" x1="-3.7139" y1="32.3628" x2="32.6677" y2="-4.0188">
			<stop  offset="0" style="stop-color:#951B81"/>
			<stop  offset="1" style="stop-color:#29235C"/>
		</linearGradient>
		<path style="fill:url(#SVGID_00000103946770079929804730000002306805038384699304_);" d="M0.9,28.6c-0.2,0-0.5-0.1-0.7-0.3
			c-0.4-0.4-0.4-1,0-1.3l5.4-5.4c0.4-0.4,1-0.4,1.3,0c0.4,0.4,0.4,1,0,1.3l-5.4,5.4C1.4,28.6,1.2,28.6,0.9,28.6z"/>
	</g>
	<g>
		
			<linearGradient id="SVGID_00000003077165897666539080000003785926074662127799_" gradientUnits="userSpaceOnUse" x1="-0.5382" y1="35.5384" x2="35.8434" y2="-0.8432">
			<stop  offset="0" style="stop-color:#951B81"/>
			<stop  offset="1" style="stop-color:#29235C"/>
		</linearGradient>
		<path style="fill:url(#SVGID_00000003077165897666539080000003785926074662127799_);" d="M2.1,33.8c-0.2,0-0.5-0.1-0.7-0.3
			c-0.4-0.4-0.4-1,0-1.3l5.6-5.6c0.4-0.4,1-0.4,1.3,0c0.4,0.4,0.4,1,0,1.3l-5.6,5.6C2.6,33.7,2.4,33.8,2.1,33.8z"/>
	</g>
	<g>
		
			<linearGradient id="SVGID_00000162338423350499070920000016318836373454917260_" gradientUnits="userSpaceOnUse" x1="2.6375" y1="38.7141" x2="39.0188" y2="2.3328">
			<stop  offset="0" style="stop-color:#951B81"/>
			<stop  offset="1" style="stop-color:#29235C"/>
		</linearGradient>
		<path style="fill:url(#SVGID_00000162338423350499070920000016318836373454917260_);" d="M7.3,35c-0.2,0-0.5-0.1-0.7-0.3
			c-0.4-0.4-0.4-1,0-1.3L12,28c0.4-0.4,1-0.4,1.3,0c0.4,0.4,0.4,1,0,1.3l-5.4,5.4C7.8,34.9,7.5,35,7.3,35z"/>
	</g>
	
		<linearGradient id="SVGID_00000083797086414683004470000007481647523060787619_" gradientUnits="userSpaceOnUse" x1="-0.5385" y1="35.5384" x2="35.8434" y2="-0.8435">
		<stop  offset="0" style="stop-color:#951B81"/>
		<stop  offset="1" style="stop-color:#29235C"/>
	</linearGradient>
	<path style="fill:url(#SVGID_00000083797086414683004470000007481647523060787619_);" d="M34.7,0.3C34.5,0.1,34.2,0,33.9,0
		c-0.1,0-2.7,0.4-6.2,1.8c-2.1,0.8-4,1.7-5.8,2.8c-2.2,1.3-4.2,2.8-5.9,4.5l-7,1.4c-0.2,0-0.3,0.1-0.5,0.3l-6.4,6.3
		c-0.3,0.3-0.4,0.7-0.2,1.1c0.2,0.3,0.5,0.5,0.8,0.5c0.1,0,0.1,0,0.2,0l7.2-1.4c-0.5,0.9-0.9,1.9-1.3,2.9c-0.1,0.3-0.1,0.7,0.2,1
		l1.8,1.8l-1.6,1.6c-0.4,0.4-0.4,1,0,1.3c0.2,0.2,0.4,0.3,0.7,0.3c0.2,0,0.5-0.1,0.7-0.3l1.6-1.6l1.8,1.8c0.2,0.2,0.4,0.3,0.7,0.3
		c0.1,0,0.2,0,0.4-0.1c1-0.4,1.9-0.8,2.9-1.3L16.4,32c-0.1,0.4,0.1,0.8,0.5,1c0.1,0.1,0.3,0.1,0.4,0.1c0.2,0,0.5-0.1,0.7-0.3
		l6.3-6.4c0.1-0.1,0.2-0.3,0.3-0.5l1.4-7c1.7-1.7,3.2-3.7,4.5-5.9c1.1-1.8,2-3.8,2.8-5.8C34.5,3.8,35,1.2,35,1.1
		C35,0.8,34.9,0.5,34.7,0.3z M5.6,16.2l4-4l4.3-0.8c-0.9,1.1-1.8,2.4-2.6,3.7L5.6,16.2z M22.8,25.4l-4,4l1.1-5.7
		c1.3-0.8,2.6-1.7,3.7-2.6L22.8,25.4z M31.5,6.7c-1.2,3.1-3.3,7.5-7,11.1c-1.7,1.7-3.6,3.2-5.8,4.5c0,0-0.1,0-0.1,0.1
		c-1.2,0.7-2.4,1.3-3.8,1.9l-1.3-1.3l2.7-2.7c0.4-0.4,0.4-1,0-1.3c-0.4-0.4-1-0.4-1.3,0l-2.7,2.7l-1.3-1.3c0.6-1.3,1.2-2.6,1.9-3.8
		c0,0,0-0.1,0.1-0.1c1.3-2.2,2.8-4.2,4.5-5.8c3.6-3.6,8.1-5.8,11.1-7c1.9-0.7,3.5-1.2,4.5-1.4C32.6,3.2,32.2,4.8,31.5,6.7z"/>
</g>
</svg>
