<?xml version="1.0" encoding="utf-8"?>
<!-- Generator: Adobe Illustrator 27.0.0, SVG Export Plug-In . SVG Version: 6.00 Build 0)  -->
<svg version="1.1" id="Layer_1" xmlns="http://www.w3.org/2000/svg" xmlns:xlink="http://www.w3.org/1999/xlink" x="0px" y="0px"
	 viewBox="0 0 35 35" style="enable-background:new 0 0 35 35;" xml:space="preserve">
<style type="text/css">
	.st0{fill:#3F6B97;}
</style>
<g>
	<path class="st0" d="M26.4,8.6c-0.6-0.6-1.5-1-2.3-1s-1.7,0.3-2.3,1c-0.6,0.6-1,1.5-1,2.3c0,0.9,0.3,1.7,1,2.3c0.6,0.6,1.5,1,2.3,1
		l0,0c0.9,0,1.7-0.3,2.3-1c0.6-0.6,1-1.5,1-2.3C27.3,10.1,27,9.3,26.4,8.6z M25,12c-0.3,0.3-0.6,0.4-1,0.4l0,0c-0.4,0-0.7-0.2-1-0.4
		c-0.3-0.3-0.4-0.6-0.4-1c0-0.4,0.2-0.7,0.4-1c0.3-0.3,0.6-0.4,1-0.4c0.4,0,0.7,0.2,1,0.4C25.6,10.5,25.6,11.4,25,12z"/>
	<g>
		<path class="st0" d="M0.9,28.6c-0.2,0-0.5-0.1-0.7-0.3c-0.4-0.4-0.4-1,0-1.3l5.4-5.4c0.4-0.4,1-0.4,1.3,0c0.4,0.4,0.4,1,0,1.3
			l-5.4,5.4C1.4,28.6,1.2,28.6,0.9,28.6z"/>
	</g>
	<g>
		<path class="st0" d="M2.1,33.8c-0.2,0-0.5-0.1-0.7-0.3c-0.4-0.4-0.4-1,0-1.3l5.6-5.6c0.4-0.4,1-0.4,1.3,0c0.4,0.4,0.4,1,0,1.3
			l-5.6,5.6C2.6,33.7,2.4,33.8,2.1,33.8z"/>
	</g>
	<g>
		<path class="st0" d="M7.3,35c-0.2,0-0.5-0.1-0.7-0.3c-0.4-0.4-0.4-1,0-1.3L12,28c0.4-0.4,1-0.4,1.3,0c0.4,0.4,0.4,1,0,1.3
			l-5.4,5.4C7.8,34.9,7.5,35,7.3,35z"/>
	</g>
	<path class="st0" d="M34.7,0.3C34.5,0.1,34.2,0,33.9,0c-0.1,0-2.7,0.4-6.2,1.8c-2.1,0.8-4,1.7-5.8,2.8c-2.2,1.3-4.2,2.8-5.9,4.5
		l-7,1.4c-0.2,0-0.3,0.1-0.5,0.3l-6.4,6.3c-0.3,0.3-0.4,0.7-0.2,1.1c0.2,0.3,0.5,0.5,0.8,0.5c0.1,0,0.1,0,0.2,0l7.2-1.4
		c-0.5,0.9-0.9,1.9-1.3,2.9c-0.1,0.3-0.1,0.7,0.2,1l1.8,1.8l-1.6,1.6c-0.4,0.4-0.4,1,0,1.3c0.2,0.2,0.4,0.3,0.7,0.3
		c0.2,0,0.5-0.1,0.7-0.3l1.6-1.6l1.8,1.8c0.2,0.2,0.4,0.3,0.7,0.3c0.1,0,0.2,0,0.4-0.1c1-0.4,1.9-0.8,2.9-1.3L16.4,32
		c-0.1,0.4,0.1,0.8,0.5,1c0.1,0.1,0.3,0.1,0.4,0.1c0.2,0,0.5-0.1,0.7-0.3l6.3-6.4c0.1-0.1,0.2-0.3,0.3-0.5l1.4-7
		c1.7-1.7,3.2-3.7,4.5-5.9c1.1-1.8,2-3.8,2.8-5.8C34.5,3.8,35,1.2,35,1.1C35,0.8,34.9,0.5,34.7,0.3z M5.6,16.2l4-4l4.3-0.8
		c-0.9,1.1-1.8,2.4-2.6,3.7L5.6,16.2z M22.8,25.4l-4,4l1.1-5.7c1.3-0.8,2.6-1.7,3.7-2.6L22.8,25.4z M31.5,6.7
		c-1.2,3.1-3.3,7.5-7,11.1c-1.7,1.7-3.6,3.2-5.8,4.5c0,0-0.1,0-0.1,0.1c-1.2,0.7-2.4,1.3-3.8,1.9l-1.3-1.3l2.7-2.7
		c0.4-0.4,0.4-1,0-1.3c-0.4-0.4-1-0.4-1.3,0l-2.7,2.7l-1.3-1.3c0.6-1.3,1.2-2.6,1.9-3.8c0,0,0-0.1,0.1-0.1c1.3-2.2,2.8-4.2,4.5-5.8
		c3.6-3.6,8.1-5.8,11.1-7c1.9-0.7,3.5-1.2,4.5-1.4C32.6,3.2,32.2,4.8,31.5,6.7z"/>
</g>
</svg>
