<?xml version="1.0" encoding="utf-8"?>
<!-- Generator: Adobe Illustrator 27.0.0, SVG Export Plug-In . SVG Version: 6.00 Build 0)  -->
<svg version="1.1" id="Layer_1" xmlns="http://www.w3.org/2000/svg" xmlns:xlink="http://www.w3.org/1999/xlink" x="0px" y="0px"
	 viewBox="0 0 261 32" style="enable-background:new 0 0 261 32;" xml:space="preserve">
<style type="text/css">
	.st0{fill:#4E7CA8;}
	.st1{fill:#FFFFFF;stroke:#FFFFFF;stroke-width:0.25;stroke-miterlimit:10;}
</style>
<path class="st0" d="M245,32H16C7.2,32,0,24.8,0,16l0,0C0,7.2,7.2,0,16,0h229c8.8,0,16,7.2,16,16l0,0C261,24.8,253.8,32,245,32z"/>
<g>
	<path class="st1" d="M97.5,19c0-2.4-5-1.8-5-5.2c0-1.6,1.4-2.8,3.3-2.8c1.2,0,2.1,0.4,2.7,0.9l-0.7,0.9c-0.5-0.4-1.2-0.7-2.1-0.7
		c-1.2,0-2,0.7-2,1.6c0,2.4,5,1.9,5,5.2c0,1.6-1.3,2.9-3.5,2.9c-1.6,0-2.7-0.6-3.3-1.1l0.7-1c0.6,0.5,1.4,1,2.7,1
		C96.7,20.8,97.5,20,97.5,19z"/>
	<path class="st1" d="M105.9,10.3c0.5,0,0.9,0.4,0.9,0.9c0,0.5-0.4,0.8-0.9,0.8c-0.5,0-0.8-0.4-0.8-0.8
		C105.1,10.7,105.4,10.3,105.9,10.3z M105.4,13.5h1.2v8.2h-1.2V13.5z"/>
	<path class="st1" d="M119.5,21.8c0,2.1-1.3,3.2-3.4,3.2c-1.5,0-2.4-0.5-2.7-0.9l0.7-0.9c0.4,0.4,1.1,0.8,2.1,0.8
		c1.5,0,2.1-0.7,2.1-2.2V21h-0.1c-0.3,0.2-0.9,0.6-2,0.6c-1.7,0-3.1-1-3.1-3.8c0-2.6,1.3-4.4,4-4.4c1,0,1.8,0.2,2.3,0.4V21.8z
		 M117,14.5c-1.6,0-2.6,1-2.6,3.2c0,2.3,1.1,3,2.2,3c0.6,0,1.3-0.3,1.7-0.8v-5.1C118,14.6,117.6,14.5,117,14.5z"/>
	<path class="st1" d="M132.5,21.7h-1.2v-5.4c0-1.2-0.6-1.9-1.8-1.9c-1,0-1.8,0.7-2.1,1.5v5.8h-1.2v-8.2h0.9l0.2,0.9h0.1
		c0.2-0.3,1.1-1,2.3-1c1.6,0,2.6,0.9,2.7,2.7V21.7z"/>
	<path class="st1" d="M154.3,18.2v-7h1.2V18c0,2.5-1.5,3.8-3.8,3.8c-2.4,0-3.6-1.4-3.6-3.6v-7h1.2V18c0,1.9,1,2.7,2.6,2.7
		C153.3,20.8,154.3,20.1,154.3,18.2z"/>
	<path class="st1" d="M164.9,21.7c-0.4,0-0.9,0-1.3-0.1v3h-1.2V13.5h0.9l0.3,0.8h0.1c0.4-0.5,1.1-1,2.1-1c1.9,0,3,1.2,3,3.9
		C168.7,20.1,167.2,21.7,164.9,21.7z M164.8,20.7c1.8,0,2.8-1.1,2.8-3.3c0-2.3-1-3-2.1-3c-1,0-1.6,0.6-1.9,1.1v5
		C163.9,20.6,164.5,20.7,164.8,20.7z"/>
</g>
</svg>
