<?xml version="1.0" encoding="utf-8"?>
<!-- Generator: Adobe Illustrator 27.0.0, SVG Export Plug-In . SVG Version: 6.00 Build 0)  -->
<svg version="1.1" id="Layer_1" xmlns="http://www.w3.org/2000/svg" xmlns:xlink="http://www.w3.org/1999/xlink" x="0px" y="0px"
	 viewBox="0 0 350 500" style="enable-background:new 0 0 350 500;" xml:space="preserve">
<style type="text/css">
	.st0{fill:#FFFFFF;}
</style>
<g>
	<path class="st0" d="M253,232.5H85.4c-6.6,0-12-5.4-12-12V120c0-6.6,5.4-12,12-12H253c6.6,0,12,5.4,12,12v100.5
		C265,227.1,259.6,232.5,253,232.5z"/>
	<path class="st0" d="M85.4,231.5c-6.1,0-11-4.9-11-11V120c0-6.1,4.9-11,11-11H253c6.1,0,11,4.9,11,11v100.5c0,6.1-4.9,11-11,11
		H85.4z"/>
	<path d="M253,233H85.4c-6.9,0-12.5-5.6-12.5-12.5V120c0-6.9,5.6-12.5,12.5-12.5H253c6.9,0,12.5,5.6,12.5,12.5v100.5
		C265.5,227.3,259.9,233,253,233z M85.4,108.5c-6.3,0-11.5,5.2-11.5,11.5v100.5c0,6.3,5.2,11.5,11.5,11.5H253
		c6.3,0,11.5-5.2,11.5-11.5V120c0-6.3-5.2-11.5-11.5-11.5H85.4z"/>
	<path d="M253,233H85.4c-6.9,0-12.5-5.6-12.5-12.5V120c0-6.9,5.6-12.5,12.5-12.5H253c6.9,0,12.5,5.6,12.5,12.5v100.5
		C265.5,227.3,259.9,233,253,233z M85.4,108.5c-6.3,0-11.5,5.2-11.5,11.5v100.5c0,6.3,5.2,11.5,11.5,11.5H253
		c6.3,0,11.5-5.2,11.5-11.5V120c0-6.3-5.2-11.5-11.5-11.5H85.4z"/>
</g>
</svg>
