<?xml version="1.0" encoding="utf-8"?>
<!-- Generator: Adobe Illustrator 27.0.0, SVG Export Plug-In . SVG Version: 6.00 Build 0)  -->
<svg version="1.1" id="Layer_1" xmlns="http://www.w3.org/2000/svg" xmlns:xlink="http://www.w3.org/1999/xlink" x="0px" y="0px"
	 viewBox="0 0 320 50" style="enable-background:new 0 0 320 50;" xml:space="preserve">
<style type="text/css">
	.st0{display:none;fill:#070911;}
	.st1{opacity:0.25;fill:#FFFFFF;}
	.st2{display:none;opacity:0.1;fill:#FFFFFF;}
	.st3{display:none;fill:none;stroke:#371A45;stroke-width:1.4;stroke-miterlimit:10;}
	.st4{fill:#FFFFFF;}
	.st5{fill:#371A45;}
	.st6{opacity:0.3;}
	.st7{opacity:0.35;}
	.st8{fill:#101928;}
	.st9{opacity:0.5;}
	.st10{fill:none;stroke:#371A45;stroke-width:1.4175;stroke-miterlimit:10;}
</style>
<rect class="st0" width="320" height="50"/>
<rect class="st1" width="320" height="50"/>
<rect class="st2" width="320" height="50"/>
<line class="st3" x1="0" y1="0.7" x2="320" y2="0.7"/>
<g>
	<g>
		<path class="st4" d="M12.6,27.8l0,11.6c0,0.9,0.7,1.6,1.6,1.6h14.2c0.9,0,1.6-0.7,1.6-1.6l0.5-11.6c0-0.9-0.6-1.6-1.5-1.7
			c-5.1-0.5-10.1-0.5-15.1,0C13.2,26.2,12.5,26.9,12.6,27.8z"/>
	</g>
	<g>
		<path class="st5" d="M28.4,41.3H14.2c-1.1,0-2-0.9-2-2l0-11.6c0-1,0.8-1.8,1.8-2c5.1-0.5,10.2-0.5,15.2,0c1,0.1,1.8,1,1.8,2
			l-0.5,11.6C30.3,40.5,29.5,41.3,28.4,41.3z M21.7,26.1c-2.5,0-5.1,0.1-7.6,0.4c-0.7,0.1-1.2,0.6-1.2,1.3l0,11.6
			c0,0.7,0.6,1.3,1.3,1.3h14.2c0.7,0,1.3-0.5,1.3-1.2l0.5-11.6c0-0.7-0.5-1.3-1.2-1.4C26.7,26.2,24.2,26.1,21.7,26.1z"/>
	</g>
	<g>
		<g>
			<g>
				<path d="M31.1,38c-3.2,2.1-9.9-1.3-9.9-1.3C16,39.3,11,38.8,11,34.2c0-1.2,0.3-2.2,0.8-3.2c0,0,0,0,0,0c1.4-2.7,4.3-4.2,4.3-4.2
					s5.3-2,9.7-0.7c0.6,0.2,1.2,0.4,1.8,0.7C32.3,29.3,34.2,35.9,31.1,38z"/>
			</g>
			<g>
				<path d="M28.3,39.1c-3,0-6.4-1.6-7.1-1.9c-1.7,0.8-3.3,1.3-4.8,1.4c-1.6,0.2-3-0.1-4-0.7c-1.2-0.7-1.8-2-1.8-3.7
					c0-2,0.9-4,2.7-5.7c1.3-1.3,2.6-2,2.6-2c0,0,0,0,0,0c0.1,0,1.8-0.7,4.1-1c2.2-0.3,5.3-0.4,7.7,1c1.5,0.8,2.7,2,3.7,3.5
					c0.9,1.4,1.4,3,1.5,4.4c0.1,1.7-0.5,3.1-1.7,3.9C30.4,38.9,29.4,39.1,28.3,39.1z M21.2,36.4c0.1,0,0.1,0,0.2,0
					c0.1,0,6.6,3.3,9.5,1.3c1-0.7,1.5-1.8,1.4-3.3c-0.1-2.4-1.8-5.7-4.8-7.3c-4.3-2.4-10.8-0.1-11.3,0c-0.3,0.2-4.9,2.9-4.9,7.1
					c0,1.4,0.5,2.5,1.5,3.1c1.8,1.1,4.9,0.8,8.3-0.8C21.1,36.4,21.2,36.4,21.2,36.4z"/>
			</g>
			<g>
				<path d="M21,36.5c1.1-0.6,2.1-1.1,3.2-1.7c1.1-0.5,2.2-1,3.4-1.4c0,0-0.2,0.4-0.2,0.4c-0.1-0.2-0.2-0.4-0.3-0.6
					c-0.7-0.9-1.9-1-2.9-0.7c-0.6,0.2-1.3,0.4-2,0.5c-1.6,0.4-3.2,0.6-4.8,0.7c-0.6,0-1.1,0-1.7-0.1c-0.1,0-0.2-0.2-0.2-0.3l0.1-2.5
					c0,0,0,0,0,0c0,0,0,0,0,0l0.4,2.5L15.7,33c1,0.1,2.1,0,3.1-0.1c1.1-0.1,2.1-0.3,3.1-0.6c0.8-0.2,1.6-0.4,2.3-0.6
					c1.2-0.3,2.5,0,3.3,1c0.2,0.2,0.3,0.4,0.4,0.7c0,0,0,0.1,0,0.1c0.1,0.2,0,0.4-0.2,0.4c-1.1,0.4-2.2,0.9-3.3,1.4
					c-1.1,0.5-2.1,1.1-3.2,1.7C21,37.2,20.7,36.7,21,36.5L21,36.5z"/>
			</g>
			<g>
				<path d="M27.7,33.3h0.4l-0.3,0.3c0-0.2,0-0.3,0.1-0.5c0-0.3,0.2-1.2,0.2-1.5c0-0.1,0.1-0.1,0.1,0c0,0.3,0.2,1.2,0.2,1.5
					c0,0.2,0.1,0.3,0.1,0.5c0,0.2-0.1,0.3-0.3,0.3c0,0-0.4,0-0.5,0C27.3,34,27.3,33.3,27.7,33.3L27.7,33.3z"/>
			</g>
			<g>
				<path d="M15.7,33.7C15.6,33.7,15.6,33.7,15.7,33.7c-0.3-0.1-0.4-0.3-0.3-0.4c0.2-0.7,0.6-1.1,1.1-1.4c0.9-0.4,2.1-0.1,3.9,0.9
					c0.2,0.1,0.2,0.3,0.1,0.4c-0.1,0.2-0.3,0.2-0.4,0.1c-1.6-0.8-2.7-1.1-3.4-0.9c-0.4,0.1-0.6,0.4-0.7,0.9
					C15.9,33.6,15.8,33.7,15.7,33.7z"/>
			</g>
			<g>
				<path d="M14.1,38.4c-0.1,0-0.2-0.1-0.3-0.2c-1.6-3.5,1.5-5.1,1.6-5.1c0.1-0.1,0.3,0,0.4,0.1c0.1,0.1,0,0.3-0.1,0.4
					C15.5,33.7,13,35,14.3,38c0.1,0.1,0,0.3-0.1,0.4C14.1,38.4,14.1,38.4,14.1,38.4z"/>
			</g>
			<g>
				<path d="M28.3,39c-0.1,0-0.2,0-0.2-0.1c-0.1-0.1-0.1-0.3,0.1-0.4c0.6-0.4,0.9-1,1-1.6c0.2-1.5-1.2-3.1-1.2-3.1
					c-0.1-0.1-0.1-0.3,0-0.4c0.1-0.1,0.3-0.1,0.4,0c0.1,0.1,1.5,1.8,1.3,3.5c-0.1,0.8-0.5,1.4-1.2,2C28.4,39,28.4,39,28.3,39z"/>
			</g>
			<g>
				<path d="M18.1,32.5C18.1,32.5,18.1,32.5,18.1,32.5c-0.2,0-0.4-0.2-0.3-0.4l0.2-1c0.1-0.4,0.5-0.8,0.9-0.8c1.9-0.1,4-0.1,6,0
					c0.5,0,0.9,0.4,0.9,0.9l0.1,0.7c0,0.2-0.1,0.3-0.3,0.4c-0.2,0-0.3-0.1-0.4-0.3l-0.1-0.7c0-0.2-0.1-0.3-0.3-0.3
					c-2-0.1-4-0.1-5.9,0c-0.2,0-0.3,0.1-0.3,0.3l-0.2,1C18.4,32.4,18.3,32.5,18.1,32.5z"/>
			</g>
			<g>
				<path d="M21.8,33.1c-0.1,0-0.2,0-0.2-0.1l-0.5-0.6c0-0.1-0.1-0.1-0.1-0.2v-1.5c0-0.2,0.1-0.3,0.3-0.3s0.3,0.1,0.3,0.3v1.4
					l0.4,0.5c0.1,0.1,0.1,0.3,0,0.4C22,33,21.9,33.1,21.8,33.1z"/>
			</g>
			<g>
				<path d="M22.9,32.8c-0.1,0-0.3-0.1-0.3-0.2c0,0,0-0.1,0-0.1c0-0.5,0.4-1,1-1c0.4,0,0.7,0.2,0.9,0.6c0.1,0.1,0,0.3-0.1,0.4
					c-0.1,0.1-0.3,0-0.4-0.1c-0.1-0.1-0.2-0.2-0.4-0.2c-0.2,0-0.4,0.2-0.4,0.4c0,0,0,0,0,0.1C23.2,32.6,23.1,32.8,22.9,32.8
					C22.9,32.8,22.9,32.8,22.9,32.8z"/>
			</g>
			<g>
				<path d="M31.1,38c-3.2,2.1-9.9-1.3-9.9-1.3C16,39.3,11,38.8,11,34.2c0-1.2,0.3-2.2,0.8-3.2c0,0,0,0,0,0c0.5-0.7,0.8-1.1,0.8-1.1
					s-1.2,3.3,0.6,5.3c1.8,2,6.6,1.3,9-0.3c2.4-1.5,4.5-0.9,4.5-0.9l-1.5,0.5c-0.1,2.1,3.9,1.4,3.9,1.4c2.5-0.9,1.3-5.1-1-6.8
					c-3.8,1.2-7.2,0.7-10.1-1.3l7.9-1.7c0.6,0.2,1.2,0.4,1.8,0.7C32.3,29.3,34.2,35.9,31.1,38z"/>
			</g>
			<g>
				<path d="M23.9,30.6c0,0,0.3,1.2-1.9,2c0,0,3.7-1.1,4.3-0.4c0.6,0.6,0.7,0.4,0.7,0.4s0.1-2.2-2.6-2.1"/>
			</g>
			<g>
				<path d="M17.3,31.9c0,0-1.6-0.5-1.9-2c0,0,0,2,0.4,3.1C15.8,33,16,31.8,17.3,31.9z"/>
			</g>
		</g>
		<g>
			<g>
				<path class="st4" d="M31.1,38c-3.2,2.1-9.9-1.3-9.9-1.3C16,39.3,11,38.8,11,34.2c0-1.2,0.3-2.2,0.8-3.2c0,0,0,0,0,0
					c1.4-2.7,4.3-4.2,4.3-4.2s5.3-2,9.7-0.7c0.6,0.2,1.2,0.4,1.8,0.7C32.3,29.3,34.2,35.9,31.1,38z"/>
			</g>
			<g>
				<path class="st5" d="M28.3,39.1c-3,0-6.4-1.6-7.1-1.9c-1.7,0.8-3.3,1.3-4.8,1.4c-1.6,0.2-3-0.1-4-0.7c-1.2-0.7-1.8-2-1.8-3.7
					c0-2,0.9-4,2.7-5.7c1.3-1.3,2.6-2,2.6-2c0,0,0,0,0,0c0.1,0,1.8-0.7,4.1-1c2.2-0.3,5.3-0.4,7.7,1c1.5,0.8,2.7,2,3.7,3.5
					c0.9,1.4,1.4,3,1.5,4.4c0.1,1.7-0.5,3.1-1.7,3.9C30.4,38.9,29.4,39.1,28.3,39.1z M21.2,36.4c0.1,0,0.1,0,0.2,0
					c0.1,0,6.6,3.3,9.5,1.3c1-0.7,1.5-1.8,1.4-3.3c-0.1-2.4-1.8-5.7-4.8-7.3c-4.3-2.4-10.8-0.1-11.3,0c-0.3,0.2-4.9,2.9-4.9,7.1
					c0,1.4,0.5,2.5,1.5,3.1c1.8,1.1,4.9,0.8,8.3-0.8C21.1,36.4,21.2,36.4,21.2,36.4z"/>
			</g>
			<g>
				<path class="st5" d="M21,36.5c1.1-0.6,2.1-1.1,3.2-1.7c1.1-0.5,2.2-1,3.4-1.4c0,0-0.2,0.4-0.2,0.4c-0.1-0.2-0.2-0.4-0.3-0.6
					c-0.7-0.9-1.9-1-2.9-0.7c-0.6,0.2-1.3,0.4-2,0.5c-1.6,0.4-3.2,0.6-4.8,0.7c-0.6,0-1.1,0-1.7-0.1c-0.1,0-0.2-0.2-0.2-0.3l0.1-2.5
					c0,0,0,0,0,0c0,0,0,0,0,0l0.4,2.5L15.7,33c1,0.1,2.1,0,3.1-0.1c1.1-0.1,2.1-0.3,3.1-0.6c0.8-0.2,1.6-0.4,2.3-0.6
					c1.2-0.3,2.5,0,3.3,1c0.2,0.2,0.3,0.4,0.4,0.7c0,0,0,0.1,0,0.1c0.1,0.2,0,0.4-0.2,0.4c-1.1,0.4-2.2,0.9-3.3,1.4
					c-1.1,0.5-2.1,1.1-3.2,1.7C21,37.2,20.7,36.7,21,36.5L21,36.5z"/>
			</g>
			<g>
				<path class="st5" d="M27.7,33.3h0.4l-0.3,0.3c0-0.2,0-0.3,0.1-0.5c0-0.3,0.2-1.2,0.2-1.5c0-0.1,0.1-0.1,0.1,0
					c0,0.3,0.2,1.2,0.2,1.5c0,0.2,0.1,0.3,0.1,0.5c0,0.2-0.1,0.3-0.3,0.3c0,0-0.4,0-0.5,0C27.3,34,27.3,33.3,27.7,33.3L27.7,33.3z"
					/>
			</g>
			<g>
				<path class="st5" d="M15.7,33.7C15.6,33.7,15.6,33.7,15.7,33.7c-0.3-0.1-0.4-0.3-0.3-0.4c0.2-0.7,0.6-1.1,1.1-1.4
					c0.9-0.4,2.1-0.1,3.9,0.9c0.2,0.1,0.2,0.3,0.1,0.4c-0.1,0.2-0.3,0.2-0.4,0.1c-1.6-0.8-2.7-1.1-3.4-0.9c-0.4,0.1-0.6,0.4-0.7,0.9
					C15.9,33.6,15.8,33.7,15.7,33.7z"/>
			</g>
			<g>
				<path class="st5" d="M14.1,38.4c-0.1,0-0.2-0.1-0.3-0.2c-1.6-3.5,1.5-5.1,1.6-5.1c0.1-0.1,0.3,0,0.4,0.1c0.1,0.1,0,0.3-0.1,0.4
					C15.5,33.7,13,35,14.3,38c0.1,0.1,0,0.3-0.1,0.4C14.1,38.4,14.1,38.4,14.1,38.4z"/>
			</g>
			<g>
				<path class="st5" d="M28.3,39c-0.1,0-0.2,0-0.2-0.1c-0.1-0.1-0.1-0.3,0.1-0.4c0.6-0.4,0.9-1,1-1.6c0.2-1.5-1.2-3.1-1.2-3.1
					c-0.1-0.1-0.1-0.3,0-0.4c0.1-0.1,0.3-0.1,0.4,0c0.1,0.1,1.5,1.8,1.3,3.5c-0.1,0.8-0.5,1.4-1.2,2C28.4,39,28.4,39,28.3,39z"/>
			</g>
			<g>
				<path class="st5" d="M18.1,32.5C18.1,32.5,18.1,32.5,18.1,32.5c-0.2,0-0.4-0.2-0.3-0.4l0.2-1c0.1-0.4,0.5-0.8,0.9-0.8
					c1.9-0.1,4-0.1,6,0c0.5,0,0.9,0.4,0.9,0.9l0.1,0.7c0,0.2-0.1,0.3-0.3,0.4c-0.2,0-0.3-0.1-0.4-0.3l-0.1-0.7
					c0-0.2-0.1-0.3-0.3-0.3c-2-0.1-4-0.1-5.9,0c-0.2,0-0.3,0.1-0.3,0.3l-0.2,1C18.4,32.4,18.3,32.5,18.1,32.5z"/>
			</g>
			<g>
				<path class="st5" d="M21.8,33.1c-0.1,0-0.2,0-0.2-0.1l-0.5-0.6c0-0.1-0.1-0.1-0.1-0.2v-1.5c0-0.2,0.1-0.3,0.3-0.3
					s0.3,0.1,0.3,0.3v1.4l0.4,0.5c0.1,0.1,0.1,0.3,0,0.4C22,33,21.9,33.1,21.8,33.1z"/>
			</g>
			<g>
				<path class="st5" d="M22.9,32.8c-0.1,0-0.3-0.1-0.3-0.2c0,0,0-0.1,0-0.1c0-0.5,0.4-1,1-1c0.4,0,0.7,0.2,0.9,0.6
					c0.1,0.1,0,0.3-0.1,0.4c-0.1,0.1-0.3,0-0.4-0.1c-0.1-0.1-0.2-0.2-0.4-0.2c-0.2,0-0.4,0.2-0.4,0.4c0,0,0,0,0,0.1
					C23.2,32.6,23.1,32.8,22.9,32.8C22.9,32.8,22.9,32.8,22.9,32.8z"/>
			</g>
			<g class="st6">
				<path class="st5" d="M31.1,38c-3.2,2.1-9.9-1.3-9.9-1.3C16,39.3,11,38.8,11,34.2c0-1.2,0.3-2.2,0.8-3.2c0,0,0,0,0,0
					c0.5-0.7,0.8-1.1,0.8-1.1s-1.2,3.3,0.6,5.3c1.8,2,6.6,1.3,9-0.3c2.4-1.5,4.5-0.9,4.5-0.9l-1.5,0.5c-0.1,2.1,3.9,1.4,3.9,1.4
					c2.5-0.9,1.3-5.1-1-6.8c-3.8,1.2-7.2,0.7-10.1-1.3l7.9-1.7c0.6,0.2,1.2,0.4,1.8,0.7C32.3,29.3,34.2,35.9,31.1,38z"/>
			</g>
			<g class="st6">
				<path class="st5" d="M23.9,30.6c0,0,0.3,1.2-1.9,2c0,0,3.7-1.1,4.3-0.4c0.6,0.6,0.7,0.4,0.7,0.4s0.1-2.2-2.6-2.1"/>
			</g>
			<g class="st6">
				<path class="st5" d="M17.3,31.9c0,0-1.6-0.5-1.9-2c0,0,0,2,0.4,3.1C15.8,33,16,31.8,17.3,31.9z"/>
			</g>
		</g>
	</g>
	<g>
		<g>
			<path class="st4" d="M12.6,22.3l-1.4-0.4c-0.8-0.2-1.3-0.9-1.5-1.7c-0.1-0.3-0.1-0.6-0.1-1c-0.1-0.8-0.1-1.7-0.1-2.4
				c0-0.7,0.4-1.3,1-1.7l1.3-0.9l0.3,3.2L12.6,22.3z"/>
		</g>
		<g class="st6">
			<path class="st5" d="M12.6,22.3l-1.4-0.4c-0.8-0.2-1.3-0.9-1.5-1.7c-0.1-0.3-0.1-0.6-0.1-1C10,19.1,11,19,11,18
				c0-0.5,0.5-0.7,1.2-0.6L12.6,22.3z"/>
		</g>
		<g>
			<path class="st5" d="M12.6,22.6C12.6,22.6,12.5,22.6,12.6,22.6l-1.5-0.4c-0.9-0.3-1.5-1-1.7-1.9c-0.2-1.1-0.3-2.4-0.2-3.4
				c0-0.8,0.5-1.5,1.1-2l1.3-0.9c0.2-0.1,0.4-0.1,0.5,0.1c0.1,0.2,0.1,0.4-0.1,0.5l-1.3,0.9c-0.5,0.3-0.8,0.9-0.8,1.4
				c0,1,0,2.2,0.2,3.3c0.1,0.7,0.6,1.2,1.2,1.4l1.4,0.4c0.2,0.1,0.3,0.2,0.2,0.4C12.9,22.5,12.7,22.6,12.6,22.6z"/>
		</g>
		<g>
			<path class="st4" d="M35,16.9c0,0.5,0,1.2,0,1.8c0,0.5-0.1,1.1-0.2,1.6c-0.1,0.8-0.7,1.5-1.5,1.7l-1.4,0.4l0.4-4.6l0.3-3.4
				l1.3,0.8C34.5,15.6,34.9,16.2,35,16.9z"/>
		</g>
		<g class="st6">
			<path class="st5" d="M34.9,18.7c0,0.5-0.1,1.1-0.2,1.6c-0.1,0.8-0.7,1.5-1.5,1.7l-1.4,0.4l0.4-4.6l1.1,0
				C33.4,17.7,34.1,19,34.9,18.7z"/>
		</g>
		<g>
			<path class="st5" d="M31.9,22.7c-0.1,0-0.3-0.1-0.3-0.2c-0.1-0.2,0-0.4,0.2-0.4l1.4-0.4c0.7-0.2,1.1-0.8,1.2-1.4
				c0.2-1.1,0.2-2.3,0.2-3.3c0-0.6-0.3-1.1-0.8-1.4l-1.3-0.8c-0.2-0.1-0.2-0.3-0.1-0.5c0.1-0.2,0.3-0.2,0.5-0.1l1.3,0.8
				c0.7,0.4,1.1,1.2,1.1,2c0.1,1,0,2.3-0.2,3.4c-0.1,0.9-0.8,1.7-1.7,2L32,22.7C32,22.7,32,22.7,31.9,22.7z"/>
		</g>
		<g>
			<g>
				<circle class="st4" cx="22.2" cy="17.4" r="11.2"/>
			</g>
			<g class="st6">
				<path class="st5" d="M33.4,16.9c0.3,6.2-4.5,11.4-10.7,11.7c-2.1,0.1-4.1-0.4-5.8-1.4c0.8,0.2,1.7,0.2,2.6,0.2
					c6.2-0.3,11-5.5,10.7-11.7c-0.2-4.1-2.5-7.5-5.8-9.4C29.3,7.4,33.2,11.6,33.4,16.9z"/>
			</g>
			<g>
				<path class="st5" d="M11.6,21.1c3.2,5.4,13.2,7.2,20.1,2.3c1.6-2.7,2.1-5.5,1.4-8.4c-3.9-6.3-15.4-8-21.4-1.5
					C10.8,15.9,10.7,18.5,11.6,21.1z"/>
			</g>
			<g class="st7">
				<path class="st8" d="M31.7,23.4c-6.9,4.9-16.9,3.1-20.1-2.3c-0.1-0.3-0.2-0.7-0.3-1c2.2,2.5,5.4,4.1,9,3.9
					c6.1-0.3,10.9-5.4,10.7-11.5c0.8,0.7,1.5,1.5,2.1,2.4C33.8,17.9,33.3,20.7,31.7,23.4z"/>
			</g>
			<g>
				<path class="st5" d="M22.2,28.9c-6.1,0-11.3-4.9-11.5-11.1c-0.3-6.4,4.7-11.7,11-12c6.4-0.3,11.7,4.7,12,11l0,0
					c0.3,6.4-4.7,11.7-11,12C22.5,28.9,22.3,28.9,22.2,28.9z M22.2,6.5c-0.2,0-0.3,0-0.5,0c-6,0.2-10.7,5.3-10.4,11.3
					c0.2,6,5.3,10.7,11.3,10.4c6-0.2,10.7-5.3,10.4-11.3C32.8,11.1,28,6.5,22.2,6.5z"/>
			</g>
			<g>
				<path class="st5" d="M22.5,26.5c-1.1,0-2.2-0.1-3.3-0.3c-3.5-0.7-6.3-2.5-7.8-5c-0.1-0.1,0-0.3,0.1-0.4c0.1-0.1,0.3,0,0.4,0.1
					c1.4,2.3,4.1,4,7.4,4.7c4.3,0.9,8.8,0,12.3-2.5c0.1-0.1,0.3-0.1,0.4,0.1c0.1,0.1,0.1,0.3-0.1,0.4C29.2,25.5,25.8,26.5,22.5,26.5
					z"/>
			</g>
			<g>
				<path class="st5" d="M32.3,12.8c-0.1,0-0.1,0-0.2-0.1c-2.4-2.7-5.8-4.3-9.7-4.4c-3.7-0.1-7.4,1.2-9.5,3.5
					c-0.1,0.1-0.3,0.1-0.4,0c-0.1-0.1-0.1-0.3,0-0.4c2.3-2.3,6.1-3.7,9.9-3.6c4,0.1,7.6,1.7,10.1,4.6c0.1,0.1,0.1,0.3,0,0.4
					C32.4,12.7,32.3,12.8,32.3,12.8z"/>
			</g>
			<g class="st9">
				<path class="st4" d="M13,19c-0.4-5.8,3.5-8.4,9.2-8.3c0.3,0,0.4,0.4,0.1,0.5c-3.4,1.7-6.9,4.8-8.8,7.9C13.3,19.4,13,19.3,13,19z
					"/>
			</g>
			<g class="st9">
				<path class="st4" d="M29,19.6c-0.3,0.4-0.6,0.7-1,1c-0.4,0.3-0.4,0.8-0.1,1.2l0,0c0.3,0.3,0.8,0.4,1.1,0.1
					c0.5-0.4,1-0.8,1.4-1.4c0.3-0.4,0.1-1-0.3-1.2l0,0C29.7,19.2,29.2,19.3,29,19.6z"/>
			</g>
			<g class="st9">
				
					<ellipse transform="matrix(0.9992 -4.120424e-02 4.120424e-02 0.9992 -0.9269 1.0759)" class="st4" cx="25.6" cy="23" rx="0.9" ry="0.7"/>
			</g>
		</g>
	</g>
</g>
<circle class="st10" cx="22.2" cy="24.7" r="20.2"/>
</svg>
