<?xml version="1.0" encoding="utf-8"?>
<!-- Generator: Adobe Illustrator 27.0.0, SVG Export Plug-In . SVG Version: 6.00 Build 0)  -->
<svg version="1.1" id="Layer_1" xmlns="http://www.w3.org/2000/svg" xmlns:xlink="http://www.w3.org/1999/xlink" x="0px" y="0px"
	 viewBox="0 0 320 50" style="enable-background:new 0 0 320 50;" xml:space="preserve">
<style type="text/css">
	.st0{display:none;fill:#070911;}
	.st1{opacity:0.25;fill:#FFFFFF;}
	.st2{display:none;opacity:0.1;fill:#FFFFFF;}
	.st3{display:none;fill:none;stroke:#371A45;stroke-width:1.4;stroke-miterlimit:10;}
	.st4{fill:#FFFFFF;}
	.st5{fill:#371A45;}
	.st6{opacity:0.3;}
	.st7{opacity:0.35;}
	.st8{fill:#101928;}
	.st9{opacity:0.5;}
	.st10{fill:none;stroke:#371A45;stroke-width:1.4175;stroke-miterlimit:10;}
	.st11{display:none;}
	.st12{display:inline;}
	.st13{fill:#C0C0C0;}
	.st14{fill:#000072;}
	.st15{display:inline;opacity:0.4;}
	.st16{display:inline;opacity:0.5;}
	.st17{fill:#E0F7FA;}
	.st18{display:inline;opacity:0.6;}
	.st19{fill:#FFBA0D;}
	.st20{display:inline;opacity:0.2;}
	.st21{display:inline;opacity:0.3;}
</style>
<rect id="Background" class="st0" width="320" height="50"/>
<rect id="Pressed" class="st1" width="320" height="50"/>
<rect id="Hover" class="st2" width="320" height="50"/>
<line id="Line" class="st3" x1="0" y1="0.7" x2="320" y2="0.7"/>
<g id="User">
	<g>
		<path class="st4" d="M13.7,28.7l0,10.2c0,0.8,0.6,1.4,1.4,1.4h12.5c0.8,0,1.4-0.6,1.4-1.4l0.5-10.2c0-0.8-0.5-1.4-1.3-1.5
			c-4.5-0.5-8.9-0.5-13.4,0C14.2,27.4,13.6,28,13.7,28.7z"/>
	</g>
	<g>
		<path class="st5" d="M27.7,40.6H15.1c-1,0-1.7-0.8-1.7-1.7l0-10.2c0-0.9,0.7-1.6,1.5-1.7c4.5-0.5,9-0.5,13.4,0
			c0.9,0.1,1.6,0.9,1.5,1.8L29.4,39C29.3,39.9,28.6,40.6,27.7,40.6z M21.7,27.2c-2.2,0-4.5,0.1-6.7,0.4c-0.6,0.1-1,0.6-1,1.1l0,10.2
			c0,0.6,0.5,1.1,1.1,1.1h12.5c0.6,0,1.1-0.5,1.1-1.1l0.5-10.2c0-0.6-0.4-1.1-1-1.2C26.1,27.3,23.9,27.2,21.7,27.2z"/>
	</g>
	<g>
		<g>
			<g>
				<path d="M30,37.7c-2.8,1.9-8.7-1.1-8.7-1.1c-4.6,2.2-9,1.8-9-2.3c0-1,0.3-2,0.7-2.8c0,0,0,0,0,0c1.3-2.4,3.8-3.7,3.8-3.7
					s4.7-1.7,8.6-0.6c0.6,0.2,1.1,0.4,1.6,0.6C31,30.1,32.8,35.8,30,37.7z"/>
			</g>
			<g>
				<path d="M27.6,38.6c-2.6,0-5.6-1.4-6.3-1.7c-1.5,0.7-2.9,1.1-4.2,1.3c-1.4,0.1-2.6-0.1-3.5-0.6c-1-0.7-1.6-1.8-1.6-3.2
					c0-1.8,0.8-3.5,2.3-5c1.1-1.1,2.3-1.7,2.3-1.8c0,0,0,0,0,0c0.1,0,1.6-0.6,3.6-0.9c1.9-0.3,4.6-0.3,6.8,0.9
					c1.3,0.7,2.4,1.8,3.2,3.1c0.8,1.2,1.2,2.6,1.3,3.9c0.1,1.5-0.5,2.7-1.5,3.4C29.4,38.5,28.5,38.6,27.6,38.6z M21.3,36.3
					c0,0,0.1,0,0.1,0c0.1,0,5.8,2.9,8.4,1.1c0.9-0.6,1.3-1.6,1.2-2.9c-0.1-2.1-1.6-5-4.2-6.5c-3.8-2.1-9.5-0.1-9.9,0
					c-0.3,0.2-4.3,2.5-4.3,6.3c0,1.3,0.4,2.2,1.3,2.7c1.6,1,4.3,0.7,7.3-0.7C21.2,36.3,21.2,36.3,21.3,36.3z"/>
			</g>
			<g>
				<path d="M21.1,36.3c0.9-0.5,1.9-1,2.8-1.5c1-0.5,1.9-0.9,3-1.3c0,0-0.2,0.4-0.2,0.4c-0.1-0.2-0.2-0.4-0.3-0.5
					c-0.6-0.8-1.7-0.9-2.6-0.6c-0.6,0.2-1.2,0.3-1.7,0.5c-1.4,0.3-2.8,0.6-4.3,0.6c-0.5,0-1,0-1.5-0.1c-0.1,0-0.2-0.1-0.2-0.3
					l0.1-2.2c0,0,0,0,0,0c0,0,0,0,0,0l0.4,2.2l-0.2-0.3c0.9,0.1,1.8,0,2.8-0.1c0.9-0.1,1.9-0.3,2.8-0.5c0.7-0.1,1.4-0.4,2.1-0.6
					c1.1-0.3,2.2,0,2.9,0.9c0.1,0.2,0.3,0.4,0.4,0.6c0,0,0,0.1,0,0.1c0.1,0.2,0,0.3-0.2,0.4c-1,0.3-1.9,0.8-2.9,1.2
					c-0.9,0.5-1.9,1-2.8,1.5C21.1,37,20.8,36.5,21.1,36.3L21.1,36.3z"/>
			</g>
			<g>
				<path d="M27,33.6h0.3l-0.3,0.3c0-0.1,0-0.3,0.1-0.4c0-0.3,0.1-1.1,0.2-1.3c0,0,0.1,0,0.1,0c0,0.3,0.1,1.1,0.2,1.3
					c0,0.1,0,0.3,0.1,0.4c0,0.1-0.1,0.3-0.2,0.3c0,0-0.4,0-0.4,0C26.6,34.2,26.6,33.6,27,33.6L27,33.6z"/>
			</g>
			<g>
				<path d="M16.4,33.9C16.4,33.9,16.3,33.9,16.4,33.9c-0.2-0.1-0.3-0.2-0.3-0.4c0.2-0.6,0.5-1,1-1.2c0.8-0.3,1.9-0.1,3.5,0.8
					c0.1,0.1,0.2,0.3,0.1,0.4c-0.1,0.1-0.3,0.2-0.4,0.1c-1.4-0.7-2.4-1-3-0.8c-0.3,0.1-0.5,0.4-0.7,0.8
					C16.6,33.8,16.5,33.9,16.4,33.9z"/>
			</g>
			<g>
				<path d="M15,38.1c-0.1,0-0.2-0.1-0.2-0.1c-1.4-3.1,1.4-4.5,1.4-4.5c0.1-0.1,0.3,0,0.3,0.1c0.1,0.1,0,0.3-0.1,0.3
					c-0.1,0.1-2.3,1.2-1.1,3.9c0.1,0.1,0,0.3-0.1,0.3C15.1,38.1,15,38.1,15,38.1z"/>
			</g>
			<g>
				<path d="M27.5,38.6c-0.1,0-0.2,0-0.2-0.1c-0.1-0.1-0.1-0.3,0-0.4c0.5-0.4,0.8-0.8,0.8-1.4c0.1-1.3-1-2.7-1.1-2.7
					c-0.1-0.1-0.1-0.3,0-0.4c0.1-0.1,0.3-0.1,0.4,0c0.1,0.1,1.3,1.6,1.2,3.1c-0.1,0.7-0.4,1.3-1,1.7C27.6,38.6,27.6,38.6,27.5,38.6z
					"/>
			</g>
			<g>
				<path d="M18.6,32.9C18.5,32.9,18.5,32.9,18.6,32.9c-0.2,0-0.3-0.2-0.3-0.3l0.2-0.9c0.1-0.4,0.4-0.7,0.8-0.7
					c1.7-0.1,3.5-0.1,5.3,0c0.4,0,0.8,0.4,0.8,0.8l0.1,0.6c0,0.2-0.1,0.3-0.3,0.3c-0.2,0-0.3-0.1-0.3-0.3l-0.1-0.6
					c0-0.1-0.1-0.3-0.3-0.3c-1.8-0.1-3.5-0.1-5.2,0c-0.1,0-0.2,0.1-0.3,0.2l-0.2,0.9C18.8,32.8,18.7,32.9,18.6,32.9z"/>
			</g>
			<g>
				<path d="M21.8,33.4c-0.1,0-0.1,0-0.2-0.1l-0.4-0.5c0,0-0.1-0.1-0.1-0.2v-1.3c0-0.1,0.1-0.3,0.3-0.3c0.1,0,0.3,0.1,0.3,0.3v1.2
					l0.4,0.4c0.1,0.1,0.1,0.3,0,0.4C21.9,33.3,21.9,33.4,21.8,33.4z"/>
			</g>
			<g>
				<path d="M22.8,33.1c-0.1,0-0.2-0.1-0.2-0.2c0,0,0-0.1,0-0.1c0-0.5,0.4-0.8,0.8-0.8c0.3,0,0.6,0.2,0.8,0.5c0.1,0.1,0,0.3-0.1,0.3
					c-0.1,0.1-0.3,0-0.3-0.1c-0.1-0.1-0.2-0.2-0.3-0.2c-0.2,0-0.3,0.2-0.3,0.3c0,0,0,0,0,0C23,33,22.9,33.1,22.8,33.1
					C22.8,33.1,22.8,33.1,22.8,33.1z"/>
			</g>
			<g>
				<path d="M30,37.7c-2.8,1.9-8.7-1.1-8.7-1.1c-4.6,2.2-9,1.8-9-2.3c0-1,0.3-2,0.7-2.8c0,0,0,0,0,0c0.4-0.6,0.7-1,0.7-1
					s-1,2.9,0.5,4.6c1.6,1.7,5.8,1.1,8-0.2c2.2-1.4,4-0.8,4-0.8l-1.3,0.4c-0.1,1.8,3.4,1.2,3.4,1.2c2.2-0.8,1.1-4.5-0.9-6
					c-3.3,1-6.3,0.6-8.9-1.2l6.9-1.5c0.6,0.2,1.1,0.4,1.6,0.6C31,30.1,32.8,35.8,30,37.7z"/>
			</g>
			<g>
				<path d="M23.6,31.2c0,0,0.2,1-1.7,1.8c0,0,3.3-1,3.8-0.4c0.5,0.6,0.6,0.4,0.6,0.4s0.1-2-2.3-1.8"/>
			</g>
			<g>
				<path d="M17.8,32.4c0,0-1.4-0.5-1.7-1.8c0,0,0,1.8,0.4,2.7C16.5,33.3,16.7,32.2,17.8,32.4z"/>
			</g>
		</g>
		<g>
			<g>
				<path class="st4" d="M30,37.7c-2.8,1.9-8.7-1.1-8.7-1.1c-4.6,2.2-9,1.8-9-2.3c0-1,0.3-2,0.7-2.8c0,0,0,0,0,0
					c1.3-2.4,3.8-3.7,3.8-3.7s4.7-1.7,8.6-0.6c0.6,0.2,1.1,0.4,1.6,0.6C31,30.1,32.8,35.8,30,37.7z"/>
			</g>
			<g>
				<path class="st5" d="M27.6,38.6c-2.6,0-5.6-1.4-6.3-1.7c-1.5,0.7-2.9,1.1-4.2,1.3c-1.4,0.1-2.6-0.1-3.5-0.6
					c-1-0.7-1.6-1.8-1.6-3.2c0-1.8,0.8-3.5,2.3-5c1.1-1.1,2.3-1.7,2.3-1.8c0,0,0,0,0,0c0.1,0,1.6-0.6,3.6-0.9
					c1.9-0.3,4.6-0.3,6.8,0.9c1.3,0.7,2.4,1.8,3.2,3.1c0.8,1.2,1.2,2.6,1.3,3.9c0.1,1.5-0.5,2.7-1.5,3.4
					C29.4,38.5,28.5,38.6,27.6,38.6z M21.3,36.3c0,0,0.1,0,0.1,0c0.1,0,5.8,2.9,8.4,1.1c0.9-0.6,1.3-1.6,1.2-2.9
					c-0.1-2.1-1.6-5-4.2-6.5c-3.8-2.1-9.5-0.1-9.9,0c-0.3,0.2-4.3,2.5-4.3,6.3c0,1.3,0.4,2.2,1.3,2.7c1.6,1,4.3,0.7,7.3-0.7
					C21.2,36.3,21.2,36.3,21.3,36.3z"/>
			</g>
			<g>
				<path class="st5" d="M21.1,36.3c0.9-0.5,1.9-1,2.8-1.5c1-0.5,1.9-0.9,3-1.3c0,0-0.2,0.4-0.2,0.4c-0.1-0.2-0.2-0.4-0.3-0.5
					c-0.6-0.8-1.7-0.9-2.6-0.6c-0.6,0.2-1.2,0.3-1.7,0.5c-1.4,0.3-2.8,0.6-4.3,0.6c-0.5,0-1,0-1.5-0.1c-0.1,0-0.2-0.1-0.2-0.3
					l0.1-2.2c0,0,0,0,0,0c0,0,0,0,0,0l0.4,2.2l-0.2-0.3c0.9,0.1,1.8,0,2.8-0.1c0.9-0.1,1.9-0.3,2.8-0.5c0.7-0.1,1.4-0.4,2.1-0.6
					c1.1-0.3,2.2,0,2.9,0.9c0.1,0.2,0.3,0.4,0.4,0.6c0,0,0,0.1,0,0.1c0.1,0.2,0,0.3-0.2,0.4c-1,0.3-1.9,0.8-2.9,1.2
					c-0.9,0.5-1.9,1-2.8,1.5C21.1,37,20.8,36.5,21.1,36.3L21.1,36.3z"/>
			</g>
			<g>
				<path class="st5" d="M27,33.6h0.3l-0.3,0.3c0-0.1,0-0.3,0.1-0.4c0-0.3,0.1-1.1,0.2-1.3c0,0,0.1,0,0.1,0c0,0.3,0.1,1.1,0.2,1.3
					c0,0.1,0,0.3,0.1,0.4c0,0.1-0.1,0.3-0.2,0.3c0,0-0.4,0-0.4,0C26.6,34.2,26.6,33.6,27,33.6L27,33.6z"/>
			</g>
			<g>
				<path class="st5" d="M16.4,33.9C16.4,33.9,16.3,33.9,16.4,33.9c-0.2-0.1-0.3-0.2-0.3-0.4c0.2-0.6,0.5-1,1-1.2
					c0.8-0.3,1.9-0.1,3.5,0.8c0.1,0.1,0.2,0.3,0.1,0.4c-0.1,0.1-0.3,0.2-0.4,0.1c-1.4-0.7-2.4-1-3-0.8c-0.3,0.1-0.5,0.4-0.7,0.8
					C16.6,33.8,16.5,33.9,16.4,33.9z"/>
			</g>
			<g>
				<path class="st5" d="M15,38.1c-0.1,0-0.2-0.1-0.2-0.1c-1.4-3.1,1.4-4.5,1.4-4.5c0.1-0.1,0.3,0,0.3,0.1c0.1,0.1,0,0.3-0.1,0.3
					c-0.1,0.1-2.3,1.2-1.1,3.9c0.1,0.1,0,0.3-0.1,0.3C15.1,38.1,15,38.1,15,38.1z"/>
			</g>
			<g>
				<path class="st5" d="M27.5,38.6c-0.1,0-0.2,0-0.2-0.1c-0.1-0.1-0.1-0.3,0-0.4c0.5-0.4,0.8-0.8,0.8-1.4c0.1-1.3-1-2.7-1.1-2.7
					c-0.1-0.1-0.1-0.3,0-0.4c0.1-0.1,0.3-0.1,0.4,0c0.1,0.1,1.3,1.6,1.2,3.1c-0.1,0.7-0.4,1.3-1,1.7C27.6,38.6,27.6,38.6,27.5,38.6z
					"/>
			</g>
			<g>
				<path class="st5" d="M18.6,32.9C18.5,32.9,18.5,32.9,18.6,32.9c-0.2,0-0.3-0.2-0.3-0.3l0.2-0.9c0.1-0.4,0.4-0.7,0.8-0.7
					c1.7-0.1,3.5-0.1,5.3,0c0.4,0,0.8,0.4,0.8,0.8l0.1,0.6c0,0.2-0.1,0.3-0.3,0.3c-0.2,0-0.3-0.1-0.3-0.3l-0.1-0.6
					c0-0.1-0.1-0.3-0.3-0.3c-1.8-0.1-3.5-0.1-5.2,0c-0.1,0-0.2,0.1-0.3,0.2l-0.2,0.9C18.8,32.8,18.7,32.9,18.6,32.9z"/>
			</g>
			<g>
				<path class="st5" d="M21.8,33.4c-0.1,0-0.1,0-0.2-0.1l-0.4-0.5c0,0-0.1-0.1-0.1-0.2v-1.3c0-0.1,0.1-0.3,0.3-0.3
					c0.1,0,0.3,0.1,0.3,0.3v1.2l0.4,0.4c0.1,0.1,0.1,0.3,0,0.4C21.9,33.3,21.9,33.4,21.8,33.4z"/>
			</g>
			<g>
				<path class="st5" d="M22.8,33.1c-0.1,0-0.2-0.1-0.2-0.2c0,0,0-0.1,0-0.1c0-0.5,0.4-0.8,0.8-0.8c0.3,0,0.6,0.2,0.8,0.5
					c0.1,0.1,0,0.3-0.1,0.3c-0.1,0.1-0.3,0-0.3-0.1c-0.1-0.1-0.2-0.2-0.3-0.2c-0.2,0-0.3,0.2-0.3,0.3c0,0,0,0,0,0
					C23,33,22.9,33.1,22.8,33.1C22.8,33.1,22.8,33.1,22.8,33.1z"/>
			</g>
			<g class="st6">
				<path class="st5" d="M30,37.7c-2.8,1.9-8.7-1.1-8.7-1.1c-4.6,2.2-9,1.8-9-2.3c0-1,0.3-2,0.7-2.8c0,0,0,0,0,0
					c0.4-0.6,0.7-1,0.7-1s-1,2.9,0.5,4.6c1.6,1.7,5.8,1.1,8-0.2c2.2-1.4,4-0.8,4-0.8l-1.3,0.4c-0.1,1.8,3.4,1.2,3.4,1.2
					c2.2-0.8,1.1-4.5-0.9-6c-3.3,1-6.3,0.6-8.9-1.2l6.9-1.5c0.6,0.2,1.1,0.4,1.6,0.6C31,30.1,32.8,35.8,30,37.7z"/>
			</g>
			<g class="st6">
				<path class="st5" d="M23.6,31.2c0,0,0.2,1-1.7,1.8c0,0,3.3-1,3.8-0.4c0.5,0.6,0.6,0.4,0.6,0.4s0.1-2-2.3-1.8"/>
			</g>
			<g class="st6">
				<path class="st5" d="M17.8,32.4c0,0-1.4-0.5-1.7-1.8c0,0,0,1.8,0.4,2.7C16.5,33.3,16.7,32.2,17.8,32.4z"/>
			</g>
		</g>
	</g>
	<g>
		<g>
			<path class="st4" d="M13.7,23.8l-1.2-0.4c-0.7-0.2-1.2-0.8-1.3-1.5c0-0.3-0.1-0.6-0.1-0.9C11,20.4,11,19.6,11,19
				c0-0.6,0.3-1.2,0.9-1.5l1.2-0.8l0.3,2.8L13.7,23.8z"/>
		</g>
		<g class="st6">
			<path class="st5" d="M13.7,23.8l-1.2-0.4c-0.7-0.2-1.2-0.8-1.3-1.5c0-0.3-0.1-0.6-0.1-0.9c0.4,0,1.2-0.2,1.2-1
				c0-0.4,0.5-0.6,1-0.5L13.7,23.8z"/>
		</g>
		<g>
			<path class="st5" d="M13.7,24.1C13.7,24.1,13.6,24.1,13.7,24.1l-1.3-0.4c-0.8-0.2-1.4-0.9-1.5-1.7c-0.2-1-0.2-2.1-0.2-3
				c0-0.7,0.4-1.4,1-1.7l1.2-0.8c0.1-0.1,0.3,0,0.4,0.1c0.1,0.1,0,0.3-0.1,0.4L12,17.8c-0.4,0.3-0.7,0.8-0.7,1.3c0,0.9,0,2,0.2,2.9
				c0.1,0.6,0.5,1.1,1.1,1.3l1.2,0.4c0.2,0,0.2,0.2,0.2,0.4C13.9,24,13.8,24.1,13.7,24.1z"/>
		</g>
		<g>
			<path class="st4" d="M33.4,19.1c0,0.5,0,1,0,1.6c0,0.5-0.1,1-0.1,1.4c-0.1,0.7-0.6,1.3-1.3,1.5L30.7,24l0.3-4.1l0.3-3l1.2,0.7
				C33,17.9,33.4,18.5,33.4,19.1z"/>
		</g>
		<g class="st6">
			<path class="st5" d="M33.4,20.7c0,0.5-0.1,1-0.1,1.4c-0.1,0.7-0.6,1.3-1.3,1.5L30.7,24l0.3-4.1l0.9,0
				C32,19.8,32.6,20.9,33.4,20.7z"/>
		</g>
		<g>
			<path class="st5" d="M30.7,24.2c-0.1,0-0.2-0.1-0.3-0.2c0-0.2,0-0.3,0.2-0.4l1.2-0.4c0.6-0.2,1-0.7,1.1-1.3
				c0.1-0.9,0.2-2,0.2-2.9c0-0.5-0.3-1-0.7-1.3l-1.2-0.7c-0.1-0.1-0.2-0.3-0.1-0.4c0.1-0.1,0.3-0.2,0.4-0.1l1.2,0.7
				c0.6,0.4,1,1,1,1.7c0,0.9,0,2.1-0.2,3c-0.1,0.8-0.7,1.5-1.5,1.7L30.7,24.2C30.8,24.2,30.8,24.2,30.7,24.2z"/>
		</g>
		<g>
			<g>
				<circle class="st4" cx="22.1" cy="19.6" r="9.9"/>
			</g>
			<g class="st6">
				<path class="st5" d="M32,19.1c0.2,5.4-4,10-9.5,10.3c-1.9,0.1-3.6-0.4-5.1-1.2c0.7,0.1,1.5,0.2,2.3,0.2
					c5.4-0.2,9.7-4.8,9.5-10.3C29,14.5,27,11.5,24,9.9C28.4,10.7,31.8,14.5,32,19.1z"/>
			</g>
			<g>
				<path class="st5" d="M12.8,22.8c2.8,4.8,11.6,6.4,17.7,2c1.4-2.4,1.9-4.8,1.3-7.4c-3.4-5.6-13.5-7.1-18.9-1.3
					C12.1,18.3,12,20.5,12.8,22.8z"/>
			</g>
			<g class="st7">
				<path class="st8" d="M30.5,24.8c-6.1,4.4-14.9,2.7-17.7-2c-0.1-0.3-0.2-0.6-0.3-0.9c1.9,2.2,4.8,3.6,7.9,3.5
					c5.4-0.2,9.6-4.7,9.5-10.1c0.7,0.6,1.3,1.3,1.8,2.1C32.4,20,31.9,22.4,30.5,24.8z"/>
			</g>
			<g>
				<path class="st5" d="M22.1,29.7c-5.4,0-9.9-4.3-10.2-9.7c-0.2-5.6,4.1-10.3,9.7-10.6c5.6-0.2,10.3,4.1,10.6,9.7l0,0
					c0.2,5.6-4.1,10.3-9.7,10.6C22.4,29.7,22.3,29.7,22.1,29.7z M22.2,10c-0.1,0-0.3,0-0.4,0c-5.3,0.2-9.4,4.7-9.2,10
					c0.2,5.3,4.7,9.4,10,9.2c5.3-0.2,9.4-4.7,9.2-10C31.5,14,27.3,10,22.2,10z"/>
			</g>
			<g>
				<path class="st5" d="M22.4,27.6c-1,0-2-0.1-2.9-0.3c-3.1-0.6-5.6-2.2-6.9-4.4c-0.1-0.1,0-0.3,0.1-0.4c0.1-0.1,0.3,0,0.4,0.1
					c1.2,2,3.6,3.5,6.5,4.1c3.8,0.8,7.8,0,10.8-2.2c0.1-0.1,0.3-0.1,0.4,0.1c0.1,0.1,0.1,0.3-0.1,0.4C28.3,26.7,25.4,27.6,22.4,27.6
					z"/>
			</g>
			<g>
				<path class="st5" d="M31,15.5c-0.1,0-0.1,0-0.2-0.1c-2.1-2.4-5.2-3.8-8.6-3.9c-3.3-0.1-6.5,1.1-8.4,3.1c-0.1,0.1-0.2,0.1-0.3,0
					c-0.1-0.1-0.1-0.2,0-0.3c2-2.1,5.3-3.3,8.7-3.2c3.5,0.1,6.7,1.5,8.9,4c0.1,0.1,0.1,0.2,0,0.3C31.1,15.4,31.1,15.5,31,15.5z"/>
			</g>
			<g class="st9">
				<path class="st4" d="M14,21c-0.3-5.1,3.1-7.4,8.1-7.3c0.3,0,0.4,0.4,0.1,0.5c-3,1.5-6.1,4.2-7.7,7C14.4,21.3,14,21.3,14,21z"/>
			</g>
			<g class="st9">
				<path class="st4" d="M28.1,21.5c-0.2,0.3-0.5,0.6-0.9,0.9c-0.3,0.3-0.4,0.7-0.1,1.1l0,0c0.2,0.3,0.7,0.3,1,0.1
					c0.4-0.3,0.9-0.7,1.2-1.2c0.2-0.4,0.1-0.8-0.3-1.1l0,0C28.7,21.1,28.3,21.2,28.1,21.5z"/>
			</g>
			<g class="st9">
				
					<ellipse transform="matrix(0.9992 -4.120424e-02 4.120424e-02 0.9992 -0.9885 1.0586)" class="st4" cx="25.2" cy="24.5" rx="0.8" ry="0.7"/>
			</g>
		</g>
	</g>
</g>
<circle class="st10" cx="22.2" cy="24.7" r="20.2"/>
<g id="Group_00000008848369196130551000000017687757733144250510_" class="st11">
	<g class="st12">
		<path class="st4" d="M25.6,27.9l0,7.3c0,0.6,0.5,1,1,1h9c0.5,0,1-0.4,1-1L37,28c0-0.5-0.4-1-0.9-1.1c-3.2-0.3-6.4-0.3-9.5,0
			C26,27,25.6,27.4,25.6,27.9z"/>
	</g>
	<g class="st12">
		<path class="st5" d="M35.6,36.4h-9c-0.7,0-1.2-0.6-1.2-1.2l0-7.3c0-0.6,0.5-1.2,1.1-1.2c3.2-0.3,6.4-0.3,9.6,0
			c0.7,0.1,1.1,0.6,1.1,1.3l-0.3,7.3C36.8,35.9,36.3,36.4,35.6,36.4z M31.4,26.9c-1.6,0-3.2,0.1-4.8,0.3c-0.4,0-0.7,0.4-0.7,0.8
			l0,7.3c0,0.4,0.4,0.8,0.8,0.8h9c0.4,0,0.8-0.3,0.8-0.8l0.3-7.3c0-0.4-0.3-0.8-0.7-0.9C34.5,26.9,32.9,26.9,31.4,26.9z"/>
	</g>
	<g class="st12">
		<g>
			<path class="st4" d="M37.3,34.4c-2,1.4-6.2-0.8-6.2-0.8c-3.3,1.6-6.4,1.3-6.4-1.6c0-0.7,0.2-1.4,0.5-2c0,0,0,0,0,0
				c0.9-1.7,2.7-2.7,2.7-2.7s3.4-1.2,6.1-0.5c0.4,0.1,0.8,0.3,1.1,0.5C38,28.9,39.3,33,37.3,34.4z"/>
		</g>
		<g>
			<path class="st5" d="M35.6,35c-1.9,0-4-1-4.5-1.2c-1,0.5-2.1,0.8-3,0.9c-1,0.1-1.9,0-2.5-0.4c-0.7-0.5-1.1-1.3-1.1-2.3
				c0-1.3,0.6-2.5,1.7-3.6c0.8-0.8,1.6-1.3,1.7-1.3c0,0,0,0,0,0c0,0,1.1-0.4,2.6-0.6c1.4-0.2,3.3-0.2,4.9,0.6
				c0.9,0.5,1.7,1.3,2.3,2.2c0.6,0.9,0.9,1.9,0.9,2.8c0,1.1-0.3,2-1.1,2.5C36.9,34.9,36.2,35,35.6,35z M31.1,33.4
				C31.1,33.4,31.1,33.4,31.1,33.4c0.1,0,4.2,2.1,6.1,0.8c0.6-0.4,0.9-1.2,0.9-2.1c-0.1-1.5-1.1-3.6-3-4.6c-2.7-1.5-6.8-0.1-7.1,0
				c-0.2,0.1-3.1,1.8-3.1,4.5c0,0.9,0.3,1.6,0.9,2C26.9,34.6,28.9,34.4,31.1,33.4C31,33.4,31,33.4,31.1,33.4z"/>
		</g>
		<g>
			<path class="st5" d="M31,33.4c0.7-0.4,1.3-0.7,2-1.1c0.7-0.3,1.4-0.7,2.1-0.9c0,0-0.1,0.3-0.1,0.3c-0.1-0.1-0.1-0.3-0.2-0.4
				c-0.4-0.6-1.2-0.6-1.9-0.4c-0.4,0.1-0.8,0.2-1.2,0.3c-1,0.2-2,0.4-3.1,0.4c-0.4,0-0.7,0-1.1-0.1c-0.1,0-0.1-0.1-0.1-0.2l0.1-1.6
				c0,0,0,0,0,0c0,0,0,0,0,0l0.3,1.6l-0.2-0.2c0.6,0.1,1.3,0,2,0c0.7-0.1,1.3-0.2,2-0.4c0.5-0.1,1-0.3,1.5-0.4c0.8-0.2,1.6,0,2,0.6
				c0.1,0.1,0.2,0.3,0.3,0.4c0,0,0,0,0,0.1c0,0.1,0,0.2-0.1,0.3c-0.7,0.2-1.4,0.6-2.1,0.9c-0.7,0.3-1.3,0.7-2,1
				C30.9,33.9,30.7,33.5,31,33.4L31,33.4z"/>
		</g>
		<g>
			<path class="st5" d="M35.2,31.4h0.2l-0.2,0.2c0-0.1,0-0.2,0-0.3c0-0.2,0.1-0.8,0.1-1c0,0,0.1,0,0.1,0c0,0.2,0.1,0.8,0.1,1
				c0,0.1,0,0.2,0,0.3c0,0.1-0.1,0.2-0.2,0.2c0,0-0.3,0-0.3,0C34.9,31.8,34.9,31.4,35.2,31.4L35.2,31.4z"/>
		</g>
		<g>
			<path class="st5" d="M27.6,31.6C27.6,31.6,27.5,31.6,27.6,31.6c-0.2,0-0.2-0.2-0.2-0.3c0.1-0.4,0.4-0.7,0.7-0.9
				c0.6-0.2,1.4-0.1,2.5,0.6c0.1,0.1,0.1,0.2,0.1,0.3c-0.1,0.1-0.2,0.1-0.3,0.1c-1-0.5-1.7-0.7-2.1-0.5c-0.2,0.1-0.4,0.3-0.5,0.6
				C27.8,31.6,27.7,31.6,27.6,31.6z"/>
		</g>
		<g>
			<path class="st5" d="M26.6,34.6c-0.1,0-0.1,0-0.2-0.1c-1-2.2,1-3.2,1-3.2c0.1,0,0.2,0,0.2,0.1c0,0.1,0,0.2-0.1,0.2
				c-0.1,0-1.7,0.9-0.8,2.8C26.8,34.5,26.7,34.6,26.6,34.6C26.6,34.6,26.6,34.6,26.6,34.6z"/>
		</g>
		<g>
			<path class="st5" d="M35.5,35c-0.1,0-0.1,0-0.1-0.1c-0.1-0.1,0-0.2,0-0.3c0.4-0.3,0.6-0.6,0.6-1c0.1-0.9-0.7-1.9-0.8-1.9
				c-0.1-0.1-0.1-0.2,0-0.3c0.1-0.1,0.2-0.1,0.3,0c0,0,1,1.1,0.8,2.2c-0.1,0.5-0.3,0.9-0.7,1.2C35.6,35,35.6,35,35.5,35z"/>
		</g>
		<g>
			<path class="st5" d="M29.1,30.9C29.1,30.9,29.1,30.9,29.1,30.9c-0.2,0-0.2-0.1-0.2-0.2L29,30c0.1-0.3,0.3-0.5,0.6-0.5
				c1.2-0.1,2.5-0.1,3.8,0c0.3,0,0.6,0.3,0.6,0.6l0,0.5c0,0.1-0.1,0.2-0.2,0.2c-0.1,0-0.2-0.1-0.2-0.2l0-0.5c0-0.1-0.1-0.2-0.2-0.2
				c-1.3-0.1-2.5-0.1-3.7,0c-0.1,0-0.2,0.1-0.2,0.2l-0.1,0.6C29.3,30.8,29.2,30.9,29.1,30.9z"/>
		</g>
		<g>
			<path class="st5" d="M31.5,31.2c-0.1,0-0.1,0-0.1-0.1L31,30.8c0,0,0-0.1,0-0.1v-0.9c0-0.1,0.1-0.2,0.2-0.2c0.1,0,0.2,0.1,0.2,0.2
				v0.9l0.3,0.3c0.1,0.1,0.1,0.2,0,0.3C31.6,31.2,31.5,31.2,31.5,31.2z"/>
		</g>
		<g>
			<path class="st5" d="M32.1,31.1C32,31.1,32,31,32,30.9c0,0,0-0.1,0-0.1c0-0.3,0.3-0.6,0.6-0.6c0.2,0,0.5,0.1,0.5,0.4
				c0,0.1,0,0.2-0.1,0.2c-0.1,0-0.2,0-0.2-0.1c0-0.1-0.1-0.1-0.2-0.1c-0.1,0-0.2,0.1-0.2,0.2c0,0,0,0,0,0
				C32.3,31,32.3,31.1,32.1,31.1C32.2,31.1,32.1,31.1,32.1,31.1z"/>
		</g>
		<g class="st6">
			<path class="st5" d="M37.3,34.4c-2,1.4-6.2-0.8-6.2-0.8c-3.3,1.6-6.4,1.3-6.4-1.6c0-0.7,0.2-1.4,0.5-2c0,0,0,0,0,0
				c0.3-0.4,0.5-0.7,0.5-0.7s-0.7,2.1,0.4,3.3c1.1,1.2,4.1,0.8,5.7-0.2c1.5-1,2.8-0.6,2.8-0.6l-0.9,0.3c-0.1,1.3,2.4,0.9,2.4,0.9
				c1.6-0.6,0.8-3.2-0.7-4.3c-2.4,0.7-4.5,0.4-6.4-0.8l5-1.1c0.4,0.1,0.8,0.3,1.1,0.5C38,28.9,39.3,33,37.3,34.4z"/>
		</g>
		<g class="st6">
			<path class="st5" d="M32.8,29.7c0,0,0.2,0.7-1.2,1.3c0,0,2.3-0.7,2.7-0.3c0.4,0.4,0.4,0.3,0.4,0.3s0-1.4-1.7-1.3"/>
		</g>
		<g class="st6">
			<path class="st5" d="M28.6,30.5c0,0-1-0.3-1.2-1.3c0,0,0,1.3,0.3,2C27.7,31.2,27.8,30.4,28.6,30.5z"/>
		</g>
	</g>
	<g class="st12">
		<g>
			<path class="st4" d="M25.7,24.4l-0.9-0.3c-0.5-0.1-0.8-0.6-0.9-1.1c0-0.2-0.1-0.4-0.1-0.6c-0.1-0.5-0.1-1.1-0.1-1.5
				c0-0.4,0.2-0.8,0.6-1.1l0.8-0.5l0.2,2L25.7,24.4z"/>
		</g>
		<g class="st6">
			<path class="st5" d="M25.7,24.4l-0.9-0.3c-0.5-0.1-0.8-0.6-0.9-1.1c0-0.2-0.1-0.4-0.1-0.6c0.3,0,0.8-0.1,0.9-0.7
				c0-0.3,0.3-0.4,0.7-0.4L25.7,24.4z"/>
		</g>
		<g>
			<path class="st5" d="M25.7,24.7C25.6,24.7,25.6,24.7,25.7,24.7l-0.9-0.3c-0.6-0.2-1-0.6-1.1-1.2c-0.1-0.7-0.2-1.5-0.1-2.2
				c0-0.5,0.3-1,0.7-1.2l0.8-0.5c0.1-0.1,0.2,0,0.3,0.1c0.1,0.1,0,0.2-0.1,0.3l-0.8,0.5c-0.3,0.2-0.5,0.5-0.5,0.9
				c0,0.6,0,1.4,0.1,2.1c0.1,0.4,0.4,0.8,0.8,0.9l0.9,0.3c0.1,0,0.2,0.2,0.1,0.3C25.8,24.6,25.7,24.7,25.7,24.7z"/>
		</g>
		<g>
			<path class="st4" d="M39.7,21.1c0,0.3,0,0.7,0,1.1c0,0.3-0.1,0.7-0.1,1c-0.1,0.5-0.4,0.9-0.9,1.1l-0.9,0.3l0.2-2.9l0.2-2.2
				l0.8,0.5C39.5,20.2,39.7,20.6,39.7,21.1z"/>
		</g>
		<g class="st6">
			<path class="st5" d="M39.7,22.2c0,0.3-0.1,0.7-0.1,1c-0.1,0.5-0.4,0.9-0.9,1.1l-0.9,0.3l0.2-2.9l0.7,0
				C38.8,21.6,39.2,22.4,39.7,22.2z"/>
		</g>
		<g>
			<path class="st5" d="M37.8,24.7c-0.1,0-0.2-0.1-0.2-0.1c0-0.1,0-0.2,0.1-0.3l0.9-0.3c0.4-0.1,0.7-0.5,0.8-0.9
				c0.1-0.7,0.1-1.4,0.1-2.1c0-0.4-0.2-0.7-0.5-0.9l-0.8-0.5c-0.1-0.1-0.1-0.2-0.1-0.3c0.1-0.1,0.2-0.1,0.3-0.1l0.8,0.5
				c0.4,0.3,0.7,0.7,0.7,1.2c0,0.7,0,1.5-0.1,2.2c-0.1,0.6-0.5,1.1-1.1,1.2L37.8,24.7C37.9,24.7,37.9,24.7,37.8,24.7z"/>
		</g>
		<g>
			<g>
				<circle class="st4" cx="31.7" cy="21.4" r="7.1"/>
			</g>
			<g class="st6">
				<path class="st5" d="M38.7,21.1c0.2,3.9-2.9,7.2-6.8,7.3c-1.3,0.1-2.6-0.3-3.7-0.9c0.5,0.1,1.1,0.1,1.6,0.1
					c3.9-0.2,6.9-3.4,6.8-7.3c-0.1-2.6-1.6-4.7-3.7-5.9C36.2,15.1,38.6,17.8,38.7,21.1z"/>
			</g>
			<g>
				<path class="st5" d="M25,23.7c2,3.4,8.3,4.6,12.6,1.4c1-1.7,1.3-3.4,0.9-5.3c-2.4-4-9.7-5.1-13.5-0.9
					C24.5,20.5,24.5,22.1,25,23.7z"/>
			</g>
			<g class="st7">
				<path class="st8" d="M37.7,25.1c-4.3,3.1-10.6,2-12.6-1.4c-0.1-0.2-0.1-0.4-0.2-0.6c1.4,1.6,3.4,2.6,5.7,2.5
					c3.9-0.2,6.9-3.4,6.8-7.2c0.5,0.4,1,1,1.3,1.5C39,21.7,38.7,23.4,37.7,25.1z"/>
			</g>
			<g>
				<path class="st5" d="M31.7,28.6c-3.9,0-7.1-3.1-7.3-7c-0.2-4,3-7.4,7-7.6c4-0.2,7.4,3,7.6,7l0,0c0.2,4-3,7.4-7,7.6
					C31.9,28.6,31.8,28.6,31.7,28.6z M31.7,14.5c-0.1,0-0.2,0-0.3,0c-3.8,0.2-6.7,3.4-6.6,7.1c0.2,3.8,3.4,6.7,7.1,6.6
					c3.8-0.2,6.7-3.4,6.6-7.1C38.4,17.4,35.3,14.5,31.7,14.5z"/>
			</g>
			<g>
				<path class="st5" d="M31.9,27.1c-0.7,0-1.4-0.1-2.1-0.2c-2.2-0.5-4-1.6-4.9-3.1c-0.1-0.1,0-0.2,0.1-0.3c0.1-0.1,0.2,0,0.3,0.1
					c0.9,1.4,2.6,2.5,4.7,3c2.7,0.6,5.6,0,7.7-1.6c0.1-0.1,0.2,0,0.3,0c0.1,0.1,0,0.2,0,0.3C36.1,26.5,34,27.1,31.9,27.1z"/>
			</g>
			<g>
				<path class="st5" d="M38,18.5c0,0-0.1,0-0.1-0.1c-1.5-1.7-3.7-2.7-6.1-2.8c-2.3-0.1-4.6,0.8-6,2.2c-0.1,0.1-0.2,0.1-0.2,0
					c-0.1-0.1-0.1-0.2,0-0.2c1.4-1.5,3.8-2.3,6.2-2.3c2.5,0.1,4.8,1.1,6.3,2.9c0.1,0.1,0.1,0.2,0,0.2C38.1,18.4,38.1,18.5,38,18.5z"
					/>
			</g>
			<g class="st9">
				<path class="st4" d="M25.9,22.4c-0.2-3.6,2.2-5.3,5.8-5.2c0.2,0,0.3,0.3,0.1,0.3c-2.2,1.1-4.3,3-5.5,5
					C26.1,22.7,25.9,22.6,25.9,22.4z"/>
			</g>
			<g class="st9">
				<path class="st4" d="M36,22.8c-0.2,0.2-0.4,0.4-0.6,0.6c-0.2,0.2-0.3,0.5-0.1,0.8h0c0.2,0.2,0.5,0.2,0.7,0.1
					c0.3-0.2,0.6-0.5,0.9-0.9c0.2-0.3,0.1-0.6-0.2-0.8l0,0C36.4,22.5,36.1,22.6,36,22.8z"/>
			</g>
			<g class="st9">
				
					<ellipse transform="matrix(0.9992 -4.120439e-02 4.120439e-02 0.9992 -0.9983 1.4166)" class="st4" cx="33.9" cy="24.9" rx="0.6" ry="0.5"/>
			</g>
		</g>
	</g>
</g>
<g id="Group_00000109030064419272841440000017292978592144246428_" class="st11">
	<g class="st12">
		<path class="st4" d="M19.3,27.9l0,7.3c0,0.6-0.5,1-1,1h-9c-0.5,0-1-0.4-1-1L7.9,28c0-0.5,0.4-1,0.9-1.1c3.2-0.3,6.4-0.3,9.5,0
			C18.9,27,19.3,27.4,19.3,27.9z"/>
	</g>
	<g class="st12">
		<path class="st5" d="M9.3,36.4h9c0.7,0,1.2-0.6,1.2-1.2l0-7.3c0-0.6-0.5-1.2-1.1-1.2c-3.2-0.3-6.4-0.3-9.6,0
			c-0.7,0.1-1.1,0.6-1.1,1.3L8,35.3C8.1,35.9,8.6,36.4,9.3,36.4z M13.5,26.9c1.6,0,3.2,0.1,4.8,0.3c0.4,0,0.7,0.4,0.7,0.8l0,7.3
			c0,0.4-0.4,0.8-0.8,0.8h-9c-0.4,0-0.8-0.3-0.8-0.8L8.1,28c0-0.4,0.3-0.8,0.7-0.9C10.4,26.9,12,26.9,13.5,26.9z"/>
	</g>
	<g class="st12">
		<g>
			<path class="st4" d="M7.6,34.4c2,1.4,6.2-0.8,6.2-0.8c3.3,1.6,6.4,1.3,6.4-1.6c0-0.7-0.2-1.4-0.5-2c0,0,0,0,0,0
				c-0.9-1.7-2.7-2.7-2.7-2.7s-3.4-1.2-6.1-0.5c-0.4,0.1-0.8,0.3-1.1,0.5C6.9,28.9,5.6,33,7.6,34.4z"/>
		</g>
		<g>
			<path class="st5" d="M9.3,35c1.9,0,4-1,4.5-1.2c1,0.5,2.1,0.8,3,0.9c1,0.1,1.9,0,2.5-0.4c0.7-0.5,1.1-1.3,1.1-2.3
				c0-1.3-0.6-2.5-1.7-3.6c-0.8-0.8-1.6-1.3-1.7-1.3c0,0,0,0,0,0c0,0-1.1-0.4-2.6-0.6c-1.4-0.2-3.3-0.2-4.9,0.6
				c-0.9,0.5-1.7,1.3-2.3,2.2c-0.6,0.9-0.9,1.9-0.9,2.8c0,1.1,0.3,2,1.1,2.5C8,34.9,8.7,35,9.3,35z M13.8,33.4
				C13.8,33.4,13.8,33.4,13.8,33.4c-0.1,0-4.2,2.1-6.1,0.8c-0.6-0.4-0.9-1.2-0.9-2.1c0.1-1.5,1.1-3.6,3-4.6c2.7-1.5,6.8-0.1,7.1,0
				c0.2,0.1,3.1,1.8,3.1,4.5c0,0.9-0.3,1.6-0.9,2C18,34.6,16,34.4,13.8,33.4C13.9,33.4,13.9,33.4,13.8,33.4z"/>
		</g>
		<g>
			<path class="st5" d="M13.9,33.4c-0.7-0.4-1.3-0.7-2-1.1c-0.7-0.3-1.4-0.7-2.1-0.9c0,0,0.1,0.3,0.1,0.3c0.1-0.1,0.1-0.3,0.2-0.4
				c0.4-0.6,1.2-0.6,1.9-0.4c0.4,0.1,0.8,0.2,1.2,0.3c1,0.2,2,0.4,3.1,0.4c0.4,0,0.7,0,1.1-0.1c0.1,0,0.1-0.1,0.1-0.2l-0.1-1.6
				c0,0,0,0,0,0c0,0,0,0,0,0l-0.3,1.6l0.2-0.2c-0.6,0.1-1.3,0-2,0c-0.7-0.1-1.3-0.2-2-0.4c-0.5-0.1-1-0.3-1.5-0.4
				c-0.8-0.2-1.6,0-2,0.6c-0.1,0.1-0.2,0.3-0.3,0.4c0,0,0,0,0,0.1c0,0.1,0,0.2,0.1,0.3c0.7,0.2,1.4,0.6,2.1,0.9c0.7,0.3,1.3,0.7,2,1
				C14,33.9,14.2,33.5,13.9,33.4L13.9,33.4z"/>
		</g>
		<g>
			<path class="st5" d="M9.7,31.4H9.5l0.2,0.2c0-0.1,0-0.2,0-0.3c0-0.2-0.1-0.8-0.1-1c0,0-0.1,0-0.1,0c0,0.2-0.1,0.8-0.1,1
				c0,0.1,0,0.2,0,0.3c0,0.1,0.1,0.2,0.2,0.2c0,0,0.3,0,0.3,0C10,31.8,10,31.4,9.7,31.4L9.7,31.4z"/>
		</g>
		<g>
			<path class="st5" d="M17.3,31.6C17.3,31.6,17.4,31.6,17.3,31.6c0.2,0,0.2-0.2,0.2-0.3c-0.1-0.4-0.4-0.7-0.7-0.9
				c-0.6-0.2-1.4-0.1-2.5,0.6c-0.1,0.1-0.1,0.2-0.1,0.3c0.1,0.1,0.2,0.1,0.3,0.1c1-0.5,1.7-0.7,2.1-0.5c0.2,0.1,0.4,0.3,0.5,0.6
				C17.1,31.6,17.2,31.6,17.3,31.6z"/>
		</g>
		<g>
			<path class="st5" d="M18.3,34.6c0.1,0,0.1,0,0.2-0.1c1-2.2-1-3.2-1-3.2c-0.1,0-0.2,0-0.2,0.1c0,0.1,0,0.2,0.1,0.2
				c0.1,0,1.7,0.9,0.8,2.8C18.1,34.5,18.2,34.6,18.3,34.6C18.3,34.6,18.3,34.6,18.3,34.6z"/>
		</g>
		<g>
			<path class="st5" d="M9.4,35c0.1,0,0.1,0,0.1-0.1c0.1-0.1,0-0.2,0-0.3c-0.4-0.3-0.6-0.6-0.6-1c-0.1-0.9,0.7-1.9,0.8-1.9
				c0.1-0.1,0.1-0.2,0-0.3c-0.1-0.1-0.2-0.1-0.3,0c0,0-1,1.1-0.8,2.2c0.1,0.5,0.3,0.9,0.7,1.2C9.3,35,9.3,35,9.4,35z"/>
		</g>
		<g>
			<path class="st5" d="M15.8,30.9C15.8,30.9,15.8,30.9,15.8,30.9c0.2,0,0.2-0.1,0.2-0.2L15.9,30c-0.1-0.3-0.3-0.5-0.6-0.5
				c-1.2-0.1-2.5-0.1-3.8,0c-0.3,0-0.6,0.3-0.6,0.6l0,0.5c0,0.1,0.1,0.2,0.2,0.2c0.1,0,0.2-0.1,0.2-0.2l0-0.5c0-0.1,0.1-0.2,0.2-0.2
				c1.3-0.1,2.5-0.1,3.7,0c0.1,0,0.2,0.1,0.2,0.2l0.1,0.6C15.6,30.8,15.7,30.9,15.8,30.9z"/>
		</g>
		<g>
			<path class="st5" d="M13.4,31.2c0.1,0,0.1,0,0.1-0.1l0.3-0.4c0,0,0-0.1,0-0.1v-0.9c0-0.1-0.1-0.2-0.2-0.2c-0.1,0-0.2,0.1-0.2,0.2
				v0.9L13.3,31c-0.1,0.1-0.1,0.2,0,0.3C13.4,31.2,13.4,31.2,13.4,31.2z"/>
		</g>
		<g>
			<path class="st5" d="M12.8,31.1c0.1,0,0.2-0.1,0.2-0.2c0,0,0-0.1,0-0.1c0-0.3-0.3-0.6-0.6-0.6c-0.2,0-0.5,0.1-0.5,0.4
				c0,0.1,0,0.2,0.1,0.2c0.1,0,0.2,0,0.2-0.1c0-0.1,0.1-0.1,0.2-0.1c0.1,0,0.2,0.1,0.2,0.2c0,0,0,0,0,0C12.6,31,12.6,31.1,12.8,31.1
				C12.8,31.1,12.8,31.1,12.8,31.1z"/>
		</g>
		<g class="st6">
			<path class="st5" d="M7.6,34.4c2,1.4,6.2-0.8,6.2-0.8c3.3,1.6,6.4,1.3,6.4-1.6c0-0.7-0.2-1.4-0.5-2c0,0,0,0,0,0
				c-0.3-0.4-0.5-0.7-0.5-0.7s0.7,2.1-0.4,3.3c-1.1,1.2-4.1,0.8-5.7-0.2c-1.5-1-2.8-0.6-2.8-0.6l0.9,0.3c0.1,1.3-2.4,0.9-2.4,0.9
				c-1.6-0.6-0.8-3.2,0.7-4.3c2.4,0.7,4.5,0.4,6.4-0.8l-5-1.1c-0.4,0.1-0.8,0.3-1.1,0.5C6.9,28.9,5.6,33,7.6,34.4z"/>
		</g>
		<g class="st6">
			<path class="st5" d="M12.1,29.7c0,0-0.2,0.7,1.2,1.3c0,0-2.3-0.7-2.7-0.3c-0.4,0.4-0.4,0.3-0.4,0.3s0-1.4,1.7-1.3"/>
		</g>
		<g class="st6">
			<path class="st5" d="M16.3,30.5c0,0,1-0.3,1.2-1.3c0,0,0,1.3-0.3,2C17.2,31.2,17.1,30.4,16.3,30.5z"/>
		</g>
	</g>
	<g class="st12">
		<g>
			<path class="st4" d="M19.3,24.4l0.9-0.3c0.5-0.1,0.8-0.6,0.9-1.1c0-0.2,0.1-0.4,0.1-0.6c0.1-0.5,0.1-1.1,0.1-1.5
				c0-0.4-0.2-0.8-0.6-1.1l-0.8-0.5l-0.2,2L19.3,24.4z"/>
		</g>
		<g class="st6">
			<path class="st5" d="M19.3,24.4l0.9-0.3c0.5-0.1,0.8-0.6,0.9-1.1c0-0.2,0.1-0.4,0.1-0.6c-0.3,0-0.8-0.1-0.9-0.7
				c0-0.3-0.3-0.4-0.7-0.4L19.3,24.4z"/>
		</g>
		<g>
			<path class="st5" d="M19.2,24.7C19.3,24.7,19.3,24.7,19.2,24.7l0.9-0.3c0.6-0.2,1-0.6,1.1-1.2c0.1-0.7,0.2-1.5,0.1-2.2
				c0-0.5-0.3-1-0.7-1.2l-0.8-0.5c-0.1-0.1-0.2,0-0.3,0.1c-0.1,0.1,0,0.2,0.1,0.3l0.8,0.5c0.3,0.2,0.5,0.5,0.5,0.9
				c0,0.6,0,1.4-0.1,2.1c-0.1,0.4-0.4,0.8-0.8,0.9l-0.9,0.3c-0.1,0-0.2,0.2-0.1,0.3C19.1,24.6,19.2,24.7,19.2,24.7z"/>
		</g>
		<g>
			<path class="st4" d="M5.2,21.1c0,0.3,0,0.7,0,1.1c0,0.3,0.1,0.7,0.1,1c0.1,0.5,0.4,0.9,0.9,1.1l0.9,0.3l-0.2-2.9l-0.2-2.2L5.8,20
				C5.4,20.2,5.2,20.6,5.2,21.1z"/>
		</g>
		<g class="st6">
			<path class="st5" d="M5.2,22.2c0,0.3,0.1,0.7,0.1,1c0.1,0.5,0.4,0.9,0.9,1.1l0.9,0.3l-0.2-2.9l-0.7,0C6.2,21.6,5.7,22.4,5.2,22.2
				z"/>
		</g>
		<g>
			<path class="st5" d="M7.1,24.7c0.1,0,0.2-0.1,0.2-0.1c0-0.1,0-0.2-0.1-0.3l-0.9-0.3c-0.4-0.1-0.7-0.5-0.8-0.9
				c-0.1-0.7-0.1-1.4-0.1-2.1c0-0.4,0.2-0.7,0.5-0.9l0.8-0.5c0.1-0.1,0.1-0.2,0.1-0.3c-0.1-0.1-0.2-0.1-0.3-0.1l-0.8,0.5
				C5.3,20.1,5,20.5,5,21.1c0,0.7,0,1.5,0.1,2.2c0.1,0.6,0.5,1.1,1.1,1.2L7.1,24.7C7,24.7,7,24.7,7.1,24.7z"/>
		</g>
		<g>
			<g>
				<circle class="st4" cx="13.2" cy="21.4" r="7.1"/>
			</g>
			<g class="st6">
				<path class="st5" d="M6.2,21.1C6,25,9,28.3,12.9,28.4c1.3,0.1,2.6-0.3,3.7-0.9c-0.5,0.1-1.1,0.1-1.6,0.1
					c-3.9-0.2-6.9-3.4-6.8-7.3c0.1-2.6,1.6-4.7,3.7-5.9C8.7,15.1,6.3,17.8,6.2,21.1z"/>
			</g>
			<g>
				<path class="st5" d="M19.9,23.7c-2,3.4-8.3,4.6-12.6,1.4c-1-1.7-1.3-3.4-0.9-5.3c2.4-4,9.7-5.1,13.5-0.9
					C20.4,20.5,20.4,22.1,19.9,23.7z"/>
			</g>
			<g class="st7">
				<path class="st8" d="M7.2,25.1c4.3,3.1,10.6,2,12.6-1.4c0.1-0.2,0.1-0.4,0.2-0.6c-1.4,1.6-3.4,2.6-5.7,2.5
					c-3.9-0.2-6.9-3.4-6.8-7.2c-0.5,0.4-1,1-1.3,1.5C5.9,21.7,6.2,23.4,7.2,25.1z"/>
			</g>
			<g>
				<path class="st5" d="M13.2,28.6c3.9,0,7.1-3.1,7.3-7c0.2-4-3-7.4-7-7.6c-4-0.2-7.4,3-7.6,7l0,0c-0.2,4,3,7.4,7,7.6
					C13,28.6,13.1,28.6,13.2,28.6z M13.2,14.5c0.1,0,0.2,0,0.3,0c3.8,0.2,6.7,3.4,6.6,7.1c-0.2,3.8-3.4,6.7-7.1,6.6
					c-3.8-0.2-6.7-3.4-6.6-7.1C6.5,17.4,9.6,14.5,13.2,14.5z"/>
			</g>
			<g>
				<path class="st5" d="M13,27.1c0.7,0,1.4-0.1,2.1-0.2c2.2-0.5,4-1.6,4.9-3.1c0.1-0.1,0-0.2-0.1-0.3c-0.1-0.1-0.2,0-0.3,0.1
					c-0.9,1.4-2.6,2.5-4.7,3c-2.7,0.6-5.6,0-7.7-1.6c-0.1-0.1-0.2,0-0.3,0c-0.1,0.1,0,0.2,0,0.3C8.8,26.5,10.9,27.1,13,27.1z"/>
			</g>
			<g>
				<path class="st5" d="M6.9,18.5c0,0,0.1,0,0.1-0.1c1.5-1.7,3.7-2.7,6.1-2.8c2.3-0.1,4.6,0.8,6,2.2c0.1,0.1,0.2,0.1,0.2,0
					c0.1-0.1,0.1-0.2,0-0.2c-1.4-1.5-3.8-2.3-6.2-2.3c-2.5,0.1-4.8,1.1-6.3,2.9c-0.1,0.1-0.1,0.2,0,0.2C6.8,18.4,6.8,18.5,6.9,18.5z
					"/>
			</g>
			<g class="st9">
				<path class="st4" d="M19,22.4c0.2-3.6-2.2-5.3-5.8-5.2c-0.2,0-0.3,0.3-0.1,0.3c2.2,1.1,4.3,3,5.5,5C18.8,22.7,19,22.6,19,22.4z"
					/>
			</g>
			<g class="st9">
				<path class="st4" d="M8.9,22.8c0.2,0.2,0.4,0.4,0.6,0.6c0.2,0.2,0.3,0.5,0.1,0.8h0c-0.2,0.2-0.5,0.2-0.7,0.1
					c-0.3-0.2-0.6-0.5-0.9-0.9c-0.2-0.3-0.1-0.6,0.2-0.8l0,0C8.5,22.5,8.8,22.6,8.9,22.8z"/>
			</g>
			<g class="st9">
				
					<ellipse transform="matrix(4.120439e-02 -0.9992 0.9992 4.120439e-02 -14.3191 34.9308)" class="st4" cx="11" cy="24.9" rx="0.5" ry="0.6"/>
			</g>
		</g>
	</g>
</g>
<g id="Group" class="st11">
	<g class="st12">
		<path class="st4" d="M15.7,27.7l0,8.1c0,0.6,0.5,1.1,1.1,1.1h10c0.6,0,1.1-0.5,1.1-1.1l0.4-8.1c0-0.6-0.4-1.1-1-1.2
			c-3.6-0.4-7.1-0.4-10.6,0C16.1,26.6,15.7,27.1,15.7,27.7z"/>
	</g>
	<g class="st12">
		<path class="st5" d="M26.8,37.2h-10c-0.8,0-1.4-0.6-1.4-1.4l0-8.1c0-0.7,0.5-1.3,1.2-1.4c3.6-0.4,7.2-0.4,10.7,0
			c0.7,0.1,1.3,0.7,1.2,1.4l-0.4,8.1C28.1,36.6,27.5,37.2,26.8,37.2z M22.1,26.5c-1.8,0-3.6,0.1-5.3,0.3c-0.5,0-0.8,0.4-0.8,0.9
			l0,8.1c0,0.5,0.4,0.9,0.9,0.9h10c0.5,0,0.9-0.4,0.9-0.9l0.4-8.1c0-0.5-0.3-0.9-0.8-0.9C25.5,26.6,23.8,26.5,22.1,26.5z"/>
	</g>
	<g class="st12">
		<g>
			<path class="st4" d="M28.6,34.9c-2.2,1.5-6.9-0.9-6.9-0.9c-3.6,1.8-7.2,1.5-7.2-1.8c0-0.8,0.2-1.6,0.6-2.2c0,0,0,0,0,0
				c1-1.9,3-3,3-3s3.7-1.4,6.8-0.5c0.4,0.1,0.9,0.3,1.3,0.5C29.5,28.8,30.8,33.4,28.6,34.9z"/>
		</g>
		<g>
			<path class="st5" d="M26.7,35.6c-2.1,0-4.4-1.1-5-1.4c-1.2,0.6-2.3,0.9-3.4,1c-1.1,0.1-2.1-0.1-2.8-0.5c-0.8-0.5-1.3-1.4-1.3-2.6
				c0-1.4,0.6-2.8,1.9-4c0.9-0.9,1.8-1.4,1.8-1.4c0,0,0,0,0,0c0.1,0,1.3-0.5,2.9-0.7c1.5-0.2,3.7-0.3,5.4,0.7c1,0.6,1.9,1.4,2.6,2.5
				c0.6,1,1,2.1,1,3.1c0.1,1.2-0.4,2.2-1.2,2.7C28.2,35.5,27.5,35.6,26.7,35.6z M21.7,33.7c0,0,0.1,0,0.1,0c0,0,4.6,2.3,6.7,0.9
				c0.7-0.5,1-1.3,1-2.3c-0.1-1.7-1.2-4-3.3-5.1c-3-1.7-7.6-0.1-7.9,0c-0.2,0.1-3.4,2-3.4,5c0,1,0.4,1.7,1.1,2.2
				c1.2,0.8,3.4,0.5,5.8-0.6C21.7,33.8,21.7,33.7,21.7,33.7z"/>
		</g>
		<g>
			<path class="st5" d="M21.6,33.8c0.7-0.4,1.5-0.8,2.2-1.2c0.8-0.4,1.5-0.7,2.4-1c0,0-0.2,0.3-0.2,0.3c-0.1-0.2-0.1-0.3-0.2-0.4
				c-0.5-0.7-1.3-0.7-2.1-0.5c-0.5,0.1-0.9,0.3-1.4,0.4c-1.1,0.3-2.2,0.4-3.4,0.5c-0.4,0-0.8,0-1.2-0.1c-0.1,0-0.2-0.1-0.2-0.2
				l0.1-1.8c0,0,0,0,0,0c0,0,0,0,0,0l0.3,1.7l-0.2-0.2c0.7,0.1,1.5,0,2.2-0.1c0.7-0.1,1.5-0.2,2.2-0.4c0.6-0.1,1.1-0.3,1.6-0.4
				c0.8-0.2,1.7,0,2.3,0.7c0.1,0.1,0.2,0.3,0.3,0.5c0,0,0,0.1,0,0.1c0,0.1,0,0.3-0.2,0.3c-0.8,0.3-1.5,0.6-2.3,1
				c-0.8,0.4-1.5,0.8-2.2,1.2C21.6,34.3,21.3,33.9,21.6,33.8L21.6,33.8z"/>
		</g>
		<g>
			<path class="st5" d="M26.3,31.6h0.3l-0.2,0.2c0-0.1,0-0.2,0-0.4c0-0.2,0.1-0.8,0.2-1.1c0,0,0.1,0,0.1,0c0,0.2,0.1,0.8,0.2,1.1
				c0,0.1,0,0.2,0,0.4c0,0.1-0.1,0.2-0.2,0.2c0,0-0.3,0-0.3,0C26,32,26,31.6,26.3,31.6L26.3,31.6z"/>
		</g>
		<g>
			<path class="st5" d="M17.8,31.8C17.8,31.8,17.8,31.8,17.8,31.8c-0.2,0-0.3-0.2-0.2-0.3c0.1-0.5,0.4-0.8,0.8-0.9
				c0.6-0.3,1.5-0.1,2.8,0.6c0.1,0.1,0.2,0.2,0.1,0.3c-0.1,0.1-0.2,0.2-0.3,0.1c-1.1-0.6-1.9-0.8-2.4-0.6c-0.2,0.1-0.4,0.3-0.5,0.7
				C18,31.8,17.9,31.8,17.8,31.8z"/>
		</g>
		<g>
			<path class="st5" d="M16.7,35.1c-0.1,0-0.1,0-0.2-0.1c-1.1-2.5,1.1-3.6,1.1-3.6c0.1,0,0.2,0,0.3,0.1c0,0.1,0,0.2-0.1,0.3
				c-0.1,0-1.9,1-0.9,3.1C17,35,16.9,35.1,16.7,35.1C16.8,35.1,16.8,35.1,16.7,35.1z"/>
		</g>
		<g>
			<path class="st5" d="M26.7,35.6c-0.1,0-0.1,0-0.2-0.1c-0.1-0.1,0-0.2,0-0.3c0.4-0.3,0.6-0.7,0.7-1.1c0.1-1-0.8-2.1-0.8-2.2
				c-0.1-0.1-0.1-0.2,0-0.3c0.1-0.1,0.2-0.1,0.3,0c0,0,1.1,1.2,0.9,2.5c-0.1,0.5-0.3,1-0.8,1.4C26.8,35.6,26.7,35.6,26.7,35.6z"/>
		</g>
		<g>
			<path class="st5" d="M19.6,31C19.5,31,19.5,31,19.6,31c-0.2,0-0.3-0.1-0.2-0.3l0.1-0.7c0.1-0.3,0.3-0.5,0.6-0.6
				c1.4-0.1,2.8-0.1,4.2,0c0.3,0,0.6,0.3,0.6,0.6l0,0.5c0,0.1-0.1,0.2-0.2,0.3c-0.1,0-0.2-0.1-0.3-0.2l0-0.5c0-0.1-0.1-0.2-0.2-0.2
				c-1.4-0.1-2.8-0.1-4.1,0c-0.1,0-0.2,0.1-0.2,0.2l-0.1,0.7C19.8,30.9,19.7,31,19.6,31z"/>
		</g>
		<g>
			<path class="st5" d="M22.2,31.4c-0.1,0-0.1,0-0.2-0.1l-0.3-0.4c0,0,0-0.1,0-0.1v-1c0-0.1,0.1-0.2,0.2-0.2c0.1,0,0.2,0.1,0.2,0.2
				v1l0.3,0.4c0.1,0.1,0.1,0.2,0,0.3C22.2,31.4,22.2,31.4,22.2,31.4z"/>
		</g>
		<g>
			<path class="st5" d="M22.9,31.2c-0.1,0-0.2-0.1-0.2-0.2c0,0,0-0.1,0-0.1c0-0.4,0.3-0.7,0.7-0.7c0.3,0,0.5,0.2,0.6,0.4
				c0,0.1,0,0.2-0.1,0.3c-0.1,0-0.2,0-0.3-0.1c0-0.1-0.1-0.2-0.2-0.2c-0.1,0-0.3,0.1-0.3,0.3c0,0,0,0,0,0
				C23.1,31.1,23,31.2,22.9,31.2C22.9,31.2,22.9,31.2,22.9,31.2z"/>
		</g>
		<g class="st6">
			<path class="st5" d="M28.6,34.9c-2.2,1.5-6.9-0.9-6.9-0.9c-3.6,1.8-7.2,1.5-7.2-1.8c0-0.8,0.2-1.6,0.6-2.2c0,0,0,0,0,0
				c0.3-0.5,0.6-0.8,0.6-0.8s-0.8,2.3,0.4,3.7c1.2,1.4,4.6,0.9,6.3-0.2c1.7-1.1,3.1-0.6,3.1-0.6l-1,0.3c-0.1,1.4,2.7,1,2.7,1
				c1.7-0.6,0.9-3.6-0.7-4.8c-2.7,0.8-5,0.5-7.1-0.9l5.5-1.2c0.4,0.1,0.9,0.3,1.3,0.5C29.5,28.8,30.8,33.4,28.6,34.9z"/>
		</g>
		<g class="st6">
			<path class="st5" d="M23.6,29.7c0,0,0.2,0.8-1.3,1.4c0,0,2.6-0.8,3-0.3c0.4,0.4,0.5,0.3,0.5,0.3s0-1.6-1.8-1.5"/>
		</g>
		<g class="st6">
			<path class="st5" d="M19,30.6c0,0-1.1-0.4-1.3-1.4c0,0,0,1.4,0.3,2.2C17.9,31.4,18.1,30.5,19,30.6z"/>
		</g>
	</g>
	<g class="st12">
		<g>
			<path class="st4" d="M15.7,23.8l-1-0.3c-0.5-0.2-0.9-0.6-1-1.2c0-0.2-0.1-0.4-0.1-0.7c-0.1-0.6-0.1-1.2-0.1-1.7
				c0-0.5,0.3-0.9,0.7-1.2l0.9-0.6l0.2,2.2L15.7,23.8z"/>
		</g>
		<g class="st6">
			<path class="st5" d="M15.7,23.8l-1-0.3c-0.5-0.2-0.9-0.6-1-1.2c0-0.2-0.1-0.4-0.1-0.7c0.3,0,0.9-0.2,0.9-0.8
				c0-0.3,0.4-0.5,0.8-0.4L15.7,23.8z"/>
		</g>
		<g>
			<path class="st5" d="M15.7,24.1C15.7,24.1,15.7,24.1,15.7,24.1l-1-0.3c-0.6-0.2-1.1-0.7-1.2-1.4c-0.1-0.8-0.2-1.7-0.2-2.4
				c0-0.6,0.3-1.1,0.8-1.4L15,18c0.1-0.1,0.3,0,0.3,0.1c0.1,0.1,0,0.3-0.1,0.3L14.4,19c-0.3,0.2-0.6,0.6-0.6,1c0,0.7,0,1.6,0.1,2.3
				c0.1,0.5,0.4,0.9,0.9,1l1,0.3c0.1,0,0.2,0.2,0.2,0.3C15.9,24,15.8,24.1,15.7,24.1z"/>
		</g>
		<g>
			<path class="st4" d="M31.3,20.1c0,0.4,0,0.8,0,1.2c0,0.4-0.1,0.8-0.1,1.1c-0.1,0.6-0.5,1-1,1.2l-1,0.3l0.3-3.2l0.2-2.4l0.9,0.6
				C31.1,19.2,31.3,19.6,31.3,20.1z"/>
		</g>
		<g class="st6">
			<path class="st5" d="M31.3,21.3c0,0.4-0.1,0.8-0.1,1.1c-0.1,0.6-0.5,1-1,1.2l-1,0.3l0.3-3.2l0.7,0C30.3,20.7,30.7,21.5,31.3,21.3
				z"/>
		</g>
		<g>
			<path class="st5" d="M29.2,24.2c-0.1,0-0.2-0.1-0.2-0.2c0-0.1,0-0.3,0.2-0.3l1-0.3c0.5-0.1,0.8-0.5,0.9-1
				c0.1-0.7,0.2-1.6,0.1-2.3c0-0.4-0.2-0.8-0.6-1l-0.9-0.6c-0.1-0.1-0.1-0.2-0.1-0.3c0.1-0.1,0.2-0.1,0.3-0.1l0.9,0.6
				c0.5,0.3,0.8,0.8,0.8,1.4c0,0.7,0,1.6-0.1,2.4c-0.1,0.6-0.6,1.2-1.2,1.4L29.2,24.2C29.3,24.2,29.3,24.2,29.2,24.2z"/>
		</g>
		<g>
			<g>
				<circle class="st4" cx="22.4" cy="20.4" r="7.8"/>
			</g>
			<g class="st6">
				<path class="st5" d="M30.2,20.1c0.2,4.3-3.2,8-7.5,8.2c-1.5,0.1-2.9-0.3-4.1-1c0.6,0.1,1.2,0.2,1.8,0.1c4.3-0.2,7.7-3.8,7.5-8.2
					c-0.1-2.8-1.7-5.3-4.1-6.6C27.4,13.4,30.1,16.4,30.2,20.1z"/>
			</g>
			<g>
				<path class="st5" d="M15,23c2.2,3.8,9.2,5.1,14.1,1.6c1.1-1.9,1.5-3.8,1-5.9c-2.7-4.4-10.7-5.6-15-1C14.4,19.4,14.4,21.2,15,23z
					"/>
			</g>
			<g class="st7">
				<path class="st8" d="M29.1,24.6C24.2,28.1,17.2,26.8,15,23c-0.1-0.2-0.2-0.5-0.2-0.7c1.5,1.8,3.8,2.9,6.3,2.8
					c4.3-0.2,7.6-3.8,7.5-8c0.6,0.5,1.1,1.1,1.5,1.7C30.5,20.8,30.2,22.7,29.1,24.6z"/>
			</g>
			<g>
				<path class="st5" d="M22.4,28.5c-4.3,0-7.9-3.4-8.1-7.7c-0.2-4.4,3.3-8.2,7.7-8.4c4.4-0.2,8.2,3.3,8.4,7.7l0,0
					c0.2,4.4-3.3,8.2-7.7,8.4C22.6,28.5,22.5,28.5,22.4,28.5z M22.4,12.8c-0.1,0-0.2,0-0.3,0c-4.2,0.2-7.5,3.7-7.3,7.9
					c0.2,4.2,3.7,7.5,7.9,7.3c4.2-0.2,7.5-3.7,7.3-7.9C29.8,16,26.5,12.8,22.4,12.8z"/>
			</g>
			<g>
				<path class="st5" d="M22.6,26.8c-0.8,0-1.6-0.1-2.3-0.2c-2.5-0.5-4.4-1.8-5.5-3.5c-0.1-0.1,0-0.2,0.1-0.3c0.1-0.1,0.2,0,0.3,0.1
					c1,1.6,2.8,2.8,5.2,3.3c3,0.6,6.2,0,8.6-1.7c0.1-0.1,0.2,0,0.3,0c0.1,0.1,0,0.2,0,0.3C27.3,26.1,25,26.8,22.6,26.8z"/>
			</g>
			<g>
				<path class="st5" d="M29.5,17.2c0,0-0.1,0-0.1-0.1c-1.7-1.9-4.1-3-6.8-3.1c-2.6-0.1-5.2,0.9-6.7,2.4c-0.1,0.1-0.2,0.1-0.3,0
					c-0.1-0.1-0.1-0.2,0-0.3c1.6-1.6,4.2-2.6,6.9-2.5c2.8,0.1,5.3,1.2,7.1,3.2c0.1,0.1,0.1,0.2,0,0.3C29.5,17.2,29.5,17.2,29.5,17.2
					z"/>
			</g>
			<g class="st9">
				<path class="st4" d="M15.9,21.6c-0.3-4,2.5-5.9,6.4-5.8c0.2,0,0.3,0.3,0.1,0.4c-2.4,1.2-4.8,3.4-6.1,5.5
					C16.2,21.9,16,21.8,15.9,21.6z"/>
			</g>
			<g class="st9">
				<path class="st4" d="M27.1,22c-0.2,0.3-0.4,0.5-0.7,0.7c-0.3,0.2-0.3,0.6-0.1,0.8v0c0.2,0.2,0.5,0.3,0.8,0.1
					c0.4-0.2,0.7-0.6,1-1c0.2-0.3,0.1-0.7-0.2-0.8l0,0C27.6,21.7,27.3,21.8,27.1,22z"/>
			</g>
			<g class="st9">
				
					<ellipse transform="matrix(0.9992 -4.120439e-02 4.120439e-02 0.9992 -0.9834 1.0435)" class="st4" cx="24.8" cy="24.4" rx="0.6" ry="0.5"/>
			</g>
		</g>
	</g>
</g>
<g id="Channel" class="st11">
	<g class="st12">
		<rect x="21" y="22.8" class="st13" width="2.2" height="5.4"/>
		<path class="st14" d="M23.3,28.5H21c-0.2,0-0.4-0.2-0.4-0.4v-5.4c0-0.2,0.2-0.4,0.4-0.4h2.2c0.2,0,0.4,0.2,0.4,0.4v5.4
			C23.6,28.3,23.5,28.5,23.3,28.5z M21.4,27.8h1.5v-4.6h-1.5V27.8z"/>
	</g>
	<g class="st15">
		<rect x="21.4" y="23.1" class="st4" width="0.3" height="4.6"/>
	</g>
	<g class="st12">
		<path class="st5" d="M17.3,13.2c0,0-4.1,6.3,4.3,11.4c0,0,6.7,4.1,10.9-1.6L17.3,13.2z"/>
		<path class="st14" d="M26.6,26.3c-0.5,0-0.9,0-1.3-0.1c-2.2-0.3-3.9-1.3-4-1.4c-2.9-1.8-4.7-3.9-5.2-6.3c-0.7-3.1,0.8-5.5,0.9-5.6
			c0.1-0.1,0.1-0.1,0.2-0.2c0.1,0,0.2,0,0.3,0l15.1,9.8c0.1,0.1,0.1,0.1,0.2,0.2c0,0.1,0,0.2-0.1,0.3C30.8,25.6,28.5,26.3,26.6,26.3
			z M17.4,13.7c-0.4,0.7-1.1,2.6-0.6,4.7c0.5,2.2,2.2,4.2,4.9,5.8c0,0,1.6,1,3.7,1.3c2.6,0.4,4.8-0.5,6.4-2.5L17.4,13.7z"/>
	</g>
	<g class="st16">
		<path class="st4" d="M26,25.5c-2.1-0.3-3.7-1.3-3.7-1.3c-2.4-1.4-3.9-3.1-4.6-5c0.2-0.3,0.2-0.8,0.1-1.4c-0.1-0.5-0.3-0.9-0.5-1.2
			c0-1.2,0.4-2.2,0.6-2.8l-0.4-0.3c-0.2,0.5-0.7,1.5-0.7,2.8c0,0.6,0,1.3,0.2,2c0.1,0.4,0.2,0.8,0.4,1.2c0.8,1.7,2.3,3.3,4.5,4.6
			c0,0,1.6,1,3.7,1.3c0.5,0.1,1,0.1,1.4,0.1C26.6,25.6,26.3,25.5,26,25.5z"/>
	</g>
	<g class="st12">
		<polygon class="st13" points="24.2,16.6 27.1,14.1 27.7,14.5 26.4,18.5 		"/>
		<path class="st14" d="M26.4,18.8c-0.1,0-0.2,0-0.2-0.1l-2.2-1.9c-0.1-0.1-0.1-0.2-0.1-0.3c0-0.1,0-0.2,0.1-0.3l2.9-2.5
			c0.1-0.1,0.3-0.1,0.4,0l0.6,0.4c0.1,0.1,0.2,0.3,0.1,0.4l-1.3,4C26.7,18.7,26.6,18.8,26.4,18.8C26.5,18.8,26.5,18.8,26.4,18.8z
			 M24.7,16.6l1.5,1.3l1-3.2l-0.2-0.1L24.7,16.6z"/>
	</g>
	<g class="st15">
		<polygon class="st4" points="27.2,14.7 27.2,14.8 27.3,14.6 27.1,14.5 24.7,16.6 24.9,16.7 		"/>
	</g>
	<g class="st12">
		<path class="st17" d="M33.7,22.9L33.7,22.9c-0.3,0.5-0.9,0.6-1.3,0.3l-15.7-9.5c-0.5-0.3-0.6-0.9-0.3-1.3l0,0
			c0.3-0.5,0.9-0.6,1.3-0.3l15.7,9.5C33.8,21.9,34,22.5,33.7,22.9z"/>
		<path class="st14" d="M32.9,23.7c-0.2,0-0.5-0.1-0.7-0.2L16.5,14c-0.6-0.4-0.8-1.2-0.4-1.8c0.4-0.6,1.2-0.8,1.8-0.4l15.7,9.5
			c0.3,0.2,0.5,0.5,0.6,0.8c0.1,0.3,0,0.7-0.2,1l0,0c-0.2,0.3-0.5,0.5-0.8,0.6C33.1,23.7,33,23.7,32.9,23.7z M17.2,12.3
			c-0.2,0-0.4,0.1-0.5,0.3c-0.2,0.3-0.1,0.6,0.2,0.8l15.7,9.5C32.7,23,32.9,23,33,23c0.2,0,0.3-0.1,0.4-0.3v0
			c0.1-0.1,0.1-0.3,0.1-0.5c0-0.2-0.1-0.3-0.3-0.4l-15.7-9.5C17.4,12.3,17.3,12.3,17.2,12.3z"/>
	</g>
	<g class="st18">
		<path class="st4" d="M16.8,13c0.1-0.2,0.3-0.3,0.5-0.3c0.1,0,0.2,0,0.3,0.1l15.7,9.5c0.1,0,0.1,0.1,0.2,0.2c0-0.2-0.1-0.5-0.3-0.6
			l-15.7-9.5c-0.1-0.1-0.2-0.1-0.3-0.1c-0.2,0-0.4,0.1-0.5,0.3c-0.1,0.2-0.1,0.5,0,0.6C16.7,13.2,16.7,13.1,16.8,13z"/>
	</g>
	<g class="st12">
		<circle class="st19" cx="27.8" cy="13.8" r="1.3"/>
		<path class="st14" d="M27.8,15.4c-0.3,0-0.6-0.1-0.9-0.2c-0.4-0.2-0.6-0.6-0.7-1c-0.1-0.4,0-0.9,0.2-1.2c0.2-0.4,0.6-0.6,1-0.7
			c0.4-0.1,0.9,0,1.2,0.2c0.4,0.2,0.6,0.6,0.7,1l0,0c0.1,0.4,0,0.9-0.2,1.2c-0.2,0.4-0.6,0.6-1,0.7C28.1,15.4,27.9,15.4,27.8,15.4z
			 M27.8,12.8c-0.1,0-0.2,0-0.2,0c-0.3,0.1-0.5,0.2-0.6,0.5c-0.1,0.2-0.2,0.5-0.1,0.8c0.1,0.3,0.2,0.5,0.5,0.6
			c0.2,0.1,0.5,0.2,0.8,0.1c0.3-0.1,0.5-0.2,0.6-0.5c0.1-0.2,0.2-0.5,0.1-0.8l0,0c-0.1-0.3-0.2-0.5-0.5-0.6
			C28.2,12.8,28,12.8,27.8,12.8z"/>
	</g>
	<g class="st15">
		<path class="st4" d="M27,14.3c-0.1-0.3,0-0.5,0.1-0.8c0.1-0.2,0.4-0.4,0.6-0.5c0.1,0,0.2,0,0.2,0c0.2,0,0.4,0.1,0.5,0.1
			c0.1,0,0.1,0.1,0.2,0.2c-0.1-0.2-0.2-0.4-0.4-0.5c-0.2-0.1-0.3-0.1-0.5-0.1c-0.1,0-0.2,0-0.2,0c-0.3,0.1-0.5,0.2-0.6,0.5
			c-0.1,0.2-0.2,0.5-0.1,0.8c0,0.2,0.1,0.3,0.3,0.5C27,14.4,27,14.4,27,14.3z"/>
	</g>
	<g class="st12">
		<path class="st17" d="M27.1,36h-9.9v-5.3c0-1.9,1.6-3.5,3.5-3.5h2.9c1.9,0,3.5,1.6,3.5,3.5V36z"/>
		<path class="st14" d="M27.1,36.4h-9.9c-0.2,0-0.4-0.2-0.4-0.4v-5.3c0-2.1,1.7-3.9,3.9-3.9h2.9c2.1,0,3.9,1.7,3.9,3.9V36
			C27.5,36.2,27.3,36.4,27.1,36.4z M17.6,35.7h9.1v-4.9c0-1.7-1.4-3.1-3.1-3.1h-2.9c-1.7,0-3.1,1.4-3.1,3.1V35.7z"/>
	</g>
	<g class="st20">
		<path class="st14" d="M24.8,27.7c0,0-0.5,5.5-7.4,6.2H27C27,33.8,27.9,28.4,24.8,27.7z"/>
	</g>
	<g class="st18">
		<path class="st4" d="M18,31c0-1.7,1.4-3.1,3.1-3.1H24c0.6,0,1.2,0.2,1.7,0.5c-0.6-0.5-1.3-0.8-2.1-0.8h-2.9
			c-1.7,0-3.1,1.4-3.1,3.1v4.9H18V31z"/>
	</g>
	<g class="st20">
		<path class="st14" d="M22.5,30.1c-0.7,0-1.4,0.6-1.4,1.4c0,0.7,0.6,1.4,1.4,1.4c0.7,0,1.4-0.6,1.4-1.4
			C23.8,30.7,23.2,30.1,22.5,30.1z"/>
	</g>
	<g class="st12">
		<circle class="st13" cx="22.2" cy="31.2" r="1.1"/>
		<path class="st14" d="M22.2,32.6c-0.7,0-1.4-0.6-1.4-1.4s0.6-1.4,1.4-1.4c0.7,0,1.4,0.6,1.4,1.4S22.9,32.6,22.2,32.6z M22.2,30.4
			c-0.5,0-0.8,0.4-0.8,0.8c0,0.5,0.4,0.8,0.8,0.8c0.5,0,0.8-0.4,0.8-0.8C23,30.8,22.6,30.4,22.2,30.4z"/>
	</g>
	<g class="st15">
		<path class="st4" d="M21.5,31.5c0-0.5,0.4-0.8,0.8-0.8c0.2,0,0.3,0.1,0.5,0.2c-0.2-0.2-0.4-0.4-0.7-0.4c-0.5,0-0.8,0.4-0.8,0.8
			c0,0.3,0.1,0.5,0.4,0.7C21.6,31.8,21.5,31.6,21.5,31.5z"/>
	</g>
	<g class="st12">
		<path class="st19" d="M29.6,36H14.7v-0.5c0-0.7,0.6-1.3,1.3-1.3h12.4c0.7,0,1.3,0.6,1.3,1.3V36z"/>
		<path class="st14" d="M29.6,36.3H14.7c-0.2,0-0.3-0.1-0.3-0.3v-0.5c0-0.9,0.7-1.6,1.6-1.6h12.4c0.9,0,1.6,0.7,1.6,1.6V36
			C29.9,36.1,29.8,36.3,29.6,36.3z M15,35.6h14.3v-0.2c0-0.5-0.4-1-1-1H16c-0.5,0-1,0.4-1,1V35.6z"/>
	</g>
	<g class="st18">
		<path class="st4" d="M15.3,35.6c0-0.5,0.4-1,1-1h12.4c0.1,0,0.3,0,0.4,0.1c-0.2-0.2-0.4-0.3-0.7-0.3H16c-0.5,0-1,0.4-1,1v0.2
			L15.3,35.6L15.3,35.6z"/>
	</g>
	<g class="st12">
		<path class="st5" d="M31.8,38.1H12.6v-0.6c0-1,0.8-1.7,1.7-1.7H30c1,0,1.7,0.8,1.7,1.7V38.1z"/>
		<path class="st14" d="M31.8,38.4H12.6c-0.2,0-0.4-0.2-0.4-0.4v-0.6c0-1.2,0.9-2.1,2.1-2.1H30c1.2,0,2.1,0.9,2.1,2.1v0.6
			C32.1,38.3,32,38.4,31.8,38.4z M12.9,37.7h18.5v-0.2c0-0.8-0.6-1.4-1.4-1.4H14.3c-0.8,0-1.4,0.6-1.4,1.4V37.7z"/>
	</g>
	<g class="st20">
		<path class="st14" d="M28.9,13.3c0,0-1,1.8-2.5,0.8c0,0,2.1,2.2,2.7,0.1C29.1,14.2,29.2,13.7,28.9,13.3z"/>
	</g>
	<g class="st20">
		<path class="st14" d="M27,15.1c0,0-0.5,1.5-2,1.3l1.5,1.1l0.8-2.4L27,15.1z"/>
	</g>
	<g class="st20">
		<path class="st14" d="M26.4,23.3c-1.2,0.5-3.2,0.8-6.2-0.3c0.4,0.3,0.8,0.6,1.3,0.8c0,0,1.6,1,3.7,1.3c2.6,0.4,4.7-0.4,6.3-2.3
			L30.3,22l-12.6-7.7l-0.6,0c0,0,0,0,0,0l9.5,7.2C27.3,22.1,27.1,23,26.4,23.3z"/>
	</g>
	<g class="st20">
		<path class="st14" d="M33.5,22.3c0,0-16.5-8.1-17-9.3l0,0.7l16,9.7C32.6,23.3,34.1,23.2,33.5,22.3z"/>
	</g>
	<g class="st20">
		<path class="st14" d="M20.9,25c0,0,1.1,1.2,2.6,1l-0.1-0.8l-2.3-0.8L20.9,25z"/>
	</g>
	<g class="st20">
		<path class="st14" d="M22.9,30.7c0,0-0.2,1.4-1.6,1.2c0,0,1.3,0.9,2-0.2C23.2,31.7,23.4,30.8,22.9,30.7z"/>
	</g>
	<g class="st20">
		<path class="st14" d="M29.1,34.6c0,0-6,0.6-14.4,0.8l0,0.2l14.8,0.1C29.5,35.6,30,35.1,29.1,34.6z"/>
	</g>
	<g class="st20">
		<path class="st14" d="M30.8,35.9c0,0-0.4,1.9-18.3,1.6l0.1,0.4L31.6,38C31.6,38,32,36.6,30.8,35.9z"/>
	</g>
	<g class="st15">
		<path class="st4" d="M30,36.1H18.6h-2h-2.4c-0.8,0-1.4,0.6-1.4,1.4v0.2h0.4v0c0-0.8,0.6-1.4,1.4-1.4h2c0,0.3,0.3,0.5,0.6,0.5h0.8
			c0.3,0,0.5-0.2,0.6-0.5h11.8c0.1,0,0.3,0,0.4,0.1C30.6,36.2,30.3,36.1,30,36.1z"/>
	</g>
	<g class="st21">
		<path class="st4" d="M21.8,21.3l-2-1.6c-0.3-0.3-0.4-0.7-0.1-1l0,0c0.3-0.3,0.7-0.4,1-0.1l2,1.6c0.3,0.3,0.4,0.7,0.1,1v0
			C22.6,21.5,22.1,21.5,21.8,21.3z"/>
	</g>
</g>
</svg>
